<svg width="61" height="60" viewBox="0 0 61 60" fill="none" xmlns="http://www.w3.org/2000/svg">
<rect x="0.25" width="60" height="60" rx="20" fill="#E3ECF8"/>
<path fill-rule="evenodd" clip-rule="evenodd" d="M18.3003 18.0503C16.25 20.1005 16.25 23.4003 16.25 30C16.25 36.5997 16.25 39.8995 18.3003 41.9497C20.3505 44 23.6503 44 30.25 44C36.8497 44 40.1495 44 42.1997 41.9497C44.25 39.8995 44.25 36.5997 44.25 30C44.25 23.4003 44.25 20.1005 42.1997 18.0503C40.1495 16 36.8497 16 30.25 16C23.6503 16 20.3505 16 18.3003 18.0503ZM32.7 27.2C32.7 27.7799 33.1701 28.25 33.75 28.25H34.7151L31.8975 31.0676C31.7608 31.2043 31.5392 31.2043 31.4025 31.0676L29.1824 28.8475C28.2256 27.8907 26.6744 27.8907 25.7176 28.8475L22.5075 32.0575C22.0975 32.4676 22.0975 33.1324 22.5075 33.5425C22.9176 33.9525 23.5824 33.9525 23.9925 33.5425L27.2025 30.3324C27.3392 30.1957 27.5608 30.1957 27.6975 30.3324L29.9176 32.5525C30.8744 33.5093 32.4256 33.5093 33.3824 32.5525L36.2 29.7349V30.7C36.2 31.2799 36.6701 31.75 37.25 31.75C37.8299 31.75 38.3 31.2799 38.3 30.7V27.2C38.3 26.6201 37.8299 26.15 37.25 26.15H33.75C33.1701 26.15 32.7 26.6201 32.7 27.2Z" fill="#4589FF"/>
</svg>
