<svg width="25" height="25" viewBox="0 0 25 25" fill="none" xmlns="http://www.w3.org/2000/svg">
<path d="M17.2229 21.7502C18.1016 20.8715 18.1016 19.4573 18.1016 16.6289L18.1016 13.2884C16.6249 12.7868 14.6434 12.3787 12.1016 12.3787C9.55968 12.3787 7.57823 12.7868 6.10156 13.2884V16.6289C6.10156 19.4573 6.10156 20.8715 6.98024 21.7502C7.85892 22.6289 9.27314 22.6289 12.1016 22.6289C14.93 22.6289 16.3442 22.6289 17.2229 21.7502Z" fill="#4589FF"/>
<path d="M16.1016 6.62891H8.10156C5.27314 6.62891 3.85892 6.62891 2.98024 7.50759C2.10156 8.38627 2.10156 9.80048 2.10156 12.6289C2.10156 15.4573 2.10156 16.8715 2.98024 17.7502C3.47261 18.2426 4.13313 18.4591 5.1164 18.5542C5.10153 17.9951 5.10154 17.377 5.10156 16.6995L5.10156 13.6713C5.0359 13.6995 4.97164 13.7277 4.90876 13.756C4.53089 13.9256 4.08702 13.7568 3.91736 13.379C3.7477 13.0011 3.91649 12.5572 4.29436 12.3876C6.01612 11.6145 8.58206 10.8787 12.1016 10.8787C15.6211 10.8787 18.187 11.6145 19.9088 12.3876C20.2866 12.5572 20.4554 13.0011 20.2858 13.379C20.1161 13.7568 19.6722 13.9256 19.2944 13.756C19.2315 13.7277 19.1672 13.6995 19.1016 13.6713L19.1016 16.6995C19.1016 17.3769 19.1016 17.9951 19.0867 18.5542C20.07 18.4591 20.7305 18.2426 21.2229 17.7502C22.1016 16.8715 22.1016 15.4573 22.1016 12.6289C22.1016 9.80048 22.1016 8.38627 21.2229 7.50759C20.3442 6.62891 18.93 6.62891 16.1016 6.62891Z" fill="#4589FF"/>
<path d="M17.2224 3.50759C16.3438 2.62891 14.9295 2.62891 12.1011 2.62891C9.27268 2.62891 7.85847 2.62891 6.97979 3.50759C6.48742 3.99995 6.27095 4.66047 6.17578 5.64375C6.73502 5.62887 7.35317 5.62889 8.03077 5.62891H16.1719C16.8493 5.62889 17.4673 5.62887 18.0264 5.64374C17.9313 4.66047 17.7148 3.99995 17.2224 3.50759Z" fill="#4589FF"/>
</svg>
