<svg width="61" height="60" viewBox="0 0 61 60" fill="none" xmlns="http://www.w3.org/2000/svg">
<rect x="0.25" width="60" height="60" rx="20" fill="#E3ECF8"/>
<path fill-rule="evenodd" clip-rule="evenodd" d="M30.25 26.5C32.9562 26.5 35.15 24.1495 35.15 21.25C35.15 18.3505 32.9562 16 30.25 16C27.5438 16 25.35 18.3505 25.35 21.25C25.35 24.1495 27.5438 26.5 30.25 26.5ZM30.25 40C34.8892 40 38.65 37.6495 38.65 34.75C38.65 31.8505 34.8892 29.5 30.25 29.5C25.6108 29.5 21.85 31.8505 21.85 34.75C21.85 37.6495 25.6108 40 30.25 40ZM23.4209 17.5C23.6693 17.5 23.9119 17.5261 24.1461 17.5758C23.5755 18.6617 23.25 19.9151 23.25 21.25C23.25 22.5524 23.5598 23.7772 24.1048 24.8445C23.8834 24.8887 23.6548 24.9119 23.4209 24.9119C21.4407 24.9119 19.8354 23.2527 19.8354 21.2059C19.8354 19.1592 21.4407 17.5 23.4209 17.5ZM21.0763 38.4789C20.2812 37.4606 19.75 36.211 19.75 34.75C19.75 33.3336 20.2492 32.116 21.0041 31.1151C18.3375 31.3367 16.25 32.8993 16.25 34.7941C16.25 36.7066 18.3742 38.2808 21.0763 38.4789ZM36.395 24.8445C36.94 23.7772 37.2499 22.5524 37.2499 21.25C37.2499 19.9151 36.9244 18.6617 36.3538 17.5758C36.588 17.5261 36.8306 17.5 37.079 17.5C39.0592 17.5 40.6644 19.1592 40.6644 21.2059C40.6644 23.2527 39.0592 24.9119 37.079 24.9119C36.8451 24.9119 36.6165 24.8887 36.395 24.8445ZM44.2499 34.7941C44.2499 36.7066 42.1257 38.2808 39.4236 38.4789C40.2187 37.4606 40.7499 36.211 40.7499 34.75C40.7499 33.3336 40.2507 32.116 39.4958 31.1151C42.1623 31.3367 44.2499 32.8993 44.2499 34.7941Z" fill="#4589FF"/>
</svg>
