<svg width="61" height="60" viewBox="0 0 61 60" fill="none" xmlns="http://www.w3.org/2000/svg">
<rect x="0.917969" width="60" height="60" rx="20" fill="#E3ECF8"/>
<path fill-rule="evenodd" clip-rule="evenodd" d="M30.918 44C38.65 44 44.918 37.732 44.918 30C44.918 22.268 38.65 16 30.918 16C23.186 16 16.918 22.268 16.918 30C16.918 37.732 23.186 44 30.918 44ZM31.968 21.6C31.968 21.0201 31.4979 20.55 30.918 20.55C30.3381 20.55 29.868 21.0201 29.868 21.6V22.0434C27.5854 22.4521 25.668 24.1671 25.668 26.5C25.668 29.184 28.2059 31.05 30.918 31.05C32.845 31.05 34.068 32.318 34.068 33.5C34.068 34.682 32.845 35.95 30.918 35.95C28.9909 35.95 27.768 34.682 27.768 33.5C27.768 32.9201 27.2979 32.45 26.718 32.45C26.1381 32.45 25.668 32.9201 25.668 33.5C25.668 35.8329 27.5854 37.5479 29.868 37.9566V38.4C29.868 38.9799 30.3381 39.45 30.918 39.45C31.4979 39.45 31.968 38.9799 31.968 38.4V37.9566C34.2506 37.5479 36.168 35.8329 36.168 33.5C36.168 30.816 33.6301 28.95 30.918 28.95C28.9909 28.95 27.768 27.682 27.768 26.5C27.768 25.318 28.9909 24.05 30.918 24.05C32.845 24.05 34.068 25.318 34.068 26.5C34.068 27.0799 34.5381 27.55 35.118 27.55C35.6979 27.55 36.168 27.0799 36.168 26.5C36.168 24.1671 34.2506 22.4521 31.968 22.0434V21.6Z" fill="#4589FF"/>
</svg>
