<svg xmlns="http://www.w3.org/2000/svg" width="20" height="21" viewBox="0 0 20 21" fill="none">
  <path d="M10 5.40116C10.3853 5.40116 10.6977 5.71352 10.6977 6.09884V11.6802C10.6977 12.0655 10.3853 12.3779 10 12.3779C9.61469 12.3779 9.30233 12.0655 9.30233 11.6802V6.09884C9.30233 5.71352 9.61469 5.40116 10 5.40116Z" fill="white"/>
  <path d="M10 15.4012C10.5138 15.4012 10.9302 14.9847 10.9302 14.4709C10.9302 13.9572 10.5138 13.5407 10 13.5407C9.48625 13.5407 9.06977 13.9572 9.06977 14.4709C9.06977 14.9847 9.48625 15.4012 10 15.4012Z" fill="white"/>
  <path fill-rule="evenodd" clip-rule="evenodd" d="M0 10.75C0 5.22715 4.47715 0.75 10 0.75C15.5228 0.75 20 5.22715 20 10.75C20 16.2728 15.5228 20.75 10 20.75C4.47715 20.75 0 16.2728 0 10.75ZM10 2.14535C5.24778 2.14535 1.39535 5.99778 1.39535 10.75C1.39535 15.5022 5.24778 19.3547 10 19.3547C14.7522 19.3547 18.6047 15.5022 18.6047 10.75C18.6047 5.99778 14.7522 2.14535 10 2.14535Z" fill="white"/>
</svg>