<svg xmlns="http://www.w3.org/2000/svg" width="20" height="21" viewBox="0 0 20 21" fill="none">
  <path d="M10 5.87821C10.3853 5.87821 10.6977 6.2226 10.6977 6.64744V11.7756C10.6977 12.2005 10.3853 12.5449 10 12.5449C9.61469 12.5449 9.30233 12.2005 9.30233 11.7756V6.64744C9.30233 6.2226 9.61469 5.87821 10 5.87821Z" fill="white"/>
  <path d="M10 15.8782C10.5138 15.8782 10.9302 15.419 10.9302 14.8526C10.9302 14.2861 10.5138 13.8269 10 13.8269C9.48625 13.8269 9.06977 14.2861 9.06977 14.8526C9.06977 15.419 9.48625 15.8782 10 15.8782Z" fill="white"/>
  <path fill-rule="evenodd" clip-rule="evenodd" d="M6.55295 3.03352C7.55007 1.63711 8.60636 0.75 10 0.75C11.3936 0.75 12.4499 1.6371 13.4471 3.03352C14.4277 4.40686 15.4669 6.43843 16.7966 9.03773L17.2017 9.82966C18.3008 11.9783 19.169 13.6754 19.625 15.0376C20.091 16.4296 20.2017 17.6935 19.4968 18.8084C18.8127 19.8903 17.6713 20.3329 16.2318 20.5419C14.7978 20.75 12.8693 20.75 10.3952 20.75H9.60484C7.13073 20.75 5.20223 20.75 3.76821 20.5419C2.32866 20.3329 1.18732 19.8903 0.503247 18.8084C-0.201694 17.6935 -0.0909926 16.4296 0.37501 15.0376C0.831013 13.6754 1.69915 11.9784 2.79831 9.82969L3.20337 9.03786C4.53303 6.43851 5.57228 4.40689 6.55295 3.03352ZM7.64929 3.9852C6.74323 5.25408 5.7554 7.18064 4.38601 9.85763L4.04772 10.5189C2.90704 12.7488 2.09645 14.3384 1.68404 15.5703C1.27693 16.7864 1.33338 17.4311 1.64789 17.9286C1.98328 18.459 2.61278 18.8224 3.95032 19.0166C5.28241 19.2099 7.11871 19.2115 9.66171 19.2115H10.3383C12.8813 19.2115 14.7176 19.2099 16.0497 19.0166C17.3872 18.8224 18.0167 18.459 18.3521 17.9286C18.6666 17.4311 18.7231 16.7864 18.316 15.5703C17.9035 14.3384 17.093 12.7488 15.9523 10.5189L15.614 9.85762C14.2446 7.18064 13.2568 5.25408 12.3507 3.98519C11.4531 2.72811 10.7559 2.28846 10 2.28846C9.2441 2.28846 8.54693 2.72811 7.64929 3.9852Z" fill="white"/>
</svg>