<svg xmlns="http://www.w3.org/2000/svg" width="20" height="21" viewBox="0 0 20 21" fill="none">
  <path d="M10 5.37821C10.3853 5.37821 10.6977 5.7226 10.6977 6.14744V11.2756C10.6977 11.7005 10.3853 12.0449 10 12.0449C9.61469 12.0449 9.30233 11.7005 9.30233 11.2756V6.14744C9.30233 5.7226 9.61469 5.37821 10 5.37821Z" fill="white"/>
  <path d="M10 15.3782C10.5138 15.3782 10.9302 14.919 10.9302 14.3526C10.9302 13.7861 10.5138 13.3269 10 13.3269C9.48625 13.3269 9.06977 13.7861 9.06977 14.3526C9.06977 14.919 9.48625 15.3782 10 15.3782Z" fill="white"/>
  <path fill-rule="evenodd" clip-rule="evenodd" d="M6.55295 2.53352C7.55007 1.13711 8.60636 0.25 10 0.25C11.3936 0.25 12.4499 1.1371 13.4471 2.53352C14.4277 3.90686 15.4669 5.93843 16.7966 8.53773L17.2017 9.32966C18.3008 11.4783 19.169 13.1754 19.625 14.5376C20.091 15.9296 20.2017 17.1935 19.4968 18.3084C18.8127 19.3903 17.6713 19.8329 16.2318 20.0419C14.7978 20.25 12.8693 20.25 10.3952 20.25H9.60484C7.13073 20.25 5.20223 20.25 3.76821 20.0419C2.32866 19.8329 1.18732 19.3903 0.503247 18.3084C-0.201694 17.1935 -0.0909926 15.9296 0.37501 14.5376C0.831013 13.1754 1.69915 11.4784 2.79831 9.32969L3.20337 8.53786C4.53303 5.93851 5.57228 3.90689 6.55295 2.53352ZM7.64929 3.4852C6.74323 4.75408 5.7554 6.68064 4.38601 9.35763L4.04772 10.0189C2.90704 12.2488 2.09645 13.8384 1.68404 15.0703C1.27693 16.2864 1.33338 16.9311 1.64789 17.4286C1.98328 17.959 2.61278 18.3224 3.95032 18.5166C5.28241 18.7099 7.11871 18.7115 9.66171 18.7115H10.3383C12.8813 18.7115 14.7176 18.7099 16.0497 18.5166C17.3872 18.3224 18.0167 17.959 18.3521 17.4286C18.6666 16.9311 18.7231 16.2864 18.316 15.0703C17.9035 13.8384 17.093 12.2488 15.9523 10.0189L15.614 9.35762C14.2446 6.68064 13.2568 4.75408 12.3507 3.48519C11.4531 2.22811 10.7559 1.78846 10 1.78846C9.2441 1.78846 8.54693 2.22811 7.64929 3.4852Z" fill="white"/>
</svg>