<svg xmlns="http://www.w3.org/2000/svg" width="20" height="21" viewBox="0 0 20 21" fill="none">
  <path d="M13.7491 8.41775C14.0216 8.14529 14.0216 7.70355 13.7491 7.43109C13.4767 7.15863 13.0349 7.15863 12.7625 7.43109L8.60465 11.5889L7.23752 10.2218C6.96506 9.94933 6.52331 9.94933 6.25086 10.2218C5.9784 10.4942 5.9784 10.936 6.25086 11.2084L8.11132 13.0689C8.38378 13.3414 8.82552 13.3414 9.09798 13.0689L13.7491 8.41775Z" fill="white"/>
  <path fill-rule="evenodd" clip-rule="evenodd" d="M10 0.25C4.47715 0.25 0 4.72715 0 10.25C0 15.7728 4.47715 20.25 10 20.25C15.5228 20.25 20 15.7728 20 10.25C20 4.72715 15.5228 0.25 10 0.25ZM1.39535 10.25C1.39535 5.49778 5.24778 1.64535 10 1.64535C14.7522 1.64535 18.6047 5.49778 18.6047 10.25C18.6047 15.0022 14.7522 18.8547 10 18.8547C5.24778 18.8547 1.39535 15.0022 1.39535 10.25Z" fill="white"/>
</svg>