<svg xmlns="http://www.w3.org/2000/svg" width="25" height="24" viewBox="0 0 25 24" fill="none">
  <path fill-rule="evenodd" clip-rule="evenodd" d="M10.8094 2.25002H14.1908C14.4072 2.24988 14.5957 2.24976 14.7737 2.27819C15.477 2.39049 16.0856 2.82915 16.4146 3.46084C16.4978 3.62073 16.5573 3.79961 16.6256 4.00494L16.7373 4.33984C16.7562 4.39653 16.7616 4.41258 16.7661 4.42522C16.9413 4.90933 17.3953 5.23659 17.9099 5.24964C17.9235 5.24998 17.94 5.25004 18.0001 5.25004H21.0001C21.4143 5.25004 21.7501 5.58582 21.7501 6.00004C21.7501 6.41425 21.4143 6.75004 21.0001 6.75004H4C3.58579 6.75004 3.25 6.41425 3.25 6.00004C3.25 5.58582 3.58579 5.25004 4 5.25004H7.00008C7.06013 5.25004 7.0767 5.24998 7.09023 5.24964C7.60488 5.23659 8.05891 4.90936 8.23402 4.42524C8.23863 4.41251 8.24392 4.39681 8.26291 4.33984L8.37452 4.00496C8.44281 3.79964 8.50233 3.62073 8.58559 3.46084C8.91453 2.82915 9.52313 2.39049 10.2264 2.27819C10.4044 2.24976 10.593 2.24988 10.8094 2.25002ZM9.50815 5.25004C9.55966 5.14902 9.60531 5.04404 9.64458 4.93548C9.6565 4.90251 9.6682 4.86742 9.68322 4.82234L9.78302 4.52292C9.87419 4.24941 9.89519 4.19363 9.91601 4.15364C10.0257 3.94307 10.2285 3.79686 10.463 3.75942C10.5075 3.75231 10.567 3.75004 10.8553 3.75004H14.1448C14.4331 3.75004 14.4927 3.75231 14.5372 3.75942C14.7716 3.79686 14.9745 3.94307 15.0842 4.15364C15.105 4.19363 15.126 4.2494 15.2171 4.52292L15.3169 4.82216L15.3556 4.9355C15.3949 5.04405 15.4405 5.14902 15.492 5.25004H9.50815Z" fill="#DA1E28"/>
  <path d="M6.41509 8.45015C6.38754 8.03685 6.03016 7.72415 5.61686 7.7517C5.20357 7.77925 4.89086 8.13663 4.91841 8.54993L5.38186 15.5017C5.46736 16.7844 5.53642 17.8205 5.69839 18.6336C5.86679 19.4789 6.15321 20.185 6.7448 20.7385C7.3364 21.2919 8.05995 21.5308 8.9146 21.6425C9.73662 21.7501 10.775 21.7501 12.0606 21.75H12.9395C14.2251 21.7501 15.2635 21.7501 16.0856 21.6425C16.9402 21.5308 17.6638 21.2919 18.2554 20.7385C18.847 20.185 19.1334 19.4789 19.3018 18.6336C19.4638 17.8206 19.5328 16.7844 19.6183 15.5017L20.0818 8.54993C20.1093 8.13663 19.7966 7.77925 19.3833 7.7517C18.97 7.72415 18.6126 8.03685 18.5851 8.45015L18.1251 15.3493C18.0353 16.6971 17.9713 17.6349 17.8307 18.3406C17.6943 19.025 17.504 19.3873 17.2306 19.6431C16.9572 19.8989 16.583 20.0647 15.891 20.1552C15.1776 20.2485 14.2376 20.25 12.8868 20.25H12.1134C10.7626 20.25 9.82255 20.2485 9.10915 20.1552C8.41715 20.0647 8.04299 19.8989 7.76958 19.6431C7.49617 19.3873 7.30583 19.025 7.16948 18.3406C7.02892 17.6349 6.96489 16.6971 6.87503 15.3493L6.41509 8.45015Z" fill="#DA1E28"/>
  <path d="M9.92546 10.2538C10.3376 10.2125 10.7052 10.5133 10.7464 10.9254L11.2464 15.9254C11.2876 16.3376 10.9869 16.7051 10.5747 16.7463C10.1626 16.7875 9.79503 16.4868 9.75381 16.0747L9.25381 11.0747C9.2126 10.6625 9.51331 10.295 9.92546 10.2538Z" fill="#DA1E28"/>
  <path d="M15.0747 10.2538C15.4869 10.295 15.7876 10.6625 15.7464 11.0747L15.2464 16.0747C15.2052 16.4868 14.8376 16.7875 14.4255 16.7463C14.0133 16.7051 13.7126 16.3376 13.7538 15.9254L14.2538 10.9254C14.295 10.5133 14.6626 10.2125 15.0747 10.2538Z" fill="#DA1E28"/>
</svg>  