<svg xmlns="http://www.w3.org/2000/svg" width="25" height="24" viewBox="0 0 25 24" fill="none">
  <path d="M12.5 1.25H12.4426C10.1342 1.24999 8.32519 1.24998 6.91371 1.43975C5.46897 1.63399 4.32895 2.03933 3.43414 2.93414C2.53933 3.82895 2.13399 4.96897 1.93975 6.41371C1.74998 7.82519 1.74999 9.63423 1.75 11.9426V12.0574C1.74999 14.3658 1.74998 16.1748 1.93975 17.5863C2.13399 19.031 2.53933 20.1711 3.43414 21.0659C4.32895 21.9607 5.46897 22.366 6.91371 22.5603C8.32519 22.75 10.1342 22.75 12.4426 22.75H12.5574C14.8658 22.75 16.6748 22.75 18.0863 22.5603C19.531 22.366 20.6711 21.9607 21.5659 21.0659C22.4607 20.1711 22.866 19.031 23.0603 17.5863C23.25 16.1748 23.25 14.3658 23.25 12.0574V12C23.25 11.5858 22.9142 11.25 22.5 11.25C22.0858 11.25 21.75 11.5858 21.75 12C21.75 14.3782 21.7484 16.0864 21.5736 17.3864C21.4018 18.6648 21.0749 19.4355 20.5052 20.0052C19.9355 20.5749 19.1648 20.9018 17.8864 21.0736C16.5864 21.2484 14.8782 21.25 12.5 21.25C10.1218 21.25 8.41356 21.2484 7.11358 21.0736C5.83517 20.9018 5.06445 20.5749 4.4948 20.0052C3.92514 19.4355 3.59825 18.6648 3.42637 17.3864C3.25159 16.0864 3.25 14.3782 3.25 12C3.25 9.62178 3.25159 7.91356 3.42637 6.61358C3.59825 5.33517 3.92514 4.56445 4.4948 3.9948C5.06445 3.42514 5.83517 3.09825 7.11358 2.92637C8.41356 2.75159 10.1218 2.75 12.5 2.75C12.9142 2.75 13.25 2.41421 13.25 2C13.25 1.58579 12.9142 1.25 12.5 1.25Z" fill="#4D4D4D"/>
  <path d="M22.0303 3.53033C22.3232 3.23744 22.3232 2.76256 22.0303 2.46967C21.7374 2.17678 21.2626 2.17678 20.9697 2.46967L13.25 10.1893V6.65625C13.25 6.24204 12.9142 5.90625 12.5 5.90625C12.0858 5.90625 11.75 6.24204 11.75 6.65625V12C11.75 12.4142 12.0858 12.75 12.5 12.75H17.8438C18.258 12.75 18.5938 12.4142 18.5938 12C18.5938 11.5858 18.258 11.25 17.8438 11.25H14.3107L22.0303 3.53033Z" fill="#4D4D4D"/>
</svg>