<svg width="25" height="24" viewBox="0 0 25 24" fill="none" xmlns="http://www.w3.org/2000/svg">
<path d="M12.0703 22C17.5932 22 22.0703 17.5228 22.0703 12C22.0703 6.47715 17.5932 2 12.0703 2C6.54747 2 2.07031 6.47715 2.07031 12C2.07031 13.5997 2.44593 15.1116 3.11378 16.4525C3.29125 16.8088 3.35032 17.2161 3.24743 17.6006L2.65183 19.8267C2.39327 20.793 3.27733 21.677 4.24366 21.4185L6.4697 20.8229C6.85425 20.72 7.26152 20.7791 7.61784 20.9565C8.95868 21.6244 10.4706 22 12.0703 22Z" stroke="#438FF7" stroke-width="1.5"/>
<path d="M9.07031 12.08L11.0703 14L15.0703 10" stroke="#438FF7" stroke-width="1.5" stroke-linecap="round" stroke-linejoin="round"/>
</svg>
