<svg width="24" height="24" viewBox="0 0 24 25" fill="none" xmlns="http://www.w3.org/2000/svg">
<path fill-rule="evenodd" clip-rule="evenodd" d="M7.6087 1.5C5.61567 1.5 4 3.11567 4 5.1087V20.4412C4 22.1305 5.36948 23.5 7.05882 23.5H14C17.3137 23.5 20 20.8137 20 17.5C20 14.9259 18.3791 12.7304 16.1022 11.8786C17.2702 10.7839 18 9.22715 18 7.5C18 4.18629 15.3137 1.5 12 1.5H7.6087ZM12 11.5C14.2091 11.5 16 9.70914 16 7.5C16 5.29086 14.2091 3.5 12 3.5H7.6087C6.72024 3.5 6 4.22024 6 5.1087V11.5H12ZM6 13.5V20.4412C6 21.0259 6.47405 21.5 7.05882 21.5H14C16.2091 21.5 18 19.7091 18 17.5C18 15.2909 16.2091 13.5 14 13.5H6Z" fill="black"/>
</svg>
