<svg width="61" height="60" viewBox="0 0 61 60" fill="none" xmlns="http://www.w3.org/2000/svg">
<rect x="0.5" width="60" height="60" rx="20" fill="#E3ECF8"/>
<path fill-rule="evenodd" clip-rule="evenodd" d="M16.5971 20.5617C16.5 21.0763 16.5 21.6941 16.5 22.9296V32.8C16.5 38.0797 16.5 40.7196 18.1402 42.3598C19.7804 44 22.4203 44 27.7 44H33.3C38.5797 44 41.2196 44 42.8598 42.3598C44.5 40.7196 44.5 38.0797 44.5 32.8V29.7171C44.5 26.0317 44.5 24.1891 43.4227 22.9914C43.3237 22.8812 43.2188 22.7763 43.1086 22.6773C41.9109 21.6 40.0682 21.6 36.3829 21.6H35.8598C34.2446 21.6 33.4371 21.6 32.6845 21.3855C32.2711 21.2676 31.8726 21.1026 31.497 20.8936C30.8131 20.5131 30.2421 19.9421 29.1 18.8L28.3296 18.0296C27.9469 17.6469 27.7555 17.4555 27.5543 17.2887C26.6871 16.5698 25.6233 16.1292 24.5018 16.0243C24.2417 16 23.971 16 23.4296 16C22.1941 16 21.5763 16 21.0617 16.0971C18.7964 16.5245 17.0245 18.2964 16.5971 20.5617ZM30.85 27.2C30.85 26.6201 31.3201 26.15 31.9 26.15H38.9C39.4799 26.15 39.95 26.6201 39.95 27.2C39.95 27.7799 39.4799 28.25 38.9 28.25H31.9C31.3201 28.25 30.85 27.7799 30.85 27.2Z" fill="#4589FF"/>
</svg>
