<svg width="32" height="32" viewBox="0 0 32 32" fill="none" xmlns="http://www.w3.org/2000/svg">
<path fill-rule="evenodd" clip-rule="evenodd" d="M29.3327 16.0003C29.3327 23.3641 23.3631 29.3337 15.9993 29.3337C8.63555 29.3337 2.66602 23.3641 2.66602 16.0003C2.66602 8.63653 8.63555 2.66699 15.9993 2.66699C23.3631 2.66699 29.3327 8.63653 29.3327 16.0003ZM11.9589 11.9599C12.3494 11.5693 12.9825 11.5693 13.3731 11.9599L15.9993 14.5861L18.6255 11.9599C19.016 11.5694 19.6492 11.5694 20.0397 11.9599C20.4303 12.3504 20.4303 12.9836 20.0397 13.3741L17.4135 16.0003L20.0397 18.6265C20.4302 19.017 20.4302 19.6502 20.0397 20.0407C19.6492 20.4312 19.016 20.4312 18.6255 20.0407L15.9993 17.4145L13.3731 20.0407C12.9826 20.4313 12.3494 20.4313 11.9589 20.0407C11.5684 19.6502 11.5684 19.0171 11.9589 18.6265L14.5851 16.0003L11.9589 13.3741C11.5683 12.9835 11.5683 12.3504 11.9589 11.9599Z" fill="#DA1E28"/>
</svg>
