<svg width="34" height="34" viewBox="0 0 34 34" fill="none" xmlns="http://www.w3.org/2000/svg">
<path fill-rule="evenodd" clip-rule="evenodd" d="M33.6673 16.9999C33.6673 26.2047 26.2054 33.6666 17.0007 33.6666C7.79591 33.6666 0.333984 26.2047 0.333984 16.9999C0.333984 7.79517 7.79591 0.333252 17.0007 0.333252C26.2054 0.333252 33.6673 7.79517 33.6673 16.9999ZM11.95 11.9493C12.4382 11.4612 13.2296 11.4612 13.7178 11.9493L17.0006 15.2321L20.2834 11.9494C20.7715 11.4612 21.563 11.4612 22.0511 11.9494C22.5393 12.4375 22.5393 13.229 22.0511 13.7171L18.7684 16.9999L22.0511 20.2826C22.5393 20.7708 22.5393 21.5622 22.0511 22.0504C21.5629 22.5386 20.7715 22.5386 20.2833 22.0504L17.0006 18.7677L13.7178 22.0504C13.2297 22.5386 12.4382 22.5386 11.9501 22.0504C11.4619 21.5623 11.4619 20.7708 11.9501 20.2827L15.2328 16.9999L11.95 13.7171C11.4619 13.2289 11.4619 12.4375 11.95 11.9493Z" fill="#63A2F7"/>
</svg>
