<svg width="47" height="39" viewBox="0 0 47 39" fill="none" xmlns="http://www.w3.org/2000/svg">
<path d="M31.5 27.5L23.5 19.5L15.5 27.5" stroke="#4D4D4D" stroke-width="2" stroke-linecap="round" stroke-linejoin="round"/>
<path d="M23.5 19.5V37.5" stroke="#4D4D4D" stroke-width="2" stroke-linecap="round" stroke-linejoin="round"/>
<path d="M40.2789 32.28C42.2296 31.2165 43.7706 29.5337 44.6587 27.4972C45.5468 25.4607 45.7314 23.1864 45.1834 21.0334C44.6353 18.8803 43.3859 16.971 41.6323 15.6069C39.8786 14.2427 37.7207 13.5014 35.4989 13.5H32.9789C32.3736 11.1585 31.2453 8.98464 29.6788 7.14195C28.1124 5.29927 26.1486 3.83567 23.9351 2.86118C21.7216 1.8867 19.316 1.42669 16.8992 1.51573C14.4823 1.60478 12.1171 2.24057 9.9813 3.3753C7.84552 4.51003 5.99477 6.11417 4.56819 8.06713C3.14161 10.0201 2.17632 12.271 1.7449 14.6508C1.31348 17.0305 1.42715 19.477 2.07737 21.8065C2.72759 24.136 3.89743 26.2877 5.49894 28.1" stroke="#4D4D4D" stroke-width="2" stroke-linecap="round" stroke-linejoin="round"/>
<path d="M31.5 27.5L23.5 19.5L15.5 27.5" stroke="#4D4D4D" stroke-width="2" stroke-linecap="round" stroke-linejoin="round"/>
</svg>
