<svg width="61" height="60" viewBox="0 0 61 60" fill="none" xmlns="http://www.w3.org/2000/svg">
<rect x="0.75" width="60" height="60" rx="20" fill="#E3ECF8"/>
<path fill-rule="evenodd" clip-rule="evenodd" d="M30.75 44C38.482 44 44.75 37.732 44.75 30C44.75 22.268 38.482 16 30.75 16C23.018 16 16.75 22.268 16.75 30C16.75 32.2396 17.2759 34.3563 18.2108 36.2335C18.4593 36.7323 18.542 37.3025 18.398 37.8409L17.5641 40.9573C17.2021 42.3102 18.4398 43.5479 19.7927 43.1859L22.9091 42.352C23.4475 42.208 24.0177 42.2907 24.5165 42.5392C26.3937 43.4741 28.5104 44 30.75 44ZM25.15 31.75C24.5701 31.75 24.1 32.2201 24.1 32.8C24.1 33.3799 24.5701 33.85 25.15 33.85H32.85C33.4299 33.85 33.9 33.3799 33.9 32.8C33.9 32.2201 33.4299 31.75 32.85 31.75H25.15ZM24.1 27.9C24.1 27.3201 24.5701 26.85 25.15 26.85H36.35C36.9299 26.85 37.4 27.3201 37.4 27.9C37.4 28.4799 36.9299 28.95 36.35 28.95H25.15C24.5701 28.95 24.1 28.4799 24.1 27.9Z" fill="#4589FF"/>
</svg>
