<svg width="25" height="24" viewBox="0 0 25 24" fill="none" xmlns="http://www.w3.org/2000/svg">
<path d="M16.5 4C18.675 4.01211 19.8529 4.10856 20.6213 4.87694C21.5 5.75562 21.5 7.16983 21.5 9.99826V15.9983C21.5 18.8267 21.5 20.2409 20.6213 21.1196C19.7426 21.9983 18.3284 21.9983 15.5 21.9983H9.5C6.67157 21.9983 5.25736 21.9983 4.37868 21.1196C3.5 20.2409 3.5 18.8267 3.5 15.9983V9.99826C3.5 7.16983 3.5 5.75562 4.37868 4.87694C5.14706 4.10856 6.32497 4.01211 8.5 4" stroke="#438FF7" stroke-width="1.5"/>
<path d="M8.5 3.5C8.5 2.67157 9.17157 2 10 2H15C15.8284 2 16.5 2.67157 16.5 3.5V4.5C16.5 5.32843 15.8284 6 15 6H10C9.17157 6 8.5 5.32843 8.5 4.5V3.5Z" stroke="#438FF7" stroke-width="1.5"/>
<path d="M15.5 13L12.5 13M12.5 13L9.5 13M12.5 13L12.5 10M12.5 13L12.5 16" stroke="#438FF7" stroke-width="1.5" stroke-linecap="round"/>
</svg>
