<svg width="255" height="25" viewBox="0 0 255 25" fill="none" xmlns="http://www.w3.org/2000/svg">
<path d="M11 21V18.843C12.863 17.651 14.5 14.968 14.5 11.884C14.5 8.811 12.5 5.855 9 5.855C5.5 5.855 3.5 8.811 3.5 11.885C3.5 14.968 5.137 17.651 7 18.843V21H0V19H4.76C2.666 17.505 1 14.989 1 11.884C1 7.247 4.5 4 9 4C13.5 4 17 7.247 17 11.884C17 14.989 15.334 17.505 13.24 19H18V21H11Z" fill="black"/>
<path d="M57.7388 4.76118C55.0572 2.07961 50.7095 2.07961 48.0279 4.76118L47.3071 5.48203C47.0142 5.77492 47.0142 6.2498 47.3071 6.54269C47.6 6.83558 48.0748 6.83558 48.3677 6.54269L49.0886 5.82184C51.1844 3.72605 54.5823 3.72605 56.6781 5.82184C58.7739 7.91763 58.7739 11.3156 56.6781 13.4114L55.9573 14.1322C55.6644 14.4251 55.6644 14.9 55.9573 15.1929C56.2502 15.4858 56.725 15.4858 57.0179 15.1929L57.7388 14.472C60.4203 11.7905 60.4203 7.44276 57.7388 4.76118Z" fill="#4D4D4D"/>
<path d="M44.0427 9.80707C44.3356 10.1 44.3356 10.5748 44.0427 10.8677L43.3218 11.5886C41.2261 13.6844 41.2261 17.0823 43.3218 19.1781C45.4176 21.2739 48.8156 21.2739 50.9114 19.1781L51.6322 18.4573C51.9251 18.1644 52.4 18.1644 52.6929 18.4573C52.9858 18.7501 52.9858 19.225 52.6929 19.5179L51.972 20.2388C49.2905 22.9203 44.9428 22.9203 42.2612 20.2388C39.5796 17.5572 39.5796 13.2095 42.2612 10.5279L42.982 9.80707C43.2749 9.51418 43.7498 9.51418 44.0427 9.80707Z" fill="#4D4D4D"/>
<path d="M52.6928 9.80707C52.9857 10.1 52.9857 10.5748 52.6928 10.8677L48.3677 15.1928C48.0748 15.4857 47.6 15.4857 47.3071 15.1928C47.0142 14.8999 47.0142 14.4251 47.3071 14.1322L51.6322 9.80707C51.9251 9.51418 52.3999 9.51418 52.6928 9.80707Z" fill="#4D4D4D"/>
<path d="M82 6.5C82 5.96957 82.2107 5.46086 82.5858 5.08579C82.9609 4.71071 83.4696 4.5 84 4.5H96C96.5304 4.5 97.0391 4.71071 97.4142 5.08579C97.7893 5.46086 98 5.96957 98 6.5V18.5C98 19.0304 97.7893 19.5391 97.4142 19.9142C97.0391 20.2893 96.5304 20.5 96 20.5H84C83.4696 20.5 82.9609 20.2893 82.5858 19.9142C82.2107 19.5391 82 19.0304 82 18.5V6.5ZM97 8.5H93V11.5H97V8.5ZM97 12.5H93V15.5H97V12.5ZM97 16.5H93V19.5H96C96.2652 19.5 96.5196 19.3946 96.7071 19.2071C96.8946 19.0196 97 18.7652 97 18.5V16.5ZM92 19.5V16.5H88V19.5H92ZM87 19.5V16.5H83V18.5C83 18.7652 83.1054 19.0196 83.2929 19.2071C83.4804 19.3946 83.7348 19.5 84 19.5H87ZM83 15.5H87V12.5H83V15.5ZM83 11.5H87V8.5H83V11.5ZM88 8.5V11.5H92V8.5H88ZM92 12.5H88V15.5H92V12.5Z" fill="black"/>
<path d="M106.915 11.25L103.999 13.75L101.082 11.25" stroke="#4D4D4D" stroke-width="1.5" stroke-linecap="round" stroke-linejoin="round"/>
<path fill-rule="evenodd" clip-rule="evenodd" d="M132.25 22.5C132.25 22.0858 132.586 21.75 133 21.75H149C149.414 21.75 149.75 22.0858 149.75 22.5C149.75 22.9142 149.414 23.25 149 23.25H133C132.586 23.25 132.25 22.9142 132.25 22.5Z" fill="#134588"/>
<path d="M140.52 15.429L140.52 15.4289L146.437 9.51225C145.632 9.1771 144.678 8.62656 143.776 7.72455C142.874 6.82238 142.323 5.86846 141.988 5.06312L136.071 10.9799L136.071 10.98C135.609 11.4417 135.378 11.6725 135.18 11.9271C134.946 12.2273 134.745 12.5522 134.581 12.896C134.442 13.1874 134.339 13.4972 134.132 14.1167L133.044 17.3833C132.942 17.6882 133.021 18.0243 133.249 18.2515C133.476 18.4787 133.812 18.5581 134.117 18.4564L137.383 17.3676C138.003 17.1611 138.313 17.0578 138.604 16.9189C138.948 16.7551 139.273 16.5543 139.573 16.3201C139.827 16.1215 140.058 15.8907 140.52 15.429Z" fill="#F9E959"/>
<path d="M148.079 7.87044C149.307 6.64188 149.307 4.64999 148.079 3.42142C146.85 2.19286 144.858 2.19286 143.63 3.42142L142.92 4.13105C142.93 4.1604 142.94 4.19015 142.95 4.22028C143.21 4.97 143.701 5.95281 144.624 6.87602C145.547 7.79923 146.53 8.28999 147.28 8.55009C147.31 8.5605 147.34 8.57054 147.369 8.58021L148.079 7.87044Z" fill="#F9E959"/>
<path d="M160.833 11.25L157.917 13.75L155 11.25" stroke="#4D4D4D" stroke-width="1.5" stroke-linecap="round" stroke-linejoin="round"/>
<path d="M199.207 12.5V9.5C199.207 9.35087 199.148 9.20789 199.042 9.1025L193.792 3.8525C193.687 3.74698 193.544 3.68763 193.395 3.6875H184.395C184.046 3.6875 183.713 3.82578 183.466 4.07192C183.22 4.31806 183.082 4.6519 183.082 5V12.5C183.082 12.6492 183.141 12.7923 183.247 12.8977C183.352 13.0032 183.495 13.0625 183.645 13.0625C183.794 13.0625 183.937 13.0032 184.042 12.8977C184.148 12.7923 184.207 12.6492 184.207 12.5V5C184.207 4.95027 184.227 4.90258 184.262 4.86742C184.297 4.83225 184.345 4.8125 184.395 4.8125H192.832V9.5C192.832 9.64918 192.891 9.79226 192.997 9.89775C193.102 10.0032 193.245 10.0625 193.395 10.0625H198.082V12.5C198.082 12.6492 198.141 12.7923 198.247 12.8977C198.352 13.0032 198.495 13.0625 198.645 13.0625C198.794 13.0625 198.937 13.0032 199.042 12.8977C199.148 12.7923 199.207 12.6492 199.207 12.5ZM193.957 5.6075L197.287 8.9375H193.957V5.6075ZM185.332 16.25V20.75C185.332 20.8992 185.273 21.0423 185.167 21.1477C185.062 21.2532 184.919 21.3125 184.77 21.3125C184.62 21.3125 184.477 21.2532 184.372 21.1477C184.266 21.0423 184.207 20.8992 184.207 20.75V19.0625H181.957V20.75C181.957 20.8992 181.898 21.0423 181.792 21.1477C181.687 21.2532 181.544 21.3125 181.395 21.3125C181.245 21.3125 181.102 21.2532 180.997 21.1477C180.891 21.0423 180.832 20.8992 180.832 20.75V16.25C180.832 16.1008 180.891 15.9577 180.997 15.8523C181.102 15.7468 181.245 15.6875 181.395 15.6875C181.544 15.6875 181.687 15.7468 181.792 15.8523C181.898 15.9577 181.957 16.1008 181.957 16.25V17.9375H184.207V16.25C184.207 16.1008 184.266 15.9577 184.372 15.8523C184.477 15.7468 184.62 15.6875 184.77 15.6875C184.919 15.6875 185.062 15.7468 185.167 15.8523C185.273 15.9577 185.332 16.1008 185.332 16.25ZM190.582 16.25C190.582 16.3992 190.523 16.5423 190.417 16.6477C190.312 16.7532 190.169 16.8125 190.02 16.8125H189.082V20.75C189.082 20.8992 189.023 21.0423 188.917 21.1477C188.812 21.2532 188.669 21.3125 188.52 21.3125C188.37 21.3125 188.227 21.2532 188.122 21.1477C188.016 21.0423 187.957 20.8992 187.957 20.75V16.8125H187.02C186.87 16.8125 186.727 16.7532 186.622 16.6477C186.516 16.5423 186.457 16.3992 186.457 16.25C186.457 16.1008 186.516 15.9577 186.622 15.8523C186.727 15.7468 186.87 15.6875 187.02 15.6875H190.02C190.169 15.6875 190.312 15.7468 190.417 15.8523C190.523 15.9577 190.582 16.1008 190.582 16.25ZM197.332 16.25V20.75C197.332 20.8992 197.273 21.0423 197.167 21.1477C197.062 21.2532 196.919 21.3125 196.77 21.3125C196.62 21.3125 196.477 21.2532 196.372 21.1477C196.266 21.0423 196.207 20.8992 196.207 20.75V17.9375L194.97 19.5875C194.917 19.6574 194.849 19.7141 194.771 19.7531C194.693 19.7922 194.607 19.8125 194.52 19.8125C194.432 19.8125 194.346 19.7922 194.268 19.7531C194.19 19.7141 194.122 19.6574 194.07 19.5875L192.832 17.9375V20.75C192.832 20.8992 192.773 21.0423 192.667 21.1477C192.562 21.2532 192.419 21.3125 192.27 21.3125C192.12 21.3125 191.977 21.2532 191.872 21.1477C191.766 21.0423 191.707 20.8992 191.707 20.75V16.25C191.707 16.1319 191.744 16.0169 191.813 15.9211C191.882 15.8253 191.98 15.7537 192.092 15.7164C192.204 15.679 192.325 15.6779 192.437 15.7131C192.55 15.7483 192.649 15.8181 192.72 15.9125L194.52 18.3125L196.32 15.9125C196.39 15.8181 196.489 15.7483 196.602 15.7131C196.715 15.6779 196.835 15.679 196.947 15.7164C197.059 15.7537 197.157 15.8253 197.226 15.9211C197.295 16.0169 197.332 16.1319 197.332 16.25ZM202.582 20.75C202.582 20.8992 202.523 21.0423 202.417 21.1477C202.312 21.2532 202.169 21.3125 202.02 21.3125H199.395C199.245 21.3125 199.102 21.2532 198.997 21.1477C198.891 21.0423 198.832 20.8992 198.832 20.75V16.25C198.832 16.1008 198.891 15.9577 198.997 15.8523C199.102 15.7468 199.245 15.6875 199.395 15.6875C199.544 15.6875 199.687 15.7468 199.792 15.8523C199.898 15.9577 199.957 16.1008 199.957 16.25V20.1875H202.02C202.169 20.1875 202.312 20.2468 202.417 20.3523C202.523 20.4577 202.582 20.6008 202.582 20.75Z" fill="black"/>
<path d="M222.582 12.5H236.582" stroke="black" stroke-width="2" stroke-linecap="round" stroke-linejoin="round"/>
</svg>
