<svg width="25" height="24" viewBox="0 0 25 24" fill="none" xmlns="http://www.w3.org/2000/svg">
<path fill-rule="evenodd" clip-rule="evenodd" d="M12.5 8.25C10.4289 8.25 8.75 9.92893 8.75 12C8.75 14.0711 10.4289 15.75 12.5 15.75C14.5711 15.75 16.25 14.0711 16.25 12C16.25 9.92893 14.5711 8.25 12.5 8.25ZM10.25 12C10.25 10.7574 11.2574 9.75 12.5 9.75C13.7426 9.75 14.75 10.7574 14.75 12C14.75 13.2426 13.7426 14.25 12.5 14.25C11.2574 14.25 10.25 13.2426 10.25 12Z" fill="#4D4D4D"/>
<path fill-rule="evenodd" clip-rule="evenodd" d="M12.5 3.25C7.98587 3.25 4.94529 5.9542 3.18057 8.24686L3.14874 8.2882C2.74964 8.80653 2.38206 9.28392 2.13269 9.8484C1.86564 10.4529 1.75 11.1117 1.75 12C1.75 12.8883 1.86564 13.5471 2.13269 14.1516C2.38206 14.7161 2.74964 15.1935 3.14875 15.7118L3.18057 15.7531C4.94529 18.0458 7.98587 20.75 12.5 20.75C17.0141 20.75 20.0547 18.0458 21.8194 15.7531L21.8512 15.7118C22.2504 15.1935 22.6179 14.7161 22.8673 14.1516C23.1344 13.5471 23.25 12.8883 23.25 12C23.25 11.1117 23.1344 10.4529 22.8673 9.8484C22.6179 9.28391 22.2504 8.80652 21.8512 8.28818L21.8194 8.24686C20.0547 5.9542 17.0141 3.25 12.5 3.25ZM4.36922 9.1618C5.99864 7.04492 8.65036 4.75 12.5 4.75C16.3496 4.75 19.0014 7.04492 20.6308 9.1618C21.0694 9.73159 21.3263 10.0721 21.4952 10.4545C21.6532 10.812 21.75 11.2489 21.75 12C21.75 12.7511 21.6532 13.188 21.4952 13.5455C21.3263 13.9279 21.0694 14.2684 20.6308 14.8382C19.0014 16.9551 16.3496 19.25 12.5 19.25C8.65036 19.25 5.99864 16.9551 4.36922 14.8382C3.93064 14.2684 3.67374 13.9279 3.50476 13.5455C3.34684 13.188 3.25 12.7511 3.25 12C3.25 11.2489 3.34684 10.812 3.50476 10.4545C3.67374 10.0721 3.93063 9.73159 4.36922 9.1618Z" fill="#4D4D4D"/>
</svg>
