<svg width="114" height="25" viewBox="0 0 114 25" fill="none" xmlns="http://www.w3.org/2000/svg">
<path d="M1.12 17.5V7.14H2.492V11.634H7.434V7.14H8.806V17.5H7.434V12.866H2.492V17.5H1.12ZM14.2798 17.64C13.6731 17.64 13.1458 17.5327 12.6978 17.318C12.2591 17.094 11.8951 16.7953 11.6058 16.422C11.3258 16.0487 11.1158 15.638 10.9758 15.19C10.8358 14.7327 10.7658 14.266 10.7658 13.79C10.7658 13.3233 10.8311 12.8613 10.9618 12.404C11.1018 11.9467 11.3118 11.5313 11.5918 11.158C11.8811 10.7847 12.2404 10.4907 12.6698 10.276C13.1084 10.052 13.6264 9.94 14.2238 9.94C14.8584 9.94 15.4184 10.0847 15.9038 10.374C16.3891 10.6633 16.7718 11.0927 17.0518 11.662C17.3318 12.2313 17.4718 12.9453 17.4718 13.804V14.196H12.1098C12.1378 14.616 12.2358 15.0033 12.4038 15.358C12.5811 15.7033 12.8284 15.9833 13.1458 16.198C13.4631 16.4033 13.8411 16.506 14.2798 16.506C14.6624 16.506 14.9704 16.4453 15.2038 16.324C15.4464 16.1933 15.6378 16.044 15.7778 15.876C15.9178 15.708 16.0111 15.5633 16.0578 15.442C16.1138 15.3113 16.1418 15.246 16.1418 15.246H17.3878C17.3878 15.246 17.3644 15.33 17.3178 15.498C17.2711 15.6567 17.1871 15.8527 17.0658 16.086C16.9444 16.3193 16.7671 16.5573 16.5338 16.8C16.3004 17.0333 16.0018 17.234 15.6378 17.402C15.2738 17.5607 14.8211 17.64 14.2798 17.64ZM12.1238 13.16H16.1698C16.1511 12.6747 16.0484 12.2827 15.8618 11.984C15.6751 11.676 15.4371 11.4473 15.1478 11.298C14.8584 11.1487 14.5504 11.074 14.2238 11.074C13.6358 11.074 13.1551 11.2653 12.7818 11.648C12.4084 12.0213 12.1891 12.5253 12.1238 13.16ZM22.4383 9.94C22.9049 9.94 23.2969 10.0147 23.6143 10.164C23.9316 10.3133 24.1883 10.4907 24.3843 10.696C24.5803 10.892 24.7296 11.0787 24.8323 11.256H24.9163V10.08H26.2463V17.5H24.9163V16.324H24.8323C24.7296 16.5013 24.5803 16.6927 24.3843 16.898C24.1883 17.1033 23.9316 17.2807 23.6143 17.43C23.2969 17.57 22.9049 17.64 22.4383 17.64C21.8783 17.64 21.3883 17.5327 20.9683 17.318C20.5483 17.094 20.1983 16.8 19.9183 16.436C19.6383 16.0627 19.4283 15.6473 19.2883 15.19C19.1483 14.7327 19.0783 14.266 19.0783 13.79C19.0783 13.314 19.1483 12.8473 19.2883 12.39C19.4283 11.9327 19.6383 11.522 19.9183 11.158C20.1983 10.7847 20.5483 10.4907 20.9683 10.276C21.3883 10.052 21.8783 9.94 22.4383 9.94ZM22.6623 11.074C22.1676 11.074 21.7523 11.2093 21.4163 11.48C21.0803 11.7413 20.8283 12.0773 20.6603 12.488C20.5016 12.8987 20.4223 13.3327 20.4223 13.79C20.4223 14.238 20.5016 14.672 20.6603 15.092C20.8283 15.5027 21.0803 15.8433 21.4163 16.114C21.7523 16.3753 22.1676 16.506 22.6623 16.506C23.1569 16.506 23.5676 16.3753 23.8943 16.114C24.2303 15.8433 24.4776 15.5027 24.6363 15.092C24.8043 14.672 24.8883 14.238 24.8883 13.79C24.8883 13.3327 24.8043 12.8987 24.6363 12.488C24.4776 12.0773 24.2303 11.7413 23.8943 11.48C23.5676 11.2093 23.1569 11.074 22.6623 11.074ZM31.4207 17.64C30.8607 17.64 30.3707 17.5327 29.9507 17.318C29.5307 17.094 29.1807 16.8 28.9007 16.436C28.6207 16.0627 28.4107 15.6473 28.2707 15.19C28.1307 14.7327 28.0607 14.266 28.0607 13.79C28.0607 13.314 28.1307 12.8473 28.2707 12.39C28.4107 11.9327 28.6207 11.522 28.9007 11.158C29.1807 10.7847 29.5307 10.4907 29.9507 10.276C30.3707 10.052 30.8607 9.94 31.4207 9.94C31.8874 9.94 32.2794 10.0147 32.5967 10.164C32.914 10.3133 33.1707 10.4907 33.3667 10.696C33.5627 10.892 33.712 11.0787 33.8147 11.256H33.8987V6.86H35.2287V17.5H33.8987V16.324H33.8147C33.712 16.5013 33.5627 16.6927 33.3667 16.898C33.1707 17.1033 32.914 17.2807 32.5967 17.43C32.2794 17.57 31.8874 17.64 31.4207 17.64ZM31.6447 16.506C32.1394 16.506 32.55 16.3753 32.8767 16.114C33.2127 15.8433 33.46 15.5027 33.6187 15.092C33.7867 14.672 33.8707 14.238 33.8707 13.79C33.8707 13.3327 33.7867 12.8987 33.6187 12.488C33.46 12.0773 33.2127 11.7413 32.8767 11.48C32.55 11.2093 32.1394 11.074 31.6447 11.074C31.15 11.074 30.7347 11.2093 30.3987 11.48C30.0627 11.7413 29.8107 12.0773 29.6427 12.488C29.484 12.8987 29.4047 13.3327 29.4047 13.79C29.4047 14.238 29.484 14.672 29.6427 15.092C29.8107 15.5027 30.0627 15.8433 30.3987 16.114C30.7347 16.3753 31.15 16.506 31.6447 16.506ZM38.2015 8.666C37.9495 8.666 37.7395 8.582 37.5715 8.414C37.4128 8.246 37.3335 8.04533 37.3335 7.812C37.3335 7.56933 37.4128 7.364 37.5715 7.196C37.7395 7.028 37.9495 6.944 38.2015 6.944C38.4442 6.944 38.6495 7.028 38.8175 7.196C38.9855 7.364 39.0695 7.56933 39.0695 7.812C39.0695 8.04533 38.9855 8.246 38.8175 8.414C38.6495 8.582 38.4442 8.666 38.2015 8.666ZM37.5435 17.5V10.08H38.8735V17.5H37.5435ZM41.0249 17.5V10.08H42.3549V11.158H42.4389C42.5043 11.046 42.6116 10.892 42.7609 10.696C42.9196 10.5 43.1436 10.3273 43.4329 10.178C43.7223 10.0193 44.0863 9.94 44.5249 9.94C45.0663 9.94 45.5283 10.066 45.9109 10.318C46.2936 10.5607 46.5829 10.892 46.7789 11.312C46.9843 11.732 47.0869 12.2033 47.0869 12.726V17.5H45.7569V12.81C45.7569 12.3153 45.6169 11.9047 45.3369 11.578C45.0663 11.2513 44.6696 11.088 44.1469 11.088C43.7269 11.088 43.3863 11.1953 43.1249 11.41C42.8636 11.6153 42.6676 11.8907 42.5369 12.236C42.4156 12.572 42.3549 12.9313 42.3549 13.314V17.5H41.0249ZM52.6203 20.44C52.0043 20.44 51.491 20.356 51.0803 20.188C50.6696 20.0293 50.3383 19.824 50.0863 19.572C49.8436 19.3293 49.6616 19.0867 49.5403 18.844C49.419 18.6013 49.3396 18.396 49.3023 18.228C49.265 18.0693 49.2463 17.99 49.2463 17.99H50.5763C50.5763 17.99 50.5996 18.0553 50.6463 18.186C50.693 18.3167 50.7816 18.466 50.9123 18.634C51.0523 18.802 51.2576 18.9513 51.5283 19.082C51.799 19.2127 52.163 19.278 52.6203 19.278C53.1616 19.278 53.5863 19.1707 53.8943 18.956C54.2023 18.7507 54.4216 18.48 54.5523 18.144C54.6923 17.808 54.7623 17.4533 54.7623 17.08V16.226H54.6923C54.599 16.3847 54.4496 16.5667 54.2443 16.772C54.0483 16.968 53.787 17.1407 53.4603 17.29C53.1336 17.43 52.7323 17.5 52.2563 17.5C51.6963 17.5 51.2063 17.3927 50.7863 17.178C50.3663 16.9633 50.0163 16.674 49.7363 16.31C49.4656 15.946 49.2603 15.54 49.1203 15.092C48.9803 14.644 48.9103 14.1867 48.9103 13.72C48.9103 13.2533 48.9803 12.796 49.1203 12.348C49.2603 11.9 49.4656 11.494 49.7363 11.13C50.0163 10.766 50.3663 10.4767 50.7863 10.262C51.2063 10.0473 51.6963 9.94 52.2563 9.94C52.7323 9.94 53.1336 10.0147 53.4603 10.164C53.787 10.304 54.0483 10.472 54.2443 10.668C54.4496 10.864 54.599 11.046 54.6923 11.214H54.7623V10.08H56.0923V17.066C56.0923 18.102 55.789 18.9233 55.1823 19.53C54.585 20.1367 53.731 20.44 52.6203 20.44ZM52.5083 16.366C53.003 16.366 53.4136 16.24 53.7403 15.988C54.0763 15.7267 54.3236 15.3953 54.4823 14.994C54.6503 14.5927 54.7343 14.168 54.7343 13.72C54.7343 13.272 54.6503 12.8473 54.4823 12.446C54.3236 12.0353 54.0763 11.704 53.7403 11.452C53.4136 11.2 53.003 11.074 52.5083 11.074C52.0136 11.074 51.5983 11.2 51.2623 11.452C50.9263 11.704 50.6743 12.0353 50.5063 12.446C50.3476 12.8473 50.2683 13.272 50.2683 13.72C50.2683 14.168 50.3476 14.5927 50.5063 14.994C50.6743 15.3953 50.9263 15.7267 51.2623 15.988C51.5983 16.24 52.0136 16.366 52.5083 16.366ZM61.427 17.5V16.534L63.695 14.434C64.3296 13.846 64.885 13.3327 65.361 12.894C65.8463 12.446 66.2243 12.012 66.495 11.592C66.7656 11.172 66.901 10.71 66.901 10.206C66.901 9.786 66.7983 9.43133 66.593 9.142C66.397 8.85267 66.1403 8.63333 65.823 8.484C65.515 8.32533 65.193 8.246 64.857 8.246C64.4183 8.246 64.059 8.32067 63.779 8.47C63.499 8.61933 63.2843 8.806 63.135 9.03C62.9856 9.24467 62.8783 9.464 62.813 9.688C62.7476 9.90267 62.7103 10.0847 62.701 10.234C62.6916 10.3833 62.687 10.458 62.687 10.458H61.371C61.371 10.458 61.3756 10.374 61.385 10.206C61.3943 10.038 61.427 9.82333 61.483 9.562C61.5483 9.30067 61.651 9.02533 61.791 8.736C61.931 8.43733 62.127 8.15733 62.379 7.896C62.6403 7.63467 62.9716 7.42 63.373 7.252C63.7836 7.084 64.283 7 64.871 7C65.4683 7 66.0236 7.126 66.537 7.378C67.0596 7.62067 67.4796 7.98 67.797 8.456C68.1143 8.92267 68.273 9.49667 68.273 10.178C68.273 10.8033 68.1143 11.3727 67.797 11.886C67.489 12.39 67.0783 12.8847 66.565 13.37C66.0516 13.8553 65.4916 14.378 64.885 14.938L63.457 16.254H68.497V17.5H61.427Z" fill="#666666"/>
<path d="M109 9.5L102 15.5L95 9.5" stroke="#4D4D4D" stroke-width="1.5" stroke-linecap="round" stroke-linejoin="round"/>
</svg>
