<svg width="25" height="24" viewBox="0 0 25 24" fill="none" xmlns="http://www.w3.org/2000/svg">
<path d="M2.5 12C2.5 7.28595 2.5 4.92893 3.96447 3.46447C5.42893 2 7.78595 2 12.5 2C17.214 2 19.5711 2 21.0355 3.46447C22.5 4.92893 22.5 7.28595 22.5 12C22.5 16.714 22.5 19.0711 21.0355 20.5355C19.5711 22 17.214 22 12.5 22C7.78595 22 5.42893 22 3.96447 20.5355C2.5 19.0711 2.5 16.714 2.5 12Z" stroke="#DA1E28" stroke-width="1.5"/>
<path d="M10.625 8.875C10.625 7.83947 11.4645 7 12.5 7C13.5355 7 14.375 7.83947 14.375 8.875C14.375 9.56245 14.005 10.1635 13.4534 10.4899C12.978 10.7711 12.5 11.1977 12.5 11.75V13" stroke="#DA1E28" stroke-width="1.5" stroke-linecap="round"/>
<circle cx="12.5" cy="16" r="1" fill="#DA1E28"/>
</svg>
