<svg width="213" height="15" viewBox="0 0 213 15" fill="none" xmlns="http://www.w3.org/2000/svg">
<path d="M4.58203 6.5V4.5H18.582V6.5H4.58203ZM4.58203 10.5V8.5H18.582V10.5H4.58203ZM1.58203 6.5C1.2987 6.5 1.06137 6.404 0.870035 6.212C0.678701 6.02 0.582701 5.78267 0.582035 5.5C0.581368 5.21733 0.677368 4.98 0.870035 4.788C1.0627 4.596 1.30003 4.5 1.58203 4.5C1.86403 4.5 2.1017 4.596 2.29503 4.788C2.48837 4.98 2.58403 5.21733 2.58203 5.5C2.58003 5.78267 2.48403 6.02033 2.29403 6.213C2.10403 6.40567 1.8667 6.50133 1.58203 6.5ZM1.58203 10.5C1.2987 10.5 1.06137 10.404 0.870035 10.212C0.678701 10.02 0.582701 9.78267 0.582035 9.5C0.581368 9.21733 0.677368 8.98 0.870035 8.788C1.0627 8.596 1.30003 8.5 1.58203 8.5C1.86403 8.5 2.1017 8.596 2.29503 8.788C2.48837 8.98 2.58403 9.21733 2.58203 9.5C2.58003 9.78267 2.48403 10.0203 2.29403 10.213C2.10403 10.4057 1.8667 10.5013 1.58203 10.5Z" fill="#4D4D4D"/>
<path d="M28.4154 6.25L25.4987 8.75L22.582 6.25" stroke="#4D4D4D" stroke-width="1.5" stroke-linecap="round" stroke-linejoin="round"/>
<path d="M49.8241 2.28187V6.43188H51.0141V0.921875H50.0641L48.4141 2.03187L48.8841 2.87187L49.8241 2.28187Z" fill="#4D4D4D"/>
<path d="M72.0156 3.67676C72.0156 3.41154 71.931 3.15719 71.7805 2.96965C71.6299 2.78211 71.4257 2.67676 71.2128 2.67676H54.0156V4.67676H71.2128C71.4257 4.67676 71.6299 4.5714 71.7805 4.38386C71.931 4.19633 72.0156 3.94197 72.0156 3.67676Z" fill="#4D4D4D"/>
<path d="M50.5141 9.50965C50.6171 9.50006 50.721 9.51161 50.8195 9.5436C50.9179 9.57559 51.0087 9.62735 51.0865 9.6957C51.1642 9.76405 51.2271 9.84755 51.2714 9.94109C51.3157 10.0346 51.3404 10.1362 51.3441 10.2397C51.3441 10.6197 51.1341 10.9797 50.4741 11.5097L48.4741 13.0797V14.0797H52.6141V12.9697H50.2741L51.2741 12.1997C52.2741 11.4997 52.5541 10.9297 52.5541 10.1997C52.5456 9.95028 52.4862 9.70526 52.3796 9.47967C52.273 9.25408 52.1214 9.05267 51.9341 8.88784C51.7467 8.723 51.5277 8.5982 51.2904 8.52113C51.0531 8.44406 50.8025 8.41633 50.5541 8.43965C50.1373 8.43723 49.7259 8.5339 49.3539 8.72167C48.9818 8.90944 48.6597 9.18295 48.4141 9.51965L49.1741 10.2497C49.3268 10.0328 49.5267 9.85356 49.7589 9.72537C49.991 9.59717 50.2492 9.52341 50.5141 9.50965Z" fill="#4D4D4D"/>
<path d="M71.8104 10.2559H54.6133V12.2559H71.8104C72.0234 12.2559 72.2276 12.1505 72.3781 11.963C72.5287 11.7754 72.6133 11.5211 72.6133 11.2559C72.6133 10.9906 72.5287 10.7363 72.3781 10.5488C72.2276 10.3612 72.0234 10.2559 71.8104 10.2559Z" fill="#4D4D4D"/>
<path d="M82.4466 6.25098L79.5299 8.75098L76.6133 6.25098" stroke="#4D4D4D" stroke-width="1.5" stroke-linecap="round" stroke-linejoin="round"/>
<path d="M109.248 1.48826C109.53 1.79108 109.514 2.26567 109.211 2.54829L104.925 6.54829C104.773 6.69027 104.569 6.76267 104.361 6.74818C104.154 6.7337 103.962 6.63363 103.831 6.4719L102.616 4.9719C102.356 4.64996 102.405 4.17769 102.727 3.91707C103.049 3.65645 103.522 3.70616 103.782 4.0281L104.49 4.90261L108.188 1.45171C108.49 1.16909 108.965 1.18545 109.248 1.48826Z" fill="#4D4D4D"/>
<path d="M112.449 4C112.449 3.58579 112.785 3.25 113.199 3.25H123.199C123.613 3.25 123.949 3.58579 123.949 4C123.949 4.41422 123.613 4.75 123.199 4.75H113.199C112.785 4.75 112.449 4.41422 112.449 4Z" fill="#4D4D4D"/>
<path d="M109.248 8.48826C109.53 8.79108 109.514 9.26567 109.211 9.54829L104.925 13.5483C104.773 13.6903 104.569 13.7627 104.361 13.7482C104.154 13.7337 103.962 13.6336 103.831 13.4719L102.616 11.9719C102.356 11.65 102.405 11.1777 102.727 10.9171C103.049 10.6564 103.522 10.7062 103.782 11.0281L104.49 11.9026L108.188 8.45171C108.49 8.16909 108.965 8.18545 109.248 8.48826Z" fill="#4D4D4D"/>
<path d="M112.449 11C112.449 10.5858 112.785 10.25 113.199 10.25H123.199C123.613 10.25 123.949 10.5858 123.949 11C123.949 11.4142 123.613 11.75 123.199 11.75H113.199C112.785 11.75 112.449 11.4142 112.449 11Z" fill="#4D4D4D"/>
<path d="M133.783 6.25L130.866 8.75L127.949 6.25" stroke="#4D4D4D" stroke-width="1.5" stroke-linecap="round" stroke-linejoin="round"/>
<path fill-rule="evenodd" clip-rule="evenodd" d="M173.281 0.807617C173.281 0.393404 172.945 0.0576172 172.531 0.0576172H154.531C154.117 0.0576172 153.781 0.393404 153.781 0.807617C153.781 1.22183 154.117 1.55762 154.531 1.55762H172.531C172.945 1.55762 173.281 1.22183 173.281 0.807617ZM173.281 4.80762C173.281 4.3934 172.945 4.05762 172.531 4.05762H154.531C154.117 4.05762 153.781 4.3934 153.781 4.80762C153.781 5.22183 154.117 5.55762 154.531 5.55762H172.531C172.945 5.55762 173.281 5.22183 173.281 4.80762ZM173.281 8.80762C173.281 8.39341 172.945 8.05762 172.531 8.05762H164.531C164.117 8.05762 163.781 8.39341 163.781 8.80762C163.781 9.22183 164.117 9.55762 164.531 9.55762H172.531C172.945 9.55762 173.281 9.22183 173.281 8.80762ZM173.281 12.8076C173.281 12.3934 172.945 12.0576 172.531 12.0576H164.531C164.117 12.0576 163.781 12.3934 163.781 12.8076C163.781 13.2218 164.117 13.5576 164.531 13.5576H172.531C172.945 13.5576 173.281 13.2218 173.281 12.8076Z" fill="#4D4D4D"/>
<path d="M156.656 8.92605C155.002 9.88089 154.175 10.3583 154.054 11.0471C154.024 11.2195 154.024 11.3958 154.054 11.5681C154.175 12.2569 155.002 12.7343 156.656 13.6892C158.31 14.644 159.137 15.1215 159.794 14.8822C159.959 14.8224 160.111 14.7342 160.245 14.6217C160.781 14.1721 160.781 13.2173 160.781 11.3076C160.781 9.39794 160.781 8.44309 160.245 7.99349C160.111 7.88101 159.959 7.79286 159.794 7.73302C159.137 7.49379 158.31 7.97121 156.656 8.92605Z" fill="#4D4D4D"/>
<path fill-rule="evenodd" clip-rule="evenodd" d="M193.281 0.807617C193.281 0.393404 193.617 0.0576172 194.031 0.0576172H212.031C212.445 0.0576172 212.781 0.393404 212.781 0.807617C212.781 1.22183 212.445 1.55762 212.031 1.55762H194.031C193.617 1.55762 193.281 1.22183 193.281 0.807617ZM193.281 4.80762C193.281 4.3934 193.617 4.05762 194.031 4.05762H212.031C212.445 4.05762 212.781 4.3934 212.781 4.80762C212.781 5.22183 212.445 5.55762 212.031 5.55762H194.031C193.617 5.55762 193.281 5.22183 193.281 4.80762ZM193.281 8.80762C193.281 8.3934 193.617 8.05762 194.031 8.05762H202.031C202.445 8.05762 202.781 8.3934 202.781 8.80762C202.781 9.22183 202.445 9.55762 202.031 9.55762H194.031C193.617 9.55762 193.281 9.22183 193.281 8.80762ZM193.281 12.8076C193.281 12.3934 193.617 12.0576 194.031 12.0576H202.031C202.445 12.0576 202.781 12.3934 202.781 12.8076C202.781 13.2218 202.445 13.5576 202.031 13.5576H194.031C193.617 13.5576 193.281 13.2218 193.281 12.8076Z" fill="#4D4D4D"/>
<path d="M209.906 8.92605C211.56 9.88089 212.387 10.3583 212.508 11.0471C212.539 11.2195 212.539 11.3958 212.508 11.5681C212.387 12.2569 211.56 12.7343 209.906 13.6892C208.252 14.644 207.425 15.1214 206.768 14.8822C206.604 14.8224 206.451 14.7342 206.317 14.6217C205.781 14.1721 205.781 13.2173 205.781 11.3076C205.781 9.39793 205.781 8.44309 206.317 7.99349C206.451 7.88101 206.604 7.79286 206.768 7.73301C207.425 7.49379 208.252 7.97121 209.906 8.92605Z" fill="#4D4D4D"/>
</svg>
