<svg width="47" height="38" viewBox="0 0 47 38" fill="none" xmlns="http://www.w3.org/2000/svg">
<path d="M31.5 27L23.5 19L15.5 27" stroke="#4D4D4D" stroke-width="2" stroke-linecap="round" stroke-linejoin="round"/>
<path d="M23.5 19V37" stroke="#4D4D4D" stroke-width="2" stroke-linecap="round" stroke-linejoin="round"/>
<path d="M40.2799 31.78C42.2306 30.7165 43.7716 29.0337 44.6597 26.9972C45.5477 24.9607 45.7323 22.6864 45.1843 20.5334C44.6363 18.3803 43.3869 16.471 41.6333 15.1069C39.8796 13.7427 37.7216 13.0014 35.4999 13H32.9799C32.3745 10.6585 31.2462 8.48464 29.6798 6.64195C28.1134 4.79927 26.1496 3.33567 23.9361 2.36118C21.7226 1.3867 19.317 0.926686 16.9002 1.01573C14.4833 1.10478 12.1181 1.74057 9.98227 2.8753C7.84649 4.01003 5.99574 5.61417 4.56916 7.56713C3.14259 9.52009 2.1773 11.771 1.74588 14.1508C1.31446 16.5305 1.42813 18.977 2.07835 21.3065C2.72856 23.636 3.8984 25.7877 5.49992 27.6" stroke="#4D4D4D" stroke-width="2" stroke-linecap="round" stroke-linejoin="round"/>
<path d="M31.5 27L23.5 19L15.5 27" stroke="#4D4D4D" stroke-width="2" stroke-linecap="round" stroke-linejoin="round"/>
</svg>
