<svg width="61" height="60" viewBox="0 0 61 60" fill="none" xmlns="http://www.w3.org/2000/svg">
<rect x="0.5" width="60" height="60" rx="20" fill="#E3ECF8"/>
<path fill-rule="evenodd" clip-rule="evenodd" d="M30.5 44C38.232 44 44.5 37.732 44.5 30C44.5 22.268 38.232 16 30.5 16C22.768 16 16.5 22.268 16.5 30C16.5 37.732 22.768 44 30.5 44ZM31.55 21.6C31.55 21.0201 31.0799 20.55 30.5 20.55C29.9201 20.55 29.45 21.0201 29.45 21.6V22.0434C27.1674 22.4521 25.25 24.1671 25.25 26.5C25.25 29.184 27.7879 31.05 30.5 31.05C32.4271 31.05 33.65 32.318 33.65 33.5C33.65 34.682 32.4271 35.95 30.5 35.95C28.5729 35.95 27.35 34.682 27.35 33.5C27.35 32.9201 26.8799 32.45 26.3 32.45C25.7201 32.45 25.25 32.9201 25.25 33.5C25.25 35.8329 27.1674 37.5479 29.45 37.9566V38.4C29.45 38.9799 29.9201 39.45 30.5 39.45C31.0799 39.45 31.55 38.9799 31.55 38.4V37.9566C33.8326 37.5479 35.75 35.8329 35.75 33.5C35.75 30.816 33.2121 28.95 30.5 28.95C28.5729 28.95 27.35 27.682 27.35 26.5C27.35 25.318 28.5729 24.05 30.5 24.05C32.4271 24.05 33.65 25.318 33.65 26.5C33.65 27.0799 34.1201 27.55 34.7 27.55C35.2799 27.55 35.75 27.0799 35.75 26.5C35.75 24.1671 33.8326 22.4521 31.55 22.0434V21.6Z" fill="#4589FF"/>
</svg>
