<svg width="24" height="24" viewBox="0 0 24 25" fill="none" xmlns="http://www.w3.org/2000/svg">
<path fill-rule="evenodd" clip-rule="evenodd" d="M18.364 3.55762C18.7782 3.55762 19.114 3.8934 19.114 4.30762V8.55026C19.114 8.96447 18.7782 9.30026 18.364 9.30026H14.1213C13.7071 9.30026 13.3713 8.96447 13.3713 8.55026C13.3713 8.13604 13.7071 7.80026 14.1213 7.80026H16.4817C13.6363 5.55718 9.4987 5.74825 6.87348 8.37348C4.04217 11.2048 4.04217 15.7952 6.87348 18.6265C9.70478 21.4578 14.2952 21.4578 17.1265 18.6265C19.0234 16.7297 19.6504 14.0428 19.0039 11.6219C18.897 11.2217 19.1348 10.8106 19.535 10.7038C19.9352 10.5969 20.3462 10.8347 20.4531 11.2349C21.2321 14.1518 20.478 17.3964 18.1872 19.6872C14.7701 23.1043 9.2299 23.1043 5.81282 19.6872C2.39573 16.2701 2.39573 10.7299 5.81282 7.31282C9.04483 4.0808 14.1762 3.90576 17.614 6.78768V4.30762C17.614 3.8934 17.9497 3.55762 18.364 3.55762Z" fill="#4D4D4D"/>
</svg>
