<svg xmlns="http://www.w3.org/2000/svg" width="24" height="24" viewBox="0 0 24 24" fill="none">
  <path d="M5.7423 3.50828C5.46204 3.62437 5.27931 3.89785 5.27931 4.20119V8.44383C5.27931 8.85805 5.6151 9.19383 6.02931 9.19383H10.272C10.5753 9.19383 10.8488 9.0111 10.9649 8.73085C11.0809 8.45059 11.0168 8.128 10.8023 7.9135L9.19928 6.3105C11.8326 5.20912 14.9839 5.7309 17.1265 7.87348C19.9578 10.7048 19.9578 15.2952 17.1265 18.1265C14.2952 20.9578 9.70478 20.9578 6.87348 18.1265C5.22727 16.4803 4.53775 14.2401 4.8065 12.0937C4.85796 11.6827 4.56649 11.3078 4.15548 11.2563C3.74448 11.2049 3.36958 11.4963 3.31812 11.9073C2.99433 14.4934 3.82537 17.1997 5.81282 19.1872C9.2299 22.6043 14.7701 22.6043 18.1872 19.1872C21.6043 15.7701 21.6043 10.2299 18.1872 6.81282C15.4488 4.07444 11.3485 3.5312 8.06906 5.18028L6.55964 3.67086C6.34514 3.45637 6.02255 3.3922 5.7423 3.50828Z" fill="#DA1E28"/>
</svg>