<svg width="12" height="12" viewBox="0 0 12 12" fill="none" xmlns="http://www.w3.org/2000/svg">
<path fill-rule="evenodd" clip-rule="evenodd" d="M5.75 1.375C3.33375 1.375 1.375 3.33375 1.375 5.75C1.375 8.16625 3.33375 10.125 5.75 10.125C8.16625 10.125 10.125 8.16625 10.125 5.75C10.125 3.33375 8.16625 1.375 5.75 1.375ZM0.625 5.75C0.625 2.91954 2.91954 0.625 5.75 0.625C8.58046 0.625 10.875 2.91954 10.875 5.75C10.875 7.03026 10.4056 8.20087 9.62943 9.0991L11.2652 10.7348C11.4116 10.8813 11.4116 11.1187 11.2652 11.2652C11.1187 11.4116 10.8813 11.4116 10.7348 11.2652L9.0991 9.62943C8.20087 10.4056 7.03026 10.875 5.75 10.875C2.91954 10.875 0.625 8.58046 0.625 5.75Z" fill="#999999"/>
</svg>
