<svg width="152" height="25" viewBox="0 0 152 25" fill="none" xmlns="http://www.w3.org/2000/svg">
<path fill-rule="evenodd" clip-rule="evenodd" d="M7.6087 1.5C5.61567 1.5 4 3.11567 4 5.1087V20.4412C4 22.1305 5.36948 23.5 7.05882 23.5H14C17.3137 23.5 20 20.8137 20 17.5C20 14.9259 18.3791 12.7304 16.1022 11.8786C17.2702 10.7839 18 9.22715 18 7.5C18 4.18629 15.3137 1.5 12 1.5H7.6087ZM12 11.5C14.2091 11.5 16 9.70914 16 7.5C16 5.29086 14.2091 3.5 12 3.5H7.6087C6.72024 3.5 6 4.22024 6 5.1087V11.5H12ZM6 13.5V20.4412C6 21.0259 6.47405 21.5 7.05882 21.5H14C16.2091 21.5 18 19.7091 18 17.5C18 15.2909 16.2091 13.5 14 13.5H6Z" fill="black"/>
<path fill-rule="evenodd" clip-rule="evenodd" d="M58.9768 1.50026H53C52.4477 1.50026 52 1.94798 52 2.50026C52 3.05255 52.4477 3.50026 53 3.50026H57.656L52.256 21.5003H47C46.4477 21.5003 46 21.948 46 22.5003C46 23.0525 46.4477 23.5003 47 23.5003H52.9775C52.9928 23.5006 53.0081 23.5006 53.0232 23.5003H59C59.5523 23.5003 60 23.0525 60 22.5003C60 21.948 59.5523 21.5003 59 21.5003H54.344L59.744 3.50026H65C65.5523 3.50026 66 3.05255 66 2.50026C66 1.94798 65.5523 1.50026 65 1.50026H59.0225C59.0072 1.49991 58.992 1.49991 58.9768 1.50026Z" fill="#4D4D4D"/>
<path d="M93 3.5C93 2.94772 92.5523 2.5 92 2.5C91.4477 2.5 91 2.94772 91 3.5V9.5C91 14.4706 95.0294 18.5 100 18.5C104.971 18.5 109 14.4706 109 9.5V3.5C109 2.94772 108.552 2.5 108 2.5C107.448 2.5 107 2.94772 107 3.5V9.5C107 13.366 103.866 16.5 100 16.5C96.134 16.5 93 13.366 93 9.5V3.5Z" fill="#4D4D4D"/>
<path d="M92 20.5C91.4477 20.5 91 20.9477 91 21.5C91 22.0523 91.4477 22.5 92 22.5H108C108.552 22.5 109 22.0523 109 21.5C109 20.9477 108.552 20.5 108 20.5H92Z" fill="#4D4D4D"/>
<path d="M139.4 17.1L134.8 12.5L139.4 7.9L138 6.5L132 12.5L138 18.5L139.4 17.1ZM144.6 17.1L149.2 12.5L144.6 7.9L146 6.5L152 12.5L146 18.5L144.6 17.1Z" fill="black"/>
</svg>
