<svg width="60" height="60" viewBox="0 0 60 60" fill="none" xmlns="http://www.w3.org/2000/svg">
<rect width="60" height="60" rx="20" fill="#E3ECF8"/>
<path d="M26.85 30.2C26.85 28.4603 28.2603 27.05 30 27.05C31.7397 27.05 33.15 28.4603 33.15 30.2C33.15 31.9397 31.7397 33.35 30 33.35C28.2603 33.35 26.85 31.9397 26.85 30.2Z" fill="#4589FF"/>
<path fill-rule="evenodd" clip-rule="evenodd" d="M16 30.2C16 32.4951 16.595 33.2681 17.7849 34.8139C20.1608 37.9006 24.1454 41.4 30 41.4C35.8546 41.4 39.8393 37.9006 42.2151 34.8139C43.4051 33.2681 44 32.4951 44 30.2C44 27.9049 43.4051 27.1319 42.2151 25.5861C39.8393 22.4994 35.8546 19 30 19C24.1454 19 20.1607 22.4994 17.7848 25.5861C16.5949 27.1319 16 27.9049 16 30.2ZM30 24.95C27.1005 24.95 24.75 27.3005 24.75 30.2C24.75 33.0995 27.1005 35.45 30 35.45C32.8995 35.45 35.25 33.0995 35.25 30.2C35.25 27.3005 32.8995 24.95 30 24.95Z" fill="#4589FF"/>
</svg>
