<svg width="61" height="60" viewBox="0 0 61 60" fill="none" xmlns="http://www.w3.org/2000/svg">
<rect x="0.25" width="60" height="60" rx="20" fill="#E3ECF8"/>
<path fill-rule="evenodd" clip-rule="evenodd" d="M16.25 27.2C16.25 21.9203 16.25 19.2804 17.8902 17.6402C19.5304 16 22.1703 16 27.45 16H30.25C35.5297 16 38.1696 16 39.8098 17.6402C40.6018 18.4322 41.0113 19.4572 41.2232 20.9C39.9104 20.8997 38.5976 21.4004 37.5961 22.4019L37.418 22.5801L35.8614 24.1366L30.2524 29.7456L30.2523 29.7456C29.8744 30.1233 29.5648 30.4327 29.2924 30.782C28.9731 31.1913 28.6994 31.6341 28.4761 32.1027C28.2855 32.5027 28.1473 32.9179 27.9785 33.4248L27.9478 33.517L27.2826 35.5124L26.8997 36.6611C26.5504 37.7091 26.8232 38.8646 27.6043 39.6457C28.3855 40.4269 29.5409 40.6996 30.5889 40.3503L33.8253 39.2715L33.8254 39.2715C34.3323 39.1028 34.7474 38.9645 35.1474 38.7739C35.6159 38.5506 36.0588 38.2769 36.468 37.9577C36.8174 37.6852 37.1267 37.3757 37.5044 36.9977L41.45 33.0521C41.4496 38.1642 41.4237 40.7459 39.8098 42.3598C38.1696 44 35.5297 44 30.25 44H27.45C22.1703 44 19.5304 44 17.8902 42.3598C16.25 40.7196 16.25 38.0797 16.25 32.8V27.2ZM23.25 24.75C22.6701 24.75 22.2 25.2201 22.2 25.8C22.2 26.3799 22.6701 26.85 23.25 26.85H32.35C32.9299 26.85 33.4 26.3799 33.4 25.8C33.4 25.2201 32.9299 24.75 32.35 24.75H23.25ZM23.25 30.35C22.6701 30.35 22.2 30.8201 22.2 31.4C22.2 31.9799 22.6701 32.45 23.25 32.45H26.75C27.3299 32.45 27.8 31.9799 27.8 31.4C27.8 30.8201 27.3299 30.35 26.75 30.35H23.25ZM23.25 35.95C22.6701 35.95 22.2 36.4201 22.2 37C22.2 37.5799 22.6701 38.05 23.25 38.05H25.35C25.9299 38.05 26.4 37.5799 26.4 37C26.4 36.4201 25.9299 35.95 25.35 35.95H23.25ZM43.3631 23.8869C44.5456 25.0694 44.5456 26.9866 43.3631 28.1691L43.185 28.3472C43.0131 28.5191 42.7731 28.5969 42.5338 28.554C42.3833 28.527 42.1633 28.4769 41.9007 28.3858C41.3756 28.2036 40.6863 27.8596 40.0384 27.2116C39.3904 26.5637 39.0464 25.8744 38.8642 25.3493C38.7731 25.0867 38.723 24.8667 38.696 24.7162C38.6531 24.4769 38.7309 24.2369 38.9028 24.065L39.0809 23.8869C40.2634 22.7044 42.1806 22.7044 43.3631 23.8869ZM36.0881 35.4441C35.6437 35.8885 35.4215 36.1107 35.1764 36.3018C34.8874 36.5273 34.5747 36.7205 34.2438 36.8782C33.9633 37.0119 33.6652 37.1113 33.069 37.31L33.069 37.31L32.2985 37.5668L31.0735 37.9752L29.9248 38.3581C29.6314 38.4559 29.3079 38.3795 29.0892 38.1608C28.8705 37.9421 28.7941 37.6186 28.8919 37.3252L29.2748 36.1765L29.6832 34.9515L29.94 34.181C30.1387 33.5848 30.2381 33.2867 30.3718 33.0062C30.5295 32.6753 30.7227 32.3626 30.9482 32.0736C31.1393 31.8286 31.3615 31.6063 31.8059 31.162L31.8059 31.1619L31.8059 31.1619L31.8059 31.1619L37.3463 25.6216C37.4802 25.4876 37.7109 25.5489 37.773 25.7279C37.9999 26.3819 38.4259 27.2326 39.2216 28.0284C40.0174 28.8241 40.8681 29.2501 41.5221 29.477C41.7011 29.5391 41.7624 29.7698 41.6284 29.9037L36.0881 35.4441Z" fill="#4589FF"/>
</svg>
