<svg width="61" height="60" viewBox="0 0 61 60" fill="none" xmlns="http://www.w3.org/2000/svg">
<rect x="0.582031" width="60" height="60" rx="20" fill="#E3ECF8"/>
<path d="M18.0439 16.1764C17.4621 15.9825 16.8333 16.2969 16.6393 16.8787C16.4454 17.4605 16.7598 18.0894 17.3416 18.2833L17.7338 18.4141C18.7353 18.7479 19.3975 18.9704 19.8852 19.1973C20.3471 19.4122 20.5468 19.5851 20.6748 19.7626C20.8027 19.9402 20.9036 20.1843 20.9614 20.6904C21.0224 21.2249 21.0241 21.9234 21.0241 22.9791L21.0241 26.935C21.0241 28.9598 21.0241 30.5919 21.1966 31.8755C21.3758 33.2082 21.7591 34.3303 22.6503 35.2215C23.5415 36.1127 24.6636 36.496 25.9963 36.6752C27.2799 36.8478 28.912 36.8478 30.9368 36.8477H41.3822C41.9955 36.8477 42.4927 36.3506 42.4927 35.7373C42.4927 35.124 41.9955 34.6268 41.3822 34.6268H31.0181C28.8928 34.6268 27.4106 34.6245 26.2922 34.4741C25.2058 34.3281 24.6305 34.0609 24.2207 33.6511C23.8725 33.3029 23.6273 32.8351 23.4718 32.0358H38.4537C39.8742 32.0358 40.5844 32.0358 41.1407 31.669C41.697 31.3022 41.9768 30.6494 42.5363 29.3437L43.1709 27.8631C44.3694 25.0666 44.9687 23.6683 44.3104 22.67C43.6521 21.6717 42.1308 21.6717 39.0882 21.6717H23.2377C23.2289 21.2161 23.2098 20.8051 23.168 20.4385C23.086 19.7207 22.9074 19.062 22.4764 18.4641C22.0455 17.8661 21.4771 17.4884 20.822 17.1837C20.2057 16.897 19.422 16.6357 18.4946 16.3267L18.0439 16.1764Z" fill="#4589FF"/>
<path d="M25.8357 39.4388C27.0623 39.4388 28.0566 40.4331 28.0566 41.6597C28.0566 42.8863 27.0623 43.8806 25.8357 43.8806C24.6092 43.8806 23.6148 42.8863 23.6148 41.6597C23.6148 40.4332 24.6092 39.4388 25.8357 39.4388Z" fill="#4589FF"/>
<path d="M39.1611 39.4389C40.3876 39.4389 41.3819 40.4333 41.3819 41.6598C41.3819 42.8864 40.3876 43.8807 39.1611 43.8807C37.9345 43.8807 36.9402 42.8864 36.9402 41.6598C36.9402 40.4333 37.9345 39.4389 39.1611 39.4389Z" fill="#4589FF"/>
</svg>
