<svg width="25" height="24" viewBox="0 0 25 24" fill="none" xmlns="http://www.w3.org/2000/svg">
<path d="M4.6499 0H20.1499C22.4999 0 24.3999 1.94872 24.3999 4.35897V19.641C24.3999 22.0513 22.4999 24 20.1499 24H4.6499C2.2999 24 0.399902 22.0513 0.399902 19.641V4.35897C0.399902 1.94872 2.2999 0 4.6499 0Z" fill="#330000"/>
<path d="M11.9996 14.3589H8.27957L7.51957 16.7692C7.49957 16.8615 7.41957 16.923 7.32957 16.9127H5.44957C5.33957 16.9127 5.30957 16.8512 5.33957 16.7281L8.55957 7.22043C8.58957 7.11787 8.61957 7.00505 8.65957 6.88197C8.69957 6.66659 8.71957 6.44095 8.71957 6.21531C8.70957 6.16402 8.74957 6.11274 8.79957 6.10249H11.3896C11.4696 6.10249 11.5096 6.13325 11.5196 6.18454L15.1696 16.7486C15.1996 16.8615 15.1696 16.9127 15.0696 16.9127H12.9796C12.9096 16.923 12.8396 16.8717 12.8196 16.7999L11.9996 14.3589ZM8.85957 12.2768H11.3996C11.3396 12.0615 11.2596 11.805 11.1696 11.5384C11.0796 11.2615 10.9896 10.964 10.8996 10.6563C10.7996 10.3384 10.7096 10.0307 10.6096 9.71274C10.5096 9.39479 10.4196 9.09736 10.3396 8.79992C10.2596 8.51274 10.1896 8.24608 10.1196 7.99992H10.0996C10.0096 8.44095 9.89957 8.88197 9.75957 9.323C9.60957 9.81531 9.45957 10.3281 9.29957 10.8409C9.15957 11.364 9.00957 11.8461 8.85957 12.2768ZM17.3996 7.89736C17.0696 7.90761 16.7496 7.77428 16.5096 7.53838C16.2796 7.28197 16.1596 6.94351 16.1696 6.59479C16.1596 6.24608 16.2896 5.91787 16.5296 5.68197C16.7696 5.44607 17.0896 5.323 17.4196 5.323C17.8096 5.323 18.1096 5.44607 18.3296 5.68197C18.5496 5.92813 18.6696 6.25633 18.6596 6.59479C18.6696 6.94351 18.5496 7.28197 18.3096 7.53838C18.0796 7.78454 17.7396 7.91787 17.3996 7.89736ZM16.2796 16.7999V8.90249C16.2796 8.79992 16.3196 8.7589 16.4096 8.7589H18.3896C18.4796 8.7589 18.5196 8.81018 18.5196 8.90249V16.7999C18.5196 16.9127 18.4796 16.964 18.3896 16.964H16.4296C16.3296 16.964 16.2796 16.9025 16.2796 16.7999Z" fill="#FF9A00"/>
</svg>
