<svg width="26" height="26" viewBox="0 0 26 26" fill="none" xmlns="http://www.w3.org/2000/svg">
<path d="M1 13C1 7.34358 1 4.51411 2.75705 2.75705C4.51411 1 7.34232 1 13 1C18.6564 1 21.4859 1 23.2429 2.75705C25 4.51411 25 7.34232 25 13C25 18.6564 25 21.4859 23.2429 23.2429C21.4859 25 18.6577 25 13 25C7.34358 25 4.51411 25 2.75705 23.2429C1 21.4859 1 18.6577 1 13Z" stroke="black" stroke-width="1.5" stroke-linecap="round" stroke-linejoin="round"/>
<path d="M5.42113 14.8948L7.31587 9.21054L9.68429 14.8948M5.42113 14.8948L4.78955 16.7895M5.42113 14.8948H9.68429M9.68429 14.8948L10.4738 16.7895M13.6317 13V10.0948C13.6317 9.8598 13.6317 9.74107 13.662 9.64633C13.6931 9.55164 13.7461 9.46566 13.8168 9.3954C13.8875 9.32515 13.9738 9.27262 14.0687 9.24212C14.1622 9.21054 14.2797 9.21054 14.5159 9.21054H16.158C16.6605 9.21054 17.1424 9.41016 17.4978 9.7655C17.8531 10.1208 18.0527 10.6028 18.0527 11.1053C18.0527 11.6078 17.8531 12.0897 17.4978 12.4451C17.1424 12.8004 16.6605 13 16.158 13H13.6317ZM13.6317 13V16.7895M21.2106 9.21054V16.7895" stroke="black" stroke-width="1.5" stroke-linecap="round" stroke-linejoin="round"/>
</svg>
