<svg width="30" height="30" viewBox="0 0 30 30" fill="none" xmlns="http://www.w3.org/2000/svg">
<path fill-rule="evenodd" clip-rule="evenodd" d="M10.3126 8.76682C10.3125 8.76123 10.3125 8.75562 10.3125 8.75V7.5C10.3125 4.91117 12.4112 2.8125 15 2.8125C17.5888 2.8125 19.6875 4.91117 19.6875 7.5V8.75C19.6875 8.75562 19.6875 8.76123 19.6874 8.76682C21.3091 8.81219 22.2968 8.97991 23.0532 9.59997C24.09 10.4499 24.3786 11.893 24.9558 14.7791L25.7058 18.5291C26.5359 22.6797 26.951 24.7549 25.8257 26.1275C24.7005 27.5 22.5842 27.5 18.3514 27.5H11.6485C7.41578 27.5 5.29942 27.5 4.17421 26.1275C3.04899 24.7549 3.46404 22.6797 4.29415 18.5291L5.04415 14.7791C5.62137 11.893 5.90999 10.4499 6.94678 9.59997C7.70314 8.9799 8.69091 8.81219 10.3126 8.76682ZM12.1875 7.5C12.1875 5.9467 13.4467 4.6875 15 4.6875C16.5533 4.6875 17.8125 5.9467 17.8125 7.5V8.75C17.8125 8.75 17.8125 8.75 17.8125 8.75C17.743 8.74999 17.6727 8.75 17.6014 8.75H12.3985C12.3273 8.75 12.257 8.75 12.1875 8.75001C12.1875 8.75001 12.1875 8.75002 12.1875 8.75001V7.5ZM18.75 13.75C19.4403 13.75 20 13.1904 20 12.5C20 11.8096 19.4403 11.25 18.75 11.25C18.0596 11.25 17.5 11.8096 17.5 12.5C17.5 13.1904 18.0596 13.75 18.75 13.75ZM12.5 12.5C12.5 13.1904 11.9403 13.75 11.25 13.75C10.5596 13.75 9.99997 13.1904 9.99997 12.5C9.99997 11.8096 10.5596 11.25 11.25 11.25C11.9403 11.25 12.5 11.8096 12.5 12.5Z" fill="#F9E959"/>
</svg>
