<svg width="30" height="30" viewBox="0 0 30 30" fill="none" xmlns="http://www.w3.org/2000/svg">
<path fill-rule="evenodd" clip-rule="evenodd" d="M17.8127 5.59942L17.8127 9.4215C17.8125 9.56053 17.8122 9.75873 17.8388 9.92888C17.8713 10.1369 17.9783 10.5385 18.3941 10.7826C18.7946 11.0178 19.1863 10.9305 19.3724 10.8726C19.5348 10.8221 19.7127 10.7373 19.8454 10.6741L21.2502 10.0068L22.655 10.6741C22.7877 10.7373 22.9657 10.8221 23.128 10.8726C23.3142 10.9305 23.7059 11.0178 24.1063 10.7826C24.5222 10.5385 24.6291 10.1369 24.6617 9.92888C24.6882 9.75875 24.688 9.56056 24.6878 9.42153L24.6877 3.78913C24.8287 3.7825 24.9672 3.7769 25.1025 3.77218C26.4422 3.72552 27.5 4.82593 27.5 6.16649V20.1795C27.5 21.5682 26.3674 22.6918 24.9814 22.7785C23.7696 22.8543 22.3459 23.0025 21.25 23.2917C19.8982 23.6484 18.2838 24.4206 17.0345 25.0866C16.6857 25.2725 16.3163 25.4072 15.9377 25.4907V6.46733C16.3387 6.36913 16.728 6.21427 17.0923 6.00344C17.3227 5.87012 17.5642 5.73415 17.8127 5.59942ZM24.6597 16.0226C24.7853 16.5249 24.4799 17.0339 23.9776 17.1595L18.9776 18.4095C18.4753 18.5351 17.9663 18.2297 17.8407 17.7274C17.7151 17.2251 18.0205 16.7161 18.5228 16.5905L23.5228 15.3405C24.0252 15.2149 24.5342 15.5203 24.6597 16.0226Z" fill="#F9E959"/>
<path fill-rule="evenodd" clip-rule="evenodd" d="M14.0627 6.51746C13.6449 6.4381 13.2367 6.29731 12.8528 6.09432C11.6201 5.44251 10.0615 4.70539 8.75 4.3593C7.64186 4.06689 6.19847 3.91862 4.978 3.84361C3.60788 3.7594 2.5 4.87454 2.5 6.24725V20.1795C2.5 21.5682 3.63256 22.6918 5.01857 22.7785C6.23035 22.8543 7.65412 23.0025 8.75 23.2917C10.1018 23.6484 11.7162 24.4206 12.9655 25.0866C13.3145 25.2726 13.684 25.4073 14.0627 25.4908V6.51746ZM5.34071 11.0226C5.46629 10.5203 5.97529 10.2149 6.4776 10.3405L11.4776 11.5905C11.9799 11.7161 12.2853 12.2251 12.1597 12.7274C12.0342 13.2297 11.5252 13.5351 11.0228 13.4095L6.02284 12.1595C5.52054 12.0339 5.21514 11.5249 5.34071 11.0226ZM6.4776 15.3405C5.97529 15.2149 5.46629 15.5203 5.34071 16.0226C5.21514 16.5249 5.52054 17.0339 6.02284 17.1595L11.0228 18.4095C11.5252 18.5351 12.0342 18.2297 12.1597 17.7274C12.2853 17.2251 11.9799 16.7161 11.4776 16.5905L6.4776 15.3405Z" fill="#F9E959"/>
<path d="M22.8127 3.93876C22.0377 4.03039 21.2758 4.16449 20.625 4.3593C20.3231 4.44969 20.008 4.56426 19.6877 4.6955V4.93753V8.67324L20.6244 8.22832L20.6354 8.22277C20.6966 8.19145 20.9548 8.05946 21.2502 8.05946C21.3096 8.05946 21.3676 8.0648 21.4227 8.07358C21.6415 8.10848 21.8161 8.19775 21.8651 8.22277L21.8761 8.22832L22.8127 8.67324V4.55831V3.93876Z" fill="#F9E959"/>
</svg>
