<svg width="30" height="30" viewBox="0 0 30 30" fill="none" xmlns="http://www.w3.org/2000/svg">
<path d="M6.25 6.25C6.25 5.74168 5.94658 5.30423 5.51098 5.10887C5.69088 4.96718 5.9089 4.87018 6.14949 4.83581L19.6464 2.90768C21.1525 2.69252 22.5 3.86118 22.5 5.38255V6.40752C22.1005 6.30469 21.6816 6.25 21.25 6.25H6.25Z" fill="#24A148"/>
<path d="M12.1875 16.25C12.1875 14.6967 13.4467 13.4375 15 13.4375C16.5533 13.4375 17.8125 14.6967 17.8125 16.25C17.8125 17.8033 16.5533 19.0625 15 19.0625C13.4467 19.0625 12.1875 17.8033 12.1875 16.25Z" fill="#24A148"/>
<path fill-rule="evenodd" clip-rule="evenodd" d="M22.5 7.71338C23.9565 8.22818 25 9.61723 25 11.25V23.75C25 25.8211 23.3211 27.5 21.25 27.5H8.75C6.67893 27.5 5 25.8211 5 23.75V6.25C5 6.47768 5.06087 6.69114 5.16723 6.875C5.38336 7.24863 5.78732 7.5 6.25 7.5H21.25C21.6883 7.5 22.109 7.57519 22.5 7.71338ZM15 11.5625C12.4112 11.5625 10.3125 13.6612 10.3125 16.25C10.3125 18.8388 12.4112 20.9375 15 20.9375C17.5888 20.9375 19.6875 18.8388 19.6875 16.25C19.6875 13.6612 17.5888 11.5625 15 11.5625ZM12.5 22.8125C11.9822 22.8125 11.5625 23.2322 11.5625 23.75C11.5625 24.2678 11.9822 24.6875 12.5 24.6875H17.5C18.0178 24.6875 18.4375 24.2678 18.4375 23.75C18.4375 23.2322 18.0178 22.8125 17.5 22.8125H12.5Z" fill="#24A148"/>
</svg>
