<svg width="30" height="30" viewBox="0 0 30 30" fill="none" xmlns="http://www.w3.org/2000/svg">
<path fill-rule="evenodd" clip-rule="evenodd" d="M2.5 20.1795V6.24725C2.5 4.87454 3.60788 3.7594 4.978 3.84361C6.19847 3.91862 7.64186 4.06689 8.75 4.3593C10.0615 4.70539 11.6201 5.44251 12.8528 6.09432C13.2367 6.29731 13.6449 6.4381 14.0627 6.51746V25.4908C13.684 25.4073 13.3145 25.2726 12.9655 25.0866C11.7162 24.4206 10.1018 23.6484 8.75 23.2917C7.65412 23.0025 6.23035 22.8543 5.01857 22.7785C3.63256 22.6918 2.5 21.5682 2.5 20.1795ZM6.4776 10.3405C5.97529 10.2149 5.46629 10.5203 5.34071 11.0226C5.21514 11.5249 5.52054 12.0339 6.02284 12.1595L11.0228 13.4095C11.5252 13.5351 12.0342 13.2297 12.1597 12.7274C12.2853 12.2251 11.9799 11.7161 11.4776 11.5905L6.4776 10.3405ZM6.4776 15.3405C5.97529 15.2149 5.46629 15.5203 5.34071 16.0226C5.21514 16.5249 5.52054 17.0339 6.02284 17.1595L11.0228 18.4095C11.5252 18.5351 12.0342 18.2297 12.1597 17.7274C12.2853 17.2251 11.9799 16.7161 11.4776 16.5905L6.4776 15.3405Z" fill="#4589FF"/>
<path fill-rule="evenodd" clip-rule="evenodd" d="M15.9377 25.4907C16.3163 25.4072 16.6857 25.2725 17.0345 25.0866C18.2838 24.4206 19.8982 23.6484 21.25 23.2917C22.3459 23.0025 23.7696 22.8543 24.9814 22.7785C26.3674 22.6918 27.5 21.5682 27.5 20.1795V6.16649C27.5 4.82593 26.4422 3.72552 25.1025 3.77218C23.6917 3.82132 21.9336 3.96753 20.625 4.3593C19.4905 4.69895 18.1691 5.38023 17.0923 6.00344C16.728 6.21427 16.3387 6.36913 15.9377 6.46733V25.4907ZM23.9776 12.1595C24.4799 12.0339 24.7853 11.5249 24.6597 11.0226C24.5342 10.5203 24.0252 10.2149 23.5228 10.3405L18.5228 11.5905C18.0205 11.7161 17.7151 12.2251 17.8407 12.7274C17.9663 13.2297 18.4753 13.5351 18.9776 13.4095L23.9776 12.1595ZM23.9776 17.1595C24.4799 17.0339 24.7853 16.5249 24.6597 16.0226C24.5342 15.5203 24.0252 15.2149 23.5228 15.3405L18.5228 16.5905C18.0205 16.7161 17.7151 17.2251 17.8407 17.7274C17.9663 18.2297 18.4753 18.5351 18.9776 18.4095L23.9776 17.1595Z" fill="#4589FF"/>
</svg>
