<svg width="25" height="24" viewBox="0 0 25 24" fill="none" xmlns="http://www.w3.org/2000/svg">
<path fill-rule="evenodd" clip-rule="evenodd" d="M9.52365 11.9474C9.52365 12.8755 10.1199 13.665 10.9522 13.9577V10.7632H9.52365V11.9474ZM13.6874 9.34211C13.3933 8.51421 12.5995 7.92105 11.6665 7.92105C10.7335 7.92105 9.93975 8.51421 9.64558 9.34211H13.6874ZM13.8094 10.7632H12.3808V13.9577C13.2131 13.665 13.8094 12.8755 13.8094 11.9474V10.7632Z" fill="#1E6AD2"/>
<path fill-rule="evenodd" clip-rule="evenodd" d="M22.4548 21.7883C22.7371 21.506 22.7371 21.0483 22.4548 20.7659L18.7889 17.1002C20.1549 15.5007 20.9798 13.425 20.9798 11.1566C20.9798 6.09956 16.8802 2 11.8231 2C6.76607 2 2.6665 6.09956 2.6665 11.1566C2.6665 16.2137 6.76607 20.3133 11.8231 20.3133C14.0914 20.3133 16.1671 19.4885 17.7665 18.1225L21.4325 21.7883C21.7148 22.0706 22.1725 22.0706 22.4548 21.7883ZM8.85596 7.86036C9.5098 7.03208 10.5257 6.5 11.6665 6.5C12.8073 6.5 13.8232 7.03207 14.477 7.86036L15.1566 7.52238C15.5094 7.34689 15.9385 7.48915 16.1149 7.84014C16.2913 8.19112 16.1483 8.61792 15.7955 8.79341L15.1166 9.13106C15.1957 9.42496 15.2379 9.73389 15.2379 10.0526V10.2895H15.9522C16.3467 10.2895 16.6665 10.6076 16.6665 11C16.6665 11.3924 16.3467 11.7105 15.9522 11.7105H15.2379V11.9474C15.2379 12.2661 15.1957 12.575 15.1166 12.8689L15.7955 13.2066C16.1483 13.3821 16.2913 13.8089 16.1149 14.1599C15.9385 14.5108 15.5094 14.6531 15.1566 14.4776L14.477 14.1396C13.8232 14.9679 12.8073 15.5 11.6665 15.5C10.5257 15.5 9.5098 14.9679 8.85596 14.1396L8.17642 14.4776C7.82358 14.6531 7.39452 14.5108 7.2181 14.1599C7.04168 13.8089 7.1847 13.3821 7.53754 13.2066L8.21641 12.8689C8.13727 12.575 8.09508 12.2661 8.09508 11.9474V11.7105H7.38079C6.9863 11.7105 6.6665 11.3924 6.6665 11C6.6665 10.6076 6.9863 10.2895 7.38079 10.2895H8.09508V10.0526C8.09508 9.73389 8.13727 9.42496 8.21641 9.13106L7.53754 8.79341C7.1847 8.61792 7.04168 8.19112 7.2181 7.84014C7.39452 7.48915 7.82358 7.34689 8.17642 7.52238L8.85596 7.86036Z" fill="#1E6AD2"/>
</svg>
