<svg width="12" height="12" viewBox="0 0 12 12" fill="none" xmlns="http://www.w3.org/2000/svg">
<path d="M3.875 1.25C3.875 1.04289 3.70711 0.875 3.5 0.875C3.29289 0.875 3.125 1.04289 3.125 1.25V2.03963C2.40533 2.09726 1.93289 2.23869 1.58579 2.58579C1.23869 2.93289 1.09726 3.40533 1.03963 4.125H10.9604C10.9027 3.40533 10.7613 2.93289 10.4142 2.58579C10.0671 2.23869 9.59466 2.09726 8.875 2.03963V1.25C8.875 1.04289 8.70711 0.875 8.5 0.875C8.29289 0.875 8.125 1.04289 8.125 1.25V2.00645C7.79237 2 7.41952 2 7 2H5C4.58048 2 4.20763 2 3.875 2.00645V1.25Z" fill="#237DF7"/>
<path fill-rule="evenodd" clip-rule="evenodd" d="M1 6C1 5.58048 1 5.20763 1.00645 4.875H10.9935C11 5.20763 11 5.58048 11 6V7C11 8.88562 11 9.82843 10.4142 10.4142C9.82843 11 8.88562 11 7 11H5C3.11438 11 2.17157 11 1.58579 10.4142C1 9.82843 1 8.88562 1 7V6ZM8.5 7C8.77614 7 9 6.77614 9 6.5C9 6.22386 8.77614 6 8.5 6C8.22386 6 8 6.22386 8 6.5C8 6.77614 8.22386 7 8.5 7ZM8.5 9C8.77614 9 9 8.77614 9 8.5C9 8.22386 8.77614 8 8.5 8C8.22386 8 8 8.22386 8 8.5C8 8.77614 8.22386 9 8.5 9ZM6.5 6.5C6.5 6.77614 6.27614 7 6 7C5.72386 7 5.5 6.77614 5.5 6.5C5.5 6.22386 5.72386 6 6 6C6.27614 6 6.5 6.22386 6.5 6.5ZM6.5 8.5C6.5 8.77614 6.27614 9 6 9C5.72386 9 5.5 8.77614 5.5 8.5C5.5 8.22386 5.72386 8 6 8C6.27614 8 6.5 8.22386 6.5 8.5ZM3.5 7C3.77614 7 4 6.77614 4 6.5C4 6.22386 3.77614 6 3.5 6C3.22386 6 3 6.22386 3 6.5C3 6.77614 3.22386 7 3.5 7ZM3.5 9C3.77614 9 4 8.77614 4 8.5C4 8.22386 3.77614 8 3.5 8C3.22386 8 3 8.22386 3 8.5C3 8.77614 3.22386 9 3.5 9Z" fill="#237DF7"/>
</svg>
