<svg width="31" height="32" viewBox="0 0 31 32" fill="none" xmlns="http://www.w3.org/2000/svg">
<path d="M11.3561 9.24003C10.7027 8.58666 9.64341 8.58666 8.99003 9.24003C8.33666 9.89341 8.33666 10.9527 8.99003 11.6061L13.3839 16L8.99008 20.3939C8.3367 21.0473 8.3367 22.1066 8.99008 22.76C9.64346 23.4133 10.7028 23.4133 11.3562 22.76L15.75 18.3661L20.1438 22.7599C20.7972 23.4133 21.8565 23.4133 22.5099 22.7599C23.1633 22.1065 23.1633 21.0472 22.5099 20.3938L18.1161 16L22.51 11.6062C23.1633 10.9528 23.1633 9.89346 22.51 9.24008C21.8566 8.5867 20.7973 8.5867 20.1439 9.24008L15.75 13.6339L11.3561 9.24003Z" fill="#237DF7"/>
</svg>
