<svg xmlns="http://www.w3.org/2000/svg" width="54" height="54" viewBox="0 0 54 54" fill="none">
    <path
        d="M50.4886 48.032H3.50085C1.57114 48.032 0 46.4608 0 44.5205V9.4696C0 7.53989 1.57114 5.96875 3.50085 5.96875H50.478C52.4182 5.96875 53.9894 7.53989 53.9894 9.4696V44.5205C53.9895 46.4608 52.4183 48.032 50.4886 48.032Z"
        fill="#FFC738" />
    <path
        d="M50.489 5.96875H26.9951V48.032H50.489C52.4292 48.032 53.9898 46.4609 53.9898 44.5312V9.46969C53.9899 7.53998 52.4188 5.96875 50.489 5.96875Z"
        fill="#FFB42E" />
    <path
        d="M53.9895 27.7228V26.2782H35.1248V19.8986L39.9965 15.0269H53.9895C53.9895 14.5312 53.9367 14.0462 53.8524 13.5822H39.6907C39.5009 13.5822 39.3111 13.6666 39.1845 13.8037L34.1019 18.8757H27.7224V5.96875H26.2777V18.865H19.9719L14.8998 13.7929C14.7628 13.6559 14.573 13.5715 14.3831 13.5715H0.147588C0.063214 14.0461 0.0105357 14.5311 0.0105357 15.0161H14.0879L18.8647 19.793V26.2569H0V27.7015H18.8647V34.1655L14.0879 38.9739H0.0105357C0.0105357 39.4695 0.0633026 39.9546 0.147588 40.4185H14.3937C14.5835 40.4185 14.7733 40.3342 14.9104 40.1971L19.9824 35.125H26.2883V48.0213H27.7329V35.1252H34.1125L39.1951 40.1973C39.3216 40.3343 39.5114 40.4187 39.7012 40.4187H53.8629C53.9473 39.9442 54 39.4592 54 38.9741H39.986L35.1142 34.1024V27.7228H53.9895ZM33.6801 33.6806H20.3093V20.3097H33.6696V33.6806H33.6801Z"
        fill="#C66D4E" />
    <path
        d="M53.9898 27.7228V26.2782H35.1251V19.8986L39.9968 15.0269H53.9898C53.9898 14.5312 53.937 14.0462 53.8528 13.5822H39.691C39.5012 13.5822 39.3114 13.6666 39.1849 13.8037L34.1023 18.8757H27.7227V5.96875H26.9951V20.3097H33.6806V33.6805H26.9951V48.0215H27.7227V35.1252H34.1023L39.1849 40.1973C39.3114 40.3343 39.5012 40.4187 39.691 40.4187H53.8528C53.9371 39.9442 53.9898 39.4697 53.9898 38.9741H39.9863L35.1146 34.1024V27.7228H53.9898Z"
        fill="#AF5A35" />
</svg>