<svg width="24" height="24" viewBox="0 0 24 24" fill="none" xmlns="http://www.w3.org/2000/svg">
<rect x="2.77979" y="2.83716" width="17.7699" height="17.6358" fill="white"/>
<rect x="2.77979" y="2.83716" width="17.7699" height="17.6358" fill="white"/>
<path d="M24 0L21.7496 21.6665L11.9998 24L2.24988 21.6665L0 0H24ZM19.4654 4.40554H11.9911H4.38431L4.74809 7.02198H11.9911H12.3979L11.9911 7.17251L5.01281 9.75597L5.24424 12.3135L11.9911 12.3329L15.6072 12.3431L15.3757 15.7532L11.991 16.6002V16.5975L11.9633 16.6044L8.69453 15.8709L8.49618 13.7541H8.48535H5.45342H5.44275L5.83961 17.8406L11.9911 19.4576V19.4547L12.0022 19.4576L18.1208 17.87L18.9144 9.75597H11.9911H11.9741L11.9911 9.74939L19.1681 7.02198L19.4654 4.40554Z" fill="#33AADD"/>
</svg>
