<svg xmlns="http://www.w3.org/2000/svg" width="48" height="48" viewBox="0 0 48 48" fill="none">
    <path opacity="0.5"
        d="M4 24C4 14.5719 4 9.85786 6.92893 6.92893C9.85786 4 14.5719 4 24 4C33.4281 4 38.1421 4 41.0711 6.92893C44 9.85786 44 14.5719 44 24C44 33.4281 44 38.1421 41.0711 41.0711C38.1421 44 33.4281 44 24 44C14.5719 44 9.85786 44 6.92893 41.0711C4 38.1421 4 33.4281 4 24Z"
        fill="#24A148" />
    <path
        d="M6.92902 41.0711C9.85803 44 14.5722 44 24.0006 44C33.4289 44 38.1431 44 41.0721 41.0711C43.7863 38.357 43.9854 34.1101 44 26H37.6805C35.8701 26 34.9649 26 34.1692 26.3659C33.3735 26.7319 32.7844 27.4192 31.6062 28.7937L30.3953 30.2063C29.2171 31.5808 28.628 32.2681 27.8324 32.6341C27.0367 33 26.1315 33 24.3211 33H23.68C21.8697 33 20.9645 33 20.1688 32.6341C19.3731 32.2681 18.784 31.5808 17.6058 30.2063L16.3949 28.7937C15.2167 27.4192 14.6276 26.7319 13.832 26.3659C13.0363 26 12.1311 26 10.3207 26H4C4.01461 34.1101 4.21487 38.357 6.92902 41.0711Z"
        fill="#24A148" />
    <path
        d="M25.0611 22.6603C24.7797 22.9416 24.3982 23.0996 24.0004 23.0996C23.6026 23.0996 23.221 22.9416 22.9397 22.6603L16.3397 16.0603C15.7539 15.4745 15.7539 14.5247 16.3397 13.939C16.9255 13.3532 17.8753 13.3532 18.4611 13.9389L22.5004 17.9783L22.5004 4.00047C22.9866 4 23.4863 4 24 4C24.514 4 25.014 4 25.5004 4.00047V17.9783L29.5397 13.9389C30.1255 13.3532 31.0753 13.3532 31.661 13.9389C32.2468 14.5247 32.2468 15.4745 31.661 16.0603L25.0611 22.6603Z"
        fill="#24A148" />
</svg>