<svg width="109" height="112" viewBox="0 0 109 112" fill="none" xmlns="http://www.w3.org/2000/svg">
<rect x="0.666504" y="0.779022" width="107.724" height="110.442" rx="12" fill="#FAFAFA"/>
<path fill-rule="evenodd" clip-rule="evenodd" d="M24.1665 29.779C25.5472 29.779 26.6665 28.6597 26.6665 27.279C26.6665 25.8983 25.5472 24.779 24.1665 24.779C22.7858 24.779 21.6665 25.8983 21.6665 27.279C21.6665 28.6597 22.7858 29.779 24.1665 29.779ZM50.9912 41.9975C50.9748 41.8298 50.9412 41.6618 50.8893 41.4957C50.4908 40.2194 49.1632 39.5415 47.9241 39.9816C46.7123 40.4119 46.0339 41.752 46.3771 43.0045L46.2467 43.033C48.5325 53.5063 52.3 58.329 56.665 63.6056L60.5176 60.4186C56.3856 55.4236 53.1745 51.3268 51.1317 41.9668L50.9912 41.9975ZM85.6038 82.3066C85.7451 82.3441 85.8847 82.3951 86.0212 82.4603C87.2357 83.0408 87.7357 84.525 87.138 85.7754C86.5432 87.02 85.0849 87.5638 83.8737 86.9962L83.8732 86.9976C73.7569 83.263 69.4573 78.6771 64.7971 73.4222L68.5379 70.1047C72.9638 75.0953 76.6065 78.985 85.6038 82.3066Z" fill="#412DAB"/>
<path fill-rule="evenodd" clip-rule="evenodd" d="M24.9954 33.8713C25.0008 33.8476 25.0058 33.8237 25.0105 33.7996C25.2797 32.4218 24.3992 31.0901 23.0437 30.8252C21.6882 30.5603 20.3711 31.4625 20.1018 32.8403C20.093 32.8855 20.0854 32.9307 20.079 32.9758L20.0744 33.0012L20.058 33.093C20.0441 33.172 20.0242 33.2863 19.9995 33.434C19.95 33.7293 19.8808 34.1581 19.7997 34.7045C19.6375 35.7968 19.4275 37.3614 19.2324 39.2704C18.843 43.0814 18.5095 48.2997 18.7449 53.8922C18.9795 59.4681 19.7836 65.5253 21.7306 70.9632C23.6785 76.4038 26.8385 81.4046 31.8957 84.5608C38.3918 88.6149 45.0423 87.0054 50.812 83.0684C56.5047 79.184 61.7764 72.7975 66.2215 66.2277C70.6975 59.6124 74.4753 52.5985 77.1273 47.2591C78.4557 44.5845 79.507 42.3191 80.2276 40.7192C80.588 39.919 80.8659 39.2846 81.0547 38.8481C81.0754 38.8002 81.095 38.7547 81.1136 38.7116C81.2649 38.4601 81.3759 38.1778 81.4356 37.8722C81.7063 36.487 80.821 35.1482 79.4582 34.8818C78.2042 34.6368 76.9827 35.3854 76.5849 36.5859C76.5508 36.6654 76.511 36.7582 76.4654 36.8636C76.2858 37.2788 76.018 37.8901 75.6686 38.6659C74.9697 40.2179 73.9453 42.4254 72.6492 45.0349C70.0522 50.2637 66.3857 57.0626 62.0804 63.4258C57.7443 69.8344 52.8979 75.592 47.9938 78.9383C43.1669 82.232 38.7422 82.9398 34.543 80.3191C30.7511 77.9526 28.1517 74.0643 26.4379 69.2778C24.7232 64.4887 23.9635 58.9808 23.7404 53.6819C23.5181 48.3997 23.8331 43.4334 24.2065 39.7787C24.3929 37.9549 24.5929 36.4662 24.7455 35.4386C24.8217 34.925 24.886 34.5271 24.9307 34.2607C24.953 34.1275 24.9704 34.0273 24.9819 33.9619L24.9947 33.8903L24.9976 33.8746L24.9981 33.8718L24.9981 33.8717C24.9981 33.8718 24.9981 33.8718 24.9954 33.8713Z" fill="black"/>
</svg>
