<svg width="24" height="24" viewBox="0 0 24 24" fill="none" xmlns="http://www.w3.org/2000/svg">
<path fill-rule="evenodd" clip-rule="evenodd" d="M8.09753 11.4999C8.09753 13.4999 9.84388 15.1272 12 15.1272C14.1463 15.1272 15.8927 13.4999 15.8927 11.4999C15.8927 9.4908 14.1463 7.86353 12 7.86353C9.84388 7.86353 8.09753 9.4908 8.09753 11.4999ZM17.7366 5.91818C19.4439 7.15455 20.8976 8.96364 21.9415 11.2273C22.0195 11.4 22.0195 11.6 21.9415 11.7636C19.8537 16.2909 16.1366 19 12 19H11.9902C7.86341 19 4.14634 16.2909 2.05854 11.7636C1.98049 11.6 1.98049 11.4 2.05854 11.2273C4.14634 6.7 7.86341 4 11.9902 4H12C14.0683 4 16.0293 4.67273 17.7366 5.91818ZM12.0012 13.7617C13.3377 13.7617 14.4304 12.7436 14.4304 11.4981C14.4304 10.2436 13.3377 9.22537 12.0012 9.22537C11.8841 9.22537 11.767 9.23446 11.6597 9.25265C11.6207 10.2526 10.7426 11.0526 9.65969 11.0526H9.61091C9.58165 11.1981 9.56213 11.3436 9.56213 11.4981C9.56213 12.7436 10.6548 13.7617 12.0012 13.7617Z" fill="#666666" fill-opacity="0.8"/>
</svg>
