<svg width="24" height="24" viewBox="0 0 24 24" fill="none" xmlns="http://www.w3.org/2000/svg">
<path d="M19.8825 4.88129L19.1465 4.14535C18.9385 3.93736 18.5545 3.96937 18.3145 4.25731L15.7543 6.80128C14.6023 6.30533 13.3384 6.06533 12.0103 6.06533C8.05822 6.08127 4.63444 8.38524 2.98633 11.6974C2.8903 11.9054 2.8903 12.1614 2.98633 12.3374C3.75426 13.9054 4.90633 15.2014 6.34633 16.1774L4.25034 18.3053C4.01034 18.5453 3.97833 18.9293 4.13838 19.1373L4.87432 19.8733C5.08231 20.0812 5.4663 20.0492 5.7063 19.7613L19.7542 5.7134C20.0582 5.47354 20.0902 5.08958 19.8822 4.88156L19.8825 4.88129ZM12.8583 9.71318C12.5863 9.64916 12.2984 9.5692 12.0264 9.5692C10.6663 9.5692 9.57842 10.6572 9.57842 12.0171C9.57842 12.2891 9.64244 12.5771 9.72239 12.8491L8.65028 13.9051C8.33032 13.3452 8.15433 12.7211 8.15433 12.0172C8.15433 9.88919 9.86636 8.17717 11.9943 8.17717C12.6984 8.17717 13.3224 8.35315 13.8823 8.67311L12.8583 9.71318Z" fill="#666666" fill-opacity="0.8"/>
<path d="M21.0344 11.6974C20.4745 10.5773 19.7384 9.56941 18.8265 8.75338L15.8504 11.6974V12.0173C15.8504 14.1453 14.1384 15.8573 12.0104 15.8573H11.6905L9.80249 17.7453C10.5065 17.8893 11.2425 17.9853 11.9625 17.9853C15.9146 17.9853 19.3384 15.6814 20.9865 12.3532C21.1305 12.1291 21.1305 11.9052 21.0345 11.6972L21.0344 11.6974Z" fill="#666666" fill-opacity="0.8"/>
</svg>
