<svg width="11" height="8" viewBox="0 0 11 8" fill="none" xmlns="http://www.w3.org/2000/svg">
<path d="M4.54169 4C4.54169 3.37868 5.04537 2.875 5.66669 2.875C6.28801 2.875 6.79169 3.37868 6.79169 4C6.79169 4.62132 6.28801 5.125 5.66669 5.125C5.04537 5.125 4.54169 4.62132 4.54169 4Z" fill="#F9E959"/>
<path fill-rule="evenodd" clip-rule="evenodd" d="M0.666687 4C0.666687 4.81969 0.879169 5.09574 1.30413 5.64784C2.15267 6.75022 3.57574 8 5.66669 8C7.75763 8 9.18071 6.75022 10.0292 5.64784C10.4542 5.09574 10.6667 4.81969 10.6667 4C10.6667 3.18031 10.4542 2.90426 10.0292 2.35217C9.18071 1.24978 7.75763 0 5.66669 0C3.57574 0 2.15267 1.24978 1.30413 2.35217C0.879169 2.90426 0.666687 3.18031 0.666687 4ZM5.66669 2.125C4.63115 2.125 3.79169 2.96447 3.79169 4C3.79169 5.03553 4.63115 5.875 5.66669 5.875C6.70222 5.875 7.54169 5.03553 7.54169 4C7.54169 2.96447 6.70222 2.125 5.66669 2.125Z" fill="#F9E959"/>
</svg>
