<svg width="24" height="24" viewBox="0 0 24 24" fill="none" xmlns="http://www.w3.org/2000/svg">
<mask id="mask0_2210_2688" style="mask-type:luminance" maskUnits="userSpaceOnUse" x="0" y="0" width="24" height="24">
<path d="M20.9062 5.37263C20.8312 5.07263 20.4562 4.88172 20.0437 4.92263C19.8937 4.93626 19.7437 4.99081 19.6312 5.07263L15.7312 7.90901L12.675 3.66807C12.4875 3.39534 12.0375 3.29989 11.6625 3.43625C11.5312 3.4908 11.4187 3.57262 11.3438 3.66807L9.675 5.98627L5.475 0.286237C5.2875 0.027145 4.81875 -0.0819463 4.4625 0.0680545C4.25625 0.149873 4.10625 0.299874 4.06875 0.463511L0 19.3636L10.8562 23.7955C11.5312 24.0682 12.375 24.0682 13.05 23.7955L24 19.3636L20.9062 5.37263Z" fill="white"/>
</mask>
<g mask="url(#mask0_2210_2688)">
<path d="M0 19.3636L4.06875 0.463455C4.125 0.163453 4.51875 -0.0410935 4.93125 0.0134522C5.15625 0.0407251 5.3625 0.149816 5.475 0.299817L9.675 5.99985L11.3438 3.68165C11.5312 3.40892 11.9812 3.31347 12.3562 3.44983C12.4875 3.50438 12.6 3.5862 12.675 3.68165L24 19.3636H0Z" fill="#FFA000"/>
<path opacity="0.12" d="M13.875 0.136215L-6 -1.09106V25.0909L9.53674e-07 19.3636L13.875 0.136215Z" fill="url(#paint0_linear_2210_2688)"/>
<path d="M14.0437 12L9.675 5.98633L0 19.3637L14.0437 12Z" fill="#F57C00"/>
<path opacity="0.2" d="M-6 -1.09106H30V25.0909H-6V-1.09106Z" fill="url(#paint1_linear_2210_2688)"/>
<path d="M24 19.3634L20.8875 5.35882C20.8125 5.05882 20.4375 4.86791 20.025 4.90882C19.875 4.92246 19.725 4.97701 19.6125 5.05882L0 19.3634L10.8562 23.7953C11.5312 24.068 12.375 24.068 13.05 23.7953L24 19.3634Z" fill="#FFCA28"/>
<path d="M20.9064 5.37263C20.8314 5.07263 20.4564 4.88172 20.0439 4.92263C19.8939 4.93626 19.7439 4.99081 19.6314 5.07263L15.7314 7.90901L12.6752 3.66807C12.4877 3.39534 12.0377 3.29989 11.6627 3.43625C11.5314 3.4908 11.4189 3.57262 11.3439 3.66807L9.6752 5.98627L5.4752 0.286237C5.2877 0.027145 4.81895 -0.0819463 4.4627 0.0680545C4.25645 0.149873 4.10645 0.299874 4.06895 0.463511L0.000196457 19.3636H-0.0185547L0.000196457 19.3772L0.112696 19.4182L15.7314 8.04537L19.6314 5.20899C19.9314 4.99081 20.4002 4.99081 20.7002 5.20899C20.8127 5.29081 20.8877 5.38626 20.9064 5.50899L23.9814 19.3772L24.0189 19.3636L20.9064 5.37263ZM0.0376959 19.3363L4.06895 0.599876C4.1252 0.299874 4.51895 0.0953272 4.93145 0.149873C5.15645 0.177146 5.3627 0.286237 5.4752 0.436238L9.6752 6.13627L11.3439 3.81807C11.5314 3.54535 11.9814 3.44989 12.3564 3.58626C12.4877 3.6408 12.6002 3.72262 12.6752 3.81807L15.6752 7.96355L0.0376959 19.3363Z" fill="white" fill-opacity="0.2"/>
<path opacity="0.2" d="M13.05 23.6592C12.375 23.9319 11.5312 23.9319 10.8562 23.6592L0.0187497 19.241L0 19.3637L10.8562 23.7955C11.5312 24.0683 12.375 24.0683 13.05 23.7955L24 19.3637L23.9812 19.241L13.05 23.6592Z" fill="#A52714"/>
<path d="M20.9062 5.37263C20.8313 5.07263 20.4562 4.88172 20.0437 4.92263C19.8937 4.93626 19.7437 4.99081 19.6312 5.07263L15.7312 7.90901L12.675 3.66807C12.4875 3.39535 12.0375 3.29989 11.6625 3.43625C11.5312 3.4908 11.4187 3.57262 11.3438 3.66807L9.675 5.98627L5.475 0.286237C5.2875 0.027145 4.81875 -0.0819463 4.4625 0.0680545C4.25625 0.149873 4.10625 0.299874 4.06875 0.463511L0 19.3636L10.8562 23.7955C11.5312 24.0682 12.375 24.0682 13.05 23.7955L24 19.3636L20.9062 5.37263Z" fill="url(#paint2_linear_2210_2688)"/>
</g>
<defs>
<linearGradient id="paint0_linear_2210_2688" x1="4.67661" y1="12.8938" x2="3.41716" y2="11.989" gradientUnits="userSpaceOnUse">
<stop stop-color="#A52714"/>
<stop offset="0.4" stop-color="#A52714" stop-opacity="0.5"/>
<stop offset="0.8" stop-color="#A52714" stop-opacity="0"/>
</linearGradient>
<linearGradient id="paint1_linear_2210_2688" x1="11.0514" y1="11.3068" x2="10.587" y2="10.6682" gradientUnits="userSpaceOnUse">
<stop stop-color="#A52714" stop-opacity="0.8"/>
<stop offset="0.5" stop-color="#A52714" stop-opacity="0.21"/>
<stop offset="1" stop-color="#A52714" stop-opacity="0"/>
</linearGradient>
<linearGradient id="paint2_linear_2210_2688" x1="-0.646139" y1="4.22343" x2="16.6971" y2="28.0704" gradientUnits="userSpaceOnUse">
<stop stop-color="white" stop-opacity="0.1"/>
<stop offset="1" stop-color="white" stop-opacity="0"/>
</linearGradient>
</defs>
</svg>
