<svg width="44" height="44" viewBox="0 0 44 44" fill="none" xmlns="http://www.w3.org/2000/svg">
<path d="M38.5 29.3333V14.6667C38.4993 14.0237 38.3296 13.3922 38.0078 12.8355C37.686 12.2788 37.2235 11.8165 36.6667 11.495L23.8333 4.16167C23.2759 3.83985 22.6436 3.67043 22 3.67043C21.3564 3.67043 20.7241 3.83985 20.1667 4.16167L7.33333 11.495C6.77648 11.8165 6.31396 12.2788 5.99218 12.8355C5.6704 13.3922 5.50066 14.0237 5.5 14.6667V29.3333C5.50066 29.9763 5.6704 30.6078 5.99218 31.1645C6.31396 31.7212 6.77648 32.1835 7.33333 32.505L20.1667 39.8383C20.7241 40.1601 21.3564 40.3296 22 40.3296C22.6436 40.3296 23.2759 40.1601 23.8333 39.8383L36.6667 32.505C37.2235 32.1835 37.686 31.7212 38.0078 31.1645C38.3296 30.6078 38.4993 29.9763 38.5 29.3333Z" fill="white" stroke="#24A148" stroke-width="2" stroke-linecap="round" stroke-linejoin="round"/>
<path d="M13.75 7.71834L22 12.485L30.25 7.71834" stroke="#24A148" stroke-width="2" stroke-linecap="round" stroke-linejoin="round"/>
<path d="M13.75 36.2817V26.7667L5.5 22" stroke="#24A148" stroke-width="2" stroke-linecap="round" stroke-linejoin="round"/>
<path d="M38.5 22L30.25 26.7667V36.2817" stroke="#24A148" stroke-width="2" stroke-linecap="round" stroke-linejoin="round"/>
<path d="M5.995 12.76L22 22.0183L38.005 12.76" stroke="#24A148" stroke-width="2" stroke-linecap="round" stroke-linejoin="round"/>
<path d="M22 40.48V22" stroke="#24A148" stroke-width="2" stroke-linecap="round" stroke-linejoin="round"/>
</svg>
