<svg width="24" height="24" viewBox="0 0 24 24" fill="none" xmlns="http://www.w3.org/2000/svg">
<path d="M14.1427 11.9777C14.1427 10.6536 13.1832 9.58008 11.9996 9.58008C10.816 9.58008 9.85645 10.6536 9.85645 11.9777C9.85645 13.3019 10.816 14.3754 11.9996 14.3754C13.1832 14.3754 14.1427 13.3019 14.1427 11.9777Z" fill="#53C1DE"/>
<path fill-rule="evenodd" clip-rule="evenodd" d="M18.9603 7.52649C19.4129 5.46903 19.9818 1.65367 17.9763 0.360147C15.9802 -0.92774 13.3827 1.54009 12.0111 3.0214C10.6435 1.55485 7.97304 -0.902429 5.9693 0.395205C3.97401 1.68741 4.58931 5.43951 5.05192 7.50988C3.19065 8.10129 0 9.37514 0 11.9778C0 14.573 3.18733 15.9589 5.03758 16.5498C4.57326 18.6316 3.98877 22.3301 5.98662 23.6194C7.99784 24.9168 10.66 22.518 12.0443 21.0205C13.4247 22.5105 15.9973 24.925 17.9938 23.6321C19.9965 22.335 19.4749 18.5708 19.0122 16.4885C20.8058 15.8963 24 14.5406 24 11.9778C24 9.40015 20.7922 8.11597 18.9603 7.52649ZM18.733 15.3849C18.4292 14.3092 18.0192 13.1652 17.5177 11.9835C17.9964 10.8296 18.3905 9.70043 18.6858 8.6316C20.0287 9.0672 22.9748 10.0627 22.9748 11.9778C22.9748 13.9108 20.1477 14.9157 18.733 15.3849ZM17.48 22.6394C15.9904 23.604 13.7777 21.295 12.7582 20.1978C13.4346 19.3702 14.1104 18.4082 14.77 17.3399C15.9303 17.2248 17.0264 17.0365 18.0205 16.7794C18.3461 18.2524 18.9762 21.6704 17.48 22.6394ZM6.4989 22.6256C5.00914 21.6646 5.69006 18.3642 6.03166 16.8307C7.01467 17.0741 8.10288 17.2491 9.26592 17.3546C9.92984 18.3999 10.6253 19.3607 11.3261 20.2022C10.4602 21.1392 7.9956 23.5911 6.4989 22.6256ZM1.02519 11.9778C1.02519 10.0375 3.95366 9.0492 5.32723 8.61471C5.62761 9.70754 6.02156 10.8502 6.49698 12.0057C6.0154 13.1784 5.61582 14.3392 5.31268 15.4449C4.00295 15.0255 1.02519 13.9192 1.02519 11.9778ZM6.48296 1.38788C7.9788 0.419224 10.2998 2.7783 11.2927 3.84012C10.5955 4.67773 9.90648 5.63132 9.24824 6.67061C8.11952 6.78766 7.039 6.9756 6.04567 7.22741C5.673 5.55758 4.98874 2.3555 6.48296 1.38788ZM15.5034 7.91732C16.2692 8.02541 17.0029 8.16923 17.6918 8.34517C17.485 9.08677 17.2272 9.86224 16.9236 10.6572C16.4835 9.72305 16.0111 8.80763 15.5034 7.91732ZM12.0114 4.65978C12.4843 5.23289 12.9579 5.87289 13.4238 6.56723C12.4788 6.5172 11.5322 6.51701 10.5872 6.56649C11.0535 5.8786 11.5312 5.23955 12.0114 4.65978ZM7.0852 10.6564C6.78663 9.86418 6.53118 9.08529 6.32258 8.33308C7.00734 8.16166 7.7376 8.02154 8.4984 7.9152C7.98928 8.80357 7.51768 9.71861 7.0852 10.6564ZM8.52024 16.1222C7.73432 16.0241 6.99301 15.891 6.30845 15.7243C6.52035 14.9589 6.78142 14.1632 7.08637 13.354C7.5248 14.3015 8.0036 15.2254 8.52024 16.1222ZM12.0398 19.3768C11.5539 18.7902 11.0692 18.1413 10.5958 17.4435C11.5462 17.4852 12.4985 17.4853 13.4488 17.4378C12.9814 18.1484 12.5095 18.7982 12.0398 19.3768ZM16.9334 13.3128C17.2542 14.1308 17.5246 14.9222 17.7394 15.6747C17.0434 15.8524 16.2922 15.9954 15.5006 16.1017C16.012 15.1945 16.4919 14.2649 16.9334 13.3128ZM14.1978 16.2407C12.7441 16.3569 11.2813 16.3556 9.82704 16.2502C9.00072 14.8998 8.26512 13.4797 7.63016 12.0054C8.26208 10.5341 8.99232 9.11668 9.81472 7.76843C11.27 7.64538 12.7342 7.64501 14.1895 7.76917C15.0049 9.11732 15.734 10.531 16.3806 11.989C15.7417 13.4596 15.0076 14.8798 14.1978 16.2407ZM17.4642 1.35378C18.9605 2.31927 18.2945 5.74824 17.9676 7.23932C16.9719 6.98224 15.8906 6.79098 14.7586 6.67209C14.0991 5.62157 13.4158 4.66632 12.7299 3.83953C13.7356 2.75484 15.9825 0.397743 17.4642 1.35378Z" fill="#53C1DE"/>
</svg>
