<svg width="32" height="32" viewBox="0 0 24 24" fill="none" xmlns="http://www.w3.org/2000/svg">
<g id="add">
<path id="plus" d="M12.125 11.0669V11.5669H12.625H16.375C16.4439 11.5669 16.5 11.623 16.5 11.6919C16.5 11.7608 16.4439 11.8169 16.375 11.8169H12.625H12.125V12.3169V16.0669C12.125 16.1358 12.0689 16.1919 12 16.1919C11.9311 16.1919 11.875 16.1358 11.875 16.0669V12.3169V11.8169H11.375H7.625C7.55614 11.8169 7.5 11.7608 7.5 11.6919C7.5 11.623 7.55614 11.5669 7.625 11.5669H11.375H11.875V11.0669V7.31689C11.875 7.24804 11.9311 7.19189 12 7.19189C12.0689 7.19189 12.125 7.24804 12.125 7.31689V11.0669Z" fill="#237DF7" stroke="#237DF7"/>
</g>
</svg>
