<svg width="20" height="124" viewBox="0 0 20 124" fill="none" xmlns="http://www.w3.org/2000/svg">
<path fill-rule="evenodd" clip-rule="evenodd" d="M1 0C0.447715 0 0 0.447714 0 0.999999V121V122.2V123C0 123.552 0.447715 124 1 124C1.55228 124 2 123.552 2 123V122.438C4.12126 122.674 7.50401 123 10 123C13.9113 123 20 122.2 20 122.2V121C20 121 13.9113 121.8 10 121.8C7.50401 121.8 4.12126 121.474 2 121.238V75.2554C2 75.2554 7.47986 76.0923 11 76.0923C14.5201 76.0923 20 75.2554 20 75.2554V74C20 74 14.5201 74.8369 11 74.8369C7.47986 74.8369 2 74 2 74V25.2554C2 25.2554 7.47986 26.0923 11 26.0923C14.5201 26.0923 20 25.2554 20 25.2554V24C20 24 14.5201 24.8369 11 24.8369C7.47986 24.8369 2 24 2 24V1C2 0.447715 1.55228 0 1 0Z" fill="#D9D9D9"/>
</svg>
