<svg xmlns="http://www.w3.org/2000/svg" width="24" height="24" viewBox="0 0 24 24" fill="none">
    <path d="M12.0002 10V14M10.2678 11L13.7319 13M13.7317 11L10.2676 13" stroke="white"
        stroke-width="1.5" stroke-linecap="round" />
    <path d="M6.73266 10V14M5.00023 11L8.46434 13M8.4641 11L5 13" stroke="white"
        stroke-width="1.5" stroke-linecap="round" />
    <path d="M17.2686 10V14M15.5361 11L19.0002 13M19 11L15.5359 13" stroke="white"
        stroke-width="1.5" stroke-linecap="round" />
    <path
        d="M22 12C22 15.7712 22 17.6569 20.8284 18.8284C19.6569 20 17.7712 20 14 20H10C6.22876 20 4.34315 20 3.17157 18.8284C2 17.6569 2 15.7712 2 12C2 8.22876 2 6.34315 3.17157 5.17157C4.34315 4 6.22876 4 10 4H14C17.7712 4 19.6569 4 20.8284 5.17157C21.4816 5.82475 21.7706 6.69989 21.8985 8"
        stroke="white" stroke-width="1.5" stroke-linecap="round" />
</svg>