<svg width="25" height="24" viewBox="0 0 25 24" fill="none" xmlns="http://www.w3.org/2000/svg">
<path d="M4.6665 10C4.6665 6.22876 4.6665 4.34315 5.83808 3.17157C7.00965 2 8.89527 2 12.6665 2C16.4377 2 18.3234 2 19.4949 3.17157C20.6665 4.34315 20.6665 6.22876 20.6665 10V14C20.6665 17.7712 20.6665 19.6569 19.4949 20.8284C18.3234 22 16.4377 22 12.6665 22C8.89527 22 7.00965 22 5.83808 20.8284C4.6665 19.6569 4.6665 17.7712 4.6665 14V10Z" fill="white" stroke="#1E6AD2" stroke-width="1.5"/>
<path d="M15.6665 19H9.6665" stroke="#1E6AD2" stroke-width="1.5" stroke-linecap="round"/>
<path d="M17.4146 2.37769L17.3305 2.50385C16.5745 3.63794 16.1964 4.205 15.6443 4.54811C15.5345 4.61634 15.4204 4.6774 15.3027 4.73091C14.711 5 14.0294 5 12.6664 5C11.3034 5 10.6219 5 10.0301 4.73091C9.91246 4.6774 9.79837 4.61634 9.68858 4.54811C9.13642 4.205 8.75839 3.63795 8.00232 2.50385L7.91821 2.37769" stroke="#1E6AD2" stroke-width="1.5" stroke-linecap="round"/>
</svg>
