<svg width="12" height="12" viewBox="0 0 12 12" fill="none" xmlns="http://www.w3.org/2000/svg">
<path fill-rule="evenodd" clip-rule="evenodd" d="M1.73223 10.2678C2.46447 11 3.64298 11 6 11C8.35702 11 9.53553 11 10.2678 10.2678C11 9.53553 11 8.35702 11 6C11 3.64298 11 2.46447 10.2678 1.73223C9.53553 1 8.35702 1 6 1C3.64298 1 2.46447 1 1.73223 1.73223C1 2.46447 1 3.64298 1 6C1 8.35702 1 9.53553 1.73223 10.2678ZM9.375 8C9.375 8.20711 9.20711 8.375 9 8.375H3C2.79289 8.375 2.625 8.20711 2.625 8C2.625 7.79289 2.79289 7.625 3 7.625H9C9.20711 7.625 9.375 7.79289 9.375 8ZM9 6.375C9.20711 6.375 9.375 6.20711 9.375 6C9.375 5.79289 9.20711 5.625 9 5.625H3C2.79289 5.625 2.625 5.79289 2.625 6C2.625 6.20711 2.79289 6.375 3 6.375H9ZM9.375 4C9.375 4.20711 9.20711 4.375 9 4.375H3C2.79289 4.375 2.625 4.20711 2.625 4C2.625 3.79289 2.79289 3.625 3 3.625H9C9.20711 3.625 9.375 3.79289 9.375 4Z" fill="#616161"/>
</svg>
