<svg width="33" height="32" viewBox="0 0 33 32" fill="none" xmlns="http://www.w3.org/2000/svg">
<g id="iconDev/06">
<path id="Vector" d="M0.495117 16C0.495117 7.16344 7.65856 0 16.4951 0C25.3317 0 32.4951 7.16344 32.4951 16C32.4951 24.8366 25.3317 32 16.4951 32C7.65856 32 0.495117 24.8366 0.495117 16Z" fill="#F7DF1E"/>
<path id="Vector_2" d="M5.29554 21.8223L7.74429 20.3403C8.21679 21.1779 8.64654 21.8867 9.67741 21.8867C10.6655 21.8867 11.2887 21.5002 11.2887 19.9967V9.77194H14.2958V20.0392C14.2958 23.1538 12.47 24.5716 9.80629 24.5716C7.40066 24.5716 6.00429 23.3257 5.29541 21.8221M15.9292 21.5001L18.3777 20.0824C19.0223 21.1351 19.86 21.9083 21.342 21.9083C22.5882 21.9083 23.3827 21.2853 23.3827 20.4261C23.3827 19.3951 22.5664 19.0298 21.1917 18.4286L20.44 18.1061C18.2704 17.1827 16.8313 16.0227 16.8313 13.5739C16.8313 11.3184 18.5497 9.59995 21.2348 9.59995C23.1465 9.59995 24.5213 10.2659 25.5093 12.0058L23.1678 13.5096C22.6522 12.5859 22.0939 12.2208 21.2347 12.2208C20.3539 12.2208 19.7954 12.7793 19.7954 13.5096C19.7954 14.4117 20.3539 14.7771 21.6427 15.3356L22.3944 15.6577C24.9507 16.7533 26.3898 17.8702 26.3898 20.3832C26.3898 23.0899 24.2633 24.5719 21.4064 24.5719C18.614 24.5719 16.8097 23.2402 15.929 21.5002" fill="black"/>
</g>
</svg>
