<svg width="289" height="230" viewBox="0 0 289 230" fill="none" xmlns="http://www.w3.org/2000/svg">
<rect x="0.5" y="9.5" width="94" height="39" rx="19.5" fill="white"/>
<rect x="0.5" y="9.5" width="94" height="39" rx="19.5" stroke="#237DF7"/>
<path d="M17.216 35V23.16H22.08C22.8373 23.16 23.4827 23.2987 24.016 23.576C24.56 23.8427 24.9707 24.2 25.248 24.648C25.536 25.096 25.68 25.5867 25.68 26.12C25.68 26.6853 25.5733 27.1493 25.36 27.512C25.1573 27.864 24.9227 28.136 24.656 28.328C24.3893 28.52 24.16 28.6533 23.968 28.728V28.824C24.2347 28.8987 24.5387 29.0427 24.88 29.256C25.2213 29.4587 25.5147 29.7573 25.76 30.152C26.016 30.536 26.144 31.0373 26.144 31.656C26.144 32.2107 26.0107 32.744 25.744 33.256C25.4773 33.768 25.0507 34.1893 24.464 34.52C23.888 34.84 23.1307 35 22.192 35H17.216ZM21.904 24.76H19.088V28.184H21.904C22.5867 28.184 23.0827 28.008 23.392 27.656C23.7013 27.304 23.856 26.9093 23.856 26.472C23.856 26.0347 23.7013 25.64 23.392 25.288C23.0827 24.936 22.5867 24.76 21.904 24.76ZM22.048 29.656H19.088V33.4H22.048C22.5707 33.4 22.9973 33.3147 23.328 33.144C23.6587 32.9627 23.8987 32.728 24.048 32.44C24.1973 32.152 24.272 31.848 24.272 31.528C24.272 31.208 24.1973 30.9093 24.048 30.632C23.8987 30.344 23.6587 30.1093 23.328 29.928C22.9973 29.7467 22.5707 29.656 22.048 29.656ZM32.9528 22.552L31.4968 22.536L32.8408 19.656H34.6328L32.9528 22.552ZM32.2328 25.368C31.6994 25.368 31.2621 25.288 30.9208 25.128C30.5901 24.968 30.3288 24.7707 30.1368 24.536C29.9554 24.3013 29.8221 24.0667 29.7368 23.832C29.6514 23.5973 29.5981 23.4053 29.5768 23.256C29.5661 23.096 29.5608 23.016 29.5608 23.016H30.8408C30.8408 23.016 30.8514 23.08 30.8728 23.208C30.9048 23.3253 30.9634 23.464 31.0488 23.624C31.1341 23.784 31.2674 23.928 31.4488 24.056C31.6408 24.1733 31.9021 24.232 32.2328 24.232C32.5528 24.232 32.8034 24.1733 32.9848 24.056C33.1768 23.928 33.3154 23.784 33.4008 23.624C33.4968 23.464 33.5554 23.3253 33.5768 23.208C33.5981 23.08 33.6088 23.016 33.6088 23.016H34.8888C34.8888 23.016 34.8781 23.096 34.8568 23.256C34.8461 23.4053 34.7981 23.5973 34.7128 23.832C34.6381 24.0667 34.5048 24.3013 34.3128 24.536C34.1208 24.7707 33.8541 24.968 33.5128 25.128C33.1821 25.288 32.7554 25.368 32.2328 25.368ZM31.7528 26.36C32.2861 26.36 32.7288 26.4453 33.0808 26.616C33.4434 26.7867 33.7314 26.984 33.9448 27.208C34.1581 27.432 34.3128 27.624 34.4088 27.784H34.5048V26.52H36.3288V35H34.5048V33.736H34.4088C34.3128 33.896 34.1581 34.088 33.9448 34.312C33.7314 34.536 33.4434 34.7333 33.0808 34.904C32.7288 35.0747 32.2861 35.16 31.7528 35.16C31.1128 35.16 30.5528 35.0373 30.0728 34.792C29.6034 34.536 29.2088 34.2 28.8888 33.784C28.5688 33.3573 28.3288 32.8827 28.1688 32.36C28.0194 31.8373 27.9448 31.304 27.9448 30.76C27.9448 30.216 28.0194 29.6827 28.1688 29.16C28.3288 28.6373 28.5688 28.168 28.8888 27.752C29.2088 27.3253 29.6034 26.9893 30.0728 26.744C30.5528 26.488 31.1128 26.36 31.7528 26.36ZM32.1528 27.88C31.6301 27.88 31.1928 28.024 30.8408 28.312C30.4888 28.5893 30.2221 28.9467 30.0408 29.384C29.8701 29.8213 29.7848 30.28 29.7848 30.76C29.7848 31.24 29.8701 31.6987 30.0408 32.136C30.2221 32.5733 30.4888 32.936 30.8408 33.224C31.1928 33.5013 31.6301 33.64 32.1528 33.64C32.6754 33.64 33.1074 33.5013 33.4488 33.224C33.8008 32.936 34.0621 32.5733 34.2328 32.136C34.4141 31.6987 34.5048 31.24 34.5048 30.76C34.5048 30.28 34.4141 29.8213 34.2328 29.384C34.0621 28.9467 33.8008 28.5893 33.4488 28.312C33.1074 28.024 32.6754 27.88 32.1528 27.88ZM41.9868 35.16C41.3148 35.16 40.7761 35.0373 40.3708 34.792C39.9654 34.5467 39.6721 34.2213 39.4908 33.816C39.3201 33.4 39.2348 32.952 39.2348 32.472V27.992H37.7467V26.52H39.2348V24.408H41.0588V26.52H43.0428V27.992H41.0588V32.44C41.0588 33.24 41.5014 33.64 42.3868 33.64C42.6108 33.64 42.8188 33.624 43.0108 33.592C43.2028 33.56 43.2988 33.544 43.2988 33.544V35.032C43.2988 35.032 43.1654 35.0533 42.8988 35.096C42.6428 35.1387 42.3388 35.16 41.9868 35.16ZM52.5169 35.16C51.8769 35.16 51.3169 35.0373 50.8369 34.792C50.3675 34.536 49.9729 34.2 49.6529 33.784C49.3329 33.3573 49.0929 32.8827 48.9329 32.36C48.7835 31.8373 48.7089 31.304 48.7089 30.76C48.7089 30.216 48.7835 29.6827 48.9329 29.16C49.0929 28.6373 49.3329 28.168 49.6529 27.752C49.9729 27.3253 50.3675 26.9893 50.8369 26.744C51.3169 26.488 51.8769 26.36 52.5169 26.36C53.0502 26.36 53.4929 26.4453 53.8449 26.616C54.2075 26.7867 54.4955 26.984 54.7089 27.208C54.9222 27.432 55.0769 27.624 55.1729 27.784H55.2689V25.672H53.0929V24.328H55.2689V22.84H57.0929V24.328H58.5009V25.672H57.0929V35H55.2689V33.736H55.1729C55.0769 33.896 54.9222 34.088 54.7089 34.312C54.4955 34.536 54.2075 34.7333 53.8449 34.904C53.4929 35.0747 53.0502 35.16 52.5169 35.16ZM52.9169 33.64C53.4395 33.64 53.8715 33.5013 54.2129 33.224C54.5649 32.936 54.8262 32.5733 54.9969 32.136C55.1782 31.6987 55.2689 31.24 55.2689 30.76C55.2689 30.28 55.1782 29.8213 54.9969 29.384C54.8262 28.9467 54.5649 28.5893 54.2129 28.312C53.8715 28.024 53.4395 27.88 52.9169 27.88C52.3942 27.88 51.9569 28.024 51.6049 28.312C51.2529 28.5893 50.9862 28.9467 50.8049 29.384C50.6342 29.8213 50.5489 30.28 50.5489 30.76C50.5489 31.24 50.6342 31.6987 50.8049 32.136C50.9862 32.5733 51.2529 32.936 51.6049 33.224C51.9569 33.5013 52.3942 33.64 52.9169 33.64ZM66.27 23.304L64.59 20.408H66.382L67.726 23.288L66.27 23.304ZM61.278 25.352L63.262 22.968H64.766L66.75 25.352H65.198L64.014 23.928L62.83 25.352H61.278ZM63.534 26.36C64.0673 26.36 64.51 26.4453 64.862 26.616C65.2247 26.7867 65.5127 26.984 65.726 27.208C65.9393 27.432 66.094 27.624 66.19 27.784H66.286V26.52H68.11V35H66.286V33.736H66.19C66.094 33.896 65.9393 34.088 65.726 34.312C65.5127 34.536 65.2247 34.7333 64.862 34.904C64.51 35.0747 64.0673 35.16 63.534 35.16C62.894 35.16 62.334 35.0373 61.854 34.792C61.3847 34.536 60.99 34.2 60.67 33.784C60.35 33.3573 60.11 32.8827 59.95 32.36C59.8007 31.8373 59.726 31.304 59.726 30.76C59.726 30.216 59.8007 29.6827 59.95 29.16C60.11 28.6373 60.35 28.168 60.67 27.752C60.99 27.3253 61.3847 26.9893 61.854 26.744C62.334 26.488 62.894 26.36 63.534 26.36ZM63.934 27.88C63.4113 27.88 62.974 28.024 62.622 28.312C62.27 28.5893 62.0033 28.9467 61.822 29.384C61.6513 29.8213 61.566 30.28 61.566 30.76C61.566 31.24 61.6513 31.6987 61.822 32.136C62.0033 32.5733 62.27 32.936 62.622 33.224C62.974 33.5013 63.4113 33.64 63.934 33.64C64.4567 33.64 64.8887 33.5013 65.23 33.224C65.582 32.936 65.8433 32.5733 66.014 32.136C66.1953 31.6987 66.286 31.24 66.286 30.76C66.286 30.28 66.1953 29.8213 66.014 29.384C65.8433 28.9467 65.582 28.5893 65.23 28.312C64.8887 28.024 64.4567 27.88 63.934 27.88ZM73.0573 35.16C72.2039 35.16 71.5373 34.8933 71.0573 34.36C70.5773 33.8267 70.3372 33.1173 70.3372 32.232V26.52H72.1613V32.008C72.1613 32.52 72.2946 32.92 72.5613 33.208C72.8386 33.4853 73.2119 33.624 73.6813 33.624C74.1399 33.624 74.5079 33.5067 74.7853 33.272C75.0626 33.0373 75.2599 32.7387 75.3773 32.376C75.5053 32.0027 75.5693 31.6187 75.5693 31.224V26.52H77.3933V35H75.5693V33.784H75.4733C75.3879 33.944 75.2493 34.136 75.0573 34.36C74.8759 34.5733 74.6199 34.76 74.2893 34.92C73.9693 35.08 73.5586 35.16 73.0573 35.16Z" fill="#237DF7"/>
<path d="M95.7321 39.9987C205.828 10.0744 210.409 8.19922 208.919 9.18973C312.641 9.18973 326.487 101.847 176.696 84.4688C26.9048 67.0904 17.1974 166.377 157.202 140.469C297.207 114.561 287.149 186.969 184.191 206.469" stroke="#808080" stroke-width="2" stroke-dasharray="10 10"/>
<rect x="86.5" y="186.5" width="98" height="39" rx="19.5" fill="white"/>
<rect x="86.5" y="186.5" width="98" height="39" rx="19.5" stroke="#237DF7"/>
<path d="M103.216 212V200.16H105.088V205.408L109.904 200.176H112.288L106.96 205.856L112.512 212H110.048L105.088 206.464V212H103.216ZM120.649 200.32L119.193 200.304L120.537 197.424H122.329L120.649 200.32ZM114.585 202.368L116.569 199.984H118.073L120.057 202.368H118.505L117.321 200.928L116.137 202.368H114.585ZM117.385 212.16C116.681 212.16 116.068 212.037 115.545 211.792C115.022 211.536 114.59 211.2 114.249 210.784C113.918 210.357 113.668 209.883 113.497 209.36C113.337 208.837 113.257 208.304 113.257 207.76C113.257 207.227 113.337 206.699 113.497 206.176C113.668 205.653 113.918 205.179 114.249 204.752C114.58 204.325 114.996 203.989 115.497 203.744C116.009 203.488 116.617 203.36 117.321 203.36C118.057 203.36 118.713 203.531 119.289 203.872C119.865 204.203 120.313 204.699 120.633 205.36C120.964 206.011 121.129 206.821 121.129 207.792V208.288H115.097C115.14 208.939 115.358 209.499 115.753 209.968C116.148 210.437 116.692 210.672 117.385 210.672C117.78 210.672 118.105 210.608 118.361 210.48C118.617 210.341 118.814 210.187 118.953 210.016C119.102 209.845 119.204 209.696 119.257 209.568C119.31 209.44 119.337 209.376 119.337 209.376H121.033C121.033 209.376 121.006 209.472 120.953 209.664C120.9 209.845 120.804 210.075 120.665 210.352C120.526 210.629 120.318 210.907 120.041 211.184C119.774 211.461 119.422 211.696 118.985 211.888C118.558 212.069 118.025 212.16 117.385 212.16ZM115.113 207.008H119.353C119.321 206.261 119.102 205.712 118.697 205.36C118.292 205.008 117.828 204.832 117.305 204.832C116.697 204.832 116.196 205.029 115.801 205.424C115.406 205.808 115.177 206.336 115.113 207.008ZM126.706 212.16C126.034 212.16 125.495 212.037 125.09 211.792C124.684 211.547 124.391 211.221 124.21 210.816C124.039 210.4 123.954 209.952 123.954 209.472V204.992H122.465V203.52H123.954V201.408H125.778V203.52H127.762V204.992H125.778V209.44C125.778 210.24 126.22 210.64 127.106 210.64C127.33 210.64 127.538 210.624 127.73 210.592C127.922 210.56 128.018 210.544 128.018 210.544V212.032C128.018 212.032 127.884 212.053 127.618 212.096C127.362 212.139 127.058 212.16 126.706 212.16ZM137.284 212.16C136.612 212.16 136.073 212.037 135.668 211.792C135.262 211.547 134.969 211.221 134.788 210.816C134.617 210.4 134.532 209.952 134.532 209.472V204.992H133.044V203.52H134.532V201.408H136.356V203.52H138.34V204.992H136.356V209.44C136.356 210.24 136.798 210.64 137.684 210.64C137.908 210.64 138.116 210.624 138.308 210.592C138.5 210.56 138.596 210.544 138.596 210.544V212.032C138.596 212.032 138.462 212.053 138.196 212.096C137.94 212.139 137.636 212.16 137.284 212.16ZM140.622 212V199.84H142.446V204.752H142.542C142.617 204.603 142.745 204.421 142.926 204.208C143.108 203.984 143.358 203.787 143.678 203.616C144.009 203.445 144.425 203.36 144.926 203.36C145.556 203.36 146.084 203.504 146.51 203.792C146.937 204.08 147.257 204.464 147.47 204.944C147.694 205.424 147.806 205.952 147.806 206.528V212H145.982V206.72C145.982 206.208 145.838 205.776 145.55 205.424C145.273 205.072 144.857 204.896 144.302 204.896C143.865 204.896 143.508 205.008 143.23 205.232C142.964 205.445 142.766 205.728 142.638 206.08C142.51 206.421 142.446 206.789 142.446 207.184V212H140.622ZM154.363 202.272L152.891 202.256L154.235 199.376H156.043L154.363 202.272ZM152.843 212.16C151.99 212.16 151.323 211.893 150.843 211.36C150.363 210.827 150.123 210.117 150.123 209.232V203.52H151.947V209.008C151.947 209.52 152.081 209.92 152.347 210.208C152.625 210.485 152.998 210.624 153.467 210.624C153.926 210.624 154.294 210.507 154.571 210.272C154.849 210.037 155.046 209.739 155.163 209.376C155.291 209.003 155.355 208.619 155.355 208.224V203.52H157.179V212H155.355V210.784H155.259C155.174 210.944 155.035 211.136 154.843 211.36C154.662 211.573 154.406 211.76 154.075 211.92C153.755 212.08 153.345 212.16 152.843 212.16ZM163.527 212.16C162.813 212.16 162.189 212.037 161.655 211.792C161.122 211.536 160.679 211.2 160.327 210.784C159.975 210.357 159.709 209.883 159.527 209.36C159.357 208.837 159.271 208.304 159.271 207.76C159.271 207.216 159.357 206.683 159.527 206.16C159.709 205.637 159.975 205.168 160.327 204.752C160.679 204.325 161.122 203.989 161.655 203.744C162.189 203.488 162.813 203.36 163.527 203.36C164.231 203.36 164.813 203.467 165.271 203.68C165.741 203.883 166.114 204.139 166.391 204.448C166.669 204.757 166.877 205.067 167.015 205.376C167.154 205.685 167.239 205.947 167.271 206.16C167.314 206.373 167.335 206.48 167.335 206.48H165.607C165.607 206.48 165.581 206.4 165.527 206.24C165.485 206.08 165.394 205.893 165.255 205.68C165.117 205.467 164.909 205.28 164.631 205.12C164.365 204.96 164.002 204.88 163.543 204.88C162.999 204.88 162.546 205.019 162.183 205.296C161.821 205.563 161.543 205.915 161.351 206.352C161.17 206.789 161.079 207.259 161.079 207.76C161.079 208.261 161.17 208.731 161.351 209.168C161.543 209.605 161.821 209.963 162.183 210.24C162.546 210.507 162.999 210.64 163.543 210.64C164.002 210.64 164.365 210.56 164.631 210.4C164.909 210.24 165.117 210.053 165.255 209.84C165.394 209.627 165.485 209.44 165.527 209.28C165.581 209.12 165.607 209.04 165.607 209.04H167.335C167.335 209.04 167.314 209.147 167.271 209.36C167.239 209.573 167.154 209.835 167.015 210.144C166.877 210.453 166.669 210.763 166.391 211.072C166.114 211.381 165.741 211.643 165.271 211.856C164.813 212.059 164.231 212.16 163.527 212.16Z" fill="#237DF7"/>
<path d="M189.031 146.188C191.262 146.188 193.062 144.387 193.062 142.156V138.125H189.031C186.8 138.125 185 139.925 185 142.156C185 144.387 186.8 146.188 189.031 146.188Z" fill="#0ACF83"/>
<path d="M185 134.094C185 131.863 186.8 130.062 189.031 130.062H193.062V138.125H189.031C186.8 138.125 185 136.325 185 134.094Z" fill="#A259FF"/>
<path d="M185 126.031C185 123.8 186.8 122 189.031 122H193.062V130.062H189.031C186.8 130.062 185 128.262 185 126.031Z" fill="#F24E1E"/>
<path d="M193.062 122H197.094C199.325 122 201.125 123.8 201.125 126.031C201.125 128.262 199.325 130.062 197.094 130.062H193.062V122Z" fill="#FF7262"/>
<path d="M201.125 134.094C201.125 136.325 199.325 138.125 197.094 138.125C194.863 138.125 193.062 136.325 193.062 134.094C193.062 131.863 194.863 130.062 197.094 130.062C199.325 130.062 201.125 131.863 201.125 134.094Z" fill="#1ABCFE"/>
<path d="M163.752 162.1C163.172 162.1 162.672 161.99 162.252 161.77C161.832 161.543 161.505 161.227 161.272 160.82C161.045 160.407 160.932 159.92 160.932 159.36V154.6H161.912V159.36C161.912 159.873 162.062 160.303 162.362 160.65C162.669 160.997 163.132 161.17 163.752 161.17C164.379 161.17 164.842 160.997 165.142 160.65C165.449 160.303 165.602 159.873 165.602 159.36V154.6H166.582V159.36C166.582 159.92 166.465 160.407 166.232 160.82C166.005 161.227 165.682 161.543 165.262 161.77C164.842 161.99 164.339 162.1 163.752 162.1ZM168.178 162V154.6H169.158V162H168.178ZM170.356 163.51L173.826 153.76H174.736L171.266 163.51H170.356ZM178.605 162.1C178.025 162.1 177.525 161.99 177.105 161.77C176.685 161.543 176.359 161.227 176.125 160.82C175.899 160.407 175.785 159.92 175.785 159.36V154.6H176.765V159.36C176.765 159.873 176.915 160.303 177.215 160.65C177.522 160.997 177.985 161.17 178.605 161.17C179.232 161.17 179.695 160.997 179.995 160.65C180.302 160.303 180.455 159.873 180.455 159.36V154.6H181.435V159.36C181.435 159.92 181.319 160.407 181.085 160.82C180.859 161.227 180.535 161.543 180.115 161.77C179.695 161.99 179.192 162.1 178.605 162.1ZM182.781 162L185.161 158.3L182.781 154.6H183.951L185.831 157.57L187.711 154.6H188.881L186.481 158.3L188.881 162H187.711L185.831 159.03L183.951 162H182.781ZM192.533 162V154.6H194.933C195.527 154.6 196.043 154.707 196.483 154.92C196.923 155.127 197.29 155.407 197.583 155.76C197.877 156.113 198.097 156.51 198.243 156.95C198.39 157.39 198.463 157.84 198.463 158.3C198.463 158.76 198.39 159.21 198.243 159.65C198.097 160.09 197.877 160.487 197.583 160.84C197.29 161.193 196.923 161.477 196.483 161.69C196.043 161.897 195.527 162 194.933 162H192.533ZM194.893 155.46H193.513V161.14H194.893C195.327 161.14 195.703 161.06 196.023 160.9C196.35 160.74 196.62 160.527 196.833 160.26C197.053 159.987 197.217 159.68 197.323 159.34C197.43 159 197.483 158.653 197.483 158.3C197.483 157.947 197.43 157.6 197.323 157.26C197.217 156.92 197.053 156.617 196.833 156.35C196.62 156.077 196.35 155.86 196.023 155.7C195.703 155.54 195.327 155.46 194.893 155.46ZM202.119 162.1C201.685 162.1 201.309 162.023 200.989 161.87C200.675 161.71 200.415 161.497 200.209 161.23C200.009 160.963 199.859 160.67 199.759 160.35C199.659 160.023 199.609 159.69 199.609 159.35C199.609 159.017 199.655 158.687 199.749 158.36C199.849 158.033 199.999 157.737 200.199 157.47C200.405 157.203 200.662 156.993 200.969 156.84C201.282 156.68 201.652 156.6 202.079 156.6C202.532 156.6 202.932 156.703 203.279 156.91C203.625 157.117 203.899 157.423 204.099 157.83C204.299 158.237 204.399 158.747 204.399 159.36V159.64H200.569C200.589 159.94 200.659 160.217 200.779 160.47C200.905 160.717 201.082 160.917 201.309 161.07C201.535 161.217 201.805 161.29 202.119 161.29C202.392 161.29 202.612 161.247 202.779 161.16C202.952 161.067 203.089 160.96 203.189 160.84C203.289 160.72 203.355 160.617 203.389 160.53C203.429 160.437 203.449 160.39 203.449 160.39H204.339C204.339 160.39 204.322 160.45 204.289 160.57C204.255 160.683 204.195 160.823 204.109 160.99C204.022 161.157 203.895 161.327 203.729 161.5C203.562 161.667 203.349 161.81 203.089 161.93C202.829 162.043 202.505 162.1 202.119 162.1ZM200.579 158.9H203.469C203.455 158.553 203.382 158.273 203.249 158.06C203.115 157.84 202.945 157.677 202.739 157.57C202.532 157.463 202.312 157.41 202.079 157.41C201.659 157.41 201.315 157.547 201.049 157.82C200.782 158.087 200.625 158.447 200.579 158.9ZM207.635 162.1C207.228 162.1 206.892 162.043 206.625 161.93C206.365 161.817 206.158 161.677 206.005 161.51C205.852 161.337 205.738 161.167 205.665 161C205.592 160.827 205.545 160.683 205.525 160.57C205.505 160.457 205.495 160.4 205.495 160.4H206.455C206.455 160.4 206.465 160.447 206.485 160.54C206.512 160.627 206.562 160.73 206.635 160.85C206.715 160.963 206.835 161.067 206.995 161.16C207.162 161.247 207.382 161.29 207.655 161.29C207.968 161.29 208.212 161.217 208.385 161.07C208.558 160.917 208.645 160.73 208.645 160.51C208.645 160.317 208.575 160.163 208.435 160.05C208.302 159.937 208.108 159.85 207.855 159.79L207.135 159.62C206.868 159.553 206.618 159.463 206.385 159.35C206.152 159.237 205.962 159.083 205.815 158.89C205.675 158.69 205.605 158.443 205.605 158.15C205.605 157.697 205.775 157.327 206.115 157.04C206.455 156.747 206.898 156.6 207.445 156.6C207.812 156.6 208.115 156.653 208.355 156.76C208.595 156.86 208.785 156.987 208.925 157.14C209.072 157.293 209.178 157.447 209.245 157.6C209.318 157.753 209.365 157.883 209.385 157.99C209.405 158.09 209.415 158.14 209.415 158.14H208.495C208.495 158.14 208.485 158.103 208.465 158.03C208.445 157.95 208.398 157.863 208.325 157.77C208.258 157.67 208.155 157.583 208.015 157.51C207.875 157.43 207.688 157.39 207.455 157.39C207.135 157.39 206.902 157.463 206.755 157.61C206.608 157.757 206.535 157.917 206.535 158.09C206.535 158.257 206.602 158.393 206.735 158.5C206.875 158.6 207.055 158.677 207.275 158.73L208.005 158.9C208.458 159.007 208.832 159.183 209.125 159.43C209.425 159.67 209.575 160.017 209.575 160.47C209.575 160.763 209.498 161.037 209.345 161.29C209.192 161.537 208.972 161.733 208.685 161.88C208.398 162.027 208.048 162.1 207.635 162.1ZM211.393 155.69C211.213 155.69 211.063 155.63 210.943 155.51C210.83 155.39 210.773 155.247 210.773 155.08C210.773 154.907 210.83 154.76 210.943 154.64C211.063 154.52 211.213 154.46 211.393 154.46C211.567 154.46 211.713 154.52 211.833 154.64C211.953 154.76 212.013 154.907 212.013 155.08C212.013 155.247 211.953 155.39 211.833 155.51C211.713 155.63 211.567 155.69 211.393 155.69ZM210.923 162V156.7H211.873V162H210.923ZM215.96 164.1C215.52 164.1 215.153 164.04 214.86 163.92C214.567 163.807 214.33 163.66 214.15 163.48C213.977 163.307 213.847 163.133 213.76 162.96C213.673 162.787 213.617 162.64 213.59 162.52C213.563 162.407 213.55 162.35 213.55 162.35H214.5C214.5 162.35 214.517 162.397 214.55 162.49C214.583 162.583 214.647 162.69 214.74 162.81C214.84 162.93 214.987 163.037 215.18 163.13C215.373 163.223 215.633 163.27 215.96 163.27C216.347 163.27 216.65 163.193 216.87 163.04C217.09 162.893 217.247 162.7 217.34 162.46C217.44 162.22 217.49 161.967 217.49 161.7V161.09H217.44C217.373 161.203 217.267 161.333 217.12 161.48C216.98 161.62 216.793 161.743 216.56 161.85C216.327 161.95 216.04 162 215.7 162C215.3 162 214.95 161.923 214.65 161.77C214.35 161.617 214.1 161.41 213.9 161.15C213.707 160.89 213.56 160.6 213.46 160.28C213.36 159.96 213.31 159.633 213.31 159.3C213.31 158.967 213.36 158.64 213.46 158.32C213.56 158 213.707 157.71 213.9 157.45C214.1 157.19 214.35 156.983 214.65 156.83C214.95 156.677 215.3 156.6 215.7 156.6C216.04 156.6 216.327 156.653 216.56 156.76C216.793 156.86 216.98 156.98 217.12 157.12C217.267 157.26 217.373 157.39 217.44 157.51H217.49V156.7H218.44V161.69C218.44 162.43 218.223 163.017 217.79 163.45C217.363 163.883 216.753 164.1 215.96 164.1ZM215.88 161.19C216.233 161.19 216.527 161.1 216.76 160.92C217 160.733 217.177 160.497 217.29 160.21C217.41 159.923 217.47 159.62 217.47 159.3C217.47 158.98 217.41 158.677 217.29 158.39C217.177 158.097 217 157.86 216.76 157.68C216.527 157.5 216.233 157.41 215.88 157.41C215.527 157.41 215.23 157.5 214.99 157.68C214.75 157.86 214.57 158.097 214.45 158.39C214.337 158.677 214.28 158.98 214.28 159.3C214.28 159.62 214.337 159.923 214.45 160.21C214.57 160.497 214.75 160.733 214.99 160.92C215.23 161.1 215.527 161.19 215.88 161.19ZM219.836 162V156.7H220.786V157.47H220.846C220.892 157.39 220.969 157.28 221.076 157.14C221.189 157 221.349 156.877 221.556 156.77C221.762 156.657 222.022 156.6 222.336 156.6C222.722 156.6 223.052 156.69 223.326 156.87C223.599 157.043 223.806 157.28 223.946 157.58C224.092 157.88 224.166 158.217 224.166 158.59V162H223.216V158.65C223.216 158.297 223.116 158.003 222.916 157.77C222.722 157.537 222.439 157.42 222.066 157.42C221.766 157.42 221.522 157.497 221.336 157.65C221.149 157.797 221.009 157.993 220.916 158.24C220.829 158.48 220.786 158.737 220.786 159.01V162H219.836Z" fill="black"/>
<path d="M71.6427 131.978C71.6427 130.654 70.6832 129.58 69.4996 129.58C68.316 129.58 67.3564 130.654 67.3564 131.978C67.3564 133.302 68.316 134.375 69.4996 134.375C70.6832 134.375 71.6427 133.302 71.6427 131.978Z" fill="#53C1DE"/>
<path fill-rule="evenodd" clip-rule="evenodd" d="M76.4603 127.526C76.9129 125.469 77.4818 121.654 75.4763 120.36C73.4802 119.072 70.8827 121.54 69.5111 123.021C68.1435 121.555 65.473 119.098 63.4693 120.395C61.474 121.687 62.0893 125.44 62.5519 127.51C60.6906 128.101 57.5 129.375 57.5 131.978C57.5 134.573 60.6873 135.959 62.5376 136.55C62.0733 138.632 61.4888 142.33 63.4866 143.619C65.4978 144.917 68.16 142.518 69.5443 141.02C70.9247 142.511 73.4973 144.925 75.4938 143.632C77.4965 142.335 76.9749 138.571 76.5122 136.488C78.3058 135.896 81.5 134.541 81.5 131.978C81.5 129.4 78.2922 128.116 76.4603 127.526ZM76.233 135.385C75.9292 134.309 75.5192 133.165 75.0177 131.983C75.4964 130.83 75.8905 129.7 76.1858 128.632C77.5287 129.067 80.4748 130.063 80.4748 131.978C80.4748 133.911 77.6477 134.916 76.233 135.385ZM74.98 142.639C73.4904 143.604 71.2777 141.295 70.2582 140.198C70.9346 139.37 71.6104 138.408 72.27 137.34C73.4303 137.225 74.5264 137.036 75.5205 136.779C75.8461 138.252 76.4762 141.67 74.98 142.639ZM63.9989 142.626C62.5091 141.665 63.1901 138.364 63.5317 136.831C64.5147 137.074 65.6029 137.249 66.7659 137.355C67.4298 138.4 68.1253 139.361 68.8261 140.202C67.9602 141.139 65.4956 143.591 63.9989 142.626ZM58.5252 131.978C58.5252 130.038 61.4537 129.049 62.8272 128.615C63.1276 129.708 63.5216 130.85 63.997 132.006C63.5154 133.178 63.1158 134.339 62.8127 135.445C61.503 135.025 58.5252 133.919 58.5252 131.978ZM63.983 121.388C65.4788 120.419 67.7998 122.778 68.7927 123.84C68.0955 124.678 67.4065 125.631 66.7482 126.671C65.6195 126.788 64.539 126.976 63.5457 127.227C63.173 125.558 62.4887 122.355 63.983 121.388ZM73.0034 127.917C73.7692 128.025 74.5029 128.169 75.1918 128.345C74.985 129.087 74.7272 129.862 74.4236 130.657C73.9835 129.723 73.5111 128.808 73.0034 127.917ZM69.5114 124.66C69.9843 125.233 70.4579 125.873 70.9238 126.567C69.9788 126.517 69.0322 126.517 68.0872 126.566C68.5535 125.879 69.0312 125.24 69.5114 124.66ZM64.5852 130.656C64.2866 129.864 64.0312 129.085 63.8226 128.333C64.5073 128.162 65.2376 128.022 65.9984 127.915C65.4893 128.804 65.0177 129.719 64.5852 130.656ZM66.0202 136.122C65.2343 136.024 64.493 135.891 63.8084 135.724C64.0204 134.959 64.2814 134.163 64.5864 133.354C65.0248 134.302 65.5036 135.225 66.0202 136.122ZM69.5398 139.377C69.0539 138.79 68.5692 138.141 68.0958 137.443C69.0462 137.485 69.9985 137.485 70.9488 137.438C70.4814 138.148 70.0095 138.798 69.5398 139.377ZM74.4334 133.313C74.7542 134.131 75.0246 134.922 75.2394 135.675C74.5434 135.852 73.7922 135.995 73.0006 136.102C73.512 135.194 73.9919 134.265 74.4334 133.313ZM71.6978 136.241C70.2441 136.357 68.7813 136.356 67.327 136.25C66.5007 134.9 65.7651 133.48 65.1302 132.005C65.7621 130.534 66.4923 129.117 67.3147 127.768C68.77 127.645 70.2342 127.645 71.6895 127.769C72.5049 129.117 73.234 130.531 73.8806 131.989C73.2417 133.46 72.5076 134.88 71.6978 136.241ZM74.9642 121.354C76.4605 122.319 75.7945 125.748 75.4676 127.239C74.4719 126.982 73.3906 126.791 72.2586 126.672C71.5991 125.622 70.9158 124.666 70.2299 123.84C71.2356 122.755 73.4825 120.398 74.9642 121.354Z" fill="#53C1DE"/>
<path d="M50.3293 156V148.6H52.9493C53.476 148.6 53.9126 148.703 54.2593 148.91C54.606 149.117 54.866 149.383 55.0393 149.71C55.2126 150.037 55.2993 150.38 55.2993 150.74C55.2993 151.04 55.2393 151.33 55.1193 151.61C54.9993 151.89 54.8193 152.137 54.5793 152.35C54.346 152.557 54.0493 152.707 53.6893 152.8L55.5593 156H54.4493L52.6593 152.89H51.3093V156H50.3293ZM52.9393 149.46H51.3093V152.05H52.9393C53.246 152.05 53.4993 151.987 53.6993 151.86C53.8993 151.733 54.0493 151.573 54.1493 151.38C54.2493 151.18 54.2993 150.973 54.2993 150.76C54.2993 150.54 54.2493 150.333 54.1493 150.14C54.0493 149.94 53.8993 149.777 53.6993 149.65C53.4993 149.523 53.246 149.46 52.9393 149.46ZM58.8209 156.1C58.3876 156.1 58.0109 156.023 57.6909 155.87C57.3776 155.71 57.1176 155.497 56.9109 155.23C56.7109 154.963 56.5609 154.67 56.4609 154.35C56.3609 154.023 56.3109 153.69 56.3109 153.35C56.3109 153.017 56.3576 152.687 56.4509 152.36C56.5509 152.033 56.7009 151.737 56.9009 151.47C57.1076 151.203 57.3643 150.993 57.6709 150.84C57.9843 150.68 58.3543 150.6 58.7809 150.6C59.2343 150.6 59.6343 150.703 59.9809 150.91C60.3276 151.117 60.6009 151.423 60.8009 151.83C61.0009 152.237 61.1009 152.747 61.1009 153.36V153.64H57.2709C57.2909 153.94 57.3609 154.217 57.4809 154.47C57.6076 154.717 57.7843 154.917 58.0109 155.07C58.2376 155.217 58.5076 155.29 58.8209 155.29C59.0943 155.29 59.3143 155.247 59.4809 155.16C59.6543 155.067 59.7909 154.96 59.8909 154.84C59.9909 154.72 60.0576 154.617 60.0909 154.53C60.1309 154.437 60.1509 154.39 60.1509 154.39H61.0409C61.0409 154.39 61.0243 154.45 60.9909 154.57C60.9576 154.683 60.8976 154.823 60.8109 154.99C60.7243 155.157 60.5976 155.327 60.4309 155.5C60.2643 155.667 60.0509 155.81 59.7909 155.93C59.5309 156.043 59.2076 156.1 58.8209 156.1ZM57.2809 152.9H60.1709C60.1576 152.553 60.0843 152.273 59.9509 152.06C59.8176 151.84 59.6476 151.677 59.4409 151.57C59.2343 151.463 59.0143 151.41 58.7809 151.41C58.3609 151.41 58.0176 151.547 57.7509 151.82C57.4843 152.087 57.3276 152.447 57.2809 152.9ZM64.6484 150.6C64.9818 150.6 65.2618 150.653 65.4884 150.76C65.7151 150.867 65.8984 150.993 66.0384 151.14C66.1784 151.28 66.2851 151.413 66.3584 151.54H66.4184V150.7H67.3684V156H66.4184V155.16H66.3584C66.2851 155.287 66.1784 155.423 66.0384 155.57C65.8984 155.717 65.7151 155.843 65.4884 155.95C65.2618 156.05 64.9818 156.1 64.6484 156.1C64.2484 156.1 63.8984 156.023 63.5984 155.87C63.2984 155.71 63.0484 155.5 62.8484 155.24C62.6484 154.973 62.4984 154.677 62.3984 154.35C62.2984 154.023 62.2484 153.69 62.2484 153.35C62.2484 153.01 62.2984 152.677 62.3984 152.35C62.4984 152.023 62.6484 151.73 62.8484 151.47C63.0484 151.203 63.2984 150.993 63.5984 150.84C63.8984 150.68 64.2484 150.6 64.6484 150.6ZM64.8084 151.41C64.4551 151.41 64.1584 151.507 63.9184 151.7C63.6784 151.887 63.4984 152.127 63.3784 152.42C63.2651 152.713 63.2084 153.023 63.2084 153.35C63.2084 153.67 63.2651 153.98 63.3784 154.28C63.4984 154.573 63.6784 154.817 63.9184 155.01C64.1584 155.197 64.4551 155.29 64.8084 155.29C65.1618 155.29 65.4551 155.197 65.6884 155.01C65.9284 154.817 66.1051 154.573 66.2184 154.28C66.3384 153.98 66.3984 153.67 66.3984 153.35C66.3984 153.023 66.3384 152.713 66.2184 152.42C66.1051 152.127 65.9284 151.887 65.6884 151.7C65.4551 151.507 65.1618 151.41 64.8084 151.41ZM71.2745 156.1C70.8411 156.1 70.4611 156.023 70.1345 155.87C69.8078 155.71 69.5345 155.5 69.3145 155.24C69.1011 154.973 68.9378 154.677 68.8245 154.35C68.7178 154.023 68.6645 153.69 68.6645 153.35C68.6645 153.01 68.7178 152.68 68.8245 152.36C68.9311 152.033 69.0911 151.737 69.3045 151.47C69.5245 151.203 69.7978 150.993 70.1245 150.84C70.4511 150.68 70.8345 150.6 71.2745 150.6C71.7011 150.6 72.0545 150.663 72.3345 150.79C72.6145 150.917 72.8378 151.077 73.0045 151.27C73.1778 151.457 73.3045 151.647 73.3845 151.84C73.4711 152.027 73.5278 152.183 73.5545 152.31C73.5811 152.437 73.5945 152.5 73.5945 152.5H72.6745C72.6745 152.5 72.6578 152.447 72.6245 152.34C72.5911 152.227 72.5278 152.1 72.4345 151.96C72.3411 151.82 72.2011 151.697 72.0145 151.59C71.8278 151.477 71.5811 151.42 71.2745 151.42C70.9078 151.42 70.5978 151.513 70.3445 151.7C70.0978 151.88 69.9111 152.117 69.7845 152.41C69.6645 152.703 69.6045 153.017 69.6045 153.35C69.6045 153.683 69.6645 153.997 69.7845 154.29C69.9111 154.583 70.0978 154.823 70.3445 155.01C70.5978 155.19 70.9078 155.28 71.2745 155.28C71.5811 155.28 71.8278 155.227 72.0145 155.12C72.2011 155.007 72.3411 154.88 72.4345 154.74C72.5278 154.6 72.5911 154.477 72.6245 154.37C72.6578 154.257 72.6745 154.2 72.6745 154.2H73.5945C73.5945 154.2 73.5811 154.263 73.5545 154.39C73.5278 154.517 73.4711 154.677 73.3845 154.87C73.3045 155.057 73.1778 155.247 73.0045 155.44C72.8378 155.627 72.6145 155.783 72.3345 155.91C72.0545 156.037 71.7011 156.1 71.2745 156.1ZM77.1473 156.1C76.6006 156.1 76.1873 155.96 75.9073 155.68C75.6339 155.4 75.4973 155.007 75.4973 154.5V151.48H74.5473V150.7H75.4973V149.37H76.4473V150.7H77.7373V151.48H76.4473V154.5C76.4473 154.767 76.5206 154.963 76.6673 155.09C76.8139 155.21 77.0273 155.27 77.3073 155.27C77.4539 155.27 77.5939 155.26 77.7273 155.24C77.8606 155.22 77.9273 155.21 77.9273 155.21V156.02C77.9273 156.02 77.8506 156.033 77.6973 156.06C77.5439 156.087 77.3606 156.1 77.1473 156.1ZM79.7846 156.1C79.5579 156.1 79.3479 156.087 79.1546 156.06C78.9679 156.04 78.8746 156.03 78.8746 156.03V155.16C78.8746 155.16 78.9146 155.163 78.9946 155.17C79.0813 155.177 79.1846 155.187 79.3046 155.2C79.4313 155.207 79.5513 155.21 79.6646 155.21C80.1779 155.21 80.5846 155.083 80.8846 154.83C81.1913 154.577 81.3446 154.14 81.3446 153.52V148.6H82.3246V153.52C82.3246 154.307 82.1079 154.933 81.6746 155.4C81.2479 155.867 80.6179 156.1 79.7846 156.1ZM86.403 156.1C85.9764 156.1 85.6097 156.047 85.303 155.94C85.003 155.827 84.753 155.683 84.553 155.51C84.353 155.33 84.193 155.143 84.073 154.95C83.953 154.757 83.863 154.573 83.803 154.4C83.743 154.22 83.703 154.077 83.683 153.97C83.6697 153.857 83.663 153.8 83.663 153.8H84.663C84.663 153.8 84.673 153.847 84.693 153.94C84.713 154.033 84.753 154.15 84.813 154.29C84.8797 154.43 84.9764 154.573 85.103 154.72C85.2297 154.86 85.3997 154.977 85.613 155.07C85.8264 155.163 86.0964 155.21 86.423 155.21C86.9164 155.21 87.3064 155.093 87.593 154.86C87.8797 154.62 88.023 154.31 88.023 153.93C88.023 153.603 87.913 153.35 87.693 153.17C87.4797 152.99 87.173 152.85 86.773 152.75L85.793 152.51C85.4464 152.423 85.123 152.303 84.823 152.15C84.5297 151.99 84.293 151.783 84.113 151.53C83.9397 151.27 83.853 150.947 83.853 150.56C83.853 150.127 83.9597 149.757 84.173 149.45C84.3864 149.143 84.6764 148.91 85.043 148.75C85.4097 148.583 85.8264 148.5 86.293 148.5C86.7464 148.5 87.123 148.57 87.423 148.71C87.723 148.85 87.963 149.023 88.143 149.23C88.323 149.43 88.4564 149.633 88.543 149.84C88.6297 150.04 88.6864 150.21 88.713 150.35C88.7397 150.49 88.753 150.56 88.753 150.56H87.793C87.793 150.56 87.7797 150.5 87.753 150.38C87.7264 150.26 87.663 150.123 87.563 149.97C87.463 149.81 87.3097 149.67 87.103 149.55C86.8964 149.43 86.6164 149.37 86.263 149.37C85.783 149.37 85.4197 149.483 85.173 149.71C84.933 149.937 84.813 150.197 84.813 150.49C84.813 150.757 84.9097 150.973 85.103 151.14C85.2964 151.3 85.563 151.423 85.903 151.51L86.963 151.77C87.343 151.863 87.6864 152 87.993 152.18C88.2997 152.353 88.543 152.58 88.723 152.86C88.903 153.133 88.993 153.47 88.993 153.87C88.993 154.27 88.893 154.64 88.693 154.98C88.4997 155.32 88.2097 155.593 87.823 155.8C87.443 156 86.9697 156.1 86.403 156.1Z" fill="black"/>
<rect x="117.78" y="71.8372" width="17.7699" height="17.6358" fill="white"/>
<rect x="117.78" y="71.8372" width="17.7699" height="17.6358" fill="white"/>
<path d="M139 69L136.75 90.6665L127 93L117.25 90.6665L115 69H139ZM134.465 73.4055H126.991H119.384L119.748 76.022H126.991H127.398L126.991 76.1725L120.013 78.756L120.244 81.3135L126.991 81.3329L130.607 81.3431L130.376 84.7532L126.991 85.6002V85.5975L126.963 85.6044L123.695 84.8709L123.496 82.7541H123.485H120.453H120.443L120.84 86.8406L126.991 88.4576V88.4547L127.002 88.4576L133.121 86.87L133.914 78.756H126.991H126.974L126.991 78.7494L134.168 76.022L134.465 73.4055Z" fill="#33AADD"/>
<path d="M139 69L136.75 90.6665L127 93L117.25 90.6665L115 69H139ZM134.465 73.4055H126.991H119.384L119.748 76.022H126.991H127.398L126.991 76.1725L120.013 78.756L120.244 81.3135L126.991 81.3329L130.607 81.3431L130.376 84.7532L126.991 85.6002V85.5975L126.963 85.6044L123.695 84.8709L123.496 82.7541H123.485H120.453H120.443L120.84 86.8406L126.991 88.4576V88.4547L127.002 88.4576L133.121 86.87L133.914 78.756H126.991H126.974L126.991 78.7494L134.168 76.022L134.465 73.4055Z" fill="#33AADD"/>
<path d="M87.8 109V101.6H90.42C90.9467 101.6 91.3833 101.703 91.73 101.91C92.0767 102.117 92.3367 102.383 92.51 102.71C92.6833 103.037 92.77 103.38 92.77 103.74C92.77 104.04 92.71 104.33 92.59 104.61C92.47 104.89 92.29 105.137 92.05 105.35C91.8167 105.557 91.52 105.707 91.16 105.8L93.03 109H91.92L90.13 105.89H88.78V109H87.8ZM90.41 102.46H88.78V105.05H90.41C90.7167 105.05 90.97 104.987 91.17 104.86C91.37 104.733 91.52 104.573 91.62 104.38C91.72 104.18 91.77 103.973 91.77 103.76C91.77 103.54 91.72 103.333 91.62 103.14C91.52 102.94 91.37 102.777 91.17 102.65C90.97 102.523 90.7167 102.46 90.41 102.46ZM96.2916 109.1C95.8583 109.1 95.4816 109.023 95.1616 108.87C94.8483 108.71 94.5883 108.497 94.3816 108.23C94.1816 107.963 94.0316 107.67 93.9316 107.35C93.8316 107.023 93.7816 106.69 93.7816 106.35C93.7816 106.017 93.8283 105.687 93.9216 105.36C94.0216 105.033 94.1716 104.737 94.3716 104.47C94.5783 104.203 94.835 103.993 95.1416 103.84C95.455 103.68 95.825 103.6 96.2516 103.6C96.705 103.6 97.105 103.703 97.4516 103.91C97.7983 104.117 98.0716 104.423 98.2716 104.83C98.4716 105.237 98.5716 105.747 98.5716 106.36V106.64H94.7416C94.7616 106.94 94.8316 107.217 94.9516 107.47C95.0783 107.717 95.255 107.917 95.4816 108.07C95.7083 108.217 95.9783 108.29 96.2916 108.29C96.565 108.29 96.785 108.247 96.9516 108.16C97.125 108.067 97.2616 107.96 97.3616 107.84C97.4616 107.72 97.5283 107.617 97.5616 107.53C97.6016 107.437 97.6216 107.39 97.6216 107.39H98.5116C98.5116 107.39 98.495 107.45 98.4616 107.57C98.4283 107.683 98.3683 107.823 98.2816 107.99C98.195 108.157 98.0683 108.327 97.9016 108.5C97.735 108.667 97.5216 108.81 97.2616 108.93C97.0016 109.043 96.6783 109.1 96.2916 109.1ZM94.7516 105.9H97.6416C97.6283 105.553 97.555 105.273 97.4216 105.06C97.2883 104.84 97.1183 104.677 96.9116 104.57C96.705 104.463 96.485 104.41 96.2516 104.41C95.8316 104.41 95.4883 104.547 95.2216 104.82C94.955 105.087 94.7983 105.447 94.7516 105.9ZM101.808 109.1C101.401 109.1 101.065 109.043 100.798 108.93C100.538 108.817 100.331 108.677 100.178 108.51C100.025 108.337 99.9113 108.167 99.838 108C99.7646 107.827 99.718 107.683 99.698 107.57C99.678 107.457 99.668 107.4 99.668 107.4H100.628C100.628 107.4 100.638 107.447 100.658 107.54C100.685 107.627 100.735 107.73 100.808 107.85C100.888 107.963 101.008 108.067 101.168 108.16C101.335 108.247 101.555 108.29 101.828 108.29C102.141 108.29 102.385 108.217 102.558 108.07C102.731 107.917 102.818 107.73 102.818 107.51C102.818 107.317 102.748 107.163 102.608 107.05C102.475 106.937 102.281 106.85 102.028 106.79L101.308 106.62C101.041 106.553 100.791 106.463 100.558 106.35C100.325 106.237 100.135 106.083 99.988 105.89C99.848 105.69 99.778 105.443 99.778 105.15C99.778 104.697 99.948 104.327 100.288 104.04C100.628 103.747 101.071 103.6 101.618 103.6C101.985 103.6 102.288 103.653 102.528 103.76C102.768 103.86 102.958 103.987 103.098 104.14C103.245 104.293 103.351 104.447 103.418 104.6C103.491 104.753 103.538 104.883 103.558 104.99C103.578 105.09 103.588 105.14 103.588 105.14H102.668C102.668 105.14 102.658 105.103 102.638 105.03C102.618 104.95 102.571 104.863 102.498 104.77C102.431 104.67 102.328 104.583 102.188 104.51C102.048 104.43 101.861 104.39 101.628 104.39C101.308 104.39 101.075 104.463 100.928 104.61C100.781 104.757 100.708 104.917 100.708 105.09C100.708 105.257 100.775 105.393 100.908 105.5C101.048 105.6 101.228 105.677 101.448 105.73L102.178 105.9C102.631 106.007 103.005 106.183 103.298 106.43C103.598 106.67 103.748 107.017 103.748 107.47C103.748 107.763 103.671 108.037 103.518 108.29C103.365 108.537 103.145 108.733 102.858 108.88C102.571 109.027 102.221 109.1 101.808 109.1ZM105.046 110.96V103.7H105.996V104.54H106.056C106.136 104.413 106.243 104.277 106.376 104.13C106.516 103.983 106.699 103.86 106.926 103.76C107.153 103.653 107.433 103.6 107.766 103.6C108.166 103.6 108.516 103.68 108.816 103.84C109.116 103.993 109.366 104.203 109.566 104.47C109.766 104.73 109.916 105.023 110.016 105.35C110.116 105.677 110.166 106.01 110.166 106.35C110.166 106.69 110.116 107.023 110.016 107.35C109.916 107.677 109.766 107.973 109.566 108.24C109.366 108.5 109.116 108.71 108.816 108.87C108.516 109.023 108.166 109.1 107.766 109.1C107.433 109.1 107.153 109.047 106.926 108.94C106.699 108.833 106.516 108.707 106.376 108.56C106.243 108.413 106.136 108.28 106.056 108.16H105.996V110.96H105.046ZM106.016 106.35C106.016 106.67 106.073 106.98 106.186 107.28C106.306 107.573 106.483 107.817 106.716 108.01C106.956 108.197 107.253 108.29 107.606 108.29C107.966 108.29 108.263 108.197 108.496 108.01C108.736 107.817 108.913 107.573 109.026 107.28C109.146 106.98 109.206 106.67 109.206 106.35C109.206 106.023 109.146 105.713 109.026 105.42C108.913 105.127 108.736 104.887 108.496 104.7C108.263 104.507 107.966 104.41 107.606 104.41C107.253 104.41 106.956 104.507 106.716 104.7C106.483 104.887 106.306 105.127 106.186 105.42C106.073 105.713 106.016 106.023 106.016 106.35ZM113.931 109.1C113.364 109.1 112.887 108.97 112.501 108.71C112.114 108.443 111.821 108.1 111.621 107.68C111.421 107.26 111.321 106.817 111.321 106.35C111.321 105.877 111.421 105.433 111.621 105.02C111.821 104.6 112.114 104.26 112.501 104C112.887 103.733 113.364 103.6 113.931 103.6C114.497 103.6 114.974 103.733 115.361 104C115.747 104.26 116.041 104.6 116.241 105.02C116.441 105.433 116.541 105.877 116.541 106.35C116.541 106.817 116.441 107.26 116.241 107.68C116.041 108.1 115.747 108.443 115.361 108.71C114.974 108.97 114.497 109.1 113.931 109.1ZM113.931 108.27C114.291 108.27 114.591 108.18 114.831 108C115.077 107.813 115.261 107.573 115.381 107.28C115.507 106.987 115.571 106.677 115.571 106.35C115.571 106.017 115.507 105.707 115.381 105.42C115.261 105.127 115.077 104.89 114.831 104.71C114.591 104.523 114.291 104.43 113.931 104.43C113.577 104.43 113.277 104.523 113.031 104.71C112.784 104.89 112.597 105.127 112.471 105.42C112.351 105.707 112.291 106.017 112.291 106.35C112.291 106.677 112.351 106.987 112.471 107.28C112.597 107.573 112.784 107.813 113.031 108C113.277 108.18 113.577 108.27 113.931 108.27ZM117.837 109V103.7H118.787V104.47H118.847C118.893 104.39 118.97 104.28 119.077 104.14C119.19 104 119.35 103.877 119.557 103.77C119.763 103.657 120.023 103.6 120.337 103.6C120.723 103.6 121.053 103.69 121.327 103.87C121.6 104.043 121.807 104.28 121.947 104.58C122.093 104.88 122.167 105.217 122.167 105.59V109H121.217V105.65C121.217 105.297 121.117 105.003 120.917 104.77C120.723 104.537 120.44 104.42 120.067 104.42C119.767 104.42 119.523 104.497 119.337 104.65C119.15 104.797 119.01 104.993 118.917 105.24C118.83 105.48 118.787 105.737 118.787 106.01V109H117.837ZM125.509 109.1C125.102 109.1 124.766 109.043 124.499 108.93C124.239 108.817 124.032 108.677 123.879 108.51C123.726 108.337 123.612 108.167 123.539 108C123.466 107.827 123.419 107.683 123.399 107.57C123.379 107.457 123.369 107.4 123.369 107.4H124.329C124.329 107.4 124.339 107.447 124.359 107.54C124.386 107.627 124.436 107.73 124.509 107.85C124.589 107.963 124.709 108.067 124.869 108.16C125.036 108.247 125.256 108.29 125.529 108.29C125.842 108.29 126.086 108.217 126.259 108.07C126.432 107.917 126.519 107.73 126.519 107.51C126.519 107.317 126.449 107.163 126.309 107.05C126.176 106.937 125.982 106.85 125.729 106.79L125.009 106.62C124.742 106.553 124.492 106.463 124.259 106.35C124.026 106.237 123.836 106.083 123.689 105.89C123.549 105.69 123.479 105.443 123.479 105.15C123.479 104.697 123.649 104.327 123.989 104.04C124.329 103.747 124.772 103.6 125.319 103.6C125.686 103.6 125.989 103.653 126.229 103.76C126.469 103.86 126.659 103.987 126.799 104.14C126.946 104.293 127.052 104.447 127.119 104.6C127.192 104.753 127.239 104.883 127.259 104.99C127.279 105.09 127.289 105.14 127.289 105.14H126.369C126.369 105.14 126.359 105.103 126.339 105.03C126.319 104.95 126.272 104.863 126.199 104.77C126.132 104.67 126.029 104.583 125.889 104.51C125.749 104.43 125.562 104.39 125.329 104.39C125.009 104.39 124.776 104.463 124.629 104.61C124.482 104.757 124.409 104.917 124.409 105.09C124.409 105.257 124.476 105.393 124.609 105.5C124.749 105.6 124.929 105.677 125.149 105.73L125.879 105.9C126.332 106.007 126.706 106.183 126.999 106.43C127.299 106.67 127.449 107.017 127.449 107.47C127.449 107.763 127.372 108.037 127.219 108.29C127.066 108.537 126.846 108.733 126.559 108.88C126.272 109.027 125.922 109.1 125.509 109.1ZM129.267 102.69C129.087 102.69 128.937 102.63 128.817 102.51C128.704 102.39 128.647 102.247 128.647 102.08C128.647 101.907 128.704 101.76 128.817 101.64C128.937 101.52 129.087 101.46 129.267 101.46C129.441 101.46 129.587 101.52 129.707 101.64C129.827 101.76 129.887 101.907 129.887 102.08C129.887 102.247 129.827 102.39 129.707 102.51C129.587 102.63 129.441 102.69 129.267 102.69ZM128.797 109V103.7H129.747V109H128.797ZM132.954 109L130.934 103.7H131.924L133.474 107.84L134.994 103.7H135.994L133.964 109H132.954ZM139.26 109.1C138.827 109.1 138.45 109.023 138.13 108.87C137.817 108.71 137.557 108.497 137.35 108.23C137.15 107.963 137 107.67 136.9 107.35C136.8 107.023 136.75 106.69 136.75 106.35C136.75 106.017 136.797 105.687 136.89 105.36C136.99 105.033 137.14 104.737 137.34 104.47C137.547 104.203 137.804 103.993 138.11 103.84C138.424 103.68 138.794 103.6 139.22 103.6C139.674 103.6 140.074 103.703 140.42 103.91C140.767 104.117 141.04 104.423 141.24 104.83C141.44 105.237 141.54 105.747 141.54 106.36V106.64H137.71C137.73 106.94 137.8 107.217 137.92 107.47C138.047 107.717 138.224 107.917 138.45 108.07C138.677 108.217 138.947 108.29 139.26 108.29C139.534 108.29 139.754 108.247 139.92 108.16C140.094 108.067 140.23 107.96 140.33 107.84C140.43 107.72 140.497 107.617 140.53 107.53C140.57 107.437 140.59 107.39 140.59 107.39H141.48C141.48 107.39 141.464 107.45 141.43 107.57C141.397 107.683 141.337 107.823 141.25 107.99C141.164 108.157 141.037 108.327 140.87 108.5C140.704 108.667 140.49 108.81 140.23 108.93C139.97 109.043 139.647 109.1 139.26 109.1ZM137.72 105.9H140.61C140.597 105.553 140.524 105.273 140.39 105.06C140.257 104.84 140.087 104.677 139.88 104.57C139.674 104.463 139.454 104.41 139.22 104.41C138.8 104.41 138.457 104.547 138.19 104.82C137.924 105.087 137.767 105.447 137.72 105.9ZM146.811 109L144.841 101.6H145.851L147.381 107.56L148.991 101.6H149.951L151.561 107.54L153.081 101.6H154.091L152.121 109H151.001L149.471 103.31L147.931 109H146.811ZM157.151 109.1C156.718 109.1 156.341 109.023 156.021 108.87C155.708 108.71 155.448 108.497 155.241 108.23C155.041 107.963 154.891 107.67 154.791 107.35C154.691 107.023 154.641 106.69 154.641 106.35C154.641 106.017 154.688 105.687 154.781 105.36C154.881 105.033 155.031 104.737 155.231 104.47C155.438 104.203 155.694 103.993 156.001 103.84C156.314 103.68 156.684 103.6 157.111 103.6C157.564 103.6 157.964 103.703 158.311 103.91C158.658 104.117 158.931 104.423 159.131 104.83C159.331 105.237 159.431 105.747 159.431 106.36V106.64H155.601C155.621 106.94 155.691 107.217 155.811 107.47C155.938 107.717 156.114 107.917 156.341 108.07C156.568 108.217 156.838 108.29 157.151 108.29C157.424 108.29 157.644 108.247 157.811 108.16C157.984 108.067 158.121 107.96 158.221 107.84C158.321 107.72 158.388 107.617 158.421 107.53C158.461 107.437 158.481 107.39 158.481 107.39H159.371C159.371 107.39 159.354 107.45 159.321 107.57C159.288 107.683 159.228 107.823 159.141 107.99C159.054 108.157 158.928 108.327 158.761 108.5C158.594 108.667 158.381 108.81 158.121 108.93C157.861 109.043 157.538 109.1 157.151 109.1ZM155.611 105.9H158.501C158.488 105.553 158.414 105.273 158.281 105.06C158.148 104.84 157.978 104.677 157.771 104.57C157.564 104.463 157.344 104.41 157.111 104.41C156.691 104.41 156.348 104.547 156.081 104.82C155.814 105.087 155.658 105.447 155.611 105.9ZM163.547 109.1C163.214 109.1 162.934 109.047 162.707 108.94C162.481 108.833 162.297 108.707 162.157 108.56C162.024 108.413 161.917 108.28 161.837 108.16H161.777V109H160.827V101.4H161.777V104.54H161.837C161.917 104.413 162.024 104.277 162.157 104.13C162.297 103.983 162.481 103.86 162.707 103.76C162.934 103.653 163.214 103.6 163.547 103.6C163.947 103.6 164.297 103.68 164.597 103.84C164.897 103.993 165.147 104.203 165.347 104.47C165.547 104.73 165.697 105.023 165.797 105.35C165.897 105.677 165.947 106.01 165.947 106.35C165.947 106.69 165.897 107.023 165.797 107.35C165.697 107.677 165.547 107.973 165.347 108.24C165.147 108.5 164.897 108.71 164.597 108.87C164.297 109.023 163.947 109.1 163.547 109.1ZM163.387 108.29C163.747 108.29 164.044 108.197 164.277 108.01C164.517 107.817 164.694 107.573 164.807 107.28C164.927 106.98 164.987 106.67 164.987 106.35C164.987 106.023 164.927 105.713 164.807 105.42C164.694 105.127 164.517 104.887 164.277 104.7C164.044 104.507 163.747 104.41 163.387 104.41C163.034 104.41 162.737 104.507 162.497 104.7C162.264 104.887 162.087 105.127 161.967 105.42C161.854 105.713 161.797 106.023 161.797 106.35C161.797 106.67 161.854 106.98 161.967 107.28C162.087 107.573 162.264 107.817 162.497 108.01C162.737 108.197 163.034 108.29 163.387 108.29Z" fill="black"/>
<path d="M230 85C230 78.3726 235.373 73 242 73C248.627 73 254 78.3726 254 85C254 91.6274 248.627 97 242 97C235.373 97 230 91.6274 230 85Z" fill="#F7DF1E"/>
<path d="M233.6 89.3667L235.437 88.2552C235.791 88.8835 236.113 89.415 236.887 89.415C237.628 89.415 238.095 89.1251 238.095 87.9975V80.329H240.35V88.0294C240.35 90.3654 238.981 91.4287 236.983 91.4287C235.179 91.4287 234.132 90.4943 233.6 89.3665M241.575 89.125L243.412 88.0618C243.895 88.8513 244.524 89.4312 245.635 89.4312C246.57 89.4312 247.166 88.964 247.166 88.3195C247.166 87.5463 246.553 87.2724 245.522 86.8214L244.959 86.5795C243.331 85.887 242.252 85.017 242.252 83.1805C242.252 81.4888 243.541 80.2 245.555 80.2C246.988 80.2 248.02 80.6995 248.761 82.0044L247.004 83.1322C246.618 82.4395 246.199 82.1656 245.555 82.1656C244.894 82.1656 244.475 82.5845 244.475 83.1322C244.475 83.8088 244.894 84.0828 245.861 84.5017L246.424 84.7433C248.342 85.565 249.421 86.4026 249.421 88.2874C249.421 90.3175 247.826 91.429 245.683 91.429C243.589 91.429 242.236 90.4301 241.575 89.1251" fill="black"/>
<path d="M216.81 113.1C216.583 113.1 216.373 113.087 216.18 113.06C215.993 113.04 215.9 113.03 215.9 113.03V112.16C215.9 112.16 215.94 112.163 216.02 112.17C216.107 112.177 216.21 112.187 216.33 112.2C216.457 112.207 216.577 112.21 216.69 112.21C217.203 112.21 217.61 112.083 217.91 111.83C218.217 111.577 218.37 111.14 218.37 110.52V105.6H219.35V110.52C219.35 111.307 219.133 111.933 218.7 112.4C218.273 112.867 217.643 113.1 216.81 113.1ZM223.148 107.6C223.482 107.6 223.762 107.653 223.988 107.76C224.215 107.867 224.398 107.993 224.538 108.14C224.678 108.28 224.785 108.413 224.858 108.54H224.918V107.7H225.868V113H224.918V112.16H224.858C224.785 112.287 224.678 112.423 224.538 112.57C224.398 112.717 224.215 112.843 223.988 112.95C223.762 113.05 223.482 113.1 223.148 113.1C222.748 113.1 222.398 113.023 222.098 112.87C221.798 112.71 221.548 112.5 221.348 112.24C221.148 111.973 220.998 111.677 220.898 111.35C220.798 111.023 220.748 110.69 220.748 110.35C220.748 110.01 220.798 109.677 220.898 109.35C220.998 109.023 221.148 108.73 221.348 108.47C221.548 108.203 221.798 107.993 222.098 107.84C222.398 107.68 222.748 107.6 223.148 107.6ZM223.308 108.41C222.955 108.41 222.658 108.507 222.418 108.7C222.178 108.887 221.998 109.127 221.878 109.42C221.765 109.713 221.708 110.023 221.708 110.35C221.708 110.67 221.765 110.98 221.878 111.28C221.998 111.573 222.178 111.817 222.418 112.01C222.658 112.197 222.955 112.29 223.308 112.29C223.662 112.29 223.955 112.197 224.188 112.01C224.428 111.817 224.605 111.573 224.718 111.28C224.838 110.98 224.898 110.67 224.898 110.35C224.898 110.023 224.838 109.713 224.718 109.42C224.605 109.127 224.428 108.887 224.188 108.7C223.955 108.507 223.662 108.41 223.308 108.41ZM228.739 113L226.719 107.7H227.709L229.259 111.84L230.779 107.7H231.779L229.749 113H228.739ZM234.936 107.6C235.269 107.6 235.549 107.653 235.776 107.76C236.002 107.867 236.186 107.993 236.326 108.14C236.466 108.28 236.572 108.413 236.646 108.54H236.706V107.7H237.656V113H236.706V112.16H236.646C236.572 112.287 236.466 112.423 236.326 112.57C236.186 112.717 236.002 112.843 235.776 112.95C235.549 113.05 235.269 113.1 234.936 113.1C234.536 113.1 234.186 113.023 233.886 112.87C233.586 112.71 233.336 112.5 233.136 112.24C232.936 111.973 232.786 111.677 232.686 111.35C232.586 111.023 232.536 110.69 232.536 110.35C232.536 110.01 232.586 109.677 232.686 109.35C232.786 109.023 232.936 108.73 233.136 108.47C233.336 108.203 233.586 107.993 233.886 107.84C234.186 107.68 234.536 107.6 234.936 107.6ZM235.096 108.41C234.742 108.41 234.446 108.507 234.206 108.7C233.966 108.887 233.786 109.127 233.666 109.42C233.552 109.713 233.496 110.023 233.496 110.35C233.496 110.67 233.552 110.98 233.666 111.28C233.786 111.573 233.966 111.817 234.206 112.01C234.446 112.197 234.742 112.29 235.096 112.29C235.449 112.29 235.742 112.197 235.976 112.01C236.216 111.817 236.392 111.573 236.506 111.28C236.626 110.98 236.686 110.67 236.686 110.35C236.686 110.023 236.626 109.713 236.506 109.42C236.392 109.127 236.216 108.887 235.976 108.7C235.742 108.507 235.449 108.41 235.096 108.41ZM241.632 113.1C241.205 113.1 240.838 113.047 240.532 112.94C240.232 112.827 239.982 112.683 239.782 112.51C239.582 112.33 239.422 112.143 239.302 111.95C239.182 111.757 239.092 111.573 239.032 111.4C238.972 111.22 238.932 111.077 238.912 110.97C238.898 110.857 238.892 110.8 238.892 110.8H239.892C239.892 110.8 239.902 110.847 239.922 110.94C239.942 111.033 239.982 111.15 240.042 111.29C240.108 111.43 240.205 111.573 240.332 111.72C240.458 111.86 240.628 111.977 240.842 112.07C241.055 112.163 241.325 112.21 241.652 112.21C242.145 112.21 242.535 112.093 242.822 111.86C243.108 111.62 243.252 111.31 243.252 110.93C243.252 110.603 243.142 110.35 242.922 110.17C242.708 109.99 242.402 109.85 242.002 109.75L241.022 109.51C240.675 109.423 240.352 109.303 240.052 109.15C239.758 108.99 239.522 108.783 239.342 108.53C239.168 108.27 239.082 107.947 239.082 107.56C239.082 107.127 239.188 106.757 239.402 106.45C239.615 106.143 239.905 105.91 240.272 105.75C240.638 105.583 241.055 105.5 241.522 105.5C241.975 105.5 242.352 105.57 242.652 105.71C242.952 105.85 243.192 106.023 243.372 106.23C243.552 106.43 243.685 106.633 243.772 106.84C243.858 107.04 243.915 107.21 243.942 107.35C243.968 107.49 243.982 107.56 243.982 107.56H243.022C243.022 107.56 243.008 107.5 242.982 107.38C242.955 107.26 242.892 107.123 242.792 106.97C242.692 106.81 242.538 106.67 242.332 106.55C242.125 106.43 241.845 106.37 241.492 106.37C241.012 106.37 240.648 106.483 240.402 106.71C240.162 106.937 240.042 107.197 240.042 107.49C240.042 107.757 240.138 107.973 240.332 108.14C240.525 108.3 240.792 108.423 241.132 108.51L242.192 108.77C242.572 108.863 242.915 109 243.222 109.18C243.528 109.353 243.772 109.58 243.952 109.86C244.132 110.133 244.222 110.47 244.222 110.87C244.222 111.27 244.122 111.64 243.922 111.98C243.728 112.32 243.438 112.593 243.052 112.8C242.672 113 242.198 113.1 241.632 113.1ZM247.909 113.1C247.476 113.1 247.096 113.023 246.769 112.87C246.443 112.71 246.169 112.5 245.949 112.24C245.736 111.973 245.573 111.677 245.459 111.35C245.353 111.023 245.299 110.69 245.299 110.35C245.299 110.01 245.353 109.68 245.459 109.36C245.566 109.033 245.726 108.737 245.939 108.47C246.159 108.203 246.433 107.993 246.759 107.84C247.086 107.68 247.469 107.6 247.909 107.6C248.336 107.6 248.689 107.663 248.969 107.79C249.249 107.917 249.473 108.077 249.639 108.27C249.813 108.457 249.939 108.647 250.019 108.84C250.106 109.027 250.163 109.183 250.189 109.31C250.216 109.437 250.229 109.5 250.229 109.5H249.309C249.309 109.5 249.293 109.447 249.259 109.34C249.226 109.227 249.163 109.1 249.069 108.96C248.976 108.82 248.836 108.697 248.649 108.59C248.463 108.477 248.216 108.42 247.909 108.42C247.543 108.42 247.233 108.513 246.979 108.7C246.733 108.88 246.546 109.117 246.419 109.41C246.299 109.703 246.239 110.017 246.239 110.35C246.239 110.683 246.299 110.997 246.419 111.29C246.546 111.583 246.733 111.823 246.979 112.01C247.233 112.19 247.543 112.28 247.909 112.28C248.216 112.28 248.463 112.227 248.649 112.12C248.836 112.007 248.976 111.88 249.069 111.74C249.163 111.6 249.226 111.477 249.259 111.37C249.293 111.257 249.309 111.2 249.309 111.2H250.229C250.229 111.2 250.216 111.263 250.189 111.39C250.163 111.517 250.106 111.677 250.019 111.87C249.939 112.057 249.813 112.247 249.639 112.44C249.473 112.627 249.249 112.783 248.969 112.91C248.689 113.037 248.336 113.1 247.909 113.1ZM251.532 113V107.7H252.482V108.36H252.522C252.635 108.16 252.802 107.983 253.022 107.83C253.242 107.677 253.552 107.6 253.952 107.6C254.065 107.6 254.169 107.607 254.262 107.62C254.355 107.627 254.402 107.63 254.402 107.63V108.54C254.402 108.54 254.349 108.537 254.242 108.53C254.142 108.517 254.035 108.51 253.922 108.51C253.462 108.51 253.105 108.643 252.852 108.91C252.605 109.17 252.482 109.597 252.482 110.19V113H251.532ZM256.263 106.69C256.083 106.69 255.933 106.63 255.813 106.51C255.7 106.39 255.643 106.247 255.643 106.08C255.643 105.907 255.7 105.76 255.813 105.64C255.933 105.52 256.083 105.46 256.263 105.46C256.437 105.46 256.583 105.52 256.703 105.64C256.823 105.76 256.883 105.907 256.883 106.08C256.883 106.247 256.823 106.39 256.703 106.51C256.583 106.63 256.437 106.69 256.263 106.69ZM255.793 113V107.7H256.743V113H255.793ZM258.38 114.96V107.7H259.33V108.54H259.39C259.47 108.413 259.577 108.277 259.71 108.13C259.85 107.983 260.033 107.86 260.26 107.76C260.487 107.653 260.767 107.6 261.1 107.6C261.5 107.6 261.85 107.68 262.15 107.84C262.45 107.993 262.7 108.203 262.9 108.47C263.1 108.73 263.25 109.023 263.35 109.35C263.45 109.677 263.5 110.01 263.5 110.35C263.5 110.69 263.45 111.023 263.35 111.35C263.25 111.677 263.1 111.973 262.9 112.24C262.7 112.5 262.45 112.71 262.15 112.87C261.85 113.023 261.5 113.1 261.1 113.1C260.767 113.1 260.487 113.047 260.26 112.94C260.033 112.833 259.85 112.707 259.71 112.56C259.577 112.413 259.47 112.28 259.39 112.16H259.33V114.96H258.38ZM259.35 110.35C259.35 110.67 259.407 110.98 259.52 111.28C259.64 111.573 259.817 111.817 260.05 112.01C260.29 112.197 260.587 112.29 260.94 112.29C261.3 112.29 261.597 112.197 261.83 112.01C262.07 111.817 262.247 111.573 262.36 111.28C262.48 110.98 262.54 110.67 262.54 110.35C262.54 110.023 262.48 109.713 262.36 109.42C262.247 109.127 262.07 108.887 261.83 108.7C261.597 108.507 261.3 108.41 260.94 108.41C260.587 108.41 260.29 108.507 260.05 108.7C259.817 108.887 259.64 109.127 259.52 109.42C259.407 109.713 259.35 110.023 259.35 110.35ZM266.956 113.1C266.409 113.1 265.996 112.96 265.716 112.68C265.443 112.4 265.306 112.007 265.306 111.5V108.48H264.356V107.7H265.306V106.37H266.256V107.7H267.546V108.48H266.256V111.5C266.256 111.767 266.329 111.963 266.476 112.09C266.623 112.21 266.836 112.27 267.116 112.27C267.263 112.27 267.403 112.26 267.536 112.24C267.669 112.22 267.736 112.21 267.736 112.21V113.02C267.736 113.02 267.659 113.033 267.506 113.06C267.353 113.087 267.169 113.1 266.956 113.1Z" fill="black"/>
<rect x="210.246" y="2.83716" width="17.5506" height="17.6358" fill="white"/>
<path fill-rule="evenodd" clip-rule="evenodd" d="M226.247 7.2H226.237H214.749L215.024 9.6H225.973C225.813 11.7024 225.327 16.1566 225.149 18.1834L218.999 19.7414V19.7461L218.986 19.752L212.832 17.8031L212.41 13.2H215.427L215.64 15.6756L218.991 16.8H218.999L222.345 15.7201L222.689 12H212.275C212.225 11.5188 211.578 5.2704 211.465 4.8H226.516C226.432 5.592 226.346 6.4056 226.247 7.2ZM207 0L209.184 21.7775L218.986 24L228.813 21.733L231 0H207Z" fill="#F16529"/>
<path d="M185.093 40V32.6H186.073V35.81H189.603V32.6H190.583V40H189.603V36.69H186.073V40H185.093ZM194.143 40V33.46H191.833V32.6H197.433V33.46H195.123V40H194.143ZM198.687 40V32.6H199.977L202.157 37L204.327 32.6H205.617V40H204.657V34.04L202.617 38.1H201.687L199.647 34.02V40H198.687ZM207.212 40V32.6H208.192V39.14H212.002V40H207.212ZM215.902 40.1C215.482 40.1 215.122 40.0467 214.822 39.94C214.529 39.8267 214.286 39.6833 214.092 39.51C213.906 39.3367 213.756 39.1533 213.642 38.96C213.536 38.7667 213.456 38.5833 213.402 38.41C213.356 38.2367 213.326 38.0967 213.312 37.99C213.299 37.8767 213.292 37.82 213.292 37.82H214.212C214.212 37.82 214.219 37.87 214.232 37.97C214.246 38.0633 214.279 38.1833 214.332 38.33C214.392 38.47 214.482 38.6133 214.602 38.76C214.722 38.9 214.886 39.02 215.092 39.12C215.306 39.2133 215.576 39.26 215.902 39.26C216.289 39.26 216.609 39.1767 216.862 39.01C217.116 38.8433 217.306 38.63 217.432 38.37C217.559 38.11 217.622 37.8367 217.622 37.55C217.622 37.2567 217.559 36.9767 217.432 36.71C217.306 36.4367 217.116 36.2167 216.862 36.05C216.616 35.8767 216.309 35.79 215.942 35.79C215.656 35.79 215.416 35.8367 215.222 35.93C215.029 36.0233 214.876 36.13 214.762 36.25C214.656 36.37 214.579 36.4767 214.532 36.57C214.486 36.6633 214.462 36.71 214.462 36.71H213.502L214.082 32.6H218.062V33.47H214.812L214.512 35.59H214.542C214.622 35.5033 214.722 35.4133 214.842 35.32C214.969 35.22 215.132 35.1367 215.332 35.07C215.532 34.9967 215.782 34.96 216.082 34.96C216.629 34.96 217.086 35.0867 217.452 35.34C217.819 35.5867 218.096 35.9067 218.282 36.3C218.476 36.6867 218.572 37.0967 218.572 37.53C218.572 37.85 218.516 38.1633 218.402 38.47C218.296 38.7767 218.132 39.0533 217.912 39.3C217.692 39.54 217.416 39.7333 217.082 39.88C216.749 40.0267 216.356 40.1 215.902 40.1ZM222.424 40.1C221.964 40.1 221.541 40.0167 221.154 39.85C220.767 39.6833 220.457 39.4433 220.224 39.13C219.991 38.8167 219.874 38.4367 219.874 37.99C219.874 37.51 220.014 37.1 220.294 36.76C220.581 36.4133 220.951 36.11 221.404 35.85L221.324 35.76C221.151 35.56 220.991 35.3367 220.844 35.09C220.697 34.8433 220.624 34.5433 220.624 34.19C220.624 33.8167 220.707 33.5067 220.874 33.26C221.047 33.0067 221.271 32.8167 221.544 32.69C221.817 32.5633 222.104 32.5 222.404 32.5C222.704 32.5 222.984 32.56 223.244 32.68C223.511 32.8 223.724 32.9767 223.884 33.21C224.051 33.4433 224.134 33.73 224.134 34.07C224.134 34.47 224.007 34.8333 223.754 35.16C223.501 35.4867 223.141 35.7667 222.674 36L224.474 38.03C224.614 37.7567 224.724 37.43 224.804 37.05C224.884 36.67 224.924 36.2367 224.924 35.75H225.734C225.734 36.3833 225.671 36.9433 225.544 37.43C225.424 37.9167 225.257 38.3333 225.044 38.68L226.204 39.99H225.004L224.464 39.37C224.177 39.6167 223.861 39.8 223.514 39.92C223.167 40.04 222.804 40.1 222.424 40.1ZM222.084 35.33L222.194 35.45L222.264 35.42C222.584 35.2667 222.834 35.08 223.014 34.86C223.201 34.6333 223.294 34.3867 223.294 34.12C223.294 33.84 223.204 33.6267 223.024 33.48C222.851 33.3267 222.647 33.25 222.414 33.25C222.167 33.25 221.947 33.3333 221.754 33.5C221.567 33.66 221.474 33.88 221.474 34.16C221.474 34.36 221.527 34.55 221.634 34.73C221.741 34.91 221.891 35.11 222.084 35.33ZM220.774 37.91C220.774 38.2033 220.851 38.4567 221.004 38.67C221.157 38.8767 221.361 39.0333 221.614 39.14C221.874 39.2467 222.161 39.3 222.474 39.3C222.747 39.3 223.007 39.2567 223.254 39.17C223.507 39.0833 223.734 38.9467 223.934 38.76L221.874 36.39C221.547 36.5767 221.281 36.7933 221.074 37.04C220.874 37.2867 220.774 37.5767 220.774 37.91ZM230.706 40.1C230.126 40.1 229.616 39.9933 229.176 39.78C228.736 39.56 228.37 39.27 228.076 38.91C227.79 38.5433 227.573 38.1367 227.426 37.69C227.28 37.2367 227.206 36.7733 227.206 36.3C227.206 35.8267 227.28 35.3633 227.426 34.91C227.573 34.4567 227.79 34.05 228.076 33.69C228.37 33.3233 228.736 33.0333 229.176 32.82C229.616 32.6067 230.126 32.5 230.706 32.5C231.186 32.5 231.596 32.5633 231.936 32.69C232.283 32.81 232.57 32.9667 232.796 33.16C233.03 33.3533 233.216 33.56 233.356 33.78C233.503 34 233.61 34.2067 233.676 34.4C233.75 34.5933 233.796 34.7533 233.816 34.88C233.843 35 233.856 35.06 233.856 35.06H232.876C232.876 35.06 232.863 35.0067 232.836 34.9C232.81 34.7867 232.756 34.65 232.676 34.49C232.596 34.3233 232.476 34.1567 232.316 33.99C232.156 33.8233 231.946 33.6867 231.686 33.58C231.426 33.4667 231.103 33.41 230.716 33.41C230.296 33.41 229.93 33.4933 229.616 33.66C229.303 33.82 229.04 34.04 228.826 34.32C228.62 34.5933 228.463 34.9033 228.356 35.25C228.256 35.59 228.206 35.94 228.206 36.3C228.206 36.66 228.256 37.0133 228.356 37.36C228.463 37.7 228.62 38.01 228.826 38.29C229.04 38.5633 229.303 38.7833 229.616 38.95C229.93 39.11 230.296 39.19 230.716 39.19C231.103 39.19 231.426 39.1333 231.686 39.02C231.946 38.9067 232.156 38.77 232.316 38.61C232.476 38.4433 232.596 38.28 232.676 38.12C232.756 37.9533 232.81 37.8133 232.836 37.7C232.863 37.5867 232.876 37.53 232.876 37.53H233.856C233.856 37.53 233.843 37.5933 233.816 37.72C233.796 37.84 233.75 38 233.676 38.2C233.61 38.3933 233.503 38.6 233.356 38.82C233.216 39.0333 233.03 39.24 232.796 39.44C232.57 39.6333 232.283 39.7933 231.936 39.92C231.596 40.04 231.186 40.1 230.706 40.1ZM237.69 40.1C237.263 40.1 236.897 40.0467 236.59 39.94C236.29 39.8267 236.04 39.6833 235.84 39.51C235.64 39.33 235.48 39.1433 235.36 38.95C235.24 38.7567 235.15 38.5733 235.09 38.4C235.03 38.22 234.99 38.0767 234.97 37.97C234.957 37.8567 234.95 37.8 234.95 37.8H235.95C235.95 37.8 235.96 37.8467 235.98 37.94C236 38.0333 236.04 38.15 236.1 38.29C236.167 38.43 236.263 38.5733 236.39 38.72C236.517 38.86 236.687 38.9767 236.9 39.07C237.113 39.1633 237.383 39.21 237.71 39.21C238.203 39.21 238.593 39.0933 238.88 38.86C239.167 38.62 239.31 38.31 239.31 37.93C239.31 37.6033 239.2 37.35 238.98 37.17C238.767 36.99 238.46 36.85 238.06 36.75L237.08 36.51C236.733 36.4233 236.41 36.3033 236.11 36.15C235.817 35.99 235.58 35.7833 235.4 35.53C235.227 35.27 235.14 34.9467 235.14 34.56C235.14 34.1267 235.247 33.7567 235.46 33.45C235.673 33.1433 235.963 32.91 236.33 32.75C236.697 32.5833 237.113 32.5 237.58 32.5C238.033 32.5 238.41 32.57 238.71 32.71C239.01 32.85 239.25 33.0233 239.43 33.23C239.61 33.43 239.743 33.6333 239.83 33.84C239.917 34.04 239.973 34.21 240 34.35C240.027 34.49 240.04 34.56 240.04 34.56H239.08C239.08 34.56 239.067 34.5 239.04 34.38C239.013 34.26 238.95 34.1233 238.85 33.97C238.75 33.81 238.597 33.67 238.39 33.55C238.183 33.43 237.903 33.37 237.55 33.37C237.07 33.37 236.707 33.4833 236.46 33.71C236.22 33.9367 236.1 34.1967 236.1 34.49C236.1 34.7567 236.197 34.9733 236.39 35.14C236.583 35.3 236.85 35.4233 237.19 35.51L238.25 35.77C238.63 35.8633 238.973 36 239.28 36.18C239.587 36.3533 239.83 36.58 240.01 36.86C240.19 37.1333 240.28 37.47 240.28 37.87C240.28 38.27 240.18 38.64 239.98 38.98C239.787 39.32 239.497 39.5933 239.11 39.8C238.73 40 238.257 40.1 237.69 40.1ZM244.038 40.1C243.611 40.1 243.244 40.0467 242.938 39.94C242.638 39.8267 242.388 39.6833 242.188 39.51C241.988 39.33 241.828 39.1433 241.708 38.95C241.588 38.7567 241.498 38.5733 241.438 38.4C241.378 38.22 241.338 38.0767 241.318 37.97C241.304 37.8567 241.298 37.8 241.298 37.8H242.298C242.298 37.8 242.308 37.8467 242.328 37.94C242.348 38.0333 242.388 38.15 242.448 38.29C242.514 38.43 242.611 38.5733 242.738 38.72C242.864 38.86 243.034 38.9767 243.248 39.07C243.461 39.1633 243.731 39.21 244.058 39.21C244.551 39.21 244.941 39.0933 245.228 38.86C245.514 38.62 245.658 38.31 245.658 37.93C245.658 37.6033 245.548 37.35 245.328 37.17C245.114 36.99 244.808 36.85 244.408 36.75L243.428 36.51C243.081 36.4233 242.758 36.3033 242.458 36.15C242.164 35.99 241.928 35.7833 241.748 35.53C241.574 35.27 241.488 34.9467 241.488 34.56C241.488 34.1267 241.594 33.7567 241.808 33.45C242.021 33.1433 242.311 32.91 242.678 32.75C243.044 32.5833 243.461 32.5 243.928 32.5C244.381 32.5 244.758 32.57 245.058 32.71C245.358 32.85 245.598 33.0233 245.778 33.23C245.958 33.43 246.091 33.6333 246.178 33.84C246.264 34.04 246.321 34.21 246.348 34.35C246.374 34.49 246.388 34.56 246.388 34.56H245.428C245.428 34.56 245.414 34.5 245.388 34.38C245.361 34.26 245.298 34.1233 245.198 33.97C245.098 33.81 244.944 33.67 244.738 33.55C244.531 33.43 244.251 33.37 243.898 33.37C243.418 33.37 243.054 33.4833 242.808 33.71C242.568 33.9367 242.448 34.1967 242.448 34.49C242.448 34.7567 242.544 34.9733 242.738 35.14C242.931 35.3 243.198 35.4233 243.538 35.51L244.598 35.77C244.978 35.8633 245.321 36 245.628 36.18C245.934 36.3533 246.178 36.58 246.358 36.86C246.538 37.1333 246.628 37.47 246.628 37.87C246.628 38.27 246.528 38.64 246.328 38.98C246.134 39.32 245.844 39.5933 245.458 39.8C245.078 40 244.604 40.1 244.038 40.1ZM250.355 40.1C249.922 40.1 249.509 40.0167 249.115 39.85C248.729 39.6833 248.412 39.43 248.165 39.09C247.925 38.7433 247.805 38.3067 247.805 37.78H248.735C248.735 38.12 248.812 38.4 248.965 38.62C249.125 38.84 249.329 39.0033 249.575 39.11C249.829 39.2167 250.089 39.27 250.355 39.27C250.642 39.27 250.905 39.2167 251.145 39.11C251.385 38.9967 251.579 38.8333 251.725 38.62C251.872 38.4067 251.945 38.15 251.945 37.85C251.945 37.4567 251.815 37.1467 251.555 36.92C251.295 36.6867 250.949 36.57 250.515 36.57H249.515V35.8H250.515C250.875 35.8 251.182 35.6933 251.435 35.48C251.695 35.2667 251.825 34.9767 251.825 34.61C251.825 34.3433 251.755 34.1167 251.615 33.93C251.482 33.7367 251.302 33.5867 251.075 33.48C250.855 33.3733 250.615 33.32 250.355 33.32C250.109 33.32 249.869 33.3767 249.635 33.49C249.409 33.5967 249.222 33.76 249.075 33.98C248.929 34.2 248.855 34.48 248.855 34.82H247.945C247.945 34.3 248.062 33.87 248.295 33.53C248.535 33.1833 248.839 32.9267 249.205 32.76C249.579 32.5867 249.969 32.5 250.375 32.5C250.789 32.5 251.175 32.5833 251.535 32.75C251.902 32.91 252.199 33.1433 252.425 33.45C252.652 33.75 252.765 34.11 252.765 34.53C252.765 34.93 252.665 35.27 252.465 35.55C252.265 35.8233 252.012 36.02 251.705 36.14V36.19C252.059 36.31 252.349 36.5133 252.575 36.8C252.802 37.0867 252.915 37.4467 252.915 37.88C252.915 38.34 252.795 38.7367 252.555 39.07C252.315 39.4033 252.002 39.66 251.615 39.84C251.229 40.0133 250.809 40.1 250.355 40.1Z" fill="black"/>
</svg>
