<svg width="289" height="230" viewBox="0 0 289 230" fill="none" xmlns="http://www.w3.org/2000/svg">
<rect x="0.5" y="9.5" width="94" height="39" rx="19.5" fill="white"/>
<rect x="0.5" y="9.5" width="94" height="39" rx="19.5" stroke="#237DF7"/>
<path d="M17.216 35V23.16H22.08C22.8373 23.16 23.4827 23.2987 24.016 23.576C24.56 23.8427 24.9707 24.2 25.248 24.648C25.536 25.096 25.68 25.5867 25.68 26.12C25.68 26.6853 25.5733 27.1493 25.36 27.512C25.1573 27.864 24.9227 28.136 24.656 28.328C24.3893 28.52 24.16 28.6533 23.968 28.728V28.824C24.2347 28.8987 24.5387 29.0427 24.88 29.256C25.2213 29.4587 25.5147 29.7573 25.76 30.152C26.016 30.536 26.144 31.0373 26.144 31.656C26.144 32.2107 26.0107 32.744 25.744 33.256C25.4773 33.768 25.0507 34.1893 24.464 34.52C23.888 34.84 23.1307 35 22.192 35H17.216ZM21.904 24.76H19.088V28.184H21.904C22.5867 28.184 23.0827 28.008 23.392 27.656C23.7013 27.304 23.856 26.9093 23.856 26.472C23.856 26.0347 23.7013 25.64 23.392 25.288C23.0827 24.936 22.5867 24.76 21.904 24.76ZM22.048 29.656H19.088V33.4H22.048C22.5707 33.4 22.9973 33.3147 23.328 33.144C23.6587 32.9627 23.8987 32.728 24.048 32.44C24.1973 32.152 24.272 31.848 24.272 31.528C24.272 31.208 24.1973 30.9093 24.048 30.632C23.8987 30.344 23.6587 30.1093 23.328 29.928C22.9973 29.7467 22.5707 29.656 22.048 29.656ZM32.9528 22.552L31.4968 22.536L32.8408 19.656H34.6328L32.9528 22.552ZM32.2328 25.368C31.6994 25.368 31.2621 25.288 30.9208 25.128C30.5901 24.968 30.3288 24.7707 30.1368 24.536C29.9554 24.3013 29.8221 24.0667 29.7368 23.832C29.6514 23.5973 29.5981 23.4053 29.5768 23.256C29.5661 23.096 29.5608 23.016 29.5608 23.016H30.8408C30.8408 23.016 30.8514 23.08 30.8728 23.208C30.9048 23.3253 30.9634 23.464 31.0488 23.624C31.1341 23.784 31.2674 23.928 31.4488 24.056C31.6408 24.1733 31.9021 24.232 32.2328 24.232C32.5528 24.232 32.8034 24.1733 32.9848 24.056C33.1768 23.928 33.3154 23.784 33.4008 23.624C33.4968 23.464 33.5554 23.3253 33.5768 23.208C33.5981 23.08 33.6088 23.016 33.6088 23.016H34.8888C34.8888 23.016 34.8781 23.096 34.8568 23.256C34.8461 23.4053 34.7981 23.5973 34.7128 23.832C34.6381 24.0667 34.5048 24.3013 34.3128 24.536C34.1208 24.7707 33.8541 24.968 33.5128 25.128C33.1821 25.288 32.7554 25.368 32.2328 25.368ZM31.7528 26.36C32.2861 26.36 32.7288 26.4453 33.0808 26.616C33.4434 26.7867 33.7314 26.984 33.9448 27.208C34.1581 27.432 34.3128 27.624 34.4088 27.784H34.5048V26.52H36.3288V35H34.5048V33.736H34.4088C34.3128 33.896 34.1581 34.088 33.9448 34.312C33.7314 34.536 33.4434 34.7333 33.0808 34.904C32.7288 35.0747 32.2861 35.16 31.7528 35.16C31.1128 35.16 30.5528 35.0373 30.0728 34.792C29.6034 34.536 29.2088 34.2 28.8888 33.784C28.5688 33.3573 28.3288 32.8827 28.1688 32.36C28.0194 31.8373 27.9448 31.304 27.9448 30.76C27.9448 30.216 28.0194 29.6827 28.1688 29.16C28.3288 28.6373 28.5688 28.168 28.8888 27.752C29.2088 27.3253 29.6034 26.9893 30.0728 26.744C30.5528 26.488 31.1128 26.36 31.7528 26.36ZM32.1528 27.88C31.6301 27.88 31.1928 28.024 30.8408 28.312C30.4888 28.5893 30.2221 28.9467 30.0408 29.384C29.8701 29.8213 29.7848 30.28 29.7848 30.76C29.7848 31.24 29.8701 31.6987 30.0408 32.136C30.2221 32.5733 30.4888 32.936 30.8408 33.224C31.1928 33.5013 31.6301 33.64 32.1528 33.64C32.6754 33.64 33.1074 33.5013 33.4488 33.224C33.8008 32.936 34.0621 32.5733 34.2328 32.136C34.4141 31.6987 34.5048 31.24 34.5048 30.76C34.5048 30.28 34.4141 29.8213 34.2328 29.384C34.0621 28.9467 33.8008 28.5893 33.4488 28.312C33.1074 28.024 32.6754 27.88 32.1528 27.88ZM41.9868 35.16C41.3148 35.16 40.7761 35.0373 40.3708 34.792C39.9654 34.5467 39.6721 34.2213 39.4908 33.816C39.3201 33.4 39.2348 32.952 39.2348 32.472V27.992H37.7467V26.52H39.2348V24.408H41.0588V26.52H43.0428V27.992H41.0588V32.44C41.0588 33.24 41.5014 33.64 42.3868 33.64C42.6108 33.64 42.8188 33.624 43.0108 33.592C43.2028 33.56 43.2988 33.544 43.2988 33.544V35.032C43.2988 35.032 43.1654 35.0533 42.8988 35.096C42.6428 35.1387 42.3388 35.16 41.9868 35.16ZM52.5169 35.16C51.8769 35.16 51.3169 35.0373 50.8369 34.792C50.3675 34.536 49.9729 34.2 49.6529 33.784C49.3329 33.3573 49.0929 32.8827 48.9329 32.36C48.7835 31.8373 48.7089 31.304 48.7089 30.76C48.7089 30.216 48.7835 29.6827 48.9329 29.16C49.0929 28.6373 49.3329 28.168 49.6529 27.752C49.9729 27.3253 50.3675 26.9893 50.8369 26.744C51.3169 26.488 51.8769 26.36 52.5169 26.36C53.0502 26.36 53.4929 26.4453 53.8449 26.616C54.2075 26.7867 54.4955 26.984 54.7089 27.208C54.9222 27.432 55.0769 27.624 55.1729 27.784H55.2689V25.672H53.0929V24.328H55.2689V22.84H57.0929V24.328H58.5009V25.672H57.0929V35H55.2689V33.736H55.1729C55.0769 33.896 54.9222 34.088 54.7089 34.312C54.4955 34.536 54.2075 34.7333 53.8449 34.904C53.4929 35.0747 53.0502 35.16 52.5169 35.16ZM52.9169 33.64C53.4395 33.64 53.8715 33.5013 54.2129 33.224C54.5649 32.936 54.8262 32.5733 54.9969 32.136C55.1782 31.6987 55.2689 31.24 55.2689 30.76C55.2689 30.28 55.1782 29.8213 54.9969 29.384C54.8262 28.9467 54.5649 28.5893 54.2129 28.312C53.8715 28.024 53.4395 27.88 52.9169 27.88C52.3942 27.88 51.9569 28.024 51.6049 28.312C51.2529 28.5893 50.9862 28.9467 50.8049 29.384C50.6342 29.8213 50.5489 30.28 50.5489 30.76C50.5489 31.24 50.6342 31.6987 50.8049 32.136C50.9862 32.5733 51.2529 32.936 51.6049 33.224C51.9569 33.5013 52.3942 33.64 52.9169 33.64ZM66.27 23.304L64.59 20.408H66.382L67.726 23.288L66.27 23.304ZM61.278 25.352L63.262 22.968H64.766L66.75 25.352H65.198L64.014 23.928L62.83 25.352H61.278ZM63.534 26.36C64.0673 26.36 64.51 26.4453 64.862 26.616C65.2247 26.7867 65.5127 26.984 65.726 27.208C65.9393 27.432 66.094 27.624 66.19 27.784H66.286V26.52H68.11V35H66.286V33.736H66.19C66.094 33.896 65.9393 34.088 65.726 34.312C65.5127 34.536 65.2247 34.7333 64.862 34.904C64.51 35.0747 64.0673 35.16 63.534 35.16C62.894 35.16 62.334 35.0373 61.854 34.792C61.3847 34.536 60.99 34.2 60.67 33.784C60.35 33.3573 60.11 32.8827 59.95 32.36C59.8007 31.8373 59.726 31.304 59.726 30.76C59.726 30.216 59.8007 29.6827 59.95 29.16C60.11 28.6373 60.35 28.168 60.67 27.752C60.99 27.3253 61.3847 26.9893 61.854 26.744C62.334 26.488 62.894 26.36 63.534 26.36ZM63.934 27.88C63.4113 27.88 62.974 28.024 62.622 28.312C62.27 28.5893 62.0033 28.9467 61.822 29.384C61.6513 29.8213 61.566 30.28 61.566 30.76C61.566 31.24 61.6513 31.6987 61.822 32.136C62.0033 32.5733 62.27 32.936 62.622 33.224C62.974 33.5013 63.4113 33.64 63.934 33.64C64.4567 33.64 64.8887 33.5013 65.23 33.224C65.582 32.936 65.8433 32.5733 66.014 32.136C66.1953 31.6987 66.286 31.24 66.286 30.76C66.286 30.28 66.1953 29.8213 66.014 29.384C65.8433 28.9467 65.582 28.5893 65.23 28.312C64.8887 28.024 64.4567 27.88 63.934 27.88ZM73.0573 35.16C72.2039 35.16 71.5373 34.8933 71.0573 34.36C70.5773 33.8267 70.3372 33.1173 70.3372 32.232V26.52H72.1613V32.008C72.1613 32.52 72.2946 32.92 72.5613 33.208C72.8386 33.4853 73.2119 33.624 73.6813 33.624C74.1399 33.624 74.5079 33.5067 74.7853 33.272C75.0626 33.0373 75.2599 32.7387 75.3773 32.376C75.5053 32.0027 75.5693 31.6187 75.5693 31.224V26.52H77.3933V35H75.5693V33.784H75.4733C75.3879 33.944 75.2493 34.136 75.0573 34.36C74.8759 34.5733 74.6199 34.76 74.2893 34.92C73.9693 35.08 73.5586 35.16 73.0573 35.16Z" fill="#237DF7"/>
<path d="M95.7321 39.9987C205.828 10.0744 210.409 8.19922 208.919 9.18973C312.641 9.18973 326.487 101.847 176.696 84.4688C26.9048 67.0904 17.1974 166.377 157.202 140.469C297.207 114.561 287.149 186.969 184.191 206.469" stroke="#808080" stroke-width="2" stroke-dasharray="10 10"/>
<rect x="86.5" y="186.5" width="98" height="39" rx="19.5" fill="white"/>
<rect x="86.5" y="186.5" width="98" height="39" rx="19.5" stroke="#237DF7"/>
<path d="M103.216 212V200.16H105.088V205.408L109.904 200.176H112.288L106.96 205.856L112.512 212H110.048L105.088 206.464V212H103.216ZM120.649 200.32L119.193 200.304L120.537 197.424H122.329L120.649 200.32ZM114.585 202.368L116.569 199.984H118.073L120.057 202.368H118.505L117.321 200.928L116.137 202.368H114.585ZM117.385 212.16C116.681 212.16 116.068 212.037 115.545 211.792C115.022 211.536 114.59 211.2 114.249 210.784C113.918 210.357 113.668 209.883 113.497 209.36C113.337 208.837 113.257 208.304 113.257 207.76C113.257 207.227 113.337 206.699 113.497 206.176C113.668 205.653 113.918 205.179 114.249 204.752C114.58 204.325 114.996 203.989 115.497 203.744C116.009 203.488 116.617 203.36 117.321 203.36C118.057 203.36 118.713 203.531 119.289 203.872C119.865 204.203 120.313 204.699 120.633 205.36C120.964 206.011 121.129 206.821 121.129 207.792V208.288H115.097C115.14 208.939 115.358 209.499 115.753 209.968C116.148 210.437 116.692 210.672 117.385 210.672C117.78 210.672 118.105 210.608 118.361 210.48C118.617 210.341 118.814 210.187 118.953 210.016C119.102 209.845 119.204 209.696 119.257 209.568C119.31 209.44 119.337 209.376 119.337 209.376H121.033C121.033 209.376 121.006 209.472 120.953 209.664C120.9 209.845 120.804 210.075 120.665 210.352C120.526 210.629 120.318 210.907 120.041 211.184C119.774 211.461 119.422 211.696 118.985 211.888C118.558 212.069 118.025 212.16 117.385 212.16ZM115.113 207.008H119.353C119.321 206.261 119.102 205.712 118.697 205.36C118.292 205.008 117.828 204.832 117.305 204.832C116.697 204.832 116.196 205.029 115.801 205.424C115.406 205.808 115.177 206.336 115.113 207.008ZM126.706 212.16C126.034 212.16 125.495 212.037 125.09 211.792C124.684 211.547 124.391 211.221 124.21 210.816C124.039 210.4 123.954 209.952 123.954 209.472V204.992H122.465V203.52H123.954V201.408H125.778V203.52H127.762V204.992H125.778V209.44C125.778 210.24 126.22 210.64 127.106 210.64C127.33 210.64 127.538 210.624 127.73 210.592C127.922 210.56 128.018 210.544 128.018 210.544V212.032C128.018 212.032 127.884 212.053 127.618 212.096C127.362 212.139 127.058 212.16 126.706 212.16ZM137.284 212.16C136.612 212.16 136.073 212.037 135.668 211.792C135.262 211.547 134.969 211.221 134.788 210.816C134.617 210.4 134.532 209.952 134.532 209.472V204.992H133.044V203.52H134.532V201.408H136.356V203.52H138.34V204.992H136.356V209.44C136.356 210.24 136.798 210.64 137.684 210.64C137.908 210.64 138.116 210.624 138.308 210.592C138.5 210.56 138.596 210.544 138.596 210.544V212.032C138.596 212.032 138.462 212.053 138.196 212.096C137.94 212.139 137.636 212.16 137.284 212.16ZM140.622 212V199.84H142.446V204.752H142.542C142.617 204.603 142.745 204.421 142.926 204.208C143.108 203.984 143.358 203.787 143.678 203.616C144.009 203.445 144.425 203.36 144.926 203.36C145.556 203.36 146.084 203.504 146.51 203.792C146.937 204.08 147.257 204.464 147.47 204.944C147.694 205.424 147.806 205.952 147.806 206.528V212H145.982V206.72C145.982 206.208 145.838 205.776 145.55 205.424C145.273 205.072 144.857 204.896 144.302 204.896C143.865 204.896 143.508 205.008 143.23 205.232C142.964 205.445 142.766 205.728 142.638 206.08C142.51 206.421 142.446 206.789 142.446 207.184V212H140.622ZM154.363 202.272L152.891 202.256L154.235 199.376H156.043L154.363 202.272ZM152.843 212.16C151.99 212.16 151.323 211.893 150.843 211.36C150.363 210.827 150.123 210.117 150.123 209.232V203.52H151.947V209.008C151.947 209.52 152.081 209.92 152.347 210.208C152.625 210.485 152.998 210.624 153.467 210.624C153.926 210.624 154.294 210.507 154.571 210.272C154.849 210.037 155.046 209.739 155.163 209.376C155.291 209.003 155.355 208.619 155.355 208.224V203.52H157.179V212H155.355V210.784H155.259C155.174 210.944 155.035 211.136 154.843 211.36C154.662 211.573 154.406 211.76 154.075 211.92C153.755 212.08 153.345 212.16 152.843 212.16ZM163.527 212.16C162.813 212.16 162.189 212.037 161.655 211.792C161.122 211.536 160.679 211.2 160.327 210.784C159.975 210.357 159.709 209.883 159.527 209.36C159.357 208.837 159.271 208.304 159.271 207.76C159.271 207.216 159.357 206.683 159.527 206.16C159.709 205.637 159.975 205.168 160.327 204.752C160.679 204.325 161.122 203.989 161.655 203.744C162.189 203.488 162.813 203.36 163.527 203.36C164.231 203.36 164.813 203.467 165.271 203.68C165.741 203.883 166.114 204.139 166.391 204.448C166.669 204.757 166.877 205.067 167.015 205.376C167.154 205.685 167.239 205.947 167.271 206.16C167.314 206.373 167.335 206.48 167.335 206.48H165.607C165.607 206.48 165.581 206.4 165.527 206.24C165.485 206.08 165.394 205.893 165.255 205.68C165.117 205.467 164.909 205.28 164.631 205.12C164.365 204.96 164.002 204.88 163.543 204.88C162.999 204.88 162.546 205.019 162.183 205.296C161.821 205.563 161.543 205.915 161.351 206.352C161.17 206.789 161.079 207.259 161.079 207.76C161.079 208.261 161.17 208.731 161.351 209.168C161.543 209.605 161.821 209.963 162.183 210.24C162.546 210.507 162.999 210.64 163.543 210.64C164.002 210.64 164.365 210.56 164.631 210.4C164.909 210.24 165.117 210.053 165.255 209.84C165.394 209.627 165.485 209.44 165.527 209.28C165.581 209.12 165.607 209.04 165.607 209.04H167.335C167.335 209.04 167.314 209.147 167.271 209.36C167.239 209.573 167.154 209.835 167.015 210.144C166.877 210.453 166.669 210.763 166.391 211.072C166.114 211.381 165.741 211.643 165.271 211.856C164.813 212.059 164.231 212.16 163.527 212.16Z" fill="#237DF7"/>
<path fill-rule="evenodd" clip-rule="evenodd" d="M190.357 131.947C190.357 132.875 190.953 133.665 191.786 133.958V130.763H190.357V131.947ZM194.521 129.342C194.227 128.514 193.433 127.921 192.5 127.921C191.567 127.921 190.773 128.514 190.479 129.342H194.521ZM194.643 130.763H193.214V133.958C194.047 133.665 194.643 132.875 194.643 131.947V130.763Z" fill="#1E6AD2"/>
<path fill-rule="evenodd" clip-rule="evenodd" d="M203.288 141.788C203.571 141.506 203.571 141.048 203.288 140.766L199.622 137.1C200.988 135.501 201.813 133.425 201.813 131.157C201.813 126.1 197.714 122 192.657 122C187.6 122 183.5 126.1 183.5 131.157C183.5 136.214 187.6 140.313 192.657 140.313C194.925 140.313 197.001 139.488 198.6 138.122L202.266 141.788C202.548 142.071 203.006 142.071 203.288 141.788ZM189.689 127.86C190.343 127.032 191.359 126.5 192.5 126.5C193.641 126.5 194.657 127.032 195.311 127.86L195.99 127.522C196.343 127.347 196.772 127.489 196.948 127.84C197.125 128.191 196.982 128.618 196.629 128.793L195.95 129.131C196.029 129.425 196.071 129.734 196.071 130.053V130.289H196.786C197.18 130.289 197.5 130.608 197.5 131C197.5 131.392 197.18 131.711 196.786 131.711H196.071V131.947C196.071 132.266 196.029 132.575 195.95 132.869L196.629 133.207C196.982 133.382 197.125 133.809 196.948 134.16C196.772 134.511 196.343 134.653 195.99 134.478L195.311 134.14C194.657 134.968 193.641 135.5 192.5 135.5C191.359 135.5 190.343 134.968 189.689 134.14L189.01 134.478C188.657 134.653 188.228 134.511 188.052 134.16C187.875 133.809 188.018 133.382 188.371 133.207L189.05 132.869C188.971 132.575 188.929 132.266 188.929 131.947V131.711H188.214C187.82 131.711 187.5 131.392 187.5 131C187.5 130.608 187.82 130.289 188.214 130.289H188.929V130.053C188.929 129.734 188.971 129.425 189.05 129.131L188.371 128.793C188.018 128.618 187.875 128.191 188.052 127.84C188.228 127.489 188.657 127.347 189.01 127.522L189.689 127.86Z" fill="#1E6AD2"/>
<path d="M156.646 160.1C156.066 160.1 155.566 159.99 155.146 159.77C154.726 159.543 154.4 159.227 154.166 158.82C153.94 158.407 153.826 157.92 153.826 157.36V152.6H154.806V157.36C154.806 157.873 154.956 158.303 155.256 158.65C155.563 158.997 156.026 159.17 156.646 159.17C157.273 159.17 157.736 158.997 158.036 158.65C158.343 158.303 158.496 157.873 158.496 157.36V152.6H159.476V157.36C159.476 157.92 159.36 158.407 159.126 158.82C158.9 159.227 158.576 159.543 158.156 159.77C157.736 159.99 157.233 160.1 156.646 160.1ZM162.912 160.1C162.506 160.1 162.169 160.043 161.902 159.93C161.642 159.817 161.436 159.677 161.282 159.51C161.129 159.337 161.016 159.167 160.942 159C160.869 158.827 160.822 158.683 160.802 158.57C160.782 158.457 160.772 158.4 160.772 158.4H161.732C161.732 158.4 161.742 158.447 161.762 158.54C161.789 158.627 161.839 158.73 161.912 158.85C161.992 158.963 162.112 159.067 162.272 159.16C162.439 159.247 162.659 159.29 162.932 159.29C163.246 159.29 163.489 159.217 163.662 159.07C163.836 158.917 163.922 158.73 163.922 158.51C163.922 158.317 163.852 158.163 163.712 158.05C163.579 157.937 163.386 157.85 163.132 157.79L162.412 157.62C162.146 157.553 161.896 157.463 161.662 157.35C161.429 157.237 161.239 157.083 161.092 156.89C160.952 156.69 160.882 156.443 160.882 156.15C160.882 155.697 161.052 155.327 161.392 155.04C161.732 154.747 162.176 154.6 162.722 154.6C163.089 154.6 163.392 154.653 163.632 154.76C163.872 154.86 164.062 154.987 164.202 155.14C164.349 155.293 164.456 155.447 164.522 155.6C164.596 155.753 164.642 155.883 164.662 155.99C164.682 156.09 164.692 156.14 164.692 156.14H163.772C163.772 156.14 163.762 156.103 163.742 156.03C163.722 155.95 163.676 155.863 163.602 155.77C163.536 155.67 163.432 155.583 163.292 155.51C163.152 155.43 162.966 155.39 162.732 155.39C162.412 155.39 162.179 155.463 162.032 155.61C161.886 155.757 161.812 155.917 161.812 156.09C161.812 156.257 161.879 156.393 162.012 156.5C162.152 156.6 162.332 156.677 162.552 156.73L163.282 156.9C163.736 157.007 164.109 157.183 164.402 157.43C164.702 157.67 164.852 158.017 164.852 158.47C164.852 158.763 164.776 159.037 164.622 159.29C164.469 159.537 164.249 159.733 163.962 159.88C163.676 160.027 163.326 160.1 162.912 160.1ZM168.253 154.6C168.586 154.6 168.866 154.653 169.093 154.76C169.32 154.867 169.503 154.993 169.643 155.14C169.783 155.28 169.89 155.413 169.963 155.54H170.023V154.7H170.973V160H170.023V159.16H169.963C169.89 159.287 169.783 159.423 169.643 159.57C169.503 159.717 169.32 159.843 169.093 159.95C168.866 160.05 168.586 160.1 168.253 160.1C167.853 160.1 167.503 160.023 167.203 159.87C166.903 159.71 166.653 159.5 166.453 159.24C166.253 158.973 166.103 158.677 166.003 158.35C165.903 158.023 165.853 157.69 165.853 157.35C165.853 157.01 165.903 156.677 166.003 156.35C166.103 156.023 166.253 155.73 166.453 155.47C166.653 155.203 166.903 154.993 167.203 154.84C167.503 154.68 167.853 154.6 168.253 154.6ZM168.413 155.41C168.06 155.41 167.763 155.507 167.523 155.7C167.283 155.887 167.103 156.127 166.983 156.42C166.87 156.713 166.813 157.023 166.813 157.35C166.813 157.67 166.87 157.98 166.983 158.28C167.103 158.573 167.283 158.817 167.523 159.01C167.763 159.197 168.06 159.29 168.413 159.29C168.766 159.29 169.06 159.197 169.293 159.01C169.533 158.817 169.71 158.573 169.823 158.28C169.943 157.98 170.003 157.67 170.003 157.35C170.003 157.023 169.943 156.713 169.823 156.42C169.71 156.127 169.533 155.887 169.293 155.7C169.06 155.507 168.766 155.41 168.413 155.41ZM175.189 160.1C174.856 160.1 174.576 160.047 174.349 159.94C174.122 159.833 173.939 159.707 173.799 159.56C173.666 159.413 173.559 159.28 173.479 159.16H173.419V160H172.469V152.4H173.419V155.54H173.479C173.559 155.413 173.666 155.277 173.799 155.13C173.939 154.983 174.122 154.86 174.349 154.76C174.576 154.653 174.856 154.6 175.189 154.6C175.589 154.6 175.939 154.68 176.239 154.84C176.539 154.993 176.789 155.203 176.989 155.47C177.189 155.73 177.339 156.023 177.439 156.35C177.539 156.677 177.589 157.01 177.589 157.35C177.589 157.69 177.539 158.023 177.439 158.35C177.339 158.677 177.189 158.973 176.989 159.24C176.789 159.5 176.539 159.71 176.239 159.87C175.939 160.023 175.589 160.1 175.189 160.1ZM175.029 159.29C175.389 159.29 175.686 159.197 175.919 159.01C176.159 158.817 176.336 158.573 176.449 158.28C176.569 157.98 176.629 157.67 176.629 157.35C176.629 157.023 176.569 156.713 176.449 156.42C176.336 156.127 176.159 155.887 175.919 155.7C175.686 155.507 175.389 155.41 175.029 155.41C174.676 155.41 174.379 155.507 174.139 155.7C173.906 155.887 173.729 156.127 173.609 156.42C173.496 156.713 173.439 157.023 173.439 157.35C173.439 157.67 173.496 157.98 173.609 158.28C173.729 158.573 173.906 158.817 174.139 159.01C174.379 159.197 174.676 159.29 175.029 159.29ZM179.512 153.69C179.332 153.69 179.182 153.63 179.062 153.51C178.949 153.39 178.892 153.247 178.892 153.08C178.892 152.907 178.949 152.76 179.062 152.64C179.182 152.52 179.332 152.46 179.512 152.46C179.686 152.46 179.832 152.52 179.952 152.64C180.072 152.76 180.132 152.907 180.132 153.08C180.132 153.247 180.072 153.39 179.952 153.51C179.832 153.63 179.686 153.69 179.512 153.69ZM179.042 160V154.7H179.992V160H179.042ZM181.629 160L181.639 152.4H182.579V160H181.629ZM184.698 153.69C184.518 153.69 184.368 153.63 184.248 153.51C184.135 153.39 184.078 153.247 184.078 153.08C184.078 152.907 184.135 152.76 184.248 152.64C184.368 152.52 184.518 152.46 184.698 152.46C184.871 152.46 185.018 152.52 185.138 152.64C185.258 152.76 185.318 152.907 185.318 153.08C185.318 153.247 185.258 153.39 185.138 153.51C185.018 153.63 184.871 153.69 184.698 153.69ZM184.228 160V154.7H185.178V160H184.228ZM188.965 160.1C188.418 160.1 188.005 159.96 187.725 159.68C187.451 159.4 187.315 159.007 187.315 158.5V155.48H186.365V154.7H187.315V153.37H188.265V154.7H189.555V155.48H188.265V158.5C188.265 158.767 188.338 158.963 188.485 159.09C188.631 159.21 188.845 159.27 189.125 159.27C189.271 159.27 189.411 159.26 189.545 159.24C189.678 159.22 189.745 159.21 189.745 159.21V160.02C189.745 160.02 189.668 160.033 189.515 160.06C189.361 160.087 189.178 160.1 188.965 160.1ZM191.094 161.95C190.941 161.95 190.811 161.943 190.704 161.93C190.598 161.917 190.544 161.91 190.544 161.91V161.1C190.544 161.1 190.598 161.103 190.704 161.11C190.818 161.123 190.938 161.13 191.064 161.13C191.458 161.13 191.778 161.047 192.024 160.88C192.278 160.72 192.491 160.453 192.664 160.08L190.614 154.7H191.604L193.134 158.84L194.674 154.7H195.674L193.624 160.01C193.364 160.677 193.028 161.167 192.614 161.48C192.208 161.793 191.701 161.95 191.094 161.95ZM201.089 160V153.46H198.779V152.6H204.379V153.46H202.069V160H201.089ZM207.045 160.1C206.611 160.1 206.235 160.023 205.915 159.87C205.601 159.71 205.341 159.497 205.135 159.23C204.935 158.963 204.785 158.67 204.685 158.35C204.585 158.023 204.535 157.69 204.535 157.35C204.535 157.017 204.581 156.687 204.675 156.36C204.775 156.033 204.925 155.737 205.125 155.47C205.331 155.203 205.588 154.993 205.895 154.84C206.208 154.68 206.578 154.6 207.005 154.6C207.458 154.6 207.858 154.703 208.205 154.91C208.551 155.117 208.825 155.423 209.025 155.83C209.225 156.237 209.325 156.747 209.325 157.36V157.64H205.495C205.515 157.94 205.585 158.217 205.705 158.47C205.831 158.717 206.008 158.917 206.235 159.07C206.461 159.217 206.731 159.29 207.045 159.29C207.318 159.29 207.538 159.247 207.705 159.16C207.878 159.067 208.015 158.96 208.115 158.84C208.215 158.72 208.281 158.617 208.315 158.53C208.355 158.437 208.375 158.39 208.375 158.39H209.265C209.265 158.39 209.248 158.45 209.215 158.57C209.181 158.683 209.121 158.823 209.035 158.99C208.948 159.157 208.821 159.327 208.655 159.5C208.488 159.667 208.275 159.81 208.015 159.93C207.755 160.043 207.431 160.1 207.045 160.1ZM205.505 156.9H208.395C208.381 156.553 208.308 156.273 208.175 156.06C208.041 155.84 207.871 155.677 207.665 155.57C207.458 155.463 207.238 155.41 207.005 155.41C206.585 155.41 206.241 155.547 205.975 155.82C205.708 156.087 205.551 156.447 205.505 156.9ZM212.561 160.1C212.154 160.1 211.818 160.043 211.551 159.93C211.291 159.817 211.084 159.677 210.931 159.51C210.778 159.337 210.664 159.167 210.591 159C210.518 158.827 210.471 158.683 210.451 158.57C210.431 158.457 210.421 158.4 210.421 158.4H211.381C211.381 158.4 211.391 158.447 211.411 158.54C211.438 158.627 211.488 158.73 211.561 158.85C211.641 158.963 211.761 159.067 211.921 159.16C212.088 159.247 212.308 159.29 212.581 159.29C212.894 159.29 213.138 159.217 213.311 159.07C213.484 158.917 213.571 158.73 213.571 158.51C213.571 158.317 213.501 158.163 213.361 158.05C213.228 157.937 213.034 157.85 212.781 157.79L212.061 157.62C211.794 157.553 211.544 157.463 211.311 157.35C211.078 157.237 210.888 157.083 210.741 156.89C210.601 156.69 210.531 156.443 210.531 156.15C210.531 155.697 210.701 155.327 211.041 155.04C211.381 154.747 211.824 154.6 212.371 154.6C212.738 154.6 213.041 154.653 213.281 154.76C213.521 154.86 213.711 154.987 213.851 155.14C213.998 155.293 214.104 155.447 214.171 155.6C214.244 155.753 214.291 155.883 214.311 155.99C214.331 156.09 214.341 156.14 214.341 156.14H213.421C213.421 156.14 213.411 156.103 213.391 156.03C213.371 155.95 213.324 155.863 213.251 155.77C213.184 155.67 213.081 155.583 212.941 155.51C212.801 155.43 212.614 155.39 212.381 155.39C212.061 155.39 211.828 155.463 211.681 155.61C211.534 155.757 211.461 155.917 211.461 156.09C211.461 156.257 211.528 156.393 211.661 156.5C211.801 156.6 211.981 156.677 212.201 156.73L212.931 156.9C213.384 157.007 213.758 157.183 214.051 157.43C214.351 157.67 214.501 158.017 214.501 158.47C214.501 158.763 214.424 159.037 214.271 159.29C214.118 159.537 213.898 159.733 213.611 159.88C213.324 160.027 212.974 160.1 212.561 160.1ZM217.851 160.1C217.305 160.1 216.891 159.96 216.611 159.68C216.338 159.4 216.201 159.007 216.201 158.5V155.48H215.251V154.7H216.201V153.37H217.151V154.7H218.441V155.48H217.151V158.5C217.151 158.767 217.225 158.963 217.371 159.09C217.518 159.21 217.731 159.27 218.011 159.27C218.158 159.27 218.298 159.26 218.431 159.24C218.565 159.22 218.631 159.21 218.631 159.21V160.02C218.631 160.02 218.555 160.033 218.401 160.06C218.248 160.087 218.065 160.1 217.851 160.1ZM220.499 153.69C220.319 153.69 220.169 153.63 220.049 153.51C219.935 153.39 219.879 153.247 219.879 153.08C219.879 152.907 219.935 152.76 220.049 152.64C220.169 152.52 220.319 152.46 220.499 152.46C220.672 152.46 220.819 152.52 220.939 152.64C221.059 152.76 221.119 152.907 221.119 153.08C221.119 153.247 221.059 153.39 220.939 153.51C220.819 153.63 220.672 153.69 220.499 153.69ZM220.029 160V154.7H220.979V160H220.029ZM222.515 160V154.7H223.465V155.47H223.525C223.572 155.39 223.649 155.28 223.755 155.14C223.869 155 224.029 154.877 224.235 154.77C224.442 154.657 224.702 154.6 225.015 154.6C225.402 154.6 225.732 154.69 226.005 154.87C226.279 155.043 226.485 155.28 226.625 155.58C226.772 155.88 226.845 156.217 226.845 156.59V160H225.895V156.65C225.895 156.297 225.795 156.003 225.595 155.77C225.402 155.537 225.119 155.42 224.745 155.42C224.445 155.42 224.202 155.497 224.015 155.65C223.829 155.797 223.689 155.993 223.595 156.24C223.509 156.48 223.465 156.737 223.465 157.01V160H222.515ZM230.798 162.1C230.358 162.1 229.991 162.04 229.698 161.92C229.405 161.807 229.168 161.66 228.988 161.48C228.815 161.307 228.685 161.133 228.598 160.96C228.511 160.787 228.455 160.64 228.428 160.52C228.401 160.407 228.388 160.35 228.388 160.35H229.338C229.338 160.35 229.355 160.397 229.388 160.49C229.421 160.583 229.485 160.69 229.578 160.81C229.678 160.93 229.825 161.037 230.018 161.13C230.211 161.223 230.471 161.27 230.798 161.27C231.185 161.27 231.488 161.193 231.708 161.04C231.928 160.893 232.085 160.7 232.178 160.46C232.278 160.22 232.328 159.967 232.328 159.7V159.09H232.278C232.211 159.203 232.105 159.333 231.958 159.48C231.818 159.62 231.631 159.743 231.398 159.85C231.165 159.95 230.878 160 230.538 160C230.138 160 229.788 159.923 229.488 159.77C229.188 159.617 228.938 159.41 228.738 159.15C228.545 158.89 228.398 158.6 228.298 158.28C228.198 157.96 228.148 157.633 228.148 157.3C228.148 156.967 228.198 156.64 228.298 156.32C228.398 156 228.545 155.71 228.738 155.45C228.938 155.19 229.188 154.983 229.488 154.83C229.788 154.677 230.138 154.6 230.538 154.6C230.878 154.6 231.165 154.653 231.398 154.76C231.631 154.86 231.818 154.98 231.958 155.12C232.105 155.26 232.211 155.39 232.278 155.51H232.328V154.7H233.278V159.69C233.278 160.43 233.061 161.017 232.628 161.45C232.201 161.883 231.591 162.1 230.798 162.1ZM230.718 159.19C231.071 159.19 231.365 159.1 231.598 158.92C231.838 158.733 232.015 158.497 232.128 158.21C232.248 157.923 232.308 157.62 232.308 157.3C232.308 156.98 232.248 156.677 232.128 156.39C232.015 156.097 231.838 155.86 231.598 155.68C231.365 155.5 231.071 155.41 230.718 155.41C230.365 155.41 230.068 155.5 229.828 155.68C229.588 155.86 229.408 156.097 229.288 156.39C229.175 156.677 229.118 156.98 229.118 157.3C229.118 157.62 229.175 157.923 229.288 158.21C229.408 158.497 229.588 158.733 229.828 158.92C230.068 159.1 230.365 159.19 230.718 159.19Z" fill="black"/>
<path d="M61.5 130C61.5 126.229 61.5 124.343 62.6716 123.172C63.8431 122 65.7288 122 69.5 122C73.2712 122 75.1569 122 76.3284 123.172C77.5 124.343 77.5 126.229 77.5 130V134C77.5 137.771 77.5 139.657 76.3284 140.828C75.1569 142 73.2712 142 69.5 142C65.7288 142 63.8431 142 62.6716 140.828C61.5 139.657 61.5 137.771 61.5 134V130Z" fill="white" stroke="#1E6AD2" stroke-width="1.5"/>
<path d="M72.5 139H66.5" stroke="#1E6AD2" stroke-width="1.5" stroke-linecap="round"/>
<path d="M74.2484 122.378L74.1643 122.504C73.4082 123.638 73.0302 124.205 72.478 124.548C72.3682 124.616 72.2541 124.677 72.1365 124.731C71.5447 125 70.8632 125 69.5002 125C68.1371 125 67.4556 125 66.8639 124.731C66.7462 124.677 66.6321 124.616 66.5223 124.548C65.9702 124.205 65.5921 123.638 64.8361 122.504L64.752 122.378" stroke="#1E6AD2" stroke-width="1.5" stroke-linecap="round"/>
<path d="M41.301 156V148.6H43.941C44.5076 148.6 44.9776 148.717 45.351 148.95C45.731 149.183 46.0143 149.487 46.201 149.86C46.3943 150.227 46.491 150.61 46.491 151.01C46.491 151.417 46.3943 151.807 46.201 152.18C46.0143 152.547 45.731 152.85 45.351 153.09C44.9776 153.323 44.5076 153.44 43.941 153.44H42.281V156H41.301ZM43.941 149.46H42.281V152.58H43.941C44.2943 152.58 44.5876 152.503 44.821 152.35C45.0543 152.197 45.2276 152.003 45.341 151.77C45.461 151.53 45.521 151.28 45.521 151.02C45.521 150.76 45.461 150.51 45.341 150.27C45.2276 150.03 45.0543 149.837 44.821 149.69C44.5876 149.537 44.2943 149.46 43.941 149.46ZM47.6365 156V150.7H48.5865V151.36H48.6265C48.7399 151.16 48.9065 150.983 49.1265 150.83C49.3465 150.677 49.6565 150.6 50.0565 150.6C50.1699 150.6 50.2732 150.607 50.3665 150.62C50.4599 150.627 50.5065 150.63 50.5065 150.63V151.54C50.5065 151.54 50.4532 151.537 50.3465 151.53C50.2465 151.517 50.1399 151.51 50.0265 151.51C49.5665 151.51 49.2099 151.643 48.9565 151.91C48.7099 152.17 48.5865 152.597 48.5865 153.19V156H47.6365ZM53.6621 156.1C53.0955 156.1 52.6188 155.97 52.2321 155.71C51.8455 155.443 51.5521 155.1 51.3521 154.68C51.1521 154.26 51.0521 153.817 51.0521 153.35C51.0521 152.877 51.1521 152.433 51.3521 152.02C51.5521 151.6 51.8455 151.26 52.2321 151C52.6188 150.733 53.0955 150.6 53.6621 150.6C54.2288 150.6 54.7055 150.733 55.0921 151C55.4788 151.26 55.7721 151.6 55.9721 152.02C56.1721 152.433 56.2721 152.877 56.2721 153.35C56.2721 153.817 56.1721 154.26 55.9721 154.68C55.7721 155.1 55.4788 155.443 55.0921 155.71C54.7055 155.97 54.2288 156.1 53.6621 156.1ZM53.6621 155.27C54.0221 155.27 54.3221 155.18 54.5621 155C54.8088 154.813 54.9921 154.573 55.1121 154.28C55.2388 153.987 55.3021 153.677 55.3021 153.35C55.3021 153.017 55.2388 152.707 55.1121 152.42C54.9921 152.127 54.8088 151.89 54.5621 151.71C54.3221 151.523 54.0221 151.43 53.6621 151.43C53.3088 151.43 53.0088 151.523 52.7621 151.71C52.5155 151.89 52.3288 152.127 52.2021 152.42C52.0821 152.707 52.0221 153.017 52.0221 153.35C52.0221 153.677 52.0821 153.987 52.2021 154.28C52.3288 154.573 52.5155 154.813 52.7621 155C53.0088 155.18 53.3088 155.27 53.6621 155.27ZM59.7205 156.1C59.1738 156.1 58.7605 155.96 58.4805 155.68C58.2072 155.4 58.0705 155.007 58.0705 154.5V151.48H57.1205V150.7H58.0705V149.37H59.0205V150.7H60.3105V151.48H59.0205V154.5C59.0205 154.767 59.0938 154.963 59.2405 155.09C59.3872 155.21 59.6005 155.27 59.8805 155.27C60.0272 155.27 60.1672 155.26 60.3005 155.24C60.4338 155.22 60.5005 155.21 60.5005 155.21V156.02C60.5005 156.02 60.4238 156.033 60.2705 156.06C60.1172 156.087 59.9338 156.1 59.7205 156.1ZM64.0625 156.1C63.4959 156.1 63.0192 155.97 62.6325 155.71C62.2459 155.443 61.9525 155.1 61.7525 154.68C61.5525 154.26 61.4525 153.817 61.4525 153.35C61.4525 152.877 61.5525 152.433 61.7525 152.02C61.9525 151.6 62.2459 151.26 62.6325 151C63.0192 150.733 63.4959 150.6 64.0625 150.6C64.6292 150.6 65.1059 150.733 65.4925 151C65.8792 151.26 66.1725 151.6 66.3725 152.02C66.5725 152.433 66.6725 152.877 66.6725 153.35C66.6725 153.817 66.5725 154.26 66.3725 154.68C66.1725 155.1 65.8792 155.443 65.4925 155.71C65.1059 155.97 64.6292 156.1 64.0625 156.1ZM64.0625 155.27C64.4225 155.27 64.7225 155.18 64.9625 155C65.2092 154.813 65.3925 154.573 65.5125 154.28C65.6392 153.987 65.7025 153.677 65.7025 153.35C65.7025 153.017 65.6392 152.707 65.5125 152.42C65.3925 152.127 65.2092 151.89 64.9625 151.71C64.7225 151.523 64.4225 151.43 64.0625 151.43C63.7092 151.43 63.4092 151.523 63.1625 151.71C62.9159 151.89 62.7292 152.127 62.6025 152.42C62.4825 152.707 62.4225 153.017 62.4225 153.35C62.4225 153.677 62.4825 153.987 62.6025 154.28C62.7292 154.573 62.9159 154.813 63.1625 155C63.4092 155.18 63.7092 155.27 64.0625 155.27ZM70.1209 156.1C69.5742 156.1 69.1609 155.96 68.8809 155.68C68.6076 155.4 68.4709 155.007 68.4709 154.5V151.48H67.5209V150.7H68.4709V149.37H69.4209V150.7H70.7109V151.48H69.4209V154.5C69.4209 154.767 69.4942 154.963 69.6409 155.09C69.7876 155.21 70.0009 155.27 70.2809 155.27C70.4276 155.27 70.5676 155.26 70.7009 155.24C70.8342 155.22 70.9009 155.21 70.9009 155.21V156.02C70.9009 156.02 70.8242 156.033 70.6709 156.06C70.5176 156.087 70.3342 156.1 70.1209 156.1ZM72.2506 157.95C72.0973 157.95 71.9673 157.943 71.8606 157.93C71.7539 157.917 71.7006 157.91 71.7006 157.91V157.1C71.7006 157.1 71.7539 157.103 71.8606 157.11C71.9739 157.123 72.0939 157.13 72.2206 157.13C72.6139 157.13 72.9339 157.047 73.1806 156.88C73.4339 156.72 73.6473 156.453 73.8206 156.08L71.7706 150.7H72.7606L74.2906 154.84L75.8306 150.7H76.8306L74.7806 156.01C74.5206 156.677 74.1839 157.167 73.7706 157.48C73.3639 157.793 72.8573 157.95 72.2506 157.95ZM77.9807 157.96V150.7H78.9307V151.54H78.9907C79.0707 151.413 79.1773 151.277 79.3107 151.13C79.4507 150.983 79.634 150.86 79.8607 150.76C80.0873 150.653 80.3673 150.6 80.7007 150.6C81.1007 150.6 81.4507 150.68 81.7507 150.84C82.0507 150.993 82.3007 151.203 82.5007 151.47C82.7007 151.73 82.8507 152.023 82.9507 152.35C83.0507 152.677 83.1007 153.01 83.1007 153.35C83.1007 153.69 83.0507 154.023 82.9507 154.35C82.8507 154.677 82.7007 154.973 82.5007 155.24C82.3007 155.5 82.0507 155.71 81.7507 155.87C81.4507 156.023 81.1007 156.1 80.7007 156.1C80.3673 156.1 80.0873 156.047 79.8607 155.94C79.634 155.833 79.4507 155.707 79.3107 155.56C79.1773 155.413 79.0707 155.28 78.9907 155.16H78.9307V157.96H77.9807ZM78.9507 153.35C78.9507 153.67 79.0073 153.98 79.1207 154.28C79.2407 154.573 79.4173 154.817 79.6507 155.01C79.8907 155.197 80.1873 155.29 80.5407 155.29C80.9007 155.29 81.1973 155.197 81.4307 155.01C81.6707 154.817 81.8473 154.573 81.9607 154.28C82.0807 153.98 82.1407 153.67 82.1407 153.35C82.1407 153.023 82.0807 152.713 81.9607 152.42C81.8473 152.127 81.6707 151.887 81.4307 151.7C81.1973 151.507 80.9007 151.41 80.5407 151.41C80.1873 151.41 79.8907 151.507 79.6507 151.7C79.4173 151.887 79.2407 152.127 79.1207 152.42C79.0073 152.713 78.9507 153.023 78.9507 153.35ZM85.0241 149.69C84.8441 149.69 84.6941 149.63 84.5741 149.51C84.4608 149.39 84.4041 149.247 84.4041 149.08C84.4041 148.907 84.4608 148.76 84.5741 148.64C84.6941 148.52 84.8441 148.46 85.0241 148.46C85.1974 148.46 85.3441 148.52 85.4641 148.64C85.5841 148.76 85.6441 148.907 85.6441 149.08C85.6441 149.247 85.5841 149.39 85.4641 149.51C85.3441 149.63 85.1974 149.69 85.0241 149.69ZM84.5541 156V150.7H85.5041V156H84.5541ZM87.0408 156V150.7H87.9908V151.47H88.0508C88.0975 151.39 88.1742 151.28 88.2808 151.14C88.3942 151 88.5542 150.877 88.7608 150.77C88.9675 150.657 89.2275 150.6 89.5408 150.6C89.9275 150.6 90.2575 150.69 90.5308 150.87C90.8042 151.043 91.0108 151.28 91.1508 151.58C91.2975 151.88 91.3708 152.217 91.3708 152.59V156H90.4208V152.65C90.4208 152.297 90.3208 152.003 90.1208 151.77C89.9275 151.537 89.6442 151.42 89.2708 151.42C88.9708 151.42 88.7275 151.497 88.5408 151.65C88.3542 151.797 88.2142 151.993 88.1208 152.24C88.0342 152.48 87.9908 152.737 87.9908 153.01V156H87.0408ZM95.3232 158.1C94.8832 158.1 94.5166 158.04 94.2232 157.92C93.9299 157.807 93.6932 157.66 93.5132 157.48C93.3399 157.307 93.2099 157.133 93.1232 156.96C93.0366 156.787 92.9799 156.64 92.9532 156.52C92.9266 156.407 92.9132 156.35 92.9132 156.35H93.8632C93.8632 156.35 93.8799 156.397 93.9132 156.49C93.9466 156.583 94.0099 156.69 94.1032 156.81C94.2032 156.93 94.3499 157.037 94.5432 157.13C94.7366 157.223 94.9966 157.27 95.3232 157.27C95.7099 157.27 96.0132 157.193 96.2332 157.04C96.4532 156.893 96.6099 156.7 96.7032 156.46C96.8032 156.22 96.8532 155.967 96.8532 155.7V155.09H96.8032C96.7366 155.203 96.6299 155.333 96.4832 155.48C96.3432 155.62 96.1566 155.743 95.9232 155.85C95.6899 155.95 95.4032 156 95.0632 156C94.6632 156 94.3132 155.923 94.0132 155.77C93.7132 155.617 93.4632 155.41 93.2632 155.15C93.0699 154.89 92.9232 154.6 92.8232 154.28C92.7232 153.96 92.6732 153.633 92.6732 153.3C92.6732 152.967 92.7232 152.64 92.8232 152.32C92.9232 152 93.0699 151.71 93.2632 151.45C93.4632 151.19 93.7132 150.983 94.0132 150.83C94.3132 150.677 94.6632 150.6 95.0632 150.6C95.4032 150.6 95.6899 150.653 95.9232 150.76C96.1566 150.86 96.3432 150.98 96.4832 151.12C96.6299 151.26 96.7366 151.39 96.8032 151.51H96.8532V150.7H97.8032V155.69C97.8032 156.43 97.5866 157.017 97.1532 157.45C96.7266 157.883 96.1166 158.1 95.3232 158.1ZM95.2432 155.19C95.5966 155.19 95.8899 155.1 96.1232 154.92C96.3632 154.733 96.5399 154.497 96.6532 154.21C96.7732 153.923 96.8332 153.62 96.8332 153.3C96.8332 152.98 96.7732 152.677 96.6532 152.39C96.5399 152.097 96.3632 151.86 96.1232 151.68C95.8899 151.5 95.5966 151.41 95.2432 151.41C94.8899 151.41 94.5932 151.5 94.3532 151.68C94.1132 151.86 93.9332 152.097 93.8132 152.39C93.6999 152.677 93.6432 152.98 93.6432 153.3C93.6432 153.62 93.6999 153.923 93.8132 154.21C93.9332 154.497 94.1132 154.733 94.3532 154.92C94.5932 155.1 94.8899 155.19 95.2432 155.19ZM44.3188 172L42.6088 166.7H43.5788L44.8388 170.72L46.1588 166.7H47.0588L48.3688 170.72L49.6388 166.7H50.6088L48.8888 172H47.8688L46.6088 168.09L45.3488 172H44.3188ZM52.28 165.69C52.1 165.69 51.95 165.63 51.83 165.51C51.7166 165.39 51.66 165.247 51.66 165.08C51.66 164.907 51.7166 164.76 51.83 164.64C51.95 164.52 52.1 164.46 52.28 164.46C52.4533 164.46 52.6 164.52 52.72 164.64C52.84 164.76 52.9 164.907 52.9 165.08C52.9 165.247 52.84 165.39 52.72 165.51C52.6 165.63 52.4533 165.69 52.28 165.69ZM51.81 172V166.7H52.76V172H51.81ZM56.5467 172.1C56 172.1 55.5867 171.96 55.3067 171.68C55.0333 171.4 54.8967 171.007 54.8967 170.5V167.48H53.9467V166.7H54.8967V165.37H55.8467V166.7H57.1367V167.48H55.8467V170.5C55.8467 170.767 55.92 170.963 56.0667 171.09C56.2133 171.21 56.4267 171.27 56.7067 171.27C56.8533 171.27 56.9933 171.26 57.1267 171.24C57.26 171.22 57.3267 171.21 57.3267 171.21V172.02C57.3267 172.02 57.25 172.033 57.0967 172.06C56.9433 172.087 56.76 172.1 56.5467 172.1ZM58.674 172V164.4H59.624V167.47H59.684C59.7307 167.39 59.8074 167.28 59.914 167.14C60.0274 167 60.1874 166.877 60.394 166.77C60.6007 166.657 60.8607 166.6 61.174 166.6C61.5607 166.6 61.8907 166.69 62.164 166.87C62.4374 167.043 62.644 167.28 62.784 167.58C62.9307 167.88 63.004 168.217 63.004 168.59V172H62.054V168.65C62.054 168.297 61.954 168.003 61.754 167.77C61.5607 167.537 61.2774 167.42 60.904 167.42C60.604 167.42 60.3607 167.497 60.174 167.65C59.9874 167.797 59.8474 167.993 59.754 168.24C59.6674 168.48 59.624 168.737 59.624 169.01V172H58.674ZM66.8088 172V164.6H71.6888V165.46H67.7888V167.9H71.2288V168.76H67.7888V172H66.8088ZM73.6569 165.69C73.4769 165.69 73.3269 165.63 73.2069 165.51C73.0936 165.39 73.0369 165.247 73.0369 165.08C73.0369 164.907 73.0936 164.76 73.2069 164.64C73.3269 164.52 73.4769 164.46 73.6569 164.46C73.8302 164.46 73.9769 164.52 74.0969 164.64C74.2169 164.76 74.2769 164.907 74.2769 165.08C74.2769 165.247 74.2169 165.39 74.0969 165.51C73.9769 165.63 73.8302 165.69 73.6569 165.69ZM73.1869 172V166.7H74.1369V172H73.1869ZM78.2236 174.1C77.7836 174.1 77.417 174.04 77.1236 173.92C76.8303 173.807 76.5936 173.66 76.4136 173.48C76.2403 173.307 76.1103 173.133 76.0236 172.96C75.937 172.787 75.8803 172.64 75.8536 172.52C75.827 172.407 75.8136 172.35 75.8136 172.35H76.7636C76.7636 172.35 76.7803 172.397 76.8136 172.49C76.847 172.583 76.9103 172.69 77.0036 172.81C77.1036 172.93 77.2503 173.037 77.4436 173.13C77.637 173.223 77.897 173.27 78.2236 173.27C78.6103 173.27 78.9136 173.193 79.1336 173.04C79.3536 172.893 79.5103 172.7 79.6036 172.46C79.7036 172.22 79.7536 171.967 79.7536 171.7V171.09H79.7036C79.637 171.203 79.5303 171.333 79.3836 171.48C79.2436 171.62 79.057 171.743 78.8236 171.85C78.5903 171.95 78.3036 172 77.9636 172C77.5636 172 77.2136 171.923 76.9136 171.77C76.6136 171.617 76.3636 171.41 76.1636 171.15C75.9703 170.89 75.8236 170.6 75.7236 170.28C75.6236 169.96 75.5736 169.633 75.5736 169.3C75.5736 168.967 75.6236 168.64 75.7236 168.32C75.8236 168 75.9703 167.71 76.1636 167.45C76.3636 167.19 76.6136 166.983 76.9136 166.83C77.2136 166.677 77.5636 166.6 77.9636 166.6C78.3036 166.6 78.5903 166.653 78.8236 166.76C79.057 166.86 79.2436 166.98 79.3836 167.12C79.5303 167.26 79.637 167.39 79.7036 167.51H79.7536V166.7H80.7036V171.69C80.7036 172.43 80.487 173.017 80.0536 173.45C79.627 173.883 79.017 174.1 78.2236 174.1ZM78.1436 171.19C78.497 171.19 78.7903 171.1 79.0236 170.92C79.2636 170.733 79.4403 170.497 79.5536 170.21C79.6736 169.923 79.7336 169.62 79.7336 169.3C79.7336 168.98 79.6736 168.677 79.5536 168.39C79.4403 168.097 79.2636 167.86 79.0236 167.68C78.7903 167.5 78.497 167.41 78.1436 167.41C77.7903 167.41 77.4936 167.5 77.2536 167.68C77.0136 167.86 76.8336 168.097 76.7136 168.39C76.6003 168.677 76.5436 168.98 76.5436 169.3C76.5436 169.62 76.6003 169.923 76.7136 170.21C76.8336 170.497 77.0136 170.733 77.2536 170.92C77.4936 171.1 77.7903 171.19 78.1436 171.19ZM82.0994 172V166.7H83.0494V167.47H83.0894C83.1427 167.37 83.2261 167.253 83.3394 167.12C83.4527 166.98 83.6061 166.86 83.7994 166.76C83.9994 166.653 84.2494 166.6 84.5494 166.6C84.9427 166.6 85.2727 166.697 85.5394 166.89C85.8127 167.077 86.0161 167.33 86.1494 167.65H86.1594C86.3061 167.357 86.5127 167.11 86.7794 166.91C87.0527 166.703 87.4061 166.6 87.8394 166.6C88.4127 166.6 88.8527 166.797 89.1594 167.19C89.4727 167.577 89.6294 168.077 89.6294 168.69V172H88.6794V168.74C88.6794 168.347 88.5861 168.03 88.3994 167.79C88.2127 167.543 87.9427 167.42 87.5894 167.42C87.2827 167.42 87.0361 167.503 86.8494 167.67C86.6694 167.837 86.5394 168.043 86.4594 168.29C86.3794 168.537 86.3394 168.783 86.3394 169.03V172H85.3894V168.74C85.3894 168.347 85.2961 168.03 85.1094 167.79C84.9294 167.543 84.6594 167.42 84.2994 167.42C83.9927 167.42 83.7461 167.503 83.5594 167.67C83.3794 167.837 83.2494 168.047 83.1694 168.3C83.0894 168.547 83.0494 168.79 83.0494 169.03V172H82.0994ZM93.3252 166.6C93.6585 166.6 93.9385 166.653 94.1652 166.76C94.3919 166.867 94.5752 166.993 94.7152 167.14C94.8552 167.28 94.9619 167.413 95.0352 167.54H95.0952V166.7H96.0452V172H95.0952V171.16H95.0352C94.9619 171.287 94.8552 171.423 94.7152 171.57C94.5752 171.717 94.3919 171.843 94.1652 171.95C93.9385 172.05 93.6585 172.1 93.3252 172.1C92.9252 172.1 92.5752 172.023 92.2752 171.87C91.9752 171.71 91.7252 171.5 91.5252 171.24C91.3252 170.973 91.1752 170.677 91.0752 170.35C90.9752 170.023 90.9252 169.69 90.9252 169.35C90.9252 169.01 90.9752 168.677 91.0752 168.35C91.1752 168.023 91.3252 167.73 91.5252 167.47C91.7252 167.203 91.9752 166.993 92.2752 166.84C92.5752 166.68 92.9252 166.6 93.3252 166.6ZM93.4852 167.41C93.1319 167.41 92.8352 167.507 92.5952 167.7C92.3552 167.887 92.1752 168.127 92.0552 168.42C91.9419 168.713 91.8852 169.023 91.8852 169.35C91.8852 169.67 91.9419 169.98 92.0552 170.28C92.1752 170.573 92.3552 170.817 92.5952 171.01C92.8352 171.197 93.1319 171.29 93.4852 171.29C93.8385 171.29 94.1319 171.197 94.3652 171.01C94.6052 170.817 94.7819 170.573 94.8952 170.28C95.0152 169.98 95.0752 169.67 95.0752 169.35C95.0752 169.023 95.0152 168.713 94.8952 168.42C94.7819 168.127 94.6052 167.887 94.3652 167.7C94.1319 167.507 93.8385 167.41 93.4852 167.41Z" fill="black"/>
<rect width="24" height="24" transform="translate(122 69)" fill="white"/>
<path d="M144 74.3652L144.75 74.3652V74.3652H144ZM131.454 82.3029L131.984 81.7714L131.454 82.3029ZM131.454 77.5438L131.984 78.0752L131.454 77.5438ZM137.428 83.4926L136.899 82.9612L137.428 83.4926ZM132.649 83.4926L132.12 84.0241L132.649 83.4926ZM142.515 78.4273L143.044 78.9588L142.515 78.4273ZM144 74.858L143.25 74.858V74.858H144ZM136.541 72.4785L136.012 71.947V71.947L136.541 72.4785ZM135.49 85.0931L135.231 84.3892L135.49 85.0931ZM129.862 79.4352L130.558 79.7153L129.862 79.4352ZM141.986 77.8959L136.899 82.9612L137.958 84.0241L143.044 78.9588L141.986 77.8959ZM133.178 82.9612L131.984 81.7714L130.925 82.8343L132.12 84.0241L133.178 82.9612ZM131.984 78.0752L137.07 73.0099L136.012 71.947L130.925 77.0123L131.984 78.0752ZM140.126 71.75H140.62V70.25H140.126V71.75ZM143.25 74.3652L143.25 74.858L144.75 74.858L144.75 74.3652L143.25 74.3652ZM140.62 71.75C141.438 71.75 141.976 71.7516 142.375 71.805C142.753 71.8555 142.891 71.9399 142.976 72.0243L144.034 70.9614C143.624 70.5529 143.117 70.3909 142.574 70.3182C142.053 70.2484 141.396 70.25 140.62 70.25V71.75ZM144.75 74.3652C144.75 73.5933 144.751 72.9386 144.681 72.4186C144.608 71.8766 144.445 71.3702 144.034 70.9614L142.976 72.0243C143.06 72.1082 143.144 72.2448 143.195 72.6193C143.248 73.0156 143.25 73.5507 143.25 74.3652H144.75ZM131.984 81.7714C131.405 81.1956 131.026 80.8158 130.782 80.4976C130.552 80.1966 130.515 80.0409 130.515 79.9233H129.015C129.015 80.5027 129.259 80.9759 129.592 81.4099C129.911 81.8269 130.377 82.2884 130.925 82.8343L131.984 81.7714ZM132.12 84.0241C132.668 84.57 133.132 85.0338 133.55 85.3518C133.986 85.683 134.46 85.9252 135.039 85.9252V84.4252C134.918 84.4252 134.76 84.387 134.458 84.1574C134.138 83.9145 133.757 83.537 133.178 82.9612L132.12 84.0241ZM143.044 78.9588C143.733 78.2727 144.236 77.7912 144.499 77.1573L143.114 76.5812C142.992 76.875 142.762 77.123 141.986 77.8959L143.044 78.9588ZM143.25 74.858C143.25 75.951 143.236 76.2879 143.114 76.5812L144.499 77.1573C144.763 76.5231 144.75 75.8283 144.75 74.858H143.25ZM137.07 73.0099C137.846 72.2374 138.096 72.0076 138.392 71.8855L137.82 70.4988C137.184 70.7609 136.701 71.2605 136.012 71.947L137.07 73.0099ZM140.126 70.25C139.15 70.25 138.455 70.2368 137.82 70.4988L138.392 71.8855C138.688 71.7632 139.029 71.75 140.126 71.75V70.25ZM136.899 82.9612C136.453 83.4051 136.122 83.735 135.837 83.9802C135.552 84.2266 135.368 84.3391 135.231 84.3892L135.749 85.797C136.138 85.654 136.484 85.4032 136.817 85.1161C137.151 84.8279 137.526 84.4541 137.958 84.0241L136.899 82.9612ZM135.231 84.3892C135.161 84.415 135.101 84.4252 135.039 84.4252V85.9252C135.286 85.9252 135.522 85.8806 135.749 85.797L135.231 84.3892ZM130.925 77.0123C130.504 77.432 130.136 77.7973 129.85 78.1231C129.566 78.4473 129.316 78.7825 129.166 79.1551L130.558 79.7153C130.613 79.5773 130.732 79.3931 130.978 79.1123C131.223 78.8331 131.549 78.5079 131.984 78.0752L130.925 77.0123ZM129.166 79.1551C129.068 79.3991 129.015 79.6534 129.015 79.9233H130.515C130.515 79.8585 130.526 79.7938 130.558 79.7153L129.166 79.1551Z" fill="#1E6AD2"/>
<path opacity="0.5" d="M129.709 79.282L130.239 78.7513L130.238 78.7505L129.709 79.282ZM133.438 75.7942C133.786 76.0182 134.25 75.9173 134.474 75.5688C134.698 75.2204 134.597 74.7564 134.249 74.5324L133.438 75.7942ZM133.296 74.8114L132.89 75.4423L132.89 75.4423L133.296 74.8114ZM131.06 73.6657L131.17 72.9237L131.06 73.6657ZM126.796 76.2338L127.325 76.7652H127.325L126.796 76.2338ZM129.505 73.8641L129.792 74.557L129.505 73.8641ZM127.351 77.4527L127.627 76.7553L127.627 76.7553L127.351 77.4527ZM127.458 77.4955L127.173 78.1891L127.458 77.4955ZM128.873 78.4497L129.402 77.9182H129.402L128.873 78.4497ZM128.791 78.3686L128.269 78.9072L128.791 78.3686ZM127.022 77.3223L126.746 78.0197L126.746 78.0197L127.022 77.3223ZM135.735 85.3374L135.205 85.868C135.217 85.8796 135.229 85.8908 135.241 85.9016L135.735 85.3374ZM140.448 80.7059C140.223 80.3584 139.759 80.2593 139.411 80.4846C139.063 80.7099 138.964 81.1743 139.19 81.5219L140.448 80.7059ZM140.172 81.659L139.543 82.067V82.067L140.172 81.659ZM141.323 83.8852L142.065 83.7748L141.323 83.8852ZM138.744 88.1315L139.273 88.6629L139.273 88.6629L138.744 88.1315ZM141.124 85.4335L141.816 85.7227L141.124 85.4335ZM137.692 88.0091L138.388 87.7311L137.692 88.0091ZM137.279 87.0603L136.622 87.4213L137.279 87.0603ZM136.19 85.7358L136.719 85.2043L136.702 85.1873L136.684 85.1715L136.19 85.7358ZM136.902 86.4886L137.492 86.0257L136.902 86.4886ZM138.671 88.2043L138.142 87.6728L138.142 87.6729L138.671 88.2043ZM136.02 84.5624C135.727 84.2697 135.252 84.27 134.96 84.563C134.667 84.8561 134.667 85.331 134.96 85.6237L136.02 84.5624ZM129.332 79.9658C129.625 80.2585 130.1 80.2582 130.393 79.9651C130.686 79.6721 130.685 79.1972 130.392 78.9045L129.332 79.9658ZM134.249 74.5324L133.701 74.1805L132.89 75.4423L133.438 75.7942L134.249 74.5324ZM133.701 74.1805C133.162 73.8338 132.722 73.5503 132.342 73.346C131.953 73.1366 131.583 72.9846 131.17 72.9237L130.951 74.4076C131.126 74.4336 131.324 74.5016 131.631 74.6668C131.948 74.8371 132.331 75.0831 132.89 75.4423L133.701 74.1805ZM127.325 76.7652C127.815 76.277 128.339 75.7557 128.809 75.3272C129.044 75.1131 129.257 74.9305 129.438 74.791C129.631 74.6425 129.746 74.5762 129.792 74.557L129.218 73.1713C128.982 73.2691 128.739 73.4362 128.523 73.6024C128.296 73.7774 128.049 73.9906 127.799 74.2184C127.3 74.6736 126.751 75.22 126.267 75.7023L127.325 76.7652ZM131.17 72.9237C130.513 72.8267 129.838 72.9145 129.218 73.1713L129.792 74.557C130.169 74.401 130.57 74.3514 130.951 74.4076L131.17 72.9237ZM126.746 78.0197L127.075 78.1501L127.627 76.7553L127.298 76.625L126.746 78.0197ZM128.344 78.9811L129.18 79.8134L130.238 78.7505L129.402 77.9182L128.344 78.9811ZM127.075 78.1501C127.131 78.1721 127.152 78.1806 127.173 78.1891L127.744 76.802C127.711 76.7887 127.679 76.7759 127.627 76.7553L127.075 78.1501ZM129.402 77.9182C129.363 77.8788 129.338 77.8543 129.313 77.83L128.269 78.9072C128.285 78.9228 128.302 78.939 128.344 78.9811L129.402 77.9182ZM127.173 78.1891C127.581 78.3571 127.953 78.6008 128.269 78.9072L129.313 77.83C128.86 77.3911 128.327 77.0422 127.744 76.802L127.173 78.1891ZM126.267 75.7023C125.543 76.4232 125.799 77.645 126.746 78.0197L127.298 76.625C127.352 76.6464 127.37 76.7206 127.325 76.7652L126.267 75.7023ZM139.19 81.5219L139.543 82.067L140.802 81.2511L140.448 80.7059L139.19 81.5219ZM138.215 87.6L138.142 87.6728L139.2 88.7357L139.273 88.6629L138.215 87.6ZM139.543 82.067C139.904 82.6235 140.151 83.0053 140.322 83.3202C140.488 83.6258 140.555 83.8222 140.581 83.9956L142.065 83.7748C142.003 83.3623 141.85 82.9923 141.64 82.6047C141.435 82.2264 141.15 81.7881 140.802 81.2511L139.543 82.067ZM139.273 88.6629C139.758 88.1806 140.306 87.6344 140.763 87.1369C140.992 86.888 141.206 86.6423 141.382 86.4158C141.549 86.2009 141.717 85.9586 141.816 85.7227L140.432 85.1443C140.413 85.1896 140.346 85.3038 140.197 85.4959C140.057 85.6764 139.874 85.888 139.659 86.122C139.229 86.5903 138.705 87.1119 138.215 87.6L139.273 88.6629ZM140.581 83.9956C140.637 84.373 140.588 84.7707 140.432 85.1443L141.816 85.7227C142.074 85.1044 142.162 84.4308 142.065 83.7748L140.581 83.9956ZM136.684 85.1715L136.229 84.7732L135.241 85.9016L135.696 86.3L136.684 85.1715ZM138.388 87.7311C138.202 87.2652 138.088 86.9744 137.937 86.6993L136.622 87.4213C136.718 87.5975 136.796 87.7887 136.995 88.2871L138.388 87.7311ZM135.661 86.2672C136.041 86.6464 136.187 86.7933 136.311 86.9516L137.492 86.0257C137.298 85.7787 137.075 85.5588 136.719 85.2043L135.661 86.2672ZM137.937 86.6993C137.807 86.4631 137.658 86.2378 137.492 86.0257L136.311 86.9516C136.428 87.0996 136.531 87.2567 136.622 87.4213L137.937 86.6993ZM138.142 87.6729C138.182 87.6327 138.236 87.6237 138.273 87.6312C138.311 87.6387 138.364 87.6699 138.388 87.7311L136.995 88.2871C137.356 89.1912 138.526 89.4072 139.2 88.7357L138.142 87.6729ZM136.265 84.8067L136.02 84.5624L134.96 85.6237L135.205 85.868L136.265 84.8067ZM129.179 79.8126L129.332 79.9658L130.392 78.9045L130.239 78.7513L129.179 79.8126Z" fill="#1E6AD2"/>
<path d="M127.548 82L125.856 83.6897C125.432 84.1139 124.743 84.1139 124.319 83.6897C123.894 83.2655 123.894 82.5778 124.319 82.1536L124.472 82M133.076 87.5696L131.384 89.2593C130.959 89.6835 130.959 90.3712 131.384 90.7954C131.809 91.2195 132.497 91.2195 132.922 90.7954L133.076 90.6418M128.936 86.1588L127.226 87.8308" stroke="#1E6AD2" stroke-width="1.5" stroke-linecap="round"/>
<path opacity="0.5" d="M132.633 86.1857C132.926 85.8928 132.926 85.418 132.633 85.1251C132.34 84.8322 131.865 84.8322 131.572 85.1251L132.633 86.1857ZM129.47 87.2275C129.177 87.5204 129.177 87.9953 129.47 88.2881C129.763 88.581 130.238 88.581 130.53 88.2881L129.47 87.2275ZM129.857 83.4134C130.15 83.1205 130.15 82.6456 129.857 82.3527C129.564 82.0598 129.089 82.0598 128.797 82.3527L129.857 83.4134ZM126.68 84.4696C126.387 84.7625 126.387 85.2374 126.68 85.5303C126.973 85.8232 127.447 85.8232 127.74 85.5303L126.68 84.4696ZM131.572 85.1251L129.47 87.2275L130.53 88.2881L132.633 86.1857L131.572 85.1251ZM128.797 82.3527L126.68 84.4696L127.74 85.5303L129.857 83.4134L128.797 82.3527Z" fill="#1E6AD2"/>
<path opacity="0.5" d="M134.373 81.6445C134.667 81.3523 134.668 80.8774 134.375 80.5839C134.083 80.2904 133.608 80.2894 133.315 80.5816L134.373 81.6445ZM132.581 83.4292L134.373 81.6445L133.315 80.5816L131.523 82.3663L132.581 83.4292ZM139.289 77.0123C138.922 77.378 138.325 77.378 137.958 77.0123L136.899 78.0752C137.852 79.0237 139.395 79.0237 140.347 78.0752L139.289 77.0123ZM137.958 77.0123C137.592 76.6484 137.592 76.0596 137.958 75.6957L136.899 74.6328C135.945 75.583 135.945 77.125 136.899 78.0752L137.958 77.0123ZM137.958 75.6957C138.325 75.33 138.922 75.33 139.289 75.6957L140.347 74.6328C139.395 73.6843 137.852 73.6843 136.899 74.6328L137.958 75.6957ZM139.289 75.6957C139.654 76.0596 139.654 76.6484 139.289 77.0123L140.347 78.0752C141.301 77.125 141.301 75.583 140.347 74.6328L139.289 75.6957Z" fill="#1E6AD2"/>
<path d="M75.45 109L78.06 101.6H79.29L81.91 109H80.87L80.25 107.23H77.11L76.49 109H75.45ZM77.41 106.35H79.95L78.68 102.72L77.41 106.35ZM85.168 109.1C84.768 109.1 84.418 109.023 84.118 108.87C83.818 108.71 83.568 108.5 83.368 108.24C83.168 107.973 83.018 107.677 82.918 107.35C82.818 107.023 82.768 106.69 82.768 106.35C82.768 106.01 82.818 105.677 82.918 105.35C83.018 105.023 83.168 104.73 83.368 104.47C83.568 104.203 83.818 103.993 84.118 103.84C84.418 103.68 84.768 103.6 85.168 103.6C85.5013 103.6 85.7813 103.653 86.008 103.76C86.2346 103.867 86.418 103.993 86.558 104.14C86.698 104.28 86.8046 104.413 86.878 104.54H86.938V101.4H87.888V109H86.938V108.16H86.878C86.8046 108.287 86.698 108.423 86.558 108.57C86.418 108.717 86.2346 108.843 86.008 108.95C85.7813 109.05 85.5013 109.1 85.168 109.1ZM85.328 108.29C85.6813 108.29 85.9746 108.197 86.208 108.01C86.448 107.817 86.6246 107.573 86.738 107.28C86.858 106.98 86.918 106.67 86.918 106.35C86.918 106.023 86.858 105.713 86.738 105.42C86.6246 105.127 86.448 104.887 86.208 104.7C85.9746 104.507 85.6813 104.41 85.328 104.41C84.9746 104.41 84.678 104.507 84.438 104.7C84.198 104.887 84.018 105.127 83.898 105.42C83.7846 105.713 83.728 106.023 83.728 106.35C83.728 106.67 83.7846 106.98 83.898 107.28C84.018 107.573 84.198 107.817 84.438 108.01C84.678 108.197 84.9746 108.29 85.328 108.29ZM91.0614 109L89.0414 103.7H90.0314L91.5814 107.84L93.1014 103.7H94.1014L92.0714 109H91.0614ZM97.2578 103.6C97.5911 103.6 97.8711 103.653 98.0978 103.76C98.3245 103.867 98.5078 103.993 98.6478 104.14C98.7878 104.28 98.8945 104.413 98.9678 104.54H99.0278V103.7H99.9778V109H99.0278V108.16H98.9678C98.8945 108.287 98.7878 108.423 98.6478 108.57C98.5078 108.717 98.3245 108.843 98.0978 108.95C97.8711 109.05 97.5911 109.1 97.2578 109.1C96.8578 109.1 96.5078 109.023 96.2078 108.87C95.9078 108.71 95.6578 108.5 95.4578 108.24C95.2578 107.973 95.1078 107.677 95.0078 107.35C94.9078 107.023 94.8578 106.69 94.8578 106.35C94.8578 106.01 94.9078 105.677 95.0078 105.35C95.1078 105.023 95.2578 104.73 95.4578 104.47C95.6578 104.203 95.9078 103.993 96.2078 103.84C96.5078 103.68 96.8578 103.6 97.2578 103.6ZM97.4178 104.41C97.0645 104.41 96.7678 104.507 96.5278 104.7C96.2878 104.887 96.1078 105.127 95.9878 105.42C95.8745 105.713 95.8178 106.023 95.8178 106.35C95.8178 106.67 95.8745 106.98 95.9878 107.28C96.1078 107.573 96.2878 107.817 96.5278 108.01C96.7678 108.197 97.0645 108.29 97.4178 108.29C97.7711 108.29 98.0645 108.197 98.2978 108.01C98.5378 107.817 98.7145 107.573 98.8278 107.28C98.9478 106.98 99.0078 106.67 99.0078 106.35C99.0078 106.023 98.9478 105.713 98.8278 105.42C98.7145 105.127 98.5378 104.887 98.2978 104.7C98.0645 104.507 97.7711 104.41 97.4178 104.41ZM101.374 109V103.7H102.324V104.47H102.384C102.43 104.39 102.507 104.28 102.614 104.14C102.727 104 102.887 103.877 103.094 103.77C103.3 103.657 103.56 103.6 103.874 103.6C104.26 103.6 104.59 103.69 104.864 103.87C105.137 104.043 105.344 104.28 105.484 104.58C105.63 104.88 105.704 105.217 105.704 105.59V109H104.754V105.65C104.754 105.297 104.654 105.003 104.454 104.77C104.26 104.537 103.977 104.42 103.604 104.42C103.304 104.42 103.06 104.497 102.874 104.65C102.687 104.797 102.547 104.993 102.454 105.24C102.367 105.48 102.324 105.737 102.324 106.01V109H101.374ZM109.616 109.1C109.183 109.1 108.803 109.023 108.476 108.87C108.15 108.71 107.876 108.5 107.656 108.24C107.443 107.973 107.28 107.677 107.166 107.35C107.06 107.023 107.006 106.69 107.006 106.35C107.006 106.01 107.06 105.68 107.166 105.36C107.273 105.033 107.433 104.737 107.646 104.47C107.866 104.203 108.14 103.993 108.466 103.84C108.793 103.68 109.176 103.6 109.616 103.6C110.043 103.6 110.396 103.663 110.676 103.79C110.956 103.917 111.18 104.077 111.346 104.27C111.52 104.457 111.646 104.647 111.726 104.84C111.813 105.027 111.87 105.183 111.896 105.31C111.923 105.437 111.936 105.5 111.936 105.5H111.016C111.016 105.5 111 105.447 110.966 105.34C110.933 105.227 110.87 105.1 110.776 104.96C110.683 104.82 110.543 104.697 110.356 104.59C110.17 104.477 109.923 104.42 109.616 104.42C109.25 104.42 108.94 104.513 108.686 104.7C108.44 104.88 108.253 105.117 108.126 105.41C108.006 105.703 107.946 106.017 107.946 106.35C107.946 106.683 108.006 106.997 108.126 107.29C108.253 107.583 108.44 107.823 108.686 108.01C108.94 108.19 109.25 108.28 109.616 108.28C109.923 108.28 110.17 108.227 110.356 108.12C110.543 108.007 110.683 107.88 110.776 107.74C110.87 107.6 110.933 107.477 110.966 107.37C111 107.257 111.016 107.2 111.016 107.2H111.936C111.936 107.2 111.923 107.263 111.896 107.39C111.87 107.517 111.813 107.677 111.726 107.87C111.646 108.057 111.52 108.247 111.346 108.44C111.18 108.627 110.956 108.783 110.676 108.91C110.396 109.037 110.043 109.1 109.616 109.1ZM115.649 109.1C115.216 109.1 114.839 109.023 114.519 108.87C114.206 108.71 113.946 108.497 113.739 108.23C113.539 107.963 113.389 107.67 113.289 107.35C113.189 107.023 113.139 106.69 113.139 106.35C113.139 106.017 113.186 105.687 113.279 105.36C113.379 105.033 113.529 104.737 113.729 104.47C113.936 104.203 114.192 103.993 114.499 103.84C114.812 103.68 115.182 103.6 115.609 103.6C116.062 103.6 116.462 103.703 116.809 103.91C117.156 104.117 117.429 104.423 117.629 104.83C117.829 105.237 117.929 105.747 117.929 106.36V106.64H114.099C114.119 106.94 114.189 107.217 114.309 107.47C114.436 107.717 114.612 107.917 114.839 108.07C115.066 108.217 115.336 108.29 115.649 108.29C115.922 108.29 116.142 108.247 116.309 108.16C116.482 108.067 116.619 107.96 116.719 107.84C116.819 107.72 116.886 107.617 116.919 107.53C116.959 107.437 116.979 107.39 116.979 107.39H117.869C117.869 107.39 117.852 107.45 117.819 107.57C117.786 107.683 117.726 107.823 117.639 107.99C117.552 108.157 117.426 108.327 117.259 108.5C117.092 108.667 116.879 108.81 116.619 108.93C116.359 109.043 116.036 109.1 115.649 109.1ZM114.109 105.9H116.999C116.986 105.553 116.912 105.273 116.779 105.06C116.646 104.84 116.476 104.677 116.269 104.57C116.062 104.463 115.842 104.41 115.609 104.41C115.189 104.41 114.846 104.547 114.579 104.82C114.312 105.087 114.156 105.447 114.109 105.9ZM121.477 109.1C121.077 109.1 120.727 109.023 120.427 108.87C120.127 108.71 119.877 108.5 119.677 108.24C119.477 107.973 119.327 107.677 119.227 107.35C119.127 107.023 119.077 106.69 119.077 106.35C119.077 106.01 119.127 105.677 119.227 105.35C119.327 105.023 119.477 104.73 119.677 104.47C119.877 104.203 120.127 103.993 120.427 103.84C120.727 103.68 121.077 103.6 121.477 103.6C121.81 103.6 122.09 103.653 122.317 103.76C122.543 103.867 122.727 103.993 122.867 104.14C123.007 104.28 123.113 104.413 123.187 104.54H123.247V101.4H124.197V109H123.247V108.16H123.187C123.113 108.287 123.007 108.423 122.867 108.57C122.727 108.717 122.543 108.843 122.317 108.95C122.09 109.05 121.81 109.1 121.477 109.1ZM121.637 108.29C121.99 108.29 122.283 108.197 122.517 108.01C122.757 107.817 122.933 107.573 123.047 107.28C123.167 106.98 123.227 106.67 123.227 106.35C123.227 106.023 123.167 105.713 123.047 105.42C122.933 105.127 122.757 104.887 122.517 104.7C122.283 104.507 121.99 104.41 121.637 104.41C121.283 104.41 120.987 104.507 120.747 104.7C120.507 104.887 120.327 105.127 120.207 105.42C120.093 105.713 120.037 106.023 120.037 106.35C120.037 106.67 120.093 106.98 120.207 107.28C120.327 107.573 120.507 107.817 120.747 108.01C120.987 108.197 121.283 108.29 121.637 108.29ZM130.925 109.1C130.345 109.1 129.845 108.99 129.425 108.77C129.005 108.543 128.678 108.227 128.445 107.82C128.218 107.407 128.105 106.92 128.105 106.36V101.6H129.085V106.36C129.085 106.873 129.235 107.303 129.535 107.65C129.841 107.997 130.305 108.17 130.925 108.17C131.551 108.17 132.015 107.997 132.315 107.65C132.621 107.303 132.775 106.873 132.775 106.36V101.6H133.755V106.36C133.755 106.92 133.638 107.407 133.405 107.82C133.178 108.227 132.855 108.543 132.435 108.77C132.015 108.99 131.511 109.1 130.925 109.1ZM135.351 109V101.6H136.331V109H135.351ZM137.529 110.51L140.999 100.76H141.909L138.439 110.51H137.529ZM145.778 109.1C145.198 109.1 144.698 108.99 144.278 108.77C143.858 108.543 143.532 108.227 143.298 107.82C143.072 107.407 142.958 106.92 142.958 106.36V101.6H143.938V106.36C143.938 106.873 144.088 107.303 144.388 107.65C144.695 107.997 145.158 108.17 145.778 108.17C146.405 108.17 146.868 107.997 147.168 107.65C147.475 107.303 147.628 106.873 147.628 106.36V101.6H148.608V106.36C148.608 106.92 148.492 107.407 148.258 107.82C148.032 108.227 147.708 108.543 147.288 108.77C146.868 108.99 146.365 109.1 145.778 109.1ZM149.954 109L152.334 105.3L149.954 101.6H151.124L153.004 104.57L154.884 101.6H156.054L153.654 105.3L156.054 109H154.884L153.004 106.03L151.124 109H149.954ZM159.706 109V101.6H162.106C162.7 101.6 163.216 101.707 163.656 101.92C164.096 102.127 164.463 102.407 164.756 102.76C165.05 103.113 165.27 103.51 165.416 103.95C165.563 104.39 165.636 104.84 165.636 105.3C165.636 105.76 165.563 106.21 165.416 106.65C165.27 107.09 165.05 107.487 164.756 107.84C164.463 108.193 164.096 108.477 163.656 108.69C163.216 108.897 162.7 109 162.106 109H159.706ZM162.066 102.46H160.686V108.14H162.066C162.5 108.14 162.876 108.06 163.196 107.9C163.523 107.74 163.793 107.527 164.006 107.26C164.226 106.987 164.39 106.68 164.496 106.34C164.603 106 164.656 105.653 164.656 105.3C164.656 104.947 164.603 104.6 164.496 104.26C164.39 103.92 164.226 103.617 164.006 103.35C163.793 103.077 163.523 102.86 163.196 102.7C162.876 102.54 162.5 102.46 162.066 102.46ZM169.292 109.1C168.858 109.1 168.482 109.023 168.162 108.87C167.848 108.71 167.588 108.497 167.382 108.23C167.182 107.963 167.032 107.67 166.932 107.35C166.832 107.023 166.782 106.69 166.782 106.35C166.782 106.017 166.828 105.687 166.922 105.36C167.022 105.033 167.172 104.737 167.372 104.47C167.578 104.203 167.835 103.993 168.142 103.84C168.455 103.68 168.825 103.6 169.252 103.6C169.705 103.6 170.105 103.703 170.452 103.91C170.798 104.117 171.072 104.423 171.272 104.83C171.472 105.237 171.572 105.747 171.572 106.36V106.64H167.742C167.762 106.94 167.832 107.217 167.952 107.47C168.078 107.717 168.255 107.917 168.482 108.07C168.708 108.217 168.978 108.29 169.292 108.29C169.565 108.29 169.785 108.247 169.952 108.16C170.125 108.067 170.262 107.96 170.362 107.84C170.462 107.72 170.528 107.617 170.562 107.53C170.602 107.437 170.622 107.39 170.622 107.39H171.512C171.512 107.39 171.495 107.45 171.462 107.57C171.428 107.683 171.368 107.823 171.282 107.99C171.195 108.157 171.068 108.327 170.902 108.5C170.735 108.667 170.522 108.81 170.262 108.93C170.002 109.043 169.678 109.1 169.292 109.1ZM167.752 105.9H170.642C170.628 105.553 170.555 105.273 170.422 105.06C170.288 104.84 170.118 104.677 169.912 104.57C169.705 104.463 169.485 104.41 169.252 104.41C168.832 104.41 168.488 104.547 168.222 104.82C167.955 105.087 167.798 105.447 167.752 105.9ZM174.808 109.1C174.401 109.1 174.065 109.043 173.798 108.93C173.538 108.817 173.331 108.677 173.178 108.51C173.025 108.337 172.911 108.167 172.838 108C172.765 107.827 172.718 107.683 172.698 107.57C172.678 107.457 172.668 107.4 172.668 107.4H173.628C173.628 107.4 173.638 107.447 173.658 107.54C173.685 107.627 173.735 107.73 173.808 107.85C173.888 107.963 174.008 108.067 174.168 108.16C174.335 108.247 174.555 108.29 174.828 108.29C175.141 108.29 175.385 108.217 175.558 108.07C175.731 107.917 175.818 107.73 175.818 107.51C175.818 107.317 175.748 107.163 175.608 107.05C175.475 106.937 175.281 106.85 175.028 106.79L174.308 106.62C174.041 106.553 173.791 106.463 173.558 106.35C173.325 106.237 173.135 106.083 172.988 105.89C172.848 105.69 172.778 105.443 172.778 105.15C172.778 104.697 172.948 104.327 173.288 104.04C173.628 103.747 174.071 103.6 174.618 103.6C174.985 103.6 175.288 103.653 175.528 103.76C175.768 103.86 175.958 103.987 176.098 104.14C176.245 104.293 176.351 104.447 176.418 104.6C176.491 104.753 176.538 104.883 176.558 104.99C176.578 105.09 176.588 105.14 176.588 105.14H175.668C175.668 105.14 175.658 105.103 175.638 105.03C175.618 104.95 175.571 104.863 175.498 104.77C175.431 104.67 175.328 104.583 175.188 104.51C175.048 104.43 174.861 104.39 174.628 104.39C174.308 104.39 174.075 104.463 173.928 104.61C173.781 104.757 173.708 104.917 173.708 105.09C173.708 105.257 173.775 105.393 173.908 105.5C174.048 105.6 174.228 105.677 174.448 105.73L175.178 105.9C175.631 106.007 176.005 106.183 176.298 106.43C176.598 106.67 176.748 107.017 176.748 107.47C176.748 107.763 176.671 108.037 176.518 108.29C176.365 108.537 176.145 108.733 175.858 108.88C175.571 109.027 175.221 109.1 174.808 109.1ZM178.566 102.69C178.386 102.69 178.236 102.63 178.116 102.51C178.003 102.39 177.946 102.247 177.946 102.08C177.946 101.907 178.003 101.76 178.116 101.64C178.236 101.52 178.386 101.46 178.566 101.46C178.739 101.46 178.886 101.52 179.006 101.64C179.126 101.76 179.186 101.907 179.186 102.08C179.186 102.247 179.126 102.39 179.006 102.51C178.886 102.63 178.739 102.69 178.566 102.69ZM178.096 109V103.7H179.046V109H178.096ZM183.133 111.1C182.693 111.1 182.326 111.04 182.033 110.92C181.739 110.807 181.503 110.66 181.323 110.48C181.149 110.307 181.019 110.133 180.933 109.96C180.846 109.787 180.789 109.64 180.763 109.52C180.736 109.407 180.723 109.35 180.723 109.35H181.673C181.673 109.35 181.689 109.397 181.723 109.49C181.756 109.583 181.819 109.69 181.913 109.81C182.013 109.93 182.159 110.037 182.353 110.13C182.546 110.223 182.806 110.27 183.133 110.27C183.519 110.27 183.823 110.193 184.043 110.04C184.263 109.893 184.419 109.7 184.513 109.46C184.613 109.22 184.663 108.967 184.663 108.7V108.09H184.613C184.546 108.203 184.439 108.333 184.293 108.48C184.153 108.62 183.966 108.743 183.733 108.85C183.499 108.95 183.213 109 182.873 109C182.473 109 182.123 108.923 181.823 108.77C181.523 108.617 181.273 108.41 181.073 108.15C180.879 107.89 180.733 107.6 180.633 107.28C180.533 106.96 180.483 106.633 180.483 106.3C180.483 105.967 180.533 105.64 180.633 105.32C180.733 105 180.879 104.71 181.073 104.45C181.273 104.19 181.523 103.983 181.823 103.83C182.123 103.677 182.473 103.6 182.873 103.6C183.213 103.6 183.499 103.653 183.733 103.76C183.966 103.86 184.153 103.98 184.293 104.12C184.439 104.26 184.546 104.39 184.613 104.51H184.663V103.7H185.613V108.69C185.613 109.43 185.396 110.017 184.963 110.45C184.536 110.883 183.926 111.1 183.133 111.1ZM183.053 108.19C183.406 108.19 183.699 108.1 183.933 107.92C184.173 107.733 184.349 107.497 184.463 107.21C184.583 106.923 184.643 106.62 184.643 106.3C184.643 105.98 184.583 105.677 184.463 105.39C184.349 105.097 184.173 104.86 183.933 104.68C183.699 104.5 183.406 104.41 183.053 104.41C182.699 104.41 182.403 104.5 182.163 104.68C181.923 104.86 181.743 105.097 181.623 105.39C181.509 105.677 181.453 105.98 181.453 106.3C181.453 106.62 181.509 106.923 181.623 107.21C181.743 107.497 181.923 107.733 182.163 107.92C182.403 108.1 182.699 108.19 183.053 108.19ZM187.009 109V103.7H187.959V104.47H188.019C188.065 104.39 188.142 104.28 188.249 104.14C188.362 104 188.522 103.877 188.729 103.77C188.935 103.657 189.195 103.6 189.509 103.6C189.895 103.6 190.225 103.69 190.499 103.87C190.772 104.043 190.979 104.28 191.119 104.58C191.265 104.88 191.339 105.217 191.339 105.59V109H190.389V105.65C190.389 105.297 190.289 105.003 190.089 104.77C189.895 104.537 189.612 104.42 189.239 104.42C188.939 104.42 188.695 104.497 188.509 104.65C188.322 104.797 188.182 104.993 188.089 105.24C188.002 105.48 187.959 105.737 187.959 106.01V109H187.009Z" fill="black"/>
<path d="M238.531 97.1875C240.762 97.1875 242.562 95.3875 242.562 93.1562V89.125H238.531C236.3 89.125 234.5 90.925 234.5 93.1562C234.5 95.3875 236.3 97.1875 238.531 97.1875Z" fill="#0ACF83"/>
<path d="M234.5 85.0938C234.5 82.8625 236.3 81.0625 238.531 81.0625H242.562V89.125H238.531C236.3 89.125 234.5 87.325 234.5 85.0938Z" fill="#A259FF"/>
<path d="M234.5 77.0312C234.5 74.8 236.3 73 238.531 73H242.562V81.0625H238.531C236.3 81.0625 234.5 79.2625 234.5 77.0312Z" fill="#F24E1E"/>
<path d="M242.562 73H246.594C248.825 73 250.625 74.8 250.625 77.0312C250.625 79.2625 248.825 81.0625 246.594 81.0625H242.562V73Z" fill="#FF7262"/>
<path d="M250.625 85.0938C250.625 87.325 248.825 89.125 246.594 89.125C244.363 89.125 242.562 87.325 242.562 85.0938C242.562 82.8625 244.363 81.0625 246.594 81.0625C248.825 81.0625 250.625 82.8625 250.625 85.0938Z" fill="#1ABCFE"/>
<path d="M209.8 113V105.6H214.68V106.46H210.78V108.9H214.22V109.76H210.78V113H209.8ZM216.648 106.69C216.468 106.69 216.318 106.63 216.198 106.51C216.085 106.39 216.028 106.247 216.028 106.08C216.028 105.907 216.085 105.76 216.198 105.64C216.318 105.52 216.468 105.46 216.648 105.46C216.821 105.46 216.968 105.52 217.088 105.64C217.208 105.76 217.268 105.907 217.268 106.08C217.268 106.247 217.208 106.39 217.088 106.51C216.968 106.63 216.821 106.69 216.648 106.69ZM216.178 113V107.7H217.128V113H216.178ZM221.215 115.1C220.775 115.1 220.408 115.04 220.115 114.92C219.822 114.807 219.585 114.66 219.405 114.48C219.232 114.307 219.102 114.133 219.015 113.96C218.928 113.787 218.872 113.64 218.845 113.52C218.818 113.407 218.805 113.35 218.805 113.35H219.755C219.755 113.35 219.772 113.397 219.805 113.49C219.838 113.583 219.902 113.69 219.995 113.81C220.095 113.93 220.242 114.037 220.435 114.13C220.628 114.223 220.888 114.27 221.215 114.27C221.602 114.27 221.905 114.193 222.125 114.04C222.345 113.893 222.502 113.7 222.595 113.46C222.695 113.22 222.745 112.967 222.745 112.7V112.09H222.695C222.628 112.203 222.522 112.333 222.375 112.48C222.235 112.62 222.048 112.743 221.815 112.85C221.582 112.95 221.295 113 220.955 113C220.555 113 220.205 112.923 219.905 112.77C219.605 112.617 219.355 112.41 219.155 112.15C218.962 111.89 218.815 111.6 218.715 111.28C218.615 110.96 218.565 110.633 218.565 110.3C218.565 109.967 218.615 109.64 218.715 109.32C218.815 109 218.962 108.71 219.155 108.45C219.355 108.19 219.605 107.983 219.905 107.83C220.205 107.677 220.555 107.6 220.955 107.6C221.295 107.6 221.582 107.653 221.815 107.76C222.048 107.86 222.235 107.98 222.375 108.12C222.522 108.26 222.628 108.39 222.695 108.51H222.745V107.7H223.695V112.69C223.695 113.43 223.478 114.017 223.045 114.45C222.618 114.883 222.008 115.1 221.215 115.1ZM221.135 112.19C221.488 112.19 221.782 112.1 222.015 111.92C222.255 111.733 222.432 111.497 222.545 111.21C222.665 110.923 222.725 110.62 222.725 110.3C222.725 109.98 222.665 109.677 222.545 109.39C222.432 109.097 222.255 108.86 222.015 108.68C221.782 108.5 221.488 108.41 221.135 108.41C220.782 108.41 220.485 108.5 220.245 108.68C220.005 108.86 219.825 109.097 219.705 109.39C219.592 109.677 219.535 109.98 219.535 110.3C219.535 110.62 219.592 110.923 219.705 111.21C219.825 111.497 220.005 111.733 220.245 111.92C220.485 112.1 220.782 112.19 221.135 112.19ZM225.091 113V107.7H226.041V108.47H226.081C226.134 108.37 226.217 108.253 226.331 108.12C226.444 107.98 226.597 107.86 226.791 107.76C226.991 107.653 227.241 107.6 227.541 107.6C227.934 107.6 228.264 107.697 228.531 107.89C228.804 108.077 229.007 108.33 229.141 108.65H229.151C229.297 108.357 229.504 108.11 229.771 107.91C230.044 107.703 230.397 107.6 230.831 107.6C231.404 107.6 231.844 107.797 232.151 108.19C232.464 108.577 232.621 109.077 232.621 109.69V113H231.671V109.74C231.671 109.347 231.577 109.03 231.391 108.79C231.204 108.543 230.934 108.42 230.581 108.42C230.274 108.42 230.027 108.503 229.841 108.67C229.661 108.837 229.531 109.043 229.451 109.29C229.371 109.537 229.331 109.783 229.331 110.03V113H228.381V109.74C228.381 109.347 228.287 109.03 228.101 108.79C227.921 108.543 227.651 108.42 227.291 108.42C226.984 108.42 226.737 108.503 226.551 108.67C226.371 108.837 226.241 109.047 226.161 109.3C226.081 109.547 226.041 109.79 226.041 110.03V113H225.091ZM236.316 107.6C236.65 107.6 236.93 107.653 237.156 107.76C237.383 107.867 237.566 107.993 237.706 108.14C237.846 108.28 237.953 108.413 238.026 108.54H238.086V107.7H239.036V113H238.086V112.16H238.026C237.953 112.287 237.846 112.423 237.706 112.57C237.566 112.717 237.383 112.843 237.156 112.95C236.93 113.05 236.65 113.1 236.316 113.1C235.916 113.1 235.566 113.023 235.266 112.87C234.966 112.71 234.716 112.5 234.516 112.24C234.316 111.973 234.166 111.677 234.066 111.35C233.966 111.023 233.916 110.69 233.916 110.35C233.916 110.01 233.966 109.677 234.066 109.35C234.166 109.023 234.316 108.73 234.516 108.47C234.716 108.203 234.966 107.993 235.266 107.84C235.566 107.68 235.916 107.6 236.316 107.6ZM236.476 108.41C236.123 108.41 235.826 108.507 235.586 108.7C235.346 108.887 235.166 109.127 235.046 109.42C234.933 109.713 234.876 110.023 234.876 110.35C234.876 110.67 234.933 110.98 235.046 111.28C235.166 111.573 235.346 111.817 235.586 112.01C235.826 112.197 236.123 112.29 236.476 112.29C236.83 112.29 237.123 112.197 237.356 112.01C237.596 111.817 237.773 111.573 237.886 111.28C238.006 110.98 238.066 110.67 238.066 110.35C238.066 110.023 238.006 109.713 237.886 109.42C237.773 109.127 237.596 108.887 237.356 108.7C237.123 108.507 236.83 108.41 236.476 108.41ZM242.837 113V105.6H245.687C246.16 105.6 246.564 105.687 246.897 105.86C247.237 106.027 247.497 106.253 247.677 106.54C247.857 106.82 247.947 107.127 247.947 107.46C247.947 107.827 247.88 108.123 247.747 108.35C247.614 108.577 247.464 108.75 247.297 108.87C247.13 108.983 246.997 109.06 246.897 109.1V109.16C247.057 109.207 247.24 109.297 247.447 109.43C247.66 109.557 247.844 109.74 247.997 109.98C248.15 110.22 248.227 110.533 248.227 110.92C248.227 111.26 248.144 111.59 247.977 111.91C247.81 112.23 247.547 112.493 247.187 112.7C246.827 112.9 246.35 113 245.757 113H242.837ZM245.647 106.45H243.817V108.81H245.647C245.967 108.81 246.224 108.753 246.417 108.64C246.617 108.527 246.76 108.38 246.847 108.2C246.94 108.013 246.987 107.823 246.987 107.63C246.987 107.43 246.94 107.24 246.847 107.06C246.76 106.88 246.617 106.733 246.417 106.62C246.224 106.507 245.967 106.45 245.647 106.45ZM245.727 109.6H243.817V112.15H245.727C246.094 112.15 246.387 112.09 246.607 111.97C246.827 111.843 246.987 111.683 247.087 111.49C247.194 111.29 247.247 111.083 247.247 110.87C247.247 110.657 247.194 110.453 247.087 110.26C246.987 110.067 246.827 109.91 246.607 109.79C246.387 109.663 246.094 109.6 245.727 109.6ZM251.775 107.6C252.109 107.6 252.389 107.653 252.615 107.76C252.842 107.867 253.025 107.993 253.165 108.14C253.305 108.28 253.412 108.413 253.485 108.54H253.545V107.7H254.495V113H253.545V112.16H253.485C253.412 112.287 253.305 112.423 253.165 112.57C253.025 112.717 252.842 112.843 252.615 112.95C252.389 113.05 252.109 113.1 251.775 113.1C251.375 113.1 251.025 113.023 250.725 112.87C250.425 112.71 250.175 112.5 249.975 112.24C249.775 111.973 249.625 111.677 249.525 111.35C249.425 111.023 249.375 110.69 249.375 110.35C249.375 110.01 249.425 109.677 249.525 109.35C249.625 109.023 249.775 108.73 249.975 108.47C250.175 108.203 250.425 107.993 250.725 107.84C251.025 107.68 251.375 107.6 251.775 107.6ZM251.935 108.41C251.582 108.41 251.285 108.507 251.045 108.7C250.805 108.887 250.625 109.127 250.505 109.42C250.392 109.713 250.335 110.023 250.335 110.35C250.335 110.67 250.392 110.98 250.505 111.28C250.625 111.573 250.805 111.817 251.045 112.01C251.285 112.197 251.582 112.29 251.935 112.29C252.289 112.29 252.582 112.197 252.815 112.01C253.055 111.817 253.232 111.573 253.345 111.28C253.465 110.98 253.525 110.67 253.525 110.35C253.525 110.023 253.465 109.713 253.345 109.42C253.232 109.127 253.055 108.887 252.815 108.7C252.582 108.507 252.289 108.41 251.935 108.41ZM257.831 113.1C257.425 113.1 257.088 113.043 256.821 112.93C256.561 112.817 256.355 112.677 256.201 112.51C256.048 112.337 255.935 112.167 255.861 112C255.788 111.827 255.741 111.683 255.721 111.57C255.701 111.457 255.691 111.4 255.691 111.4H256.651C256.651 111.4 256.661 111.447 256.681 111.54C256.708 111.627 256.758 111.73 256.831 111.85C256.911 111.963 257.031 112.067 257.191 112.16C257.358 112.247 257.578 112.29 257.851 112.29C258.165 112.29 258.408 112.217 258.581 112.07C258.755 111.917 258.841 111.73 258.841 111.51C258.841 111.317 258.771 111.163 258.631 111.05C258.498 110.937 258.305 110.85 258.051 110.79L257.331 110.62C257.065 110.553 256.815 110.463 256.581 110.35C256.348 110.237 256.158 110.083 256.011 109.89C255.871 109.69 255.801 109.443 255.801 109.15C255.801 108.697 255.971 108.327 256.311 108.04C256.651 107.747 257.095 107.6 257.641 107.6C258.008 107.6 258.311 107.653 258.551 107.76C258.791 107.86 258.981 107.987 259.121 108.14C259.268 108.293 259.375 108.447 259.441 108.6C259.515 108.753 259.561 108.883 259.581 108.99C259.601 109.09 259.611 109.14 259.611 109.14H258.691C258.691 109.14 258.681 109.103 258.661 109.03C258.641 108.95 258.595 108.863 258.521 108.77C258.455 108.67 258.351 108.583 258.211 108.51C258.071 108.43 257.885 108.39 257.651 108.39C257.331 108.39 257.098 108.463 256.951 108.61C256.805 108.757 256.731 108.917 256.731 109.09C256.731 109.257 256.798 109.393 256.931 109.5C257.071 109.6 257.251 109.677 257.471 109.73L258.201 109.9C258.655 110.007 259.028 110.183 259.321 110.43C259.621 110.67 259.771 111.017 259.771 111.47C259.771 111.763 259.695 112.037 259.541 112.29C259.388 112.537 259.168 112.733 258.881 112.88C258.595 113.027 258.245 113.1 257.831 113.1ZM261.59 106.69C261.41 106.69 261.26 106.63 261.14 106.51C261.026 106.39 260.97 106.247 260.97 106.08C260.97 105.907 261.026 105.76 261.14 105.64C261.26 105.52 261.41 105.46 261.59 105.46C261.763 105.46 261.91 105.52 262.03 105.64C262.15 105.76 262.21 105.907 262.21 106.08C262.21 106.247 262.15 106.39 262.03 106.51C261.91 106.63 261.763 106.69 261.59 106.69ZM261.12 113V107.7H262.07V113H261.12ZM266.116 113.1C265.683 113.1 265.303 113.023 264.976 112.87C264.65 112.71 264.376 112.5 264.156 112.24C263.943 111.973 263.78 111.677 263.666 111.35C263.56 111.023 263.506 110.69 263.506 110.35C263.506 110.01 263.56 109.68 263.666 109.36C263.773 109.033 263.933 108.737 264.146 108.47C264.366 108.203 264.64 107.993 264.966 107.84C265.293 107.68 265.676 107.6 266.116 107.6C266.543 107.6 266.896 107.663 267.176 107.79C267.456 107.917 267.68 108.077 267.846 108.27C268.02 108.457 268.146 108.647 268.226 108.84C268.313 109.027 268.37 109.183 268.396 109.31C268.423 109.437 268.436 109.5 268.436 109.5H267.516C267.516 109.5 267.5 109.447 267.466 109.34C267.433 109.227 267.37 109.1 267.276 108.96C267.183 108.82 267.043 108.697 266.856 108.59C266.67 108.477 266.423 108.42 266.116 108.42C265.75 108.42 265.44 108.513 265.186 108.7C264.94 108.88 264.753 109.117 264.626 109.41C264.506 109.703 264.446 110.017 264.446 110.35C264.446 110.683 264.506 110.997 264.626 111.29C264.753 111.583 264.94 111.823 265.186 112.01C265.44 112.19 265.75 112.28 266.116 112.28C266.423 112.28 266.67 112.227 266.856 112.12C267.043 112.007 267.183 111.88 267.276 111.74C267.37 111.6 267.433 111.477 267.466 111.37C267.5 111.257 267.516 111.2 267.516 111.2H268.436C268.436 111.2 268.423 111.263 268.396 111.39C268.37 111.517 268.313 111.677 268.226 111.87C268.146 112.057 268.02 112.247 267.846 112.44C267.68 112.627 267.456 112.783 267.176 112.91C266.896 113.037 266.543 113.1 266.116 113.1ZM271.679 113.1C271.272 113.1 270.936 113.043 270.669 112.93C270.409 112.817 270.202 112.677 270.049 112.51C269.896 112.337 269.782 112.167 269.709 112C269.636 111.827 269.589 111.683 269.569 111.57C269.549 111.457 269.539 111.4 269.539 111.4H270.499C270.499 111.4 270.509 111.447 270.529 111.54C270.556 111.627 270.606 111.73 270.679 111.85C270.759 111.963 270.879 112.067 271.039 112.16C271.206 112.247 271.426 112.29 271.699 112.29C272.012 112.29 272.256 112.217 272.429 112.07C272.602 111.917 272.689 111.73 272.689 111.51C272.689 111.317 272.619 111.163 272.479 111.05C272.346 110.937 272.152 110.85 271.899 110.79L271.179 110.62C270.912 110.553 270.662 110.463 270.429 110.35C270.196 110.237 270.006 110.083 269.859 109.89C269.719 109.69 269.649 109.443 269.649 109.15C269.649 108.697 269.819 108.327 270.159 108.04C270.499 107.747 270.942 107.6 271.489 107.6C271.856 107.6 272.159 107.653 272.399 107.76C272.639 107.86 272.829 107.987 272.969 108.14C273.116 108.293 273.222 108.447 273.289 108.6C273.362 108.753 273.409 108.883 273.429 108.99C273.449 109.09 273.459 109.14 273.459 109.14H272.539C272.539 109.14 272.529 109.103 272.509 109.03C272.489 108.95 272.442 108.863 272.369 108.77C272.302 108.67 272.199 108.583 272.059 108.51C271.919 108.43 271.732 108.39 271.499 108.39C271.179 108.39 270.946 108.463 270.799 108.61C270.652 108.757 270.579 108.917 270.579 109.09C270.579 109.257 270.646 109.393 270.779 109.5C270.919 109.6 271.099 109.677 271.319 109.73L272.049 109.9C272.502 110.007 272.876 110.183 273.169 110.43C273.469 110.67 273.619 111.017 273.619 111.47C273.619 111.763 273.542 112.037 273.389 112.29C273.236 112.537 273.016 112.733 272.729 112.88C272.442 113.027 272.092 113.1 271.679 113.1Z" fill="black"/>
<path fill-rule="evenodd" clip-rule="evenodd" d="M217.847 21.9342C212.867 21.3624 209 17.1328 209 12C209 6.47715 213.477 2 219 2C224.523 2 229 6.47715 229 12C229 17.1565 225.717 16.7325 222.914 16.3703C221.296 16.1614 219.839 15.9731 219.262 16.888C218.867 17.5136 219.294 18.2938 219.817 18.8168C220.47 19.4703 220.47 20.5297 219.817 21.1832C219.294 21.7062 218.582 22.0186 217.847 21.9342ZM218.085 6.99976C218.085 7.82818 217.413 8.49976 216.585 8.49976C215.757 8.49976 215.085 7.82818 215.085 6.99976C215.085 6.17133 215.757 5.49976 216.585 5.49976C217.413 5.49976 218.085 6.17133 218.085 6.99976ZM213.5 13C214.328 13 215 12.3284 215 11.5C215 10.6716 214.328 9.99998 213.5 9.99998C212.672 9.99998 212 10.6716 212 11.5C212 12.3284 212.672 13 213.5 13ZM224.5 13C225.328 13 226 12.3284 226 11.5C226 10.6716 225.328 9.99998 224.5 9.99998C223.672 9.99998 223 10.6716 223 11.5C223 12.3284 223.672 13 224.5 13ZM221.5 8.49998C222.328 8.49998 223 7.82841 223 6.99998C223 6.17156 222.328 5.49998 221.5 5.49998C220.672 5.49998 220 6.17156 220 6.99998C220 7.82841 220.672 8.49998 221.5 8.49998Z" fill="#1E6AD2"/>
<path d="M183.57 40V32.6H184.55V40H183.57ZM186.048 40V34.7H186.998V35.47H187.058C187.104 35.39 187.181 35.28 187.288 35.14C187.401 35 187.561 34.8767 187.768 34.77C187.974 34.6567 188.234 34.6 188.548 34.6C188.934 34.6 189.264 34.69 189.538 34.87C189.811 35.0433 190.018 35.28 190.158 35.58C190.304 35.88 190.378 36.2167 190.378 36.59V40H189.428V36.65C189.428 36.2967 189.328 36.0033 189.128 35.77C188.934 35.5367 188.651 35.42 188.278 35.42C187.978 35.42 187.734 35.4967 187.548 35.65C187.361 35.7967 187.221 35.9933 187.128 36.24C187.041 36.48 186.998 36.7367 186.998 37.01V40H186.048ZM193.835 40.1C193.288 40.1 192.875 39.96 192.595 39.68C192.321 39.4 192.185 39.0067 192.185 38.5V35.48H191.235V34.7H192.185V33.37H193.135V34.7H194.425V35.48H193.135V38.5C193.135 38.7667 193.208 38.9633 193.355 39.09C193.501 39.21 193.715 39.27 193.995 39.27C194.141 39.27 194.281 39.26 194.415 39.24C194.548 39.22 194.615 39.21 194.615 39.21V40.02C194.615 40.02 194.538 40.0333 194.385 40.06C194.231 40.0867 194.048 40.1 193.835 40.1ZM195.862 40V34.7H196.812V35.36H196.852C196.965 35.16 197.132 34.9833 197.352 34.83C197.572 34.6767 197.882 34.6 198.282 34.6C198.395 34.6 198.499 34.6067 198.592 34.62C198.685 34.6267 198.732 34.63 198.732 34.63V35.54C198.732 35.54 198.679 35.5367 198.572 35.53C198.472 35.5167 198.365 35.51 198.252 35.51C197.792 35.51 197.435 35.6433 197.182 35.91C196.935 36.17 196.812 36.5967 196.812 37.19V40H195.862ZM201.888 40.1C201.321 40.1 200.844 39.97 200.458 39.71C200.071 39.4433 199.778 39.1 199.578 38.68C199.378 38.26 199.278 37.8167 199.278 37.35C199.278 36.8767 199.378 36.4333 199.578 36.02C199.778 35.6 200.071 35.26 200.458 35C200.844 34.7333 201.321 34.6 201.888 34.6C202.454 34.6 202.931 34.7333 203.318 35C203.704 35.26 203.998 35.6 204.198 36.02C204.398 36.4333 204.498 36.8767 204.498 37.35C204.498 37.8167 204.398 38.26 204.198 38.68C203.998 39.1 203.704 39.4433 203.318 39.71C202.931 39.97 202.454 40.1 201.888 40.1ZM201.888 39.27C202.248 39.27 202.548 39.18 202.788 39C203.034 38.8133 203.218 38.5733 203.338 38.28C203.464 37.9867 203.528 37.6767 203.528 37.35C203.528 37.0167 203.464 36.7067 203.338 36.42C203.218 36.1267 203.034 35.89 202.788 35.71C202.548 35.5233 202.248 35.43 201.888 35.43C201.534 35.43 201.234 35.5233 200.988 35.71C200.741 35.89 200.554 36.1267 200.428 36.42C200.308 36.7067 200.248 37.0167 200.248 37.35C200.248 37.6767 200.308 37.9867 200.428 38.28C200.554 38.5733 200.741 38.8133 200.988 39C201.234 39.18 201.534 39.27 201.888 39.27ZM208.045 40.1C207.645 40.1 207.295 40.0233 206.995 39.87C206.695 39.71 206.445 39.5 206.245 39.24C206.045 38.9733 205.895 38.6767 205.795 38.35C205.695 38.0233 205.645 37.69 205.645 37.35C205.645 37.01 205.695 36.6767 205.795 36.35C205.895 36.0233 206.045 35.73 206.245 35.47C206.445 35.2033 206.695 34.9933 206.995 34.84C207.295 34.68 207.645 34.6 208.045 34.6C208.378 34.6 208.658 34.6533 208.885 34.76C209.112 34.8667 209.295 34.9933 209.435 35.14C209.575 35.28 209.682 35.4133 209.755 35.54H209.815V32.4H210.765V40H209.815V39.16H209.755C209.682 39.2867 209.575 39.4233 209.435 39.57C209.295 39.7167 209.112 39.8433 208.885 39.95C208.658 40.05 208.378 40.1 208.045 40.1ZM208.205 39.29C208.558 39.29 208.852 39.1967 209.085 39.01C209.325 38.8167 209.502 38.5733 209.615 38.28C209.735 37.98 209.795 37.67 209.795 37.35C209.795 37.0233 209.735 36.7133 209.615 36.42C209.502 36.1267 209.325 35.8867 209.085 35.7C208.852 35.5067 208.558 35.41 208.205 35.41C207.852 35.41 207.555 35.5067 207.315 35.7C207.075 35.8867 206.895 36.1267 206.775 36.42C206.662 36.7133 206.605 37.0233 206.605 37.35C206.605 37.67 206.662 37.98 206.775 38.28C206.895 38.5733 207.075 38.8167 207.315 39.01C207.555 39.1967 207.852 39.29 208.205 39.29ZM213.998 40.1C213.472 40.1 213.052 39.9367 212.738 39.61C212.425 39.2833 212.268 38.83 212.268 38.25V34.7H213.218V38.2C213.218 38.5467 213.312 38.8133 213.498 39C213.692 39.1867 213.945 39.28 214.258 39.28C214.578 39.28 214.835 39.1967 215.028 39.03C215.222 38.8633 215.362 38.65 215.448 38.39C215.535 38.13 215.578 37.8633 215.578 37.59V34.7H216.528V40H215.578V39.24H215.518C215.478 39.32 215.402 39.43 215.288 39.57C215.175 39.7033 215.015 39.8267 214.808 39.94C214.602 40.0467 214.332 40.1 213.998 40.1ZM220.442 40.1C220.009 40.1 219.629 40.0233 219.302 39.87C218.976 39.71 218.702 39.5 218.482 39.24C218.269 38.9733 218.106 38.6767 217.992 38.35C217.886 38.0233 217.832 37.69 217.832 37.35C217.832 37.01 217.886 36.68 217.992 36.36C218.099 36.0333 218.259 35.7367 218.472 35.47C218.692 35.2033 218.966 34.9933 219.292 34.84C219.619 34.68 220.002 34.6 220.442 34.6C220.869 34.6 221.222 34.6633 221.502 34.79C221.782 34.9167 222.006 35.0767 222.172 35.27C222.346 35.4567 222.472 35.6467 222.552 35.84C222.639 36.0267 222.696 36.1833 222.722 36.31C222.749 36.4367 222.762 36.5 222.762 36.5H221.842C221.842 36.5 221.826 36.4467 221.792 36.34C221.759 36.2267 221.696 36.1 221.602 35.96C221.509 35.82 221.369 35.6967 221.182 35.59C220.996 35.4767 220.749 35.42 220.442 35.42C220.076 35.42 219.766 35.5133 219.512 35.7C219.266 35.88 219.079 36.1167 218.952 36.41C218.832 36.7033 218.772 37.0167 218.772 37.35C218.772 37.6833 218.832 37.9967 218.952 38.29C219.079 38.5833 219.266 38.8233 219.512 39.01C219.766 39.19 220.076 39.28 220.442 39.28C220.749 39.28 220.996 39.2267 221.182 39.12C221.369 39.0067 221.509 38.88 221.602 38.74C221.696 38.6 221.759 38.4767 221.792 38.37C221.826 38.2567 221.842 38.2 221.842 38.2H222.762C222.762 38.2 222.749 38.2633 222.722 38.39C222.696 38.5167 222.639 38.6767 222.552 38.87C222.472 39.0567 222.346 39.2467 222.172 39.44C222.006 39.6267 221.782 39.7833 221.502 39.91C221.222 40.0367 220.869 40.1 220.442 40.1ZM226.315 40.1C225.769 40.1 225.355 39.96 225.075 39.68C224.802 39.4 224.665 39.0067 224.665 38.5V35.48H223.715V34.7H224.665V33.37H225.615V34.7H226.905V35.48H225.615V38.5C225.615 38.7667 225.689 38.9633 225.835 39.09C225.982 39.21 226.195 39.27 226.475 39.27C226.622 39.27 226.762 39.26 226.895 39.24C227.029 39.22 227.095 39.21 227.095 39.21V40.02C227.095 40.02 227.019 40.0333 226.865 40.06C226.712 40.0867 226.529 40.1 226.315 40.1ZM228.963 33.69C228.783 33.69 228.633 33.63 228.513 33.51C228.399 33.39 228.343 33.2467 228.343 33.08C228.343 32.9067 228.399 32.76 228.513 32.64C228.633 32.52 228.783 32.46 228.963 32.46C229.136 32.46 229.283 32.52 229.403 32.64C229.523 32.76 229.583 32.9067 229.583 33.08C229.583 33.2467 229.523 33.39 229.403 33.51C229.283 33.63 229.136 33.69 228.963 33.69ZM228.493 40V34.7H229.443V40H228.493ZM233.489 40.1C232.923 40.1 232.446 39.97 232.059 39.71C231.673 39.4433 231.379 39.1 231.179 38.68C230.979 38.26 230.879 37.8167 230.879 37.35C230.879 36.8767 230.979 36.4333 231.179 36.02C231.379 35.6 231.673 35.26 232.059 35C232.446 34.7333 232.923 34.6 233.489 34.6C234.056 34.6 234.533 34.7333 234.919 35C235.306 35.26 235.599 35.6 235.799 36.02C235.999 36.4333 236.099 36.8767 236.099 37.35C236.099 37.8167 235.999 38.26 235.799 38.68C235.599 39.1 235.306 39.4433 234.919 39.71C234.533 39.97 234.056 40.1 233.489 40.1ZM233.489 39.27C233.849 39.27 234.149 39.18 234.389 39C234.636 38.8133 234.819 38.5733 234.939 38.28C235.066 37.9867 235.129 37.6767 235.129 37.35C235.129 37.0167 235.066 36.7067 234.939 36.42C234.819 36.1267 234.636 35.89 234.389 35.71C234.149 35.5233 233.849 35.43 233.489 35.43C233.136 35.43 232.836 35.5233 232.589 35.71C232.343 35.89 232.156 36.1267 232.029 36.42C231.909 36.7067 231.849 37.0167 231.849 37.35C231.849 37.6767 231.909 37.9867 232.029 38.28C232.156 38.5733 232.343 38.8133 232.589 39C232.836 39.18 233.136 39.27 233.489 39.27ZM237.395 40V34.7H238.345V35.47H238.405C238.452 35.39 238.529 35.28 238.635 35.14C238.749 35 238.909 34.8767 239.115 34.77C239.322 34.6567 239.582 34.6 239.895 34.6C240.282 34.6 240.612 34.69 240.885 34.87C241.159 35.0433 241.365 35.28 241.505 35.58C241.652 35.88 241.725 36.2167 241.725 36.59V40H240.775V36.65C240.775 36.2967 240.675 36.0033 240.475 35.77C240.282 35.5367 239.999 35.42 239.625 35.42C239.325 35.42 239.082 35.4967 238.895 35.65C238.709 35.7967 238.569 35.9933 238.475 36.24C238.389 36.48 238.345 36.7367 238.345 37.01V40H237.395ZM247.682 40.1C247.136 40.1 246.722 39.96 246.442 39.68C246.169 39.4 246.032 39.0067 246.032 38.5V35.48H245.082V34.7H246.032V33.37H246.982V34.7H248.272V35.48H246.982V38.5C246.982 38.7667 247.056 38.9633 247.202 39.09C247.349 39.21 247.562 39.27 247.842 39.27C247.989 39.27 248.129 39.26 248.262 39.24C248.396 39.22 248.462 39.21 248.462 39.21V40.02C248.462 40.02 248.386 40.0333 248.232 40.06C248.079 40.0867 247.896 40.1 247.682 40.1ZM252.024 40.1C251.458 40.1 250.981 39.97 250.594 39.71C250.208 39.4433 249.914 39.1 249.714 38.68C249.514 38.26 249.414 37.8167 249.414 37.35C249.414 36.8767 249.514 36.4333 249.714 36.02C249.914 35.6 250.208 35.26 250.594 35C250.981 34.7333 251.458 34.6 252.024 34.6C252.591 34.6 253.068 34.7333 253.454 35C253.841 35.26 254.134 35.6 254.334 36.02C254.534 36.4333 254.634 36.8767 254.634 37.35C254.634 37.8167 254.534 38.26 254.334 38.68C254.134 39.1 253.841 39.4433 253.454 39.71C253.068 39.97 252.591 40.1 252.024 40.1ZM252.024 39.27C252.384 39.27 252.684 39.18 252.924 39C253.171 38.8133 253.354 38.5733 253.474 38.28C253.601 37.9867 253.664 37.6767 253.664 37.35C253.664 37.0167 253.601 36.7067 253.474 36.42C253.354 36.1267 253.171 35.89 252.924 35.71C252.684 35.5233 252.384 35.43 252.024 35.43C251.671 35.43 251.371 35.5233 251.124 35.71C250.878 35.89 250.691 36.1267 250.564 36.42C250.444 36.7067 250.384 37.0167 250.384 37.35C250.384 37.6767 250.444 37.9867 250.564 38.28C250.691 38.5733 250.878 38.8133 251.124 39C251.371 39.18 251.671 39.27 252.024 39.27ZM203.233 56V48.6H205.633C206.226 48.6 206.743 48.7067 207.183 48.92C207.623 49.1267 207.989 49.4067 208.283 49.76C208.576 50.1133 208.796 50.51 208.943 50.95C209.089 51.39 209.163 51.84 209.163 52.3C209.163 52.76 209.089 53.21 208.943 53.65C208.796 54.09 208.576 54.4867 208.283 54.84C207.989 55.1933 207.623 55.4767 207.183 55.69C206.743 55.8967 206.226 56 205.633 56H203.233ZM205.593 49.46H204.213V55.14H205.593C206.026 55.14 206.403 55.06 206.723 54.9C207.049 54.74 207.319 54.5267 207.533 54.26C207.753 53.9867 207.916 53.68 208.023 53.34C208.129 53 208.183 52.6533 208.183 52.3C208.183 51.9467 208.129 51.6 208.023 51.26C207.916 50.92 207.753 50.6167 207.533 50.35C207.319 50.0767 207.049 49.86 206.723 49.7C206.403 49.54 206.026 49.46 205.593 49.46ZM212.818 56.1C212.385 56.1 212.008 56.0233 211.688 55.87C211.375 55.71 211.115 55.4967 210.908 55.23C210.708 54.9633 210.558 54.67 210.458 54.35C210.358 54.0233 210.308 53.69 210.308 53.35C210.308 53.0167 210.355 52.6867 210.448 52.36C210.548 52.0333 210.698 51.7367 210.898 51.47C211.105 51.2033 211.361 50.9933 211.668 50.84C211.981 50.68 212.351 50.6 212.778 50.6C213.231 50.6 213.631 50.7033 213.978 50.91C214.325 51.1167 214.598 51.4233 214.798 51.83C214.998 52.2367 215.098 52.7467 215.098 53.36V53.64H211.268C211.288 53.94 211.358 54.2167 211.478 54.47C211.605 54.7167 211.781 54.9167 212.008 55.07C212.235 55.2167 212.505 55.29 212.818 55.29C213.091 55.29 213.311 55.2467 213.478 55.16C213.651 55.0667 213.788 54.96 213.888 54.84C213.988 54.72 214.055 54.6167 214.088 54.53C214.128 54.4367 214.148 54.39 214.148 54.39H215.038C215.038 54.39 215.021 54.45 214.988 54.57C214.955 54.6833 214.895 54.8233 214.808 54.99C214.721 55.1567 214.595 55.3267 214.428 55.5C214.261 55.6667 214.048 55.81 213.788 55.93C213.528 56.0433 213.205 56.1 212.818 56.1ZM211.278 52.9H214.168C214.155 52.5533 214.081 52.2733 213.948 52.06C213.815 51.84 213.645 51.6767 213.438 51.57C213.231 51.4633 213.011 51.41 212.778 51.41C212.358 51.41 212.015 51.5467 211.748 51.82C211.481 52.0867 211.325 52.4467 211.278 52.9ZM218.334 56.1C217.928 56.1 217.591 56.0433 217.324 55.93C217.064 55.8167 216.858 55.6767 216.704 55.51C216.551 55.3367 216.438 55.1667 216.364 55C216.291 54.8267 216.244 54.6833 216.224 54.57C216.204 54.4567 216.194 54.4 216.194 54.4H217.154C217.154 54.4 217.164 54.4467 217.184 54.54C217.211 54.6267 217.261 54.73 217.334 54.85C217.414 54.9633 217.534 55.0667 217.694 55.16C217.861 55.2467 218.081 55.29 218.354 55.29C218.668 55.29 218.911 55.2167 219.084 55.07C219.258 54.9167 219.344 54.73 219.344 54.51C219.344 54.3167 219.274 54.1633 219.134 54.05C219.001 53.9367 218.808 53.85 218.554 53.79L217.834 53.62C217.568 53.5533 217.318 53.4633 217.084 53.35C216.851 53.2367 216.661 53.0833 216.514 52.89C216.374 52.69 216.304 52.4433 216.304 52.15C216.304 51.6967 216.474 51.3267 216.814 51.04C217.154 50.7467 217.598 50.6 218.144 50.6C218.511 50.6 218.814 50.6533 219.054 50.76C219.294 50.86 219.484 50.9867 219.624 51.14C219.771 51.2933 219.878 51.4467 219.944 51.6C220.018 51.7533 220.064 51.8833 220.084 51.99C220.104 52.09 220.114 52.14 220.114 52.14H219.194C219.194 52.14 219.184 52.1033 219.164 52.03C219.144 51.95 219.098 51.8633 219.024 51.77C218.958 51.67 218.854 51.5833 218.714 51.51C218.574 51.43 218.388 51.39 218.154 51.39C217.834 51.39 217.601 51.4633 217.454 51.61C217.308 51.7567 217.234 51.9167 217.234 52.09C217.234 52.2567 217.301 52.3933 217.434 52.5C217.574 52.6 217.754 52.6767 217.974 52.73L218.704 52.9C219.158 53.0067 219.531 53.1833 219.824 53.43C220.124 53.67 220.274 54.0167 220.274 54.47C220.274 54.7633 220.198 55.0367 220.044 55.29C219.891 55.5367 219.671 55.7333 219.384 55.88C219.098 56.0267 218.748 56.1 218.334 56.1ZM222.092 49.69C221.912 49.69 221.762 49.63 221.642 49.51C221.529 49.39 221.472 49.2467 221.472 49.08C221.472 48.9067 221.529 48.76 221.642 48.64C221.762 48.52 221.912 48.46 222.092 48.46C222.266 48.46 222.412 48.52 222.532 48.64C222.652 48.76 222.712 48.9067 222.712 49.08C222.712 49.2467 222.652 49.39 222.532 49.51C222.412 49.63 222.266 49.69 222.092 49.69ZM221.622 56V50.7H222.572V56H221.622ZM226.659 58.1C226.219 58.1 225.853 58.04 225.559 57.92C225.266 57.8067 225.029 57.66 224.849 57.48C224.676 57.3067 224.546 57.1333 224.459 56.96C224.373 56.7867 224.316 56.64 224.289 56.52C224.263 56.4067 224.249 56.35 224.249 56.35H225.199C225.199 56.35 225.216 56.3967 225.249 56.49C225.283 56.5833 225.346 56.69 225.439 56.81C225.539 56.93 225.686 57.0367 225.879 57.13C226.073 57.2233 226.333 57.27 226.659 57.27C227.046 57.27 227.349 57.1933 227.569 57.04C227.789 56.8933 227.946 56.7 228.039 56.46C228.139 56.22 228.189 55.9667 228.189 55.7V55.09H228.139C228.073 55.2033 227.966 55.3333 227.819 55.48C227.679 55.62 227.493 55.7433 227.259 55.85C227.026 55.95 226.739 56 226.399 56C225.999 56 225.649 55.9233 225.349 55.77C225.049 55.6167 224.799 55.41 224.599 55.15C224.406 54.89 224.259 54.6 224.159 54.28C224.059 53.96 224.009 53.6333 224.009 53.3C224.009 52.9667 224.059 52.64 224.159 52.32C224.259 52 224.406 51.71 224.599 51.45C224.799 51.19 225.049 50.9833 225.349 50.83C225.649 50.6767 225.999 50.6 226.399 50.6C226.739 50.6 227.026 50.6533 227.259 50.76C227.493 50.86 227.679 50.98 227.819 51.12C227.966 51.26 228.073 51.39 228.139 51.51H228.189V50.7H229.139V55.69C229.139 56.43 228.923 57.0167 228.489 57.45C228.063 57.8833 227.453 58.1 226.659 58.1ZM226.579 55.19C226.933 55.19 227.226 55.1 227.459 54.92C227.699 54.7333 227.876 54.4967 227.989 54.21C228.109 53.9233 228.169 53.62 228.169 53.3C228.169 52.98 228.109 52.6767 227.989 52.39C227.876 52.0967 227.699 51.86 227.459 51.68C227.226 51.5 226.933 51.41 226.579 51.41C226.226 51.41 225.929 51.5 225.689 51.68C225.449 51.86 225.269 52.0967 225.149 52.39C225.036 52.6767 224.979 52.98 224.979 53.3C224.979 53.62 225.036 53.9233 225.149 54.21C225.269 54.4967 225.449 54.7333 225.689 54.92C225.929 55.1 226.226 55.19 226.579 55.19ZM230.535 56V50.7H231.485V51.47H231.545C231.592 51.39 231.668 51.28 231.775 51.14C231.888 51 232.048 50.8767 232.255 50.77C232.462 50.6567 232.722 50.6 233.035 50.6C233.422 50.6 233.752 50.69 234.025 50.87C234.298 51.0433 234.505 51.28 234.645 51.58C234.792 51.88 234.865 52.2167 234.865 52.59V56H233.915V52.65C233.915 52.2967 233.815 52.0033 233.615 51.77C233.422 51.5367 233.138 51.42 232.765 51.42C232.465 51.42 232.222 51.4967 232.035 51.65C231.848 51.7967 231.708 51.9933 231.615 52.24C231.528 52.48 231.485 52.7367 231.485 53.01V56H230.535Z" fill="black"/>
</svg>
