<svg width="44" height="44" viewBox="0 0 44 44" fill="none" xmlns="http://www.w3.org/2000/svg">
<path fill-rule="evenodd" clip-rule="evenodd" d="M19.3394 39.4675L19.7978 38.693C20.5325 37.4517 20.8999 36.8311 21.4851 36.4849C22.0702 36.1388 22.8336 36.1143 24.3602 36.0655C25.7917 36.0197 26.7538 35.8948 27.5764 35.5541C29.3083 34.8367 30.6843 33.4607 31.4017 31.7288C31.9398 30.4298 31.9398 28.7831 31.9398 25.4897V24.076C31.9398 19.4485 31.9398 17.1347 30.8982 15.435C30.3154 14.4839 29.5157 13.6843 28.5646 13.1015C26.8649 12.0599 24.5512 12.0599 19.9237 12.0599H15.6827C11.0552 12.0599 8.74148 12.0599 7.04177 13.1015C6.0907 13.6843 5.29106 14.4839 4.70824 15.435C3.66666 17.1347 3.66666 19.4485 3.66666 24.076V25.4897C3.66666 28.7831 3.66666 30.4298 4.2047 31.7288C4.92209 33.4607 6.2981 34.8367 8.03003 35.5541C8.85264 35.8948 9.8147 36.0197 11.2462 36.0655C12.7728 36.1143 13.5361 36.1388 14.1213 36.4849C14.7065 36.8311 15.0739 37.4517 15.8086 38.693L16.267 39.4675C16.95 40.6215 18.6563 40.6215 19.3394 39.4675ZM23.9879 26.1964C24.9639 26.1964 25.755 25.4053 25.755 24.4294C25.755 23.4535 24.9639 22.6623 23.9879 22.6623C23.012 22.6623 22.2209 23.4535 22.2209 24.4294C22.2209 25.4053 23.012 26.1964 23.9879 26.1964ZM19.5703 24.4294C19.5703 25.4053 18.7791 26.1964 17.8032 26.1964C16.8273 26.1964 16.0361 25.4053 16.0361 24.4294C16.0361 23.4535 16.8273 22.6623 17.8032 22.6623C18.7791 22.6623 19.5703 23.4535 19.5703 24.4294ZM11.6185 26.1964C12.5944 26.1964 13.3855 25.4053 13.3855 24.4294C13.3855 23.4535 12.5944 22.6623 11.6185 22.6623C10.6425 22.6623 9.8514 23.4535 9.8514 24.4294C9.8514 25.4053 10.6425 26.1964 11.6185 26.1964Z" fill="#237DF7"/>
<path d="M27.811 3.66667C29.9225 3.66666 31.6016 3.66665 32.9482 3.79468C34.3289 3.92597 35.4964 4.20116 36.5363 4.83846C37.6063 5.49413 38.5059 6.39373 39.1616 7.46369C39.7988 8.50366 40.074 9.6711 40.2053 11.0519C40.3333 12.3985 40.3333 14.0776 40.3333 16.189V17.6312C40.3333 19.1339 40.3333 20.3291 40.2672 21.2983C40.1995 22.2899 40.0583 23.1414 39.728 23.9387C38.921 25.8871 37.373 27.4351 35.4245 28.2422C35.3758 28.2624 35.3269 28.2819 35.2776 28.3007C35.0424 28.3906 34.841 28.4676 34.664 28.525C34.6898 27.6655 34.6898 26.6865 34.6898 25.5817V23.9459C34.6898 21.7429 34.6899 19.8976 34.5472 18.3973C34.3979 16.8267 34.073 15.3527 33.2429 13.9982C32.4334 12.6771 31.3226 11.5663 30.0015 10.7567C28.647 9.92665 27.173 9.60179 25.6024 9.45245C24.1021 9.3098 22.2567 9.30985 20.0538 9.3099H15.5526C14.0565 9.30986 12.7253 9.30983 11.5551 9.3545C11.6096 9.16558 11.6843 8.94903 11.7719 8.69484C11.9211 8.26252 12.1095 7.85365 12.3485 7.46369C13.0042 6.39372 13.9037 5.49413 14.9737 4.83846C16.0137 4.20116 17.1811 3.92597 18.5619 3.79468C19.9085 3.66665 21.5876 3.66666 23.6991 3.66667H27.811Z" fill="#237DF7"/>
</svg>
