<svg width="25" height="24" viewBox="0 0 25 24" fill="none" xmlns="http://www.w3.org/2000/svg">
<path d="M17.0647 2.67496C14.9074 1.47987 13.0498 0.266097 12.6703 0.0140051C12.6303 -0.00466836 12.5704 -0.00466836 12.5304 0.0140051C12.1509 0.266097 10.2933 1.47987 8.13605 2.67496C-10.3803 13.7016 11.0523 21.143 11.0523 21.143L11.2321 21.199C11.3919 22.3474 11.7914 24 11.7914 24H12.5904H13.3893C13.3893 24 13.7888 22.3567 13.9486 21.199L14.1284 21.1336C14.1484 21.143 35.5811 13.7016 17.0647 2.67496ZM12.5904 20.9842C12.5904 20.9842 11.6316 20.6014 11.3719 20.4053V20.3867L12.5304 8.37969C12.5304 8.34234 12.6503 8.34234 12.6503 8.37969L13.8088 20.3867V20.4053C13.5491 20.6014 12.5904 20.9842 12.5904 20.9842Z" fill="#00684A"/>
</svg>
