<svg width="24" height="24" viewBox="0 0 24 24" fill="none" xmlns="http://www.w3.org/2000/svg">
<path d="M0.375187 16.9609H1.14544V13.9191L2.33794 16.5709C2.47856 16.8919 2.67112 17.0053 3.04894 17.0053C3.42675 17.0053 3.612 16.8919 3.75262 16.5709L4.94513 13.9191V16.9609H5.71537V13.9241C5.71537 13.6279 5.59687 13.4844 5.35238 13.4106C4.76719 13.2279 4.37456 13.386 4.19681 13.7811L3.02663 16.3982L1.89356 13.7809C1.72312 13.386 1.32319 13.2279 0.738 13.4104C0.4935 13.4844 0.375 13.6277 0.375 13.9239V16.9609H0.375187ZM6.35606 14.4847H7.12613V16.1606C7.119 16.2516 7.15537 16.4653 7.57725 16.4721C7.7925 16.4754 9.23888 16.4721 9.25237 16.4721V14.4765H10.0243C10.0279 14.4765 10.0236 17.1979 10.0236 17.2091C10.0277 17.8804 9.19088 18.0261 8.805 18.0373H6.37275V17.5191C6.37687 17.5191 8.80331 17.5196 8.80931 17.5189C9.30525 17.4666 9.24656 17.2202 9.24638 17.1373V16.9352H7.60931C6.84769 16.9282 6.36244 16.5958 6.35625 16.2133C6.35588 16.1782 6.37294 14.5016 6.35606 14.4847Z" fill="#00618A"/>
<path d="M10.6182 16.9609H12.8329C13.0922 16.9609 13.3442 16.9067 13.5441 16.813C13.8773 16.66 14.0402 16.4526 14.0402 16.1807V15.6178C14.0402 15.3956 13.8552 15.1881 13.4922 15.0501C13.2996 14.9758 13.0624 14.9366 12.8327 14.9366H11.8994C11.5883 14.9366 11.4402 14.8429 11.4032 14.6355C11.3959 14.6108 11.3959 14.5911 11.3959 14.5663V14.2157C11.3959 14.196 11.3959 14.1761 11.4032 14.1516C11.4402 13.9935 11.5217 13.9491 11.7959 13.9243L11.8699 13.9195H14.0699V13.4061H11.907C11.596 13.4061 11.433 13.4258 11.2849 13.4702C10.8257 13.6135 10.6255 13.8405 10.6255 14.2356V14.6848C10.6255 15.0306 11.0183 15.3268 11.6774 15.396C11.7516 15.4007 11.8255 15.406 11.8995 15.406H12.6996C12.7292 15.406 12.7589 15.406 12.7812 15.4106C13.0257 15.4303 13.1292 15.475 13.2034 15.5636C13.2224 15.5812 13.2375 15.6026 13.2477 15.6264C13.2579 15.6502 13.2629 15.6759 13.2625 15.7018V16.1513C13.2625 16.2055 13.2255 16.2746 13.1515 16.3339C13.0849 16.3931 12.9737 16.4327 12.8256 16.4426L12.744 16.4475H10.6182V16.9609ZM18.8459 16.0673C18.8459 16.5955 19.2385 16.8917 20.0309 16.9511C20.1049 16.956 20.179 16.9609 20.253 16.9609H22.2604V16.4475H20.2384C19.7865 16.4475 19.6163 16.3339 19.6163 16.0622V13.4057H18.846V16.0673H18.8459ZM14.5319 16.0939V14.263C14.5319 13.798 14.8585 13.5158 15.5042 13.4267C15.573 13.4168 15.6425 13.4119 15.712 13.4119H17.1743C17.2485 13.4119 17.3153 13.4168 17.3894 13.4267C18.0351 13.5158 18.3619 13.7978 18.3619 14.263V16.0939C18.3619 16.4715 18.2232 16.6733 17.9035 16.8049L18.6625 17.4898H17.7679L17.154 16.9356L16.536 16.9748H15.712C15.5589 16.9738 15.4066 16.9522 15.2594 16.9105C14.7694 16.777 14.5319 16.5195 14.5319 16.0939ZM15.3632 16.0495C15.3632 16.0742 15.3705 16.0991 15.378 16.1288C15.4225 16.3416 15.6231 16.4603 15.9272 16.4603H16.627L15.9842 15.88H16.8788L17.4392 16.3862C17.5427 16.3309 17.6106 16.2469 17.6344 16.1387C17.6417 16.114 17.6417 16.0892 17.6417 16.0645V14.308C17.6417 14.2883 17.6417 14.2633 17.6344 14.2386C17.5898 14.0406 17.3894 13.927 17.0925 13.927H15.927C15.5858 13.927 15.363 14.0755 15.363 14.308V16.0495H15.3632Z" fill="#E48E00"/>
<path d="M22.9382 12.5535C22.4648 12.5406 22.1031 12.5846 21.7937 12.7149C21.7058 12.7521 21.5657 12.753 21.5515 12.863C21.5997 12.9139 21.6072 12.9894 21.6456 13.0517C21.7195 13.1711 21.8442 13.3312 21.9554 13.415C22.0767 13.5067 22.2019 13.605 22.3324 13.6845C22.564 13.8259 22.8227 13.9065 23.046 14.0479C23.1775 14.1315 23.308 14.2365 23.4364 14.3308C23.5 14.3771 23.5424 14.4497 23.625 14.4787V14.4654C23.5817 14.4103 23.5705 14.3345 23.5307 14.2768L23.3556 14.1017C23.1844 13.8744 22.9673 13.6751 22.7361 13.5094C22.552 13.3772 22.1399 13.1985 22.063 12.9842L22.0495 12.9709C22.18 12.956 22.333 12.9088 22.4534 12.8766C22.6559 12.8222 22.8368 12.8362 23.0459 12.7822L23.3286 12.7012V12.6476C23.223 12.5392 23.1475 12.3956 23.0324 12.2975C22.731 12.0409 22.4018 11.7844 22.063 11.5702C21.8751 11.4517 21.6428 11.3747 21.4435 11.2742C21.3767 11.2402 21.259 11.2228 21.2145 11.1664C21.1097 11.0331 21.0529 10.8641 20.9721 10.7087C20.7995 10.3729 20.6379 10.0316 20.4874 9.6853C20.3854 9.45186 20.3187 9.22161 20.1914 9.01217C19.5799 8.00699 18.9218 7.40024 17.9024 6.80399C17.6854 6.67705 17.4242 6.62717 17.1484 6.56174L16.704 6.53474C16.6139 6.49705 16.5197 6.38643 16.4348 6.3328C16.0969 6.11943 15.2307 5.65536 14.9805 6.26567C14.8227 6.6508 15.2168 7.02655 15.3576 7.22174C15.4564 7.35861 15.5832 7.51199 15.6539 7.66592C15.7004 7.76717 15.7082 7.86861 15.7482 7.97567C15.8459 8.2393 15.9312 8.52636 16.0577 8.76992C16.1217 8.8933 16.1924 9.02324 16.2732 9.13349C16.3227 9.20099 16.4078 9.23099 16.4211 9.33543C16.338 9.45168 16.3332 9.63243 16.2865 9.77961C16.0761 10.4432 16.1554 11.268 16.4616 11.759C16.5555 11.91 16.7768 12.2332 17.0809 12.1091C17.347 12.0007 17.2877 11.6649 17.3639 11.3685C17.3811 11.3015 17.3704 11.252 17.4042 11.207V11.2205L17.6466 11.7052C17.826 11.9942 18.1442 12.2959 18.414 12.4997C18.5539 12.6052 18.6642 12.788 18.8449 12.8497V12.8361H18.8316C18.7964 12.7815 18.7418 12.759 18.6968 12.7149C18.5914 12.6116 18.4742 12.4834 18.3872 12.3649C18.1418 12.0319 17.925 11.6672 17.7274 11.2877C17.6331 11.1065 17.5512 10.9067 17.4717 10.7222C17.4409 10.6511 17.4413 10.5435 17.3775 10.5069C17.2902 10.6419 17.1621 10.7512 17.0946 10.9108C16.987 11.1658 16.9731 11.4769 16.9332 11.7994L16.9062 11.8127C16.7185 11.7675 16.6527 11.5744 16.5829 11.4088C16.4067 10.9901 16.3739 10.3157 16.5291 9.83361C16.5692 9.70874 16.7505 9.31592 16.677 9.20061C16.642 9.08567 16.5263 9.0193 16.4618 8.93117C16.3772 8.81325 16.305 8.68689 16.2464 8.55411C16.102 8.22768 16.0347 7.86111 15.883 7.53093C15.8102 7.37305 15.6876 7.21349 15.5867 7.07324C15.4752 6.91761 15.3501 6.80324 15.2635 6.61536C15.2327 6.54861 15.1909 6.44155 15.2365 6.37292C15.2509 6.32661 15.2717 6.3073 15.3175 6.29211C15.3955 6.23192 15.613 6.31218 15.6944 6.34593C15.9104 6.43574 16.0905 6.52105 16.2735 6.64217C16.3613 6.70049 16.45 6.81299 16.5563 6.84411H16.6774C16.867 6.88761 17.0794 6.85742 17.2564 6.91124C17.5695 7.00649 17.85 7.15442 18.1047 7.3153C18.8807 7.80542 19.515 8.50292 19.9493 9.33505C20.019 9.46911 20.0494 9.5968 20.1107 9.73893C20.2349 10.0254 20.3912 10.3204 20.5146 10.6007C20.6378 10.8802 20.758 11.1624 20.9322 11.3951C21.0237 11.5174 21.3773 11.583 21.538 11.6509C21.6507 11.6985 21.8352 11.7482 21.9419 11.8123C22.1457 11.9353 22.3433 12.0817 22.5344 12.2164C22.6298 12.2842 22.9236 12.4318 22.9382 12.5535ZM16.9197 7.42367C16.838 7.42234 16.7566 7.43141 16.6772 7.45067V7.46399H16.6907C16.7378 7.56092 16.8209 7.62318 16.8792 7.70643L17.014 7.98918L17.0273 7.97586C17.1107 7.91717 17.1488 7.82324 17.1484 7.67961C17.1149 7.64436 17.11 7.6003 17.0811 7.55849C17.0429 7.50224 16.9682 7.47074 16.9197 7.42367Z" fill="#00618A"/>
</svg>
