<svg width="24" height="24" viewBox="0 0 24 24" fill="none" xmlns="http://www.w3.org/2000/svg">
<g id="iconDev/08">
<path id="Vector" d="M12.0002 24C11.6275 24 11.2796 23.9118 10.9566 23.7574L7.65224 22.0155C7.15539 21.7731 7.40382 21.6849 7.55289 21.6408C8.22375 21.4423 8.34789 21.3982 9.04355 21.0455C9.11809 21.0014 9.21756 21.0234 9.2921 21.0674L11.8263 22.4125C11.9256 22.4566 12.0498 22.4566 12.1243 22.4125L22.0378 17.3192C22.1365 17.2751 22.1872 17.1869 22.1872 17.0767V6.91226C22.1872 6.80197 22.1365 6.71378 22.0378 6.66969L12.1243 1.5985C12.025 1.55441 11.9007 1.55441 11.8263 1.5985L1.91309 6.66969C1.81362 6.71378 1.76401 6.82408 1.76401 6.91226V17.0767C1.76401 17.1649 1.81362 17.2751 1.91309 17.3192L4.62119 18.7082C6.08704 19.3698 7.00632 18.5981 7.00632 17.8263V7.79415C7.00632 7.66187 7.13046 7.52959 7.30447 7.52959H8.57151C8.72059 7.52959 8.86967 7.63988 8.86967 7.79415V17.8263C8.86967 19.5681 7.80132 20.5824 5.93796 20.5824C5.36658 20.5824 4.91934 20.5824 3.65217 20.0312L1.04342 18.7082C0.397497 18.3776 0 17.7601 0 17.0987V6.93426C0 6.27284 0.397497 5.65552 1.04342 5.32476L10.9566 0.231581C11.5778 -0.0771936 12.4225 -0.0771936 13.0436 0.231581L22.9572 5.32476C23.6026 5.65552 24 6.27284 24 6.93426V17.0987C24 17.7601 23.6026 18.3776 22.9572 18.7082L13.0436 23.8015C12.7455 23.9118 12.3729 24 12.0002 24Z" fill="#5FA04E"/>
<path id="Vector_2" d="M15.0943 17.0447C10.767 17.0447 9.87695 15.2681 9.87695 13.7581C9.87695 13.6248 10.0005 13.4916 10.1735 13.4916H11.4592C11.6076 13.4916 11.7313 13.5804 11.7313 13.7137C11.929 14.8906 12.4977 15.4679 15.1189 15.4679C17.1956 15.4679 18.086 15.0461 18.086 14.0468C18.086 13.4693 17.8379 13.0474 14.5993 12.7588C11.9043 12.5144 10.223 11.9815 10.223 10.0495C10.223 8.25079 11.9043 7.18481 14.7229 7.18481C17.8883 7.18481 19.4455 8.16197 19.6432 10.2938C19.6432 10.3604 19.6187 10.427 19.5696 10.4936C19.5192 10.538 19.4455 10.5825 19.3706 10.5825H18.0602C17.9374 10.5825 17.8134 10.4936 17.7888 10.3826C17.4916 9.16126 16.7252 8.76145 14.6983 8.76145C12.4236 8.76145 12.1515 9.47214 12.1515 10.0051C12.1515 10.6491 12.4729 10.849 15.5389 11.2043C18.5797 11.5596 20.0141 12.0703 20.0141 13.9801C20.0141 15.9343 18.2088 17.0447 15.0943 17.0447Z" fill="#5FA04E"/>
</g>
</svg>
