<svg width="25" height="24" viewBox="0 0 25 24" fill="none" xmlns="http://www.w3.org/2000/svg">
<path fill-rule="evenodd" clip-rule="evenodd" d="M11.5133 21.9342C6.53363 21.3624 2.6665 17.1328 2.6665 12C2.6665 6.47715 7.14366 2 12.6665 2C18.1894 2 22.6665 6.47715 22.6665 12C22.6665 17.1565 19.3838 16.7325 16.58 16.3703C14.9629 16.1614 13.5051 15.9731 12.9284 16.888C12.534 17.5136 12.9603 18.2938 13.4833 18.8168C14.1368 19.4703 14.1368 20.5297 13.4833 21.1832C12.9603 21.7062 12.2481 22.0186 11.5133 21.9342ZM11.7515 6.99976C11.7515 7.82818 11.0799 8.49976 10.2515 8.49976C9.42308 8.49976 8.75151 7.82818 8.75151 6.99976C8.75151 6.17133 9.42308 5.49976 10.2515 5.49976C11.0799 5.49976 11.7515 6.17133 11.7515 6.99976ZM7.1665 13C7.99493 13 8.6665 12.3284 8.6665 11.5C8.6665 10.6716 7.99493 9.99998 7.1665 9.99998C6.33808 9.99998 5.6665 10.6716 5.6665 11.5C5.6665 12.3284 6.33808 13 7.1665 13ZM18.1665 13C18.9949 13 19.6665 12.3284 19.6665 11.5C19.6665 10.6716 18.9949 9.99998 18.1665 9.99998C17.3381 9.99998 16.6665 10.6716 16.6665 11.5C16.6665 12.3284 17.3381 13 18.1665 13ZM15.1665 8.49998C15.9949 8.49998 16.6665 7.82841 16.6665 6.99998C16.6665 6.17156 15.9949 5.49998 15.1665 5.49998C14.3381 5.49998 13.6665 6.17156 13.6665 6.99998C13.6665 7.82841 14.3381 8.49998 15.1665 8.49998Z" fill="#1E6AD2"/>
</svg>
