<svg width="460" height="382" viewBox="0 0 460 382" fill="none" xmlns="http://www.w3.org/2000/svg">
<path d="M304.62 297.586C315.757 280.054 333.216 285.455 351.575 297.118C369.934 308.781 382.241 322.29 371.104 339.821C359.966 357.353 329.602 372.268 311.243 360.605C292.884 348.942 293.483 315.117 304.62 297.586Z" fill="#313131"/>
<circle cx="178.5" cy="178.5" r="178.5" fill="#FFF7DA"/>
<path d="M0 343C-3.8147e-06 338.5 27 339.5 27 339.5H443C459.5 339.5 466 345 449.5 356.5C433 368 433.406 346.036 366.5 365.5C339 373.5 320 362.985 288 360.5C236.5 356.5 247.5 369.5 207.5 373.5C151.845 379.065 3.8147e-06 347.5 0 343Z" fill="#D8C9C5"/>
<path d="M131.872 99.4919C116.536 86.1198 119.781 73.2414 129.934 61.598C140.086 49.9545 153.302 43.9552 168.638 57.3274C183.974 70.6995 195.622 98.3794 185.469 110.023C175.316 121.666 147.208 112.864 131.872 99.4919Z" fill="#313131"/>
<path fill-rule="evenodd" clip-rule="evenodd" d="M123 73.7829C124.221 71.7786 125.695 69.8165 127.368 67.8977C137.521 56.2543 151.149 50.6137 167.875 65.1989C177.559 73.6431 186.159 87.0155 189.714 99.0388C189.993 85.7167 180.569 67.6516 169.073 57.6271C153.737 44.2549 140.521 50.2543 130.368 61.8977C127.023 65.7342 124.428 69.7047 123 73.7829Z" fill="#545454"/>
<path d="M132.529 98.7382C125.01 92.1819 122.191 85.8833 122.344 79.9224C122.499 73.9126 125.678 68.0004 130.687 62.2552C135.696 56.5106 141.357 52.2851 147.536 51.0628C153.656 49.8524 160.489 51.5488 167.981 58.0811C175.508 64.6441 182.161 74.7575 185.669 84.6574C187.421 89.6031 188.372 94.449 188.279 98.7359C188.186 103.022 187.055 106.683 184.715 109.366C180.033 114.736 170.992 115.566 160.844 113.165C150.785 110.785 140.071 105.315 132.529 98.7382Z" stroke="black" stroke-width="2"/>
<path d="M292.011 63.7542C307.74 50.8469 319.903 56.1811 329.703 68.1231C339.502 80.0652 343.228 94.0929 327.499 107C311.77 119.907 282.543 126.806 272.743 114.864C262.943 102.922 276.282 76.6614 292.011 63.7542Z" fill="#313131"/>
<path fill-rule="evenodd" clip-rule="evenodd" d="M338.235 83.4923C337.259 81.358 336.027 79.2356 334.592 77.1327C325.884 64.3722 313.018 57.1625 294.686 69.6713C284.073 76.9133 273.955 89.1771 269.006 100.697C270.301 87.4348 281.792 70.6084 294.391 62.0111C311.198 50.5426 323.614 58.06 332.321 70.8205C335.19 75.025 337.298 79.2742 338.235 83.4923Z" fill="#545454"/>
<path d="M292.646 64.5272C300.358 58.1988 307.036 56.4626 312.89 57.6018C318.791 58.7503 324.094 62.8649 328.93 68.7575C333.764 74.6494 336.993 80.9319 337.175 87.2284C337.354 93.4638 334.548 99.9219 326.865 106.227C319.145 112.562 308.069 117.447 297.724 119.266C292.557 120.174 287.62 120.308 283.408 119.506C279.196 118.705 275.774 116.982 273.516 114.23C268.996 108.722 269.676 99.6685 273.725 90.0596C277.74 80.5337 284.91 70.875 292.646 64.5272Z" stroke="black" stroke-width="2"/>
<path d="M321 155.974C321 206.232 280.258 235 230 235C179.742 235 139 206.232 139 155.974C139 105.716 179.742 53 230 53C280.258 53 321 105.716 321 155.974Z" fill="#EAEAEA"/>
<path fill-rule="evenodd" clip-rule="evenodd" d="M253 233.773C269.111 225.166 283.094 210.306 292.745 188.86C306.73 157.785 308.396 120.053 297.991 91C312.337 109.839 321.056 133.615 321.056 156.864C321.056 199.196 292.15 226.283 253 233.773Z" fill="#DDD6D6"/>
<path d="M319.5 155.974C319.5 180.657 309.513 199.986 293.397 213.173C277.249 226.385 254.857 233.5 230 233.5C205.143 233.5 182.751 226.385 166.603 213.173C150.487 199.986 140.5 180.657 140.5 155.974C140.5 131.231 150.539 105.824 166.798 86.6091C183.056 67.396 205.417 54.5 230 54.5C254.583 54.5 276.944 67.396 293.202 86.6091C309.461 105.824 319.5 131.231 319.5 155.974Z" stroke="#272727" stroke-width="3"/>
<path d="M284.789 129.801C302.132 140.441 305.511 157.206 297.432 170.373C289.354 183.541 272.878 188.125 255.535 177.485C238.191 166.845 226.549 145.01 234.627 131.842C242.705 118.675 267.446 119.16 284.789 129.801Z" fill="#424242"/>
<path d="M299.692 165.684C304.841 153.285 300.533 138.777 284.948 129.215C272.965 121.08 240.5 115 233 135.246C241.054 123.533 263.563 121.603 280.896 129.258C298.598 137.076 304.524 152.077 299.692 165.684Z" fill="#606060"/>
<path d="M201.649 204.499C201.895 198.066 214.55 194.862 229.987 195.453C245.424 196.043 257.797 200.204 257.551 206.637C257.305 213.07 244.533 219.339 229.096 218.748C213.659 218.158 201.403 210.932 201.649 204.499Z" fill="#424242"/>
<path opacity="0.16" d="M207.5 204C212.293 200.39 217.499 200.017 226 200.5" stroke="white" stroke-width="5" stroke-linecap="round" stroke-linejoin="round"/>
<path d="M191.833 178.668C173.202 186.847 157.504 180.061 151.295 165.915C145.086 151.77 150.717 135.622 169.348 127.443C187.979 119.265 212.555 122.154 218.764 136.3C224.973 150.445 210.465 170.49 191.833 178.668Z" fill="#424242"/>
<path d="M284.527 130.227C293.111 135.492 298.199 142.248 300.162 149.274C302.125 156.298 300.978 163.638 297.006 170.112C293.035 176.585 287.011 180.934 279.86 182.367C272.707 183.8 264.379 182.324 255.796 177.059C247.205 171.788 240.025 163.741 235.998 155.394C231.965 147.033 231.141 138.481 235.053 132.104C238.965 125.727 246.963 122.586 256.244 122.393C265.509 122.201 275.936 124.956 284.527 130.227Z" stroke="black"/>
<path d="M191.632 178.211C182.412 182.258 173.961 182.585 167.07 180.191C160.181 177.797 154.805 172.668 151.753 165.714C148.7 158.76 148.564 151.332 151.465 144.641C154.367 137.948 160.329 131.949 169.549 127.901C178.778 123.85 189.483 122.541 198.636 123.994C207.804 125.449 215.299 129.65 218.306 136.501C221.313 143.351 219.332 151.712 214.197 159.445C209.071 167.166 200.862 174.159 191.632 178.211Z" stroke="black"/>
<path d="M185 156.5C194.5 151.5 196 152 207 151M251 149.5C257 149.5 261 150.5 267.5 156" stroke="white" stroke-width="7" stroke-linecap="round" stroke-linejoin="round"/>
<path d="M160 133C150.495 141.004 148.333 150.667 149 156.5C150 150.167 157 137 165 132C173 127 196.5 120 215.5 131C196.5 116 169.5 125 160 133Z" fill="white" fill-opacity="0.16"/>
<path d="M337.5 333C337.5 326.096 343.096 320.5 350 320.5H367C373.904 320.5 379.5 326.096 379.5 333V334C379.5 337.038 377.038 339.5 374 339.5H343C339.962 339.5 337.5 337.038 337.5 334V333Z" fill="#C4C4C4" stroke="black" stroke-width="3"/>
<line x1="359" y1="322" x2="359" y2="328" stroke="black" stroke-width="4" stroke-linecap="round"/>
<line x1="119.5" y1="339.5" x2="443.5" y2="339.5" stroke="black" stroke-width="3" stroke-linecap="round"/>
<line x1="84.5" y1="339.5" x2="106.5" y2="339.5" stroke="black" stroke-width="3" stroke-linecap="round"/>
<line x1="28.5" y1="339.5" x2="73.5" y2="339.5" stroke="black" stroke-width="3" stroke-linecap="round"/>
<path d="M79.0738 149.928C79.573 147.715 82.7892 147.911 83.0149 150.169L84.3701 163.728C84.4553 164.581 85.0748 165.285 85.9102 165.478L99.164 168.538C101.364 169.046 101.168 172.24 98.9231 172.476L85.3952 173.898C84.5425 173.988 83.8419 174.611 83.6533 175.447L80.6559 188.739C80.1567 190.953 76.9405 190.756 76.7148 188.498L75.3596 174.94C75.2744 174.087 74.6549 173.383 73.8195 173.19L60.5657 170.13C58.3662 169.622 58.5615 166.428 60.8066 166.192L74.3345 164.77C75.1872 164.68 75.8878 164.057 76.0764 163.221L79.0738 149.928Z" fill="#5F5F5F"/>
<path d="M396.664 148.131C398.621 146.984 400.675 149.467 399.179 151.174L390.202 161.425C389.637 162.07 389.546 163.003 389.976 163.745L396.793 175.516C397.924 177.469 395.458 179.508 393.752 178.029L383.474 169.12C382.826 168.558 381.892 168.472 381.153 168.906L369.397 175.795C367.439 176.943 365.386 174.459 366.881 172.752L375.858 162.502C376.423 161.857 376.514 160.923 376.085 160.181L369.267 148.411C368.136 146.457 370.602 144.418 372.308 145.897L382.586 154.806C383.234 155.368 384.168 155.454 384.908 155.021L396.664 148.131Z" fill="#5F5F5F"/>
<path d="M94.7756 219.451C94.1572 218.414 95.5646 217.372 96.3753 218.267L100.423 222.732C100.742 223.084 101.265 223.163 101.674 222.921L106.906 219.823C107.942 219.21 108.979 220.611 108.09 221.422L103.598 225.521C103.247 225.841 103.169 226.364 103.413 226.772L106.5 231.948C107.119 232.985 105.711 234.026 104.901 233.132L100.852 228.666C100.533 228.314 100.011 228.235 99.6021 228.477L94.3697 231.576C93.3343 232.189 92.2973 230.787 93.1862 229.977L97.6783 225.878C98.0292 225.558 98.1065 225.035 97.8631 224.627L94.7756 219.451Z" fill="#5F5F5F"/>
<path d="M336.108 178.511C336.295 177.792 337.365 177.989 337.285 178.728L336.357 187.235C336.324 187.53 336.513 187.805 336.8 187.88L345.064 190.055C345.781 190.244 345.585 191.31 344.847 191.232L336.351 190.325C336.056 190.294 335.782 190.483 335.707 190.77L333.548 199.051C333.361 199.771 332.291 199.574 332.371 198.835L333.299 190.328C333.332 190.033 333.143 189.758 332.856 189.683L324.592 187.508C323.875 187.319 324.071 186.253 324.809 186.331L333.305 187.238C333.6 187.269 333.874 187.08 333.949 186.792L336.108 178.511Z" fill="#5F5F5F"/>
<rect x="129.5" y="213.5" width="201" height="126" rx="12.5" fill="#C4C4C4" stroke="black" stroke-width="3"/>
<path d="M309.5 214.5C297.5 286.1 211.833 327.333 170.5 339H320C330 339 331.167 329 330.5 324C330.333 296.667 330.1 238.7 330.5 225.5C330.9 212.3 316.667 212.667 309.5 214.5Z" fill="#B5B5B5"/>
<rect x="129.5" y="213.5" width="201" height="126" rx="12.5" stroke="black" stroke-width="3"/>
<g style="mix-blend-mode:overlay">
<path d="M184 291V272.5H186.45V288.85H195.975V291H184ZM204.225 277.5C205.058 277.5 205.758 277.633 206.325 277.9C206.891 278.167 207.35 278.483 207.7 278.85C208.05 279.2 208.316 279.533 208.5 279.85H208.65V277.75H211.025V291H208.65V288.9H208.5C208.316 289.217 208.05 289.558 207.7 289.925C207.35 290.292 206.891 290.608 206.325 290.875C205.758 291.125 205.058 291.25 204.225 291.25C203.225 291.25 202.35 291.058 201.6 290.675C200.85 290.275 200.225 289.75 199.725 289.1C199.225 288.433 198.85 287.692 198.6 286.875C198.35 286.058 198.225 285.225 198.225 284.375C198.225 283.525 198.35 282.692 198.6 281.875C198.85 281.058 199.225 280.325 199.725 279.675C200.225 279.008 200.85 278.483 201.6 278.1C202.35 277.7 203.225 277.5 204.225 277.5ZM204.625 279.525C203.741 279.525 203 279.767 202.4 280.25C201.8 280.717 201.35 281.317 201.05 282.05C200.766 282.783 200.625 283.558 200.625 284.375C200.625 285.175 200.766 285.95 201.05 286.7C201.35 287.433 201.8 288.042 202.4 288.525C203 288.992 203.741 289.225 204.625 289.225C205.508 289.225 206.241 288.992 206.825 288.525C207.425 288.042 207.866 287.433 208.15 286.7C208.45 285.95 208.6 285.175 208.6 284.375C208.6 283.558 208.45 282.783 208.15 282.05C207.866 281.317 207.425 280.717 206.825 280.25C206.241 279.767 205.508 279.525 204.625 279.525ZM204.775 296.675C204.308 296.675 203.916 296.508 203.6 296.175C203.3 295.858 203.15 295.483 203.15 295.05C203.15 294.6 203.3 294.217 203.6 293.9C203.916 293.583 204.308 293.425 204.775 293.425C205.241 293.425 205.625 293.583 205.925 293.9C206.241 294.217 206.4 294.6 206.4 295.05C206.4 295.5 206.241 295.883 205.925 296.2C205.625 296.517 205.241 296.675 204.775 296.675ZM216.233 275.225C215.783 275.225 215.408 275.075 215.108 274.775C214.824 274.475 214.683 274.117 214.683 273.7C214.683 273.267 214.824 272.9 215.108 272.6C215.408 272.3 215.783 272.15 216.233 272.15C216.666 272.15 217.033 272.3 217.333 272.6C217.633 272.9 217.783 273.267 217.783 273.7C217.783 274.117 217.633 274.475 217.333 274.775C217.033 275.075 216.666 275.225 216.233 275.225ZM215.058 291V277.75H217.433V291H215.058ZM237.211 295.875V288.9H237.061C236.878 289.217 236.611 289.558 236.261 289.925C235.911 290.292 235.453 290.608 234.886 290.875C234.319 291.125 233.619 291.25 232.786 291.25C231.786 291.25 230.911 291.058 230.161 290.675C229.411 290.275 228.786 289.75 228.286 289.1C227.786 288.433 227.411 287.692 227.161 286.875C226.911 286.058 226.786 285.225 226.786 284.375C226.786 283.525 226.911 282.692 227.161 281.875C227.411 281.058 227.786 280.325 228.286 279.675C228.786 279.008 229.411 278.483 230.161 278.1C230.911 277.7 231.786 277.5 232.786 277.5C233.619 277.5 234.319 277.633 234.886 277.9C235.453 278.167 235.911 278.483 236.261 278.85C236.611 279.2 236.878 279.533 237.061 279.85H237.211V277.75H239.586V295.875H237.211ZM233.186 289.225C234.069 289.225 234.803 288.992 235.386 288.525C235.986 288.042 236.428 287.433 236.711 286.7C237.011 285.95 237.161 285.175 237.161 284.375C237.161 283.558 237.011 282.783 236.711 282.05C236.428 281.317 235.986 280.717 235.386 280.25C234.803 279.767 234.069 279.525 233.186 279.525C232.303 279.525 231.561 279.767 230.961 280.25C230.361 280.717 229.911 281.317 229.611 282.05C229.328 282.783 229.186 283.558 229.186 284.375C229.186 285.175 229.328 285.95 229.611 286.7C229.911 287.433 230.361 288.042 230.961 288.525C231.561 288.992 232.303 289.225 233.186 289.225ZM247.67 291.25C246.353 291.25 245.303 290.842 244.52 290.025C243.736 289.208 243.345 288.075 243.345 286.625V277.75H245.72V286.5C245.72 287.367 245.953 288.033 246.42 288.5C246.903 288.967 247.536 289.2 248.32 289.2C249.12 289.2 249.761 288.992 250.245 288.575C250.728 288.158 251.078 287.625 251.295 286.975C251.511 286.325 251.62 285.658 251.62 284.975V277.75H253.995V291H251.62V289.1H251.47C251.37 289.3 251.178 289.575 250.895 289.925C250.611 290.258 250.211 290.567 249.695 290.85C249.178 291.117 248.503 291.25 247.67 291.25ZM259.53 275.875L262.555 271.7H264.58L267.605 275.875H265.455L263.555 273.2L261.68 275.875H259.53ZM263.655 291.25C262.572 291.25 261.63 291.058 260.83 290.675C260.047 290.275 259.397 289.742 258.88 289.075C258.38 288.408 258.005 287.675 257.755 286.875C257.505 286.058 257.38 285.225 257.38 284.375C257.38 283.542 257.497 282.717 257.73 281.9C257.98 281.083 258.355 280.342 258.855 279.675C259.372 279.008 260.013 278.483 260.78 278.1C261.563 277.7 262.488 277.5 263.555 277.5C264.688 277.5 265.688 277.758 266.555 278.275C267.422 278.792 268.105 279.558 268.605 280.575C269.105 281.592 269.355 282.867 269.355 284.4V285.1H259.78C259.83 285.85 260.005 286.542 260.305 287.175C260.622 287.792 261.063 288.292 261.63 288.675C262.197 289.042 262.872 289.225 263.655 289.225C264.338 289.225 264.888 289.117 265.305 288.9C265.738 288.667 266.08 288.4 266.33 288.1C266.58 287.8 266.747 287.542 266.83 287.325C266.93 287.092 266.98 286.975 266.98 286.975H269.205C269.205 286.975 269.163 287.125 269.08 287.425C268.997 287.708 268.847 288.058 268.63 288.475C268.413 288.892 268.097 289.317 267.68 289.75C267.263 290.167 266.73 290.525 266.08 290.825C265.43 291.108 264.622 291.25 263.655 291.25ZM259.805 283.25H267.03C266.997 282.383 266.813 281.683 266.48 281.15C266.147 280.6 265.722 280.192 265.205 279.925C264.688 279.658 264.138 279.525 263.555 279.525C262.505 279.525 261.647 279.867 260.98 280.55C260.313 281.217 259.922 282.117 259.805 283.25ZM272.739 291V277.75H275.114V279.675H275.264C275.381 279.475 275.573 279.2 275.839 278.85C276.123 278.5 276.523 278.192 277.039 277.925C277.556 277.642 278.206 277.5 278.989 277.5C279.956 277.5 280.781 277.725 281.464 278.175C282.148 278.608 282.664 279.2 283.014 279.95C283.381 280.7 283.564 281.542 283.564 282.475V291H281.189V282.625C281.189 281.742 280.939 281.008 280.439 280.425C279.956 279.842 279.248 279.55 278.314 279.55C277.564 279.55 276.956 279.742 276.489 280.125C276.023 280.492 275.673 280.983 275.439 281.6C275.223 282.2 275.114 282.842 275.114 283.525V291H272.739Z" fill="black"/>
</g>
</svg>
