<svg width="44" height="44" viewBox="0 0 44 44" fill="none" xmlns="http://www.w3.org/2000/svg">
<path fill-rule="evenodd" clip-rule="evenodd" d="M29.6236 15.2068C29.6236 19.4439 26.1894 22.8414 21.9065 22.8414C17.6237 22.8414 14.1895 19.4439 14.1895 15.2068C14.1895 10.968 17.6237 7.57378 21.9065 7.57378C26.1894 7.57378 29.6236 10.968 29.6236 15.2068ZM21.9065 36.4262C15.616 36.4262 10.2448 35.4453 10.2448 31.5216C10.2448 27.5963 15.5816 26.5797 21.9065 26.5797C28.197 26.5797 33.5683 27.5606 33.5683 31.4859C33.5683 35.4096 28.2315 36.4262 21.9065 36.4262ZM32.9213 15.3445C32.9213 17.5045 32.2663 19.5167 31.1172 21.1894C30.9991 21.3616 31.1041 21.5938 31.3126 21.6296C31.5999 21.6783 31.897 21.7059 32.199 21.714C35.2113 21.792 37.915 19.874 38.6619 16.9864C39.7683 12.6973 36.5197 8.8467 32.3829 8.8467C31.9331 8.8467 31.503 8.8938 31.0844 8.97825C31.027 8.99124 30.9662 9.01723 30.9334 9.06757C30.894 9.12929 30.9235 9.21211 30.9629 9.26571C32.2056 10.9888 32.9213 13.0903 32.9213 15.3445ZM37.9101 24.7276C39.9341 25.119 41.2654 25.918 41.817 27.0792C42.2832 28.0325 42.2832 29.1385 41.817 30.0902C40.9732 31.8913 38.2532 32.4694 37.196 32.6188C36.9777 32.6513 36.802 32.4645 36.825 32.2485C37.3651 27.2579 33.0691 24.8916 31.9577 24.3476C31.9101 24.3232 31.9003 24.2859 31.9052 24.2631C31.9085 24.2469 31.9282 24.2209 31.9643 24.216C34.3692 24.1722 36.9547 24.497 37.9101 24.7276ZM11.8014 21.7139C12.1034 21.7057 12.3989 21.6797 12.6878 21.6294C12.8963 21.5937 13.0014 21.3614 12.8832 21.1893C11.7341 19.5165 11.0791 17.5043 11.0791 15.3443C11.0791 13.0902 11.7948 10.9887 13.0375 9.26554C13.0769 9.21195 13.1048 9.12912 13.067 9.06741C13.0342 9.01869 12.9718 8.99108 12.916 8.97809C12.4957 8.89364 12.0657 8.84654 11.6159 8.84654C7.4791 8.84654 4.23043 12.6972 5.33849 16.9863C6.08541 19.8738 8.78908 21.7918 11.8014 21.7139ZM12.0944 24.2621C12.0993 24.2865 12.0895 24.3222 12.0435 24.3482C10.9305 24.8923 6.63452 27.2585 7.17459 32.2476C7.19757 32.4652 7.02357 32.6503 6.80524 32.6195C5.74807 32.4701 3.02798 31.8919 2.18421 30.0908C1.71637 29.1375 1.71637 28.0332 2.18421 27.0799C2.73578 25.9187 4.06546 25.1196 6.08951 24.7266C7.04655 24.4976 9.63038 24.1728 12.0369 24.2167C12.073 24.2215 12.0911 24.2475 12.0944 24.2621Z" fill="#24A148"/>
</svg>
