<svg width="25" height="24" viewBox="0 0 25 24" fill="none" xmlns="http://www.w3.org/2000/svg">
<path d="M4.6499 0H20.1499C22.4999 0 24.3999 1.94872 24.3999 4.35897V19.641C24.3999 22.0513 22.4999 24 20.1499 24H4.6499C2.2999 24 0.399902 22.0513 0.399902 19.641V4.35897C0.399902 1.94872 2.2999 0 4.6499 0Z" fill="#001E36"/>
<path d="M5.7998 16.8307V6.2769C5.7998 6.2051 5.8298 6.16408 5.8998 6.16408C6.0698 6.16408 6.2298 6.16408 6.4598 6.15382C6.6998 6.14356 6.9498 6.14356 7.2198 6.13331C7.4898 6.12305 7.7798 6.12305 8.0898 6.1128C8.3998 6.10254 8.6998 6.10254 8.9998 6.10254C9.8198 6.10254 10.4998 6.2051 11.0598 6.42049C11.5598 6.59485 12.0198 6.88203 12.3998 7.26151C12.7198 7.58972 12.9698 7.98972 13.1298 8.43074C13.2798 8.86151 13.3598 9.30254 13.3598 9.76408C13.3598 10.6461 13.1598 11.3743 12.7598 11.9487C12.3598 12.5231 11.7998 12.9538 11.1498 13.2C10.4698 13.4564 9.7198 13.5487 8.8998 13.5487C8.6598 13.5487 8.4998 13.5487 8.3998 13.5384C8.2998 13.5282 8.1598 13.5282 7.9698 13.5282V16.8205C7.9798 16.8923 7.9298 16.9538 7.8598 16.9641C7.8498 16.9641 7.8398 16.9641 7.8198 16.9641H5.9198C5.8398 16.9641 5.7998 16.9231 5.7998 16.8307ZM7.9798 8.14356V11.5897C8.11981 11.6 8.2498 11.6102 8.3698 11.6102H8.8998C9.2898 11.6102 9.6798 11.5487 10.0498 11.4256C10.3698 11.3333 10.6498 11.1384 10.8698 10.882C11.0798 10.6256 11.1798 10.2769 11.1798 9.82562C11.1898 9.50767 11.1098 9.18972 10.9498 8.9128C10.7798 8.64613 10.5398 8.441 10.2498 8.32818C9.8798 8.17433 9.4798 8.1128 9.0698 8.12305C8.8098 8.12305 8.5798 8.12305 8.3898 8.13331C8.1898 8.12305 8.0498 8.13331 7.9798 8.14356Z" fill="#31A8FF"/>
<path d="M19.5995 10.9639C19.2995 10.7998 18.9795 10.687 18.6395 10.6152C18.2695 10.5332 17.8995 10.4819 17.5195 10.4819C17.3195 10.4716 17.1095 10.5024 16.9195 10.5537C16.7895 10.5845 16.6795 10.6563 16.6095 10.7588C16.5595 10.8409 16.5295 10.9434 16.5295 11.0357C16.5295 11.128 16.5695 11.2204 16.6295 11.3024C16.7195 11.4152 16.8395 11.5075 16.9695 11.5793C17.1995 11.7024 17.4395 11.8152 17.6795 11.9178C18.2195 12.1024 18.7395 12.3588 19.2195 12.6665C19.5495 12.8819 19.8195 13.1691 20.0095 13.5178C20.1695 13.846 20.2495 14.205 20.2395 14.5742C20.2495 15.0563 20.1095 15.5383 19.8495 15.9383C19.5695 16.3486 19.1795 16.6665 18.7295 16.8511C18.2395 17.0665 17.6395 17.1793 16.9195 17.1793C16.4595 17.1793 16.0095 17.1383 15.5595 17.046C15.2095 16.9845 14.8595 16.8716 14.5395 16.7178C14.4695 16.6768 14.4195 16.605 14.4295 16.5229V14.7383C14.4295 14.7075 14.4395 14.6665 14.4695 14.646C14.4995 14.6255 14.5295 14.6357 14.5595 14.6563C14.9495 14.8921 15.3595 15.0563 15.7995 15.1588C16.1795 15.2614 16.5795 15.3127 16.9795 15.3127C17.3595 15.3127 17.6295 15.2614 17.8095 15.1691C17.9695 15.0973 18.0795 14.9229 18.0795 14.7383C18.0795 14.5947 17.9995 14.4614 17.8395 14.328C17.6795 14.1947 17.3495 14.0409 16.8595 13.846C16.3495 13.6614 15.8795 13.4152 15.4395 13.1075C15.1295 12.8819 14.8695 12.5845 14.6795 12.2357C14.5195 11.9075 14.4395 11.5486 14.4495 11.1896C14.4495 10.7486 14.5695 10.328 14.7895 9.94856C15.0395 9.5383 15.4095 9.2101 15.8395 9.00497C16.3095 8.75882 16.8995 8.646 17.6095 8.646C18.0195 8.646 18.4395 8.67676 18.8495 8.7383C19.1495 8.77933 19.4395 8.86138 19.7095 8.9742C19.7495 8.98446 19.7895 9.02548 19.8095 9.06651C19.8195 9.10753 19.8295 9.14856 19.8295 9.18959V10.8614C19.8295 10.9024 19.8095 10.9434 19.7795 10.9639C19.6895 10.9845 19.6395 10.9845 19.5995 10.9639Z" fill="#31A8FF"/>
</svg>
