<svg width="25" height="24" viewBox="0 0 25 24" fill="none" xmlns="http://www.w3.org/2000/svg">
<rect width="24" height="24" transform="translate(0.666504)" fill="white"/>
<path d="M22.6666 5.36519L23.4166 5.36519V5.36519H22.6666ZM10.1211 13.3029L10.6503 12.7714L10.1211 13.3029ZM10.1211 8.54376L10.6503 9.07521L10.1211 8.54376ZM16.0951 14.4926L15.5659 13.9612L16.0951 14.4926ZM11.3159 14.4926L10.7867 15.0241L11.3159 14.4926ZM21.1819 9.42733L21.7111 9.95878L21.1819 9.42733ZM22.6666 5.85801L21.9166 5.85801V5.85801H22.6666ZM15.2078 3.47846L14.6786 2.94701V2.94701L15.2078 3.47846ZM14.157 16.0931L13.898 15.3892L14.157 16.0931ZM8.52881 10.4352L9.22454 10.7153L8.52881 10.4352ZM20.6527 8.89589L15.5659 13.9612L16.6244 15.0241L21.7111 9.95878L20.6527 8.89589ZM11.8451 13.9612L10.6503 12.7714L9.5919 13.8343L10.7867 15.0241L11.8451 13.9612ZM10.6503 9.07521L15.737 4.00991L14.6786 2.94701L9.5919 8.01231L10.6503 9.07521ZM18.7923 2.75H19.2872V1.25H18.7923V2.75ZM21.9166 5.36519L21.9166 5.85801L23.4166 5.85802L23.4166 5.36519L21.9166 5.36519ZM19.2872 2.75C20.1048 2.75 20.6429 2.75158 21.0417 2.80497C21.4192 2.85552 21.5577 2.93987 21.6425 3.02427L22.7009 1.96137C22.2907 1.55295 21.7835 1.3909 21.2408 1.31824C20.7193 1.24842 20.0626 1.25 19.2872 1.25V2.75ZM23.4166 5.36519C23.4166 4.5933 23.4182 3.93861 23.348 3.41858C23.2748 2.87664 23.1115 2.37023 22.7009 1.96137L21.6425 3.02427C21.7268 3.10823 21.8109 3.24483 21.8615 3.61928C21.915 4.01563 21.9166 4.55072 21.9166 5.36519H23.4166ZM10.6503 12.7714C10.072 12.1956 9.69296 11.8158 9.44916 11.4976C9.21852 11.1966 9.1814 11.0409 9.1814 10.9233H7.6814C7.6814 11.5027 7.92589 11.9759 8.25848 12.4099C8.57792 12.8269 9.04371 13.2884 9.5919 13.8343L10.6503 12.7714ZM10.7867 15.0241C11.3349 15.57 11.7984 16.0338 12.217 16.3518C12.653 16.683 13.1266 16.9252 13.7055 16.9252V15.4252C13.5845 15.4252 13.4266 15.387 13.1244 15.1574C12.8048 14.9145 12.4234 14.537 11.8451 13.9612L10.7867 15.0241ZM21.7111 9.95878C22.4001 9.27266 22.9024 8.79124 23.1661 8.15734L21.7812 7.58125C21.659 7.87498 21.4288 8.12304 20.6527 8.89589L21.7111 9.95878ZM21.9166 5.85801C21.9166 6.95105 21.9032 7.28785 21.7812 7.58125L23.1661 8.15734C23.43 7.5231 23.4166 6.82826 23.4166 5.85801H21.9166ZM15.737 4.00991C16.5128 3.23743 16.7623 3.00759 17.0584 2.88546L16.4865 1.49878C15.851 1.76089 15.368 2.26053 14.6786 2.94701L15.737 4.00991ZM18.7923 1.25C17.8172 1.25 17.1216 1.23682 16.4865 1.49878L17.0584 2.88546C17.3549 2.76318 17.6952 2.75 18.7923 2.75V1.25ZM15.5659 13.9612C15.1202 14.4051 14.7883 14.735 14.5039 14.9802C14.2183 15.2266 14.0343 15.3391 13.898 15.3892L14.416 16.797C14.8045 16.654 15.1508 16.4032 15.4837 16.1161C15.8178 15.8279 16.1925 15.4541 16.6244 15.0241L15.5659 13.9612ZM13.898 15.3892C13.8278 15.415 13.7673 15.4252 13.7055 15.4252V16.9252C13.953 16.9252 14.1885 16.8806 14.416 16.797L13.898 15.3892ZM9.5919 8.01231C9.17038 8.43205 8.80303 8.79732 8.51725 9.12306C8.23283 9.44725 7.98307 9.78252 7.83308 10.1551L9.22454 10.7153C9.28008 10.5773 9.39847 10.3931 9.64482 10.1123C9.8898 9.83306 10.2158 9.50786 10.6503 9.07521L9.5919 8.01231ZM7.83308 10.1551C7.73482 10.3991 7.6814 10.6534 7.6814 10.9233H9.1814C9.1814 10.8585 9.19291 10.7938 9.22454 10.7153L7.83308 10.1551Z" fill="#1E6AD2"/>
<path opacity="0.5" d="M8.37537 10.282L8.90538 9.7514L8.90458 9.7506L8.37537 10.282ZM12.1042 6.79423C12.4526 7.01821 12.9166 6.91733 13.1406 6.5689C13.3646 6.22046 13.2637 5.75643 12.9153 5.53245L12.1042 6.79423ZM11.9623 5.81145L11.5567 6.44234L11.5567 6.44234L11.9623 5.81145ZM9.72675 4.66574L9.83626 3.92378L9.72675 4.66574ZM5.46247 7.23382L5.99168 7.76528H5.99168L5.46247 7.23382ZM8.17186 4.86421L8.45899 5.55707L8.17186 4.86421ZM6.01753 8.45276L6.29352 7.75539L6.29352 7.75539L6.01753 8.45276ZM6.12473 8.4956L5.83932 9.18918L6.12473 8.4956ZM7.53954 9.44974L8.06875 8.91829H8.06875L7.53954 9.44974ZM7.45758 9.36868L6.93564 9.90726L7.45758 9.36868ZM5.68811 8.32239L5.41211 9.01976L5.41212 9.01976L5.68811 8.32239ZM14.4015 16.3375L13.8715 16.8681C13.8831 16.8797 13.8951 16.8909 13.9074 16.9017L14.4015 16.3375ZM19.1149 11.706C18.8895 11.3584 18.4251 11.2593 18.0776 11.4847C17.73 11.71 17.6309 12.1744 17.8562 12.522L19.1149 11.706ZM18.8389 12.6591L18.2096 13.0671V13.0671L18.8389 12.6591ZM19.9895 14.8852L20.7313 14.7748L19.9895 14.8852ZM17.4105 19.1315L17.9397 19.663L17.9397 19.663L17.4105 19.1315ZM19.7902 16.4336L20.4822 16.7228L19.7902 16.4336ZM16.3582 19.0091L17.0547 18.7311L16.3582 19.0091ZM15.9456 18.0604L15.2882 18.4214L15.9456 18.0604ZM14.8564 16.7358L15.3856 16.2044L15.3686 16.1874L15.3505 16.1716L14.8564 16.7358ZM15.568 17.4887L16.1581 17.0257L15.568 17.4887ZM17.3374 19.2044L16.8082 18.6729L16.8082 18.6729L17.3374 19.2044ZM14.6869 15.5624C14.3938 15.2697 13.9189 15.27 13.6262 15.5631C13.3335 15.8562 13.3338 16.331 13.6269 16.6238L14.6869 15.5624ZM7.99869 10.9658C8.29176 11.2586 8.76663 11.2583 9.05935 10.9652C9.35206 10.6721 9.35177 10.1973 9.0587 9.90454L7.99869 10.9658ZM12.9153 5.53245L12.3679 5.18055L11.5567 6.44234L12.1042 6.79423L12.9153 5.53245ZM12.3679 5.18056C11.8285 4.83383 11.3885 4.55035 11.0088 4.34602C10.6197 4.13661 10.2491 3.98471 9.83626 3.92378L9.61723 5.4077C9.7928 5.43362 9.99087 5.50161 10.2979 5.66687C10.6144 5.83721 10.998 6.08316 11.5567 6.44234L12.3679 5.18056ZM5.99168 7.76528C6.48192 7.27711 7.00573 6.75572 7.476 6.32724C7.71093 6.11318 7.92355 5.93057 8.10483 5.79102C8.29772 5.64253 8.41272 5.57625 8.45899 5.55707L7.88474 4.17135C7.64864 4.26919 7.40561 4.4363 7.18982 4.60242C6.96243 4.77748 6.71574 4.99068 6.46574 5.21846C5.96615 5.67366 5.41763 6.22006 4.93327 6.70237L5.99168 7.76528ZM9.83626 3.92378C9.1793 3.82681 8.50444 3.91454 7.88474 4.17135L8.45899 5.55707C8.83534 5.40111 9.23645 5.3515 9.61723 5.4077L9.83626 3.92378ZM5.41212 9.01976L5.74153 9.15013L6.29352 7.75539L5.9641 7.62502L5.41212 9.01976ZM7.01033 9.98118L7.84616 10.8135L8.90458 9.7506L8.06875 8.91829L7.01033 9.98118ZM5.74153 9.15013C5.79713 9.17214 5.81858 9.18064 5.83932 9.18918L6.41013 7.80203C6.37786 7.78875 6.34552 7.77597 6.29352 7.75539L5.74153 9.15013ZM8.06875 8.91829C8.02916 8.87887 8.00457 8.85436 7.97953 8.83009L6.93564 9.90726C6.9517 9.92283 6.96804 9.93908 7.01033 9.98118L8.06875 8.91829ZM5.83932 9.18918C6.24743 9.35711 6.61948 9.60087 6.93564 9.90726L7.97953 8.83009C7.52656 8.39112 6.99391 8.04226 6.41013 7.80203L5.83932 9.18918ZM4.93327 6.70237C4.20932 7.42325 4.46543 8.6451 5.41211 9.01976L5.9641 7.62502C6.01823 7.64644 6.03647 7.72067 5.99168 7.76528L4.93327 6.70237ZM17.8562 12.522L18.2096 13.0671L19.4682 12.2511L19.1149 11.706L17.8562 12.522ZM16.8813 18.6001L16.8082 18.6729L17.8666 19.7358L17.9397 19.663L16.8813 18.6001ZM18.2096 13.0671C18.5703 13.6235 18.8172 14.0053 18.9882 14.3203C19.154 14.6259 19.2218 14.8222 19.2476 14.9957L20.7313 14.7748C20.6699 14.3623 20.5169 13.9924 20.3065 13.6047C20.1012 13.2265 19.8164 12.7882 19.4682 12.2511L18.2096 13.0671ZM17.9397 19.663C18.4241 19.1807 18.9728 18.6345 19.4299 18.137C19.6587 17.888 19.8728 17.6423 20.0487 17.4158C20.2154 17.201 20.3836 16.9586 20.4822 16.7228L19.0982 16.1444C19.0792 16.1897 19.013 16.3038 18.8638 16.496C18.7237 16.6764 18.5404 16.8881 18.3254 17.1221C17.8951 17.5903 17.3715 18.1119 16.8813 18.6001L17.9397 19.663ZM19.2476 14.9957C19.3038 15.373 19.2543 15.7708 19.0982 16.1444L20.4822 16.7228C20.7405 16.1045 20.8289 15.4308 20.7313 14.7748L19.2476 14.9957ZM15.3505 16.1716L14.8956 15.7732L13.9074 16.9017L14.3623 17.3L15.3505 16.1716ZM17.0547 18.7311C16.8688 18.2653 16.7541 17.9745 16.603 17.6993L15.2882 18.4214C15.385 18.5975 15.4627 18.7888 15.6616 19.2871L17.0547 18.7311ZM14.3272 17.2673C14.708 17.6464 14.8537 17.7934 14.978 17.9517L16.1581 17.0257C15.9642 16.7787 15.7416 16.5588 15.3856 16.2044L14.3272 17.2673ZM16.603 17.6993C16.4733 17.4631 16.3245 17.2378 16.1581 17.0257L14.978 17.9517C15.0941 18.0996 15.1978 18.2567 15.2882 18.4214L16.603 17.6993ZM16.8082 18.6729C16.8485 18.6328 16.9025 18.6238 16.9398 18.6313C16.9775 18.6388 17.0303 18.6699 17.0547 18.7311L15.6616 19.2871C16.0224 20.1912 17.1923 20.4073 17.8666 19.7358L16.8082 18.6729ZM14.9315 15.8068L14.6869 15.5624L13.6269 16.6238L13.8715 16.8681L14.9315 15.8068ZM7.84536 10.8127L7.99869 10.9658L9.0587 9.90454L8.90538 9.7514L7.84536 10.8127Z" fill="#1E6AD2"/>
<path d="M6.21471 13L4.52297 14.6897C4.09828 15.1139 3.40971 15.1139 2.98502 14.6897C2.56033 14.2655 2.56033 13.5778 2.98502 13.1536L3.13882 13M11.7422 18.5696L10.0505 20.2593C9.62576 20.6835 9.62576 21.3712 10.0505 21.7954C10.4751 22.2195 11.1637 22.2195 11.5884 21.7954L11.7422 21.6418M7.60253 17.1588L5.89296 18.8308" stroke="#1E6AD2" stroke-width="1.5" stroke-linecap="round"/>
<path opacity="0.5" d="M11.2994 17.1858C11.5923 16.8929 11.5923 16.418 11.2994 16.1251C11.0065 15.8322 10.5316 15.8322 10.2387 16.1251L11.2994 17.1858ZM8.13632 18.2275C7.84343 18.5204 7.84343 18.9953 8.13632 19.2882C8.42921 19.5811 8.90409 19.5811 9.19698 19.2882L8.13632 18.2275ZM8.5237 14.4134C8.81659 14.1206 8.81659 13.6457 8.5237 13.3528C8.2308 13.0599 7.75593 13.0599 7.46304 13.3528L8.5237 14.4134ZM5.34613 15.4697C5.05324 15.7626 5.05324 16.2375 5.34613 16.5304C5.63903 16.8232 6.1139 16.8232 6.40679 16.5304L5.34613 15.4697ZM10.2387 16.1251L8.13632 18.2275L9.19698 19.2882L11.2994 17.1858L10.2387 16.1251ZM7.46304 13.3528L5.34613 15.4697L6.40679 16.5304L8.5237 14.4134L7.46304 13.3528Z" fill="#1E6AD2"/>
<path opacity="0.5" d="M13.0397 12.6445C13.3332 12.3523 13.3342 11.8774 13.0419 11.5839C12.7496 11.2904 12.2748 11.2894 11.9813 11.5816L13.0397 12.6445ZM11.2475 14.4292L13.0397 12.6445L11.9813 11.5816L10.1891 13.3663L11.2475 14.4292ZM17.9553 8.01231C17.5881 8.378 16.9913 8.378 16.6241 8.01231L15.5657 9.0752C16.5182 10.0237 18.0612 10.0237 19.0137 9.0752L17.9553 8.01231ZM16.6241 8.01231C16.2586 7.64836 16.2586 7.0596 16.6241 6.69566L15.5657 5.63276C14.6114 6.583 14.6114 8.12496 15.5657 9.0752L16.6241 8.01231ZM16.6241 6.69566C16.9913 6.32996 17.5881 6.32996 17.9553 6.69566L19.0137 5.63276C18.0612 4.68426 16.5182 4.68426 15.5657 5.63276L16.6241 6.69566ZM17.9553 6.69566C18.3208 7.0596 18.3208 7.64836 17.9553 8.01231L19.0137 9.0752C19.968 8.12496 19.968 6.583 19.0137 5.63276L17.9553 6.69566Z" fill="#1E6AD2"/>
</svg>
