<svg width="40" height="40" viewBox="0 0 40 40" fill="none" xmlns="http://www.w3.org/2000/svg">
<path fill-rule="evenodd" clip-rule="evenodd" d="M19.1667 4.58337C11.1126 4.58337 4.58337 11.1126 4.58337 19.1667C4.58337 27.2209 11.1126 33.75 19.1667 33.75C27.2209 33.75 33.75 27.2209 33.75 19.1667C33.75 11.1126 27.2209 4.58337 19.1667 4.58337ZM2.08337 19.1667C2.08337 9.73184 9.73184 2.08337 19.1667 2.08337C28.6016 2.08337 36.25 9.73184 36.25 19.1667C36.25 23.4342 34.6853 27.3363 32.0982 30.3304L37.5506 35.7828C38.0387 36.271 38.0387 37.0624 37.5506 37.5506C37.0624 38.0387 36.271 38.0387 35.7828 37.5506L30.3304 32.0982C27.3363 34.6853 23.4342 36.25 19.1667 36.25C9.73184 36.25 2.08337 28.6016 2.08337 19.1667Z" fill="#237DF7"/>
</svg>
