<svg width="25" height="24" viewBox="0 0 25 24" fill="none" xmlns="http://www.w3.org/2000/svg">
<path fill-rule="evenodd" clip-rule="evenodd" d="M8.31 2H16.691C19.78 2 21.5 3.78 21.5 6.83V17.16C21.5 20.26 19.78 22 16.691 22H8.31C5.27 22 3.5 20.26 3.5 17.16V6.83C3.5 3.78 5.27 2 8.31 2ZM8.58 6.66V6.65H11.569C12 6.65 12.35 7 12.35 7.429C12.35 7.87 12 8.22 11.569 8.22H8.58C8.149 8.22 7.8 7.87 7.8 7.44C7.8 7.01 8.149 6.66 8.58 6.66ZM8.58 12.74H16.42C16.85 12.74 17.2 12.39 17.2 11.96C17.2 11.53 16.85 11.179 16.42 11.179H8.58C8.149 11.179 7.8 11.53 7.8 11.96C7.8 12.39 8.149 12.74 8.58 12.74ZM8.58 17.31H16.42C16.819 17.27 17.12 16.929 17.12 16.53C17.12 16.12 16.819 15.78 16.42 15.74H8.58C8.28 15.71 7.99 15.85 7.83 16.11C7.67 16.36 7.67 16.69 7.83 16.95C7.99 17.2 8.28 17.35 8.58 17.31Z" fill="white"/>
</svg>
