<svg width="24" height="24" viewBox="0 0 24 24" fill="none" xmlns="http://www.w3.org/2000/svg">
<path fill-rule="evenodd" clip-rule="evenodd" d="M12 1.99999C6.477 1.99999 2 6.47699 2 12C1.99816 13.4735 2.32295 14.9291 2.951 16.262L2.021 20.799C1.98789 20.961 1.99546 21.1287 2.04304 21.287C2.09062 21.4454 2.17672 21.5894 2.29364 21.7064C2.41055 21.8233 2.55463 21.9094 2.71298 21.957C2.87133 22.0045 3.03901 22.0121 3.201 21.979L7.738 21.049C9.032 21.659 10.478 21.999 12 21.999C17.523 21.999 22 17.523 22 11.999C22 6.47699 17.523 1.99899 12 1.99899" fill="white"/>
</svg>
