<svg width="24" height="24" viewBox="0 0 24 24" fill="none" xmlns="http://www.w3.org/2000/svg">
<path fill-rule="evenodd" clip-rule="evenodd" d="M12 1.99999C6.47699 1.99999 1.99999 6.47699 1.99999 12C1.99815 13.4735 2.32294 14.9291 2.95099 16.262L2.02099 20.799C1.98788 20.961 1.99545 21.1287 2.04303 21.287C2.09061 21.4454 2.17671 21.5894 2.29363 21.7064C2.41054 21.8233 2.55462 21.9094 2.71297 21.957C2.87132 22.0045 3.039 22.0121 3.20099 21.979L7.73799 21.049C9.03199 21.659 10.478 21.999 12 21.999C17.523 21.999 22 17.523 22 11.999C22 6.47699 17.523 1.99899 12 1.99899" fill="#DBDBDB"/>
</svg>
