<svg width="12" height="12" viewBox="0 0 12 12" fill="none" xmlns="http://www.w3.org/2000/svg">
<path fill-rule="evenodd" clip-rule="evenodd" d="M5.99996 11.8334C2.77996 11.8334 0.166626 9.22589 0.166626 6.00006C0.166626 2.78006 2.77996 0.166725 5.99996 0.166725C9.22579 0.166725 11.8333 2.78006 11.8333 6.00006C11.8333 9.22589 9.22579 11.8334 5.99996 11.8334ZM7.86079 8.16422C7.93079 8.20506 8.00663 8.22839 8.08829 8.22839C8.23413 8.22839 8.37996 8.15256 8.46163 8.01256C8.58413 7.80839 8.51996 7.54006 8.30996 7.41173L6.23329 6.17506V3.48006C6.23329 3.23506 6.03496 3.04256 5.79579 3.04256C5.55663 3.04256 5.35829 3.23506 5.35829 3.48006V6.42589C5.35829 6.57756 5.43996 6.71756 5.57413 6.79922L7.86079 8.16422Z" fill="#666666"/>
</svg>
