<svg width="15" height="16" viewBox="0 0 15 16" fill="none" xmlns="http://www.w3.org/2000/svg">
<path id="Vector" d="M3.35612 1.24003C2.70274 0.586656 1.64341 0.586656 0.990032 1.24003C0.336656 1.89341 0.336656 2.95274 0.990032 3.60612L5.38393 8.00002L0.99008 12.3939C0.336703 13.0473 0.336703 14.1066 0.99008 14.76C1.64346 15.4133 2.70279 15.4133 3.35617 14.76L7.75002 10.3661L12.1438 14.7599C12.7972 15.4133 13.8565 15.4133 14.5099 14.7599C15.1633 14.1065 15.1633 13.0472 14.5099 12.3938L10.1161 8.00002L14.51 3.60616C15.1633 2.95279 15.1633 1.89346 14.51 1.24008C13.8566 0.586701 12.7973 0.586701 12.1439 1.24008L7.75002 5.63393L3.35612 1.24003Z" fill="#237DF7"/>
</svg>
