<svg width="18" height="22" viewBox="0 0 18 22" fill="none" xmlns="http://www.w3.org/2000/svg">
<path id="Vector" fill-rule="evenodd" clip-rule="evenodd" d="M7.19043 0.0299993H11.3002C12.6678 0.0299787 13.7701 0.0299621 14.6371 0.146523C15.5372 0.267539 16.295 0.526433 16.897 1.12835C17.4989 1.73027 17.7578 2.48814 17.8788 3.38825C17.9953 4.25522 17.9953 5.35754 17.9953 6.72513V14.8349C17.9953 16.2025 17.9953 17.3048 17.8788 18.1718C17.7578 19.0719 17.4989 19.8297 16.897 20.4317C16.295 21.0336 15.5372 21.2925 14.6371 21.4135C13.7701 21.53 12.6678 21.53 11.3002 21.53H7.19043C5.82284 21.53 4.72052 21.53 3.85355 21.4135C2.95344 21.2925 2.19557 21.0336 1.59365 20.4317C0.991736 19.8297 0.732843 19.0719 0.611826 18.1718C0.57313 17.8839 0.547282 17.5702 0.530017 17.2294C0.490937 17.106 0.483327 16.9712 0.514063 16.8368C0.495282 16.2449 0.495292 15.5791 0.495303 14.8349V6.72512C0.495282 5.35754 0.495266 4.25522 0.611826 3.38825C0.732843 2.48814 0.991736 1.73027 1.59365 1.12835C2.19557 0.526433 2.95344 0.267539 3.85355 0.146523C4.72052 0.0299621 5.82284 0.0299787 7.19043 0.0299993ZM2.02206 17.0291C2.03726 17.3829 2.06109 17.694 2.09845 17.9719C2.1971 18.7057 2.37755 19.0942 2.65431 19.371C2.93108 19.6478 3.31965 19.8282 4.05342 19.9269C4.80877 20.0284 5.80989 20.03 7.2453 20.03H11.2453C12.6807 20.03 13.6818 20.0284 14.4372 19.9269C15.171 19.8282 15.5595 19.6478 15.8363 19.371C16.0326 19.1747 16.1805 18.9221 16.285 18.53H5.2453C4.83109 18.53 4.4953 18.1942 4.4953 17.78C4.4953 17.3658 4.83109 17.03 5.2453 17.03H16.4685C16.4871 16.599 16.4928 16.1046 16.4945 15.53H5.14308C4.16482 15.53 3.82282 15.5364 3.56074 15.6067C2.84142 15.7994 2.26798 16.3341 2.02206 17.0291ZM16.4953 14.03H5.14308C5.10391 14.03 5.06531 14.03 5.02728 14.03C4.20932 14.0297 3.65117 14.0295 3.17251 14.1578C2.74453 14.2725 2.34754 14.4598 1.9953 14.7059V6.78C1.9953 5.34458 1.9969 4.34347 2.09845 3.58812C2.1971 2.85434 2.37755 2.46577 2.65431 2.18901C2.93108 1.91225 3.31965 1.7318 4.05342 1.63315C4.80877 1.53159 5.80989 1.53 7.2453 1.53H11.2453C12.6807 1.53 13.6818 1.53159 14.4372 1.63315C15.171 1.7318 15.5595 1.91225 15.8363 2.18901C16.1131 2.46577 16.2935 2.85434 16.3922 3.58812C16.4937 4.34347 16.4953 5.34458 16.4953 6.78V14.03ZM4.4953 5.78C4.4953 5.36579 4.83109 5.03 5.2453 5.03H13.2453C13.6595 5.03 13.9953 5.36579 13.9953 5.78C13.9953 6.19421 13.6595 6.53 13.2453 6.53H5.2453C4.83109 6.53 4.4953 6.19421 4.4953 5.78ZM4.4953 9.28C4.4953 8.86579 4.83109 8.53 5.2453 8.53H10.2453C10.6595 8.53 10.9953 8.86579 10.9953 9.28C10.9953 9.69421 10.6595 10.03 10.2453 10.03H5.2453C4.83109 10.03 4.4953 9.69421 4.4953 9.28Z" fill="white"/>
</svg>
