<svg xmlns="http://www.w3.org/2000/svg" width="54" height="54" viewBox="0 0 54 54" fill="none">
    <path d="M21.6213 18.9648L18.877 35.0698H23.2661L26.0128 18.9648H21.6213Z" fill="white" />
    <path
        d="M15.1969 18.9829L10.898 29.966L10.4397 28.3076C9.59185 26.3095 7.18502 23.4398 4.35938 21.6313L8.29022 35.0619L12.9345 35.054L19.8468 18.9795L15.1969 18.9829Z"
        fill="white" />
    <path
        d="M8.77384 20.1355C8.51871 19.1545 7.77928 18.8621 6.86148 18.8271H0.0564452L0 19.1478C5.29569 20.4325 8.79981 23.5279 10.2538 27.2499L8.77384 20.1355Z"
        fill="white" />
    <path
        d="M34.9094 22.0516C36.3454 22.0291 37.3863 22.3429 38.1945 22.668L38.5908 22.8543L39.1846 19.3637C38.3153 19.0375 36.9528 18.6875 35.2526 18.6875C30.9154 18.6875 27.8583 20.8719 27.8346 24.0024C27.8064 26.3155 30.0123 27.607 31.6785 28.378C33.3888 29.1682 33.9623 29.6706 33.9544 30.3762C33.9408 31.4543 32.5907 31.9487 31.3297 31.9487C29.572 31.9487 28.6384 31.706 27.1968 31.1054L26.6312 30.8481L26.0137 34.4526C27.041 34.9031 28.9364 35.2903 30.9041 35.3106C35.5179 35.3106 38.5163 33.1521 38.5479 29.8072C38.5671 27.9773 37.3964 26.5808 34.8598 25.435C33.3245 24.6876 32.3852 24.1909 32.3942 23.4368C32.3942 22.7674 33.1912 22.0516 34.9094 22.0516Z"
        fill="white" />
    <path
        d="M50.4482 18.9824H47.057C46.0037 18.9824 45.2202 19.2692 44.7574 20.319L38.2402 35.0783H42.8496C42.8496 35.0783 43.6014 33.0937 43.7719 32.6591C44.2765 32.6591 48.7548 32.6659 49.3927 32.6659C49.5236 33.2281 49.9278 35.0783 49.9278 35.0783H53.9997L50.4482 18.9824ZM45.0351 29.3627C45.3964 28.4381 46.7838 24.8618 46.7838 24.8618C46.7601 24.9058 47.1416 23.9304 47.3686 23.3242L47.6643 24.7127C47.6643 24.7127 48.5054 28.5578 48.6815 29.3627H45.0351Z"
        fill="white" />
</svg>