<svg width="12" height="12" viewBox="0 0 12 12" fill="none" xmlns="http://www.w3.org/2000/svg">
<path d="M1 3.25C1 2.18934 1 1.65901 1.3295 1.3295C1.65901 1 2.18934 1 3.25 1C4.31066 1 4.84099 1 5.1705 1.3295C5.5 1.65901 5.5 2.18934 5.5 3.25C5.5 4.31066 5.5 4.84099 5.1705 5.1705C4.84099 5.5 4.31066 5.5 3.25 5.5C2.18934 5.5 1.65901 5.5 1.3295 5.1705C1 4.84099 1 4.31066 1 3.25Z" fill="#237DF7"/>
<path d="M6.5 8.75C6.5 7.68934 6.5 7.15901 6.8295 6.8295C7.15901 6.5 7.68934 6.5 8.75 6.5C9.81066 6.5 10.341 6.5 10.6705 6.8295C11 7.15901 11 7.68934 11 8.75C11 9.81066 11 10.341 10.6705 10.6705C10.341 11 9.81066 11 8.75 11C7.68934 11 7.15901 11 6.8295 10.6705C6.5 10.341 6.5 9.81066 6.5 8.75Z" fill="#237DF7"/>
<path d="M1 8.75C1 7.68934 1 7.15901 1.3295 6.8295C1.65901 6.5 2.18934 6.5 3.25 6.5C4.31066 6.5 4.84099 6.5 5.1705 6.8295C5.5 7.15901 5.5 7.68934 5.5 8.75C5.5 9.81066 5.5 10.341 5.1705 10.6705C4.84099 11 4.31066 11 3.25 11C2.18934 11 1.65901 11 1.3295 10.6705C1 10.341 1 9.81066 1 8.75Z" fill="#237DF7"/>
<path d="M6.5 3.25C6.5 2.18934 6.5 1.65901 6.8295 1.3295C7.15901 1 7.68934 1 8.75 1C9.81066 1 10.341 1 10.6705 1.3295C11 1.65901 11 2.18934 11 3.25C11 4.31066 11 4.84099 10.6705 5.1705C10.341 5.5 9.81066 5.5 8.75 5.5C7.68934 5.5 7.15901 5.5 6.8295 5.1705C6.5 4.84099 6.5 4.31066 6.5 3.25Z" fill="#237DF7"/>
</svg>
