<svg xmlns="http://www.w3.org/2000/svg" width="54" height="54" viewBox="0 0 54 54" fill="none">
    <path
        d="M30.7837 53.5365C30.1659 52.9187 30.1659 51.917 30.7837 51.2992C44.1823 37.9006 44.1823 16.0993 30.7837 2.70069C30.1659 2.08285 30.1659 1.08121 30.7837 0.463377C31.4015 -0.154459 32.4032 -0.154459 33.021 0.463377C36.6029 4.04531 39.3765 8.2225 41.2648 12.8788C43.0882 17.3755 44.0128 22.1266 44.0128 27.0001C44.0128 31.8734 43.0882 36.6245 41.2648 41.1213C39.3765 45.7776 36.6029 49.9548 33.021 53.5367C32.4033 54.1544 31.4015 54.1544 30.7837 53.5365Z"
        fill="black" />
    <path
        d="M24.0063 46.7586C23.3885 46.1408 23.3885 45.1391 24.0063 44.5213C33.6675 34.8602 33.6675 19.1402 24.0063 9.47901C23.3885 8.86117 23.3885 7.85953 24.0063 7.2417C24.6242 6.62386 25.6258 6.62386 26.2437 7.2417C31.5213 12.5194 34.4278 19.5364 34.4279 27.0002C34.4279 34.464 31.5213 41.4811 26.2437 46.7587C25.6258 47.3764 24.6242 47.3764 24.0063 46.7586Z"
        fill="black" />
    <path
        d="M17.228 39.9807C16.6102 39.3629 16.6102 38.3613 17.228 37.7434C23.1518 31.8197 23.1518 22.1811 17.228 16.2573C16.6102 15.6395 16.6102 14.6379 17.228 14.02C17.8459 13.4022 18.8475 13.4022 19.4653 14.02C26.6228 21.1774 26.6228 32.8233 19.4653 39.9807C18.8476 40.5986 17.8459 40.5986 17.228 39.9807Z"
        fill="black" />
    <path
        d="M10.4497 33.2019C9.83187 32.584 9.83187 31.5824 10.4497 30.9645C12.636 28.7783 12.636 25.2209 10.4497 23.0347C9.83187 22.4168 9.83187 21.4152 10.4497 20.7974C11.0675 20.1795 12.0692 20.1795 12.687 20.7974C16.1069 24.2173 16.1069 29.7819 12.687 33.2019C12.0693 33.8197 11.0675 33.8197 10.4497 33.2019Z"
        fill="black" />
</svg>